<?xml version="1.0" standalone="no"?>
<!DOCTYPE svg PUBLIC "-//W3C//DTD SVG 1.1//EN" "http://www.w3.org/Graphics/SVG/1.1/DTD/svg11.dtd" >
<svg xmlns="http://www.w3.org/2000/svg" xmlns:xlink="http://www.w3.org/1999/xlink" version="1.1">
<metadata></metadata>
<defs>
<font id="maliregular" horiz-adv-x="0" >
<font-face units-per-em="2048" ascent="1638" descent="-410" />
<missing-glyph horiz-adv-x="655" />
<glyph unicode="fi" horiz-adv-x="1423" d="M41 760q0 29 14.5 45t53.5 18l122 2q-4 201 -4 262q0 197 77 313t235 116q284 0 284 -324q0 -74 -75 -74q-80 0 -80 70q0 92 -25 143t-102 51q-88 0 -122 -73.5t-34 -223.5q0 -158 2 -256h162q29 0 45 -17t16 -50q0 -55 -61 -57l-160 -5q4 -385 4 -630q0 -37 -21.5 -53.5 t-54.5 -16.5q-37 0 -55 18.5t-18 49.5q0 188 -8 516l-3 112l-122 -2q-37 0 -53.5 16.5t-16.5 49.5zM1014 1286q0 55 37 91t94 36q55 0 91 -35t36 -90t-38 -92t-93 -37q-53 0 -90 36t-37 91zM1030 80l21 870q0 35 21.5 53.5t58.5 18.5t58.5 -18.5t21.5 -55.5l-21 -868 q-2 -33 -23.5 -50.5t-56.5 -17.5q-37 0 -58.5 18.5t-21.5 49.5z" />
<glyph unicode="fl" horiz-adv-x="1310" d="M41 760q0 29 14.5 45t53.5 18l122 2q-4 201 -4 262q0 197 77 313t235 116q284 0 284 -324q0 -74 -75 -74q-80 0 -80 70q0 92 -25 143t-102 51q-88 0 -122 -73.5t-34 -223.5q0 -158 2 -256h162q29 0 45 -17t16 -50q0 -55 -61 -57l-160 -5q4 -385 4 -630q0 -37 -21.5 -53.5 t-54.5 -16.5q-37 0 -55 18.5t-18 49.5q0 188 -8 516l-3 112l-122 -2q-37 0 -53.5 16.5t-16.5 49.5zM953 1548q0 35 22.5 54.5t59.5 19.5q35 0 55 -19.5t20 -52.5l11 -1460q0 -35 -21.5 -53.5t-56.5 -18.5t-56.5 18.5t-21.5 53.5z" />
<glyph unicode="&#xe24;&#xe45;" horiz-adv-x="1972" d="M86 877q0 61 69.5 142t195.5 139.5t288 58.5q164 0 280.5 -62.5t155.5 -161.5q31 100 112 162t218 62q209 0 293 -122t84 -354l-2 -548q0 -147 -4 -414l-2 -338q0 -27 -21.5 -42t-54.5 -15q-35 0 -58.5 15t-23.5 42l2 336q4 266 4 424l2 350q2 74 2 209q0 182 -54 256 t-169 74q-117 0 -180.5 -75t-63.5 -218l2 -596l-2 -752q0 -33 -23.5 -49t-58.5 -16q-25 0 -48 16t-23 51l2 426q2 115 2 324q0 176 -2 266l-2 332q0 84 -46.5 149.5t-130.5 103.5t-192 38q-123 0 -211 -37t-132 -85t-44 -81l199 -64q25 -8 38 -33.5t11 -62.5l-19 -297 q37 16 78 16q98 0 161.5 -59t63.5 -160q0 -100 -65.5 -163.5t-171.5 -63.5q-111 0 -170.5 62.5t-59.5 160.5q0 39 19 324l10 170q0 18 -26.5 30.5t-79.5 28.5q-74 23 -113 44.5t-39 56.5zM422 215q0 -55 35 -87t84 -32q53 0 92 36t39 95q0 58 -33 85.5t-92 27.5t-92 -37 t-33 -88z" />
<glyph unicode="&#xe26;&#xe45;" horiz-adv-x="1964" d="M76 219q0 102 65.5 161.5t163.5 61.5q70 0 105 -28q4 55 4 137q0 96 -6.5 142t-26.5 52q-45 12 -68 17q-92 23 -135 42t-43 56q0 66 74 154t205 151.5t293 63.5q131 0 227 -59.5t137 -143.5q33 86 118 144.5t202 58.5q208 0 295.5 -123t87.5 -393l-2 -647l-3 -621 q0 -29 -22.5 -45t-54.5 -16q-33 0 -56.5 16t-23.5 43l2 301q4 201 4 317l2 652q0 209 -50 299t-181 90q-117 0 -177.5 -79t-60.5 -206v-756v-616q0 -27 -20.5 -44t-53.5 -17t-56.5 17t-23.5 44l2 618v750q0 125 -76.5 207t-215.5 82q-115 0 -209.5 -41t-149.5 -94.5 t-53 -79.5l199 -58q45 -14 60 -82.5t15 -205.5q0 -63 -8 -175t-18 -169q-37 -197 -244 -197q-106 0 -164.5 62.5t-58.5 156.5zM184 217q0 -51 34 -85t85 -34q55 0 90 32t35 87t-31.5 89t-91.5 34q-51 0 -86 -34t-35 -89z" />
<glyph />
<glyph />
<glyph unicode=" "  horiz-adv-x="655" />
<glyph unicode="&#x09;" horiz-adv-x="655" />
<glyph unicode="&#xa0;" horiz-adv-x="655" />
<glyph unicode="!" horiz-adv-x="542" d="M145 127q0 47 37 84t88 37q49 0 88 -37t39 -84q0 -49 -40 -88t-87 -39q-51 0 -88 38t-37 89zM211 1401q0 33 16.5 51t44.5 18q27 0 42.5 -18t15.5 -51l8 -975q0 -33 -16.5 -54.5t-42.5 -21.5q-27 0 -41.5 17.5t-14.5 50.5z" />
<glyph unicode="&#x22;" horiz-adv-x="722" d="M164 1028q0 104 2 166l2 229q0 16 17.5 27.5t43.5 11.5q29 0 46.5 -11t17.5 -28l-2 -399q0 -20 -18.5 -32.5t-47.5 -12.5q-26 0 -43.5 13.5t-17.5 35.5zM430 1028q0 104 2 166l2 229q0 16 17.5 27.5t44.5 11.5q29 0 46 -11t17 -28l-2 -399q0 -20 -18.5 -32.5t-46.5 -12.5 q-27 0 -44.5 13.5t-17.5 35.5z" />
<glyph unicode="#" horiz-adv-x="1259" d="M164 344q0 27 18.5 44.5t46.5 17.5h105l51 382h-84q-31 0 -48 14.5t-17 43.5t17 45t48 16l100 -2l45 320q8 63 64 63q57 0 57 -57l-2 -17l-43 -309l322 -4l51 342q4 25 21.5 38t37.5 13q27 0 44.5 -18.5t11.5 -52.5l-47 -324h67q31 0 48.5 -15.5t17.5 -43.5 q0 -57 -66 -58h-86l-55 -374h119q29 0 45 -16.5t16 -41.5q0 -27 -17.5 -44t-43.5 -17h-138l-34 -236q-8 -53 -66 -53q-25 0 -41 16.5t-12 34.5l35 238h-316l-33 -236q-8 -55 -61 -55q-31 0 -45 20.5t-10 53.5l30 217h-88q-29 0 -47 14t-18 41zM453 406l317 2l55 376l-319 2z " />
<glyph unicode="$" horiz-adv-x="1144" d="M123 1047q0 113 54 200.5t149.5 138t212.5 58.5v176q0 14 13 25.5t32 11.5q20 0 33.5 -10.5t13.5 -22.5v-180q113 -10 201 -64.5t137 -138.5t49 -180q0 -51 -12.5 -69.5t-55.5 -18.5q-39 0 -55 14t-18 55q0 100 -62.5 183.5t-183.5 93.5v-473v-76q106 -31 188 -69.5 t144.5 -118.5t62.5 -205q0 -164 -108.5 -263.5t-292.5 -109.5v-178q0 -41 -43 -41q-20 0 -33.5 8t-13.5 23l2 190q-127 12 -220.5 74.5t-142.5 159t-49 204.5q0 41 17.5 60.5t56.5 19.5q59 0 69 -71q6 -127 77 -210t192 -102v82q4 311 4 436q-115 33 -198 68t-151.5 113 t-68.5 207zM272 1047q0 -99 70 -155t199 -97v28q0 330 -2 492q-125 -14 -196 -86t-71 -182zM627 137q88 4 143 40t79.5 86t24.5 97q0 109 -62 170.5t-181 102.5q0 -258 -4 -496z" />
<glyph unicode="%" horiz-adv-x="1751" d="M205 1163q0 117 83 194t208 77q86 0 149.5 -38t97 -101.5t33.5 -137.5q0 -117 -80 -193.5t-202 -76.5q-82 0 -148.5 37t-103.5 100t-37 139zM342 1159q0 -70 44 -111.5t112 -41.5q63 0 104 40.5t41 108.5q0 72 -43 116t-106 44q-61 0 -106.5 -42t-45.5 -114zM494 57 q0 10 12 39l567 1387q18 45 76 45q33 0 55.5 -16.5t22.5 -41.5q0 -12 -15 -49l-559 -1374q-23 -53 -80 -53q-34 0 -56.5 18.5t-22.5 44.5zM973 381q0 117 82 193.5t207 76.5q86 0 150.5 -39t99 -103.5t34.5 -135.5q0 -115 -81 -193t-203 -78q-82 0 -148.5 38t-103.5 101.5 t-37 139.5zM1112 377q0 -68 41 -112t109 -44q67 0 108 43t41 109t-41 114t-108 48q-66 0 -108 -44.5t-42 -113.5z" />
<glyph unicode="&#x26;" horiz-adv-x="1478" d="M176 430q0 104 56.5 209.5t142.5 175.5q-82 41 -130 120t-48 171q0 90 46 161.5t126 111.5t176 40q154 0 253 -89t99 -238q0 -217 -270 -301q76 -150 153.5 -252.5t182.5 -184.5l32 -24q72 94 72 194q0 41 -10 89.5t-23 64.5q-10 14 -10 24q0 23 23.5 41.5t52.5 18.5 q45 0 69 -39q20 -33 32.5 -89t12.5 -110q0 -143 -94 -264l201 -92q41 -18 41 -53q0 -27 -18.5 -45.5t-47.5 -18.5q-16 0 -53 17q-160 76 -211 102q-86 -68 -193.5 -106.5t-215.5 -38.5q-139 0 -240.5 59t-154 152.5t-52.5 193.5zM322 426q0 -68 33.5 -132.5t102 -106.5 t167.5 -42q73 0 147 27t135 72q-16 10 -49 35q-102 80 -192.5 199.5t-153.5 273.5q-104 -53 -147 -148.5t-43 -177.5zM342 1100q0 -82 50 -138.5t147 -62.5q102 18 161.5 56t59.5 135q0 96 -63.5 153t-147.5 57q-78 0 -142.5 -54t-64.5 -146z" />
<glyph unicode="'" horiz-adv-x="452" d="M162 1028q0 104 2 166l2 229q0 16 17.5 27.5t43.5 11.5q29 0 46.5 -11t17.5 -28l-2 -399q0 -20 -18.5 -32.5t-47.5 -12.5q-26 0 -43.5 13.5t-17.5 35.5z" />
<glyph unicode="(" horiz-adv-x="696" d="M102 623q0 182 44 359t130 318.5t205 215.5q20 14 43 14q27 0 48.5 -17.5t21.5 -46.5q0 -23 -11.5 -36t-28.5 -26t-30 -24q-143 -113 -212.5 -316.5t-69.5 -440.5q0 -201 47 -346.5t109.5 -231.5t146.5 -172q39 -43 39 -74q0 -25 -20.5 -43t-41.5 -18q-22 0 -32.5 2 t-22.5 14q-174 147 -269.5 376.5t-95.5 492.5z" />
<glyph unicode=")" horiz-adv-x="696" d="M102 -199q0 23 12.5 38.5t30 27.5t27.5 20q143 115 213 319t70 439q0 201 -47.5 346.5t-109.5 232.5t-146 171q-39 39 -39 73q0 25 20.5 43.5t40.5 18.5q23 0 32 -2t21 -15q174 -152 270.5 -380t96.5 -488q0 -276 -101.5 -526t-277.5 -367q-20 -14 -43 -14 q-27 0 -48.5 17.5t-21.5 45.5z" />
<glyph unicode="*" horiz-adv-x="1017" d="M143 1194q0 18 15.5 35.5t34.5 17.5q18 0 36 -12l228 -123q0 123 -1 177t-1 67q0 55 57 55q31 0 44 -13.5t13 -41.5l2 -248l203 117q39 16 51 16q20 0 34.5 -18.5t14.5 -36.5q0 -27 -36 -45l-244 -125l252 -129q24 -12 24 -43q0 -23 -14 -40.5t-35 -17.5q-14 0 -39 11 l-209 118l2 -223q0 -20 -17 -33.5t-42 -13.5t-40 12.5t-15 34.5q0 123 -2 221l-193 -104q-25 -10 -35 -10q-20 0 -35.5 16t-15.5 41q0 27 23 37l229 123l-262 135q-27 14 -27 43z" />
<glyph unicode="+" horiz-adv-x="1105" d="M94 645q0 61 66 62l332 -2v296q0 61 63 62q35 0 48 -15.5t13 -46.5v-299l326 -2q43 0 57.5 -15t14.5 -48q0 -59 -74 -59l-324 4v-314q0 -33 -13 -51t-48 -18q-37 0 -49 17t-12 56v310q-106 2 -336 2q-63 0 -64 61z" />
<glyph unicode="," horiz-adv-x="614" d="M127 158q0 63 46 108t114 45q88 0 137 -68.5t49 -179.5q0 -86 -39 -161.5t-104.5 -120.5t-139.5 -45q-27 0 -42 13t-15 36q0 20 12.5 34.5t28.5 14.5q84 0 144.5 65.5t66.5 147.5q-41 -41 -109 -41q-66 0 -107.5 44t-41.5 108zM211 158q0 -33 18.5 -53.5t51.5 -20.5 q34 0 55.5 22.5t21.5 55.5q0 29 -21.5 48t-55.5 19q-31 0 -50.5 -21.5t-19.5 -49.5z" />
<glyph unicode="-" horiz-adv-x="864" d="M82 762q0 31 16.5 49t42.5 18q188 -4 252 -4q176 0 312 11q78 6 77 -72q0 -29 -21.5 -49.5t-55.5 -22.5q-219 -6 -568 -6q-24 0 -39.5 22.5t-15.5 53.5z" />
<glyph unicode="." horiz-adv-x="606" d="M180 129q0 55 37 92t88 37q47 0 84 -39t37 -90q0 -49 -38 -85t-89 -36q-53 0 -86 34t-33 87z" />
<glyph unicode="/" horiz-adv-x="1075" d="M184 37q0 18 11 45l555 1677q8 25 23 34t40 9t46.5 -13t27.5 -36q4 -16 4 -24q0 -14 -8 -35l-555 -1667q-18 -53 -62 -54q-33 0 -50 10.5t-28 34.5q-4 12 -4 19z" />
<glyph unicode="0" horiz-adv-x="1263" d="M66 647q0 172 62 334t189 266.5t312 104.5q188 0 316 -101.5t190.5 -263.5t62.5 -340q0 -166 -67.5 -308t-197.5 -227t-308 -85q-179 0 -305.5 87t-190 229t-63.5 304zM223 647q0 -135 47 -246.5t137.5 -177t213.5 -65.5q131 0 226 64.5t144 176t49 248.5q0 152 -49 283 t-141 211t-217 80q-127 0 -220.5 -81t-141.5 -213t-48 -280z" />
<glyph unicode="1" horiz-adv-x="915" d="M174 969q0 12 8 28.5t21 30.5q74 86 129 157.5t76 98.5l38 51q14 23 39 33t50 10q43 0 71.5 -23.5t28.5 -64.5l2 -1218q0 -31 -20.5 -49.5t-59.5 -18.5q-72 0 -72 68v1089q-111 -143 -194 -239q-6 -6 -19.5 -10.5t-25.5 -4.5q-33 0 -52.5 16.5t-19.5 45.5z" />
<glyph unicode="2" horiz-adv-x="1140" d="M117 74q25 150 141.5 286t329.5 285q252 178 252 387q0 123 -80 201t-207 78q-80 0 -141.5 -40t-93 -104.5t-31.5 -138.5q-2 -31 -20.5 -45t-57.5 -14q-41 0 -58.5 20.5t-17.5 59.5q0 102 55.5 193t155.5 145.5t227 54.5t224.5 -54.5t150.5 -148.5t53 -209 q0 -272 -321 -495q-135 -90 -238.5 -191.5t-140.5 -196.5q80 4 260 5q147 0 381 -7q35 0 56.5 -18t21.5 -47q0 -31 -22.5 -49.5t-55.5 -18.5q-25 0 -115 4q-203 6 -266 7q-223 0 -379 -9q-31 0 -49 16.5t-14 43.5z" />
<glyph unicode="3" horiz-adv-x="1200" d="M82 512q0 86 78 86t78 -72q0 -391 403 -391q104 0 179 35t113 90t38 119q0 141 -78 213t-250 72q-63 0 -63 61q0 35 13 53.5t48 18.5q295 0 295 235q0 59 -32 114.5t-90 90.5t-136 35q-76 0 -141.5 -33t-104.5 -91t-39 -132q0 -12 6.5 -41t6.5 -43q0 -25 -19.5 -40 t-56.5 -15q-55 0 -74 41q-18 53 -18 110q0 104 58 190.5t158.5 134.5t219.5 48q111 0 208 -48t155.5 -132t58.5 -189q0 -104 -51.5 -183t-139.5 -116q103 -41 160 -134t57 -214q0 -90 -53 -178t-158.5 -145.5t-253.5 -57.5q-575 0 -575 508z" />
<glyph unicode="4" horiz-adv-x="1202" d="M39 510q0 27 14 53q137 268 265 467t294 365q18 18 50 18q31 0 51 -19.5t20 -45.5q0 -31 -39 -72q-158 -164 -280.5 -346t-188.5 -344q-4 -12 -4 -17q0 -10 27 -16q100 -14 287 -14q78 0 221 4l18 463q0 68 72 67q41 0 61.5 -21.5t18.5 -58.5l-19 -442q135 12 205 20 q29 4 48.5 -14t19.5 -53q0 -29 -13.5 -46.5t-48.5 -21.5q-109 -12 -217 -18l-14 -355q0 -31 -20.5 -50t-57.5 -19q-39 0 -57.5 20.5t-16.5 55.5l15 342q-90 -2 -291 -2q-223 0 -363 34q-57 14 -57 66z" />
<glyph unicode="5" horiz-adv-x="1193" d="M106 459q0 37 20.5 56.5t57.5 19.5q82 0 82 -70q2 -158 69.5 -243t229.5 -85q172 0 267.5 81t95.5 245q0 172 -87 269t-255 97q-59 0 -112.5 -10t-162.5 -37q-12 -4 -32 -4q-35 0 -58.5 19.5t-21.5 50.5l4 53q18 340 20 512q180 -8 410 -8q78 0 192 4q94 4 133 4 q61 0 62 -63q0 -33 -18.5 -51.5t-51.5 -18.5q-80 0 -125 -2l-192 -2q-111 0 -217 4q-14 2 -41 2l-19 -336v-6q0 -20 19 -20l20 4q72 18 123 28.5t107 10.5q143 0 248.5 -64.5t159.5 -178.5t54 -259q0 -219 -140 -340t-378 -121q-231 0 -347 123t-116 336z" />
<glyph unicode="6" horiz-adv-x="1236" d="M86 627q0 227 69.5 400t200.5 268.5t310 95.5q152 0 252 -76t172 -209q14 -29 14 -45q0 -29 -24.5 -48.5t-51.5 -19.5q-23 0 -36 11.5t-36 42.5q-41 70 -74.5 111.5t-91 72.5t-139.5 31q-195 0 -305 -164t-117 -459q55 90 167 144.5t235 54.5q155 0 265 -62.5t164 -163 t54 -217.5q0 -180 -133 -285.5t-356 -105.5q-266 0 -402.5 156.5t-136.5 466.5zM289 426q0 -133 88 -213t256 -80q164 0 243.5 76t79.5 188q0 76 -33.5 147.5t-105.5 118t-180 46.5q-141 0 -244.5 -70t-103.5 -213z" />
<glyph unicode="7" horiz-adv-x="1138" d="M47 1298q0 45 59 68q63 20 172 39.5t230 19.5q416 0 416 -311q0 -125 -64 -354l105 2q79 0 79 -68q0 -31 -17 -49t-52 -18q-102 0 -156 -2q-96 -287 -215 -582q-8 -20 -31.5 -31.5t-48.5 -11.5q-35 0 -57.5 18.5t-22.5 42.5q0 14 7 27q92 207 198 535q-49 -2 -149 -2 q-74 0 -74 65q0 31 20.5 49.5t53.5 18.5q133 0 194 2q72 223 72 344q0 98 -54.5 145t-201.5 47q-96 0 -187.5 -15t-193.5 -40q-6 -2 -20 -2q-29 0 -45.5 17.5t-16.5 45.5z" />
<glyph unicode="8" horiz-adv-x="1239" d="M66 463q0 96 52 179t137 141.5t183 82.5q-68 31 -112.5 91.5t-44.5 142.5q0 96 48 166.5t127 107.5t169 37q145 0 238 -83t93 -220q0 -82 -37.5 -142.5t-101.5 -97.5q164 -49 256 -156.5t92 -262.5q0 -137 -69.5 -237.5t-192.5 -154t-278 -53.5q-158 0 -286 55.5 t-200.5 160t-72.5 243.5zM219 467q0 -150 107.5 -243t300.5 -93q125 0 213 44t131 115.5t43 153.5q0 94 -50.5 170t-138.5 119t-198 43q-115 0 -208 -44t-146.5 -115.5t-53.5 -149.5zM432 1094q0 -84 57.5 -135.5t141.5 -51.5q80 0 130 55.5t50 139.5t-49 132t-131 48 q-86 0 -142.5 -50t-56.5 -138z" />
<glyph unicode="9" horiz-adv-x="1210" d="M80 414q0 33 20.5 54t53.5 21t54 -19t21 -54q0 -123 97.5 -202t267.5 -79q197 0 303.5 167t116.5 462q-49 -115 -163 -176.5t-245 -61.5q-229 0 -358 116t-129 337q0 121 61.5 220t171 155.5t248.5 56.5q172 0 296 -78t188.5 -218t64.5 -329q0 -231 -62.5 -408 t-186.5 -275.5t-300 -98.5q-160 0 -277.5 53.5t-180 146.5t-62.5 210zM272 977q0 -328 334 -328q88 0 168 38t128 109.5t48 168.5q0 90 -46 162.5t-126 113.5t-178 41q-104 0 -179 -44t-112 -114.5t-37 -146.5z" />
<glyph unicode=":" horiz-adv-x="634" d="M158 772q0 66 44 109t111 43q72 0 116 -43t44 -109q0 -70 -43 -114t-117 -44q-69 0 -112 45.5t-43 112.5zM164 188q0 66 43 110t112 44q70 0 114 -45t44 -109q0 -70 -42 -113.5t-116 -43.5q-67 0 -111 45t-44 112zM244 772q0 -35 20.5 -56.5t50.5 -21.5q35 0 53.5 21.5 t18.5 56.5q0 29 -22.5 49.5t-53.5 20.5q-25 0 -46 -21.5t-21 -48.5zM250 186q0 -31 20.5 -52t46.5 -21q37 0 56.5 19.5t19.5 53.5q0 31 -21.5 48.5t-54.5 17.5q-29 0 -48 -20.5t-19 -45.5z" />
<glyph unicode=";" horiz-adv-x="673" d="M164 158q0 63 46 108t114 45q88 0 137 -68.5t49 -179.5q0 -86 -39 -161.5t-104.5 -120.5t-139.5 -45q-27 0 -42 13t-15 36q0 20 12.5 34.5t28.5 14.5q84 0 145.5 65.5t65.5 147.5q-37 -41 -109 -41q-66 0 -107.5 44t-41.5 108zM178 772q0 66 44 109t112 43q72 0 116 -43 t44 -109q0 -70 -43 -114t-117 -44q-70 0 -113 45.5t-43 112.5zM248 158q0 -33 18.5 -53.5t50.5 -20.5q35 0 56.5 22.5t21.5 55.5q0 29 -21.5 48t-56.5 19q-31 0 -50 -21.5t-19 -49.5zM264 772q0 -35 20.5 -56.5t51.5 -21.5q35 0 53.5 21.5t18.5 56.5q0 29 -23 49.5t-53 20.5 q-25 0 -46.5 -21.5t-21.5 -48.5z" />
<glyph unicode="&#x3c;" horiz-adv-x="1105" d="M86 637q0 66 109.5 133.5t306.5 140.5q104 39 268 89.5t195 50.5q27 0 42 -17.5t15 -44.5t-17.5 -41t-56.5 -26l-57 -17q-219 -61 -342 -106q-125 -45 -222.5 -94.5t-97.5 -71.5q0 -18 87 -56t225 -90q45 -16 101 -36.5t118 -44.5l176 -64q59 -18 59 -66q0 -27 -19.5 -42 t-47.5 -15q-25 0 -123 34t-320 120q-197 76 -298 138t-101 126z" />
<glyph unicode="=" horiz-adv-x="1105" d="M109 479q0 66 102 68l696 20q39 2 64.5 -16.5t25.5 -46.5q0 -57 -94 -62l-715 -22q-36 0 -57.5 15.5t-21.5 43.5zM109 776q0 31 26.5 48.5t77.5 17.5l686 6q39 0 65.5 -18.5t26.5 -47.5t-25.5 -44t-70.5 -15l-707 -6q-34 0 -56.5 15.5t-22.5 43.5z" />
<glyph unicode="&#x3e;" horiz-adv-x="1105" d="M76 989q0 27 17.5 42.5t45.5 15.5q35 0 198 -48.5t269 -87.5q205 -74 315.5 -141.5t110.5 -132.5q0 -63 -103.5 -125.5t-305.5 -138.5q-225 -84 -324.5 -119t-124.5 -35q-29 0 -47 13.5t-18 39.5q0 49 55 70q14 6 121.5 46t281.5 101q123 43 209 85t86 61q0 20 -84 63 t-217 97q-154 59 -276.5 92t-132.5 35q-76 20 -76 67z" />
<glyph unicode="?" horiz-adv-x="1079" d="M123 1118q0 174 112.5 275.5t307.5 101.5q129 0 222 -57.5t142 -152.5t49 -206q0 -106 -47 -181t-141 -171q-82 -82 -122 -142.5t-40 -138.5q0 -33 -17.5 -52t-45.5 -19q-27 0 -42.5 18.5t-15.5 52.5q0 78 27 141.5t64.5 109.5t101.5 112q78 76 118 135.5t40 134.5 q0 131 -80 213t-209 82q-158 0 -230.5 -64.5t-72.5 -191.5q0 -63 37.5 -109t99.5 -46q68 0 68 -66q0 -27 -19.5 -41t-50.5 -14q-70 0 -128 38t-93 101t-35 137zM434 139q0 43 34 75t79 32q43 0 75.5 -32t32.5 -75q0 -47 -31.5 -79.5t-76.5 -32.5q-47 0 -80 32.5t-33 79.5z " />
<glyph unicode="@" horiz-adv-x="1814" d="M176 504q0 205 100.5 372.5t273.5 264t384 96.5q199 0 359.5 -85t252.5 -232.5t92 -329.5q0 -123 -41 -240t-117.5 -190.5t-176.5 -73.5q-72 0 -119 36t-62 93q-78 -98 -241 -98q-131 0 -208 63.5t-106.5 153.5t-29.5 178q0 109 43 197t121.5 140t183.5 52 q84 0 147.5 -32.5t104.5 -90.5l6 51q6 51 67 52q39 0 56.5 -20.5t11.5 -51.5q-27 -129 -39 -227l-6 -50q-20 -145 -21 -213q0 -59 18.5 -88.5t63.5 -29.5q68 0 116 58t70.5 147.5t22.5 179.5q0 156 -68.5 277.5t-195.5 190t-295 68.5q-182 0 -326.5 -80.5t-225.5 -223 t-81 -318.5t81 -311.5t229.5 -211t345.5 -75.5q66 0 113.5 8t154.5 35q25 6 44 -11.5t19 -44.5q0 -20 -13 -32.5t-44 -24.5q-53 -20 -134 -32.5t-161 -12.5q-223 0 -398 93t-273.5 257t-98.5 367zM668 512q0 -123 57 -204t170 -81q66 0 111 31t65 92q18 57 37 262 q4 43 -27.5 85t-83 70t-104.5 28t-105.5 -30t-86 -93.5t-33.5 -159.5z" />
<glyph unicode="A" horiz-adv-x="1417" d="M152 47q0 4 4 25q207 606 350 1054q33 98 33 99q41 125 82 178t100 53q57 0 94 -47t74 -164q78 -242 194 -627l35 -116h58q33 0 54 -22.5t21 -57.5q0 -80 -63 -80h-23q47 -162 82 -272q6 -19 6 -25q0 -33 -25.5 -49t-62.5 -16q-27 0 -47 12t-26 33l-95 317l-583 4 l-101 -313q-16 -51 -75 -51q-35 0 -60.5 18t-25.5 47zM467 510l485 -6l-61 211q-72 248 -111 379q-25 82 -39 118.5t-26 36.5q-10 0 -22.5 -31.5t-41.5 -121.5l-100 -316z" />
<glyph unicode="B" horiz-adv-x="1271" d="M88 76q0 33 17.5 54.5t54.5 19.5h28q29 285 29 632q0 281 -4 445l-23 -6q-25 -4 -42 10t-17 45q0 33 21.5 54.5t74.5 43.5q174 74 381 74q154 0 279 -47t197.5 -136t72.5 -212q0 -127 -103.5 -217.5t-267.5 -112.5q162 -27 256.5 -124t94.5 -218q0 -129 -76 -218 t-203 -131q-111 -37 -239 -37q-18 0 -37 1l-144 6l-106 2q-14 -51 -72 -51q-68 0 -82 57l-26 2q-63 4 -64 64zM342 141q155 -4 231 -4q203 0 305.5 57.5t102.5 186.5q0 143 -119 203.5t-334 70.5q-45 2 -70.5 15.5t-25.5 56.5t25.5 57.5t66.5 16.5q135 8 231.5 24.5 t170 69.5t73.5 158q0 127 -105.5 192.5t-285.5 65.5q-53 0 -120.5 -8.5t-116.5 -22.5q4 -190 4 -496q0 -324 -33 -643z" />
<glyph unicode="C" horiz-adv-x="1462" d="M102 686q0 223 91.5 400.5t246 275.5t334.5 98q125 0 225.5 -47t167.5 -133l-2 100q0 33 19.5 51.5t58.5 18.5q74 0 74 -76v-229q0 -92 -74 -92q-27 0 -45 10t-35 33q-162 219 -389 219q-139 0 -258 -83t-187.5 -227.5t-68.5 -324.5q0 -178 77 -300t198.5 -181.5 t259.5 -59.5q111 0 211 39t163.5 120t63.5 204q0 37 20.5 57.5t57.5 20.5q82 0 82 -78q0 -139 -75 -255t-213 -184.5t-323 -68.5q-180 0 -335.5 75.5t-250 231.5t-94.5 385z" />
<glyph unicode="D" horiz-adv-x="1406" d="M158 1358q0 43 23.5 59.5t68.5 16.5h22q18 36 67 36h3q55 0 70 -40q415 -27 651.5 -196t236.5 -495q0 -219 -109.5 -382.5t-315 -253t-484.5 -89.5h-145q-45 0 -65.5 16.5t-20.5 55.5q0 70 65 70h70l-31 1134h-14q-45 0 -68.5 14.5t-23.5 53.5zM422 1284l29 -1128 q204 8 361 78.5t245 199.5t88 305q0 496 -723 545z" />
<glyph unicode="E" horiz-adv-x="1173" d="M104 117q0 31 14.5 51t37.5 20q20 0 34 -2q33 205 35 500h-24q-35 0 -53.5 18.5t-18.5 53.5q0 71 62 71h2h32v228q0 147 -2 221q-57 10 -57 65q0 43 21.5 56.5t60.5 17.5q115 12 352 13q297 0 426 -19q35 -6 52.5 -19.5t17.5 -48.5t-18.5 -55t-47.5 -16q-205 16 -377 16 q-133 0 -276 -8q8 -287 8 -453l137 -2q164 -4 209 -4q111 -4 139 -4q57 0 58 -67q0 -35 -14.5 -55.5t-43.5 -20.5l-108 2q-92 6 -244 6q-92 0 -135 2q-2 -233 -35 -508q127 -10 318 -10q111 0 175 4t156 14q8 1 15 1q32 0 50 -15q22 -18 21 -57q0 -35 -16 -50.5t-45 -21.5 q-80 -16 -309 -16h-66q-137 0 -244.5 4t-242.5 20q-55 6 -56 68z" />
<glyph unicode="F" horiz-adv-x="1144" d="M90 1352q0 31 15.5 49t54.5 20l49 4l-2 25q-2 35 19.5 55.5t60.5 20.5q72 0 80 -78l2 -14q125 6 249 6q133 0 241 -7.5t157 -19.5q31 -6 48 -22.5t17 -49.5t-18.5 -53t-50.5 -16q-111 14 -195 20t-188 6q-82 0 -246 -8q18 -215 20 -491q76 6 177 6q209 0 321 -14 q33 -4 48.5 -25t15.5 -49q0 -29 -16.5 -48.5t-53.5 -17.5q-147 10 -317 11q-94 0 -175 -7q0 -342 -20 -579q-4 -29 -24.5 -46.5t-55.5 -17.5q-37 0 -58.5 18.5t-19.5 47.5q20 231 23 563l-90 -12q-29 -4 -46.5 16.5t-17.5 52.5q0 66 68 74q66 8 86 10q-2 293 -25 500l-57 -2 q-41 -2 -58.5 16.5t-17.5 55.5z" />
<glyph unicode="G" horiz-adv-x="1517" d="M94 711q0 193 86 353.5t239.5 254.5t346.5 94q145 0 250.5 -50t171.5 -126v41q0 35 22.5 54.5t59.5 19.5q35 0 56.5 -16.5t21.5 -39.5q0 -145 -23 -192q-20 -45 -80 -45q-23 0 -41 9t-47 36q-61 55 -106 88t-107.5 54.5t-148.5 21.5q-162 0 -285 -76t-190.5 -205 t-67.5 -282q0 -154 67.5 -282t189.5 -202t277 -74q186 0 277.5 111t99.5 328l-289 6q-75 2 -75 70q0 39 23.5 58t56.5 17l487 -10q80 0 80 -70q0 -35 -20.5 -54t-55.5 -17l-53 2q-10 -285 -141.5 -435.5t-387.5 -150.5q-207 0 -365.5 96.5t-243.5 258t-85 354.5z" />
<glyph unicode="H" horiz-adv-x="1460" d="M119 664q0 35 24.5 53t63.5 18h47l53 672q2 37 25.5 54.5t56.5 17.5q41 0 59.5 -23.5t16.5 -58.5l-53 -666l659 -10l-20 680q0 37 20.5 57.5t56.5 20.5q37 0 58.5 -20.5t21.5 -51.5l21 -688h37q92 0 92 -74q0 -72 -92 -72h-33l14 -497q2 -35 -18.5 -56.5t-57.5 -21.5 q-39 0 -59 19.5t-22 54.5l-15 506l-676 10l-43 -543q-6 -57 -77 -57q-80 0 -80 60v9l43 535h-39q-35 0 -59.5 18.5t-24.5 53.5z" />
<glyph unicode="I" horiz-adv-x="897" d="M66 1362q0 59 65 72q37 6 158 12t235 6q172 0 244 -12q31 -6 47 -19.5t16 -50.5q0 -35 -19 -54.5t-52 -17.5q-80 6 -189 9q0 -332 -8 -599.5t-31 -551.5l230 -2q69 0 69 -72q0 -74 -71 -74l-621 8q-63 2 -63 74q0 37 19.5 54.5t47.5 17.5l234 -4q37 590 37 1147 q-92 -2 -240 -13l-55 -4q-20 0 -36.5 20.5t-16.5 53.5z" />
<glyph unicode="J" horiz-adv-x="1124" d="M47 524q0 41 16.5 61.5t59.5 20.5t61.5 -20.5t20.5 -61.5q6 -109 22.5 -186.5t71.5 -135t164 -57.5q133 0 212 95.5t79 298.5q0 324 12 749h-143q-37 0 -57.5 18.5t-20.5 53.5q0 31 15 48t38 19q98 8 229 9q170 0 211 -2q66 -6 66 -72q0 -70 -76 -70h-104 q-6 -432 -6 -764q0 -250 -119 -389t-336 -139q-193 0 -304.5 123t-111.5 401z" />
<glyph unicode="K" horiz-adv-x="1243" d="M160 389q6 176 6 389q0 190 -2 279l-2 305q0 29 22.5 49.5t57.5 20.5q37 0 58.5 -21.5t21.5 -54.5l2 -477q158 104 346 233l45 31q248 172 364 262q23 16 49 16q31 0 54.5 -22.5t23.5 -55.5q0 -35 -26 -55q-123 -98 -314 -221q-66 -41 -98 -63q-31 -20 -244 -158 q-106 -68 -137 -88l94 -86q113 -106 248 -223q115 -98 190.5 -155.5t213.5 -156.5q30 -19 30 -60v-3q0 -35 -22.5 -55.5t-53.5 -20.5q-29 0 -45 14q-250 193 -401 320q-164 137 -319 295q0 -76 -5 -211q-4 -213 -4 -340q0 -37 -21.5 -56.5t-58.5 -19.5q-77 0 -77 90 q0 93 4 299z" />
<glyph unicode="L" horiz-adv-x="1077" d="M125 449q0 223 21.5 436t66.5 491q4 29 26.5 46.5t57.5 17.5q74 0 74 -68q0 -14 -2 -20q-53 -348 -73 -522.5t-20 -385.5q0 -135 15.5 -195.5t65 -85t159.5 -24.5q115 0 202 12.5t224 41.5q8 2 21 2q33 0 48 -20.5t15 -51.5q0 -33 -20.5 -51.5t-63.5 -28.5 q-190 -45 -412 -45q-184 0 -268 37t-110.5 128t-26.5 286z" />
<glyph unicode="M" horiz-adv-x="1632" d="M164 78q0 117 4 321l2 273q0 406 55.5 596t175.5 190q137 0 240.5 -204.5t171.5 -493.5q37 168 104.5 329.5t153.5 265t176 103.5q82 0 128 -92t64.5 -265t22.5 -444l2 -184q4 -262 4 -407q0 -35 -19 -56.5t-58 -21.5q-37 0 -58.5 21.5t-21.5 53.5q-2 197 -2 590 q0 621 -88 621q-37 0 -96.5 -93.5t-100.5 -187.5q-39 -90 -65.5 -188t-55.5 -227q-12 -61 -88 -62q-35 0 -56.5 13.5t-31.5 43.5l-29 103q-53 213 -90 307q-41 106 -98 200.5t-90 94.5q-45 0 -66.5 -173t-27.5 -435q-2 -92 -2 -285v-322q0 -31 -21.5 -48t-62.5 -17 q-45 0 -60.5 21.5t-15.5 58.5z" />
<glyph unicode="N" horiz-adv-x="1511" d="M164 1317q0 66 20.5 97.5t71.5 31.5q55 0 110.5 -49t114 -135t170.5 -267q-2 3 -2 4q0 2 111 -180q254 -406 405 -600q20 150 21 414v756q0 33 21.5 52t58.5 19q41 0 61.5 -21.5t20.5 -60.5l-2 -747q0 -248 -15.5 -379t-45.5 -179t-81 -48q-61 0 -128.5 64.5t-151.5 188 t-244 375.5q-150 238 -226.5 355.5t-131.5 193.5q0 -139 2 -223l2 -272l2 -621q0 -27 -22.5 -46.5t-57.5 -19.5q-33 0 -56.5 19.5t-23.5 46.5v623q0 195 -2 303z" />
<glyph unicode="O" horiz-adv-x="1622" d="M111 702q0 215 84 385t237.5 265.5t353.5 95.5q203 0 369 -97.5t261 -269.5t95 -389q0 -219 -98 -371.5t-261 -228.5t-355 -76q-191 0 -346.5 75t-247.5 229.5t-92 381.5zM266 713q0 -195 80 -319t203 -178t258 -54q137 0 262 56t205 178t80 304q0 172 -72 309.5 t-200 215.5t-287 78q-156 0 -276 -75t-186.5 -208t-66.5 -307z" />
<glyph unicode="P" horiz-adv-x="1251" d="M80 1229q0 25 16.5 40t48.5 31l35 21v33q0 47 20.5 69.5t63.5 22.5q37 0 57.5 -12.5t20.5 -32.5v-4q131 47 270 47q154 0 286 -58.5t212 -166t80 -248.5q0 -129 -69.5 -228.5t-191.5 -152.5t-278 -53q-176 0 -297 63l-6 -537q0 -37 -21.5 -57t-58.5 -20q-39 0 -60.5 20.5 t-21.5 54.5q0 94 4 279q4 197 5 311q0 211 -9 457q-2 14 -2 43l-6 -4q-20 -10 -35 -10q-29 0 -46 27.5t-17 64.5zM344 1229q4 -143 4 -189q0 -45 4 -143q3 -81 3 -125q0 -22 -1 -35q113 -65 264 -65h5q116 0 205.5 39t138.5 108.5t49 157.5q0 94 -55.5 168t-146.5 114.5 t-200 40.5q-113 0 -270 -71z" />
<glyph unicode="Q" horiz-adv-x="1599" d="M106 717q0 223 96.5 391t253 258t332.5 90q180 0 341 -92t260.5 -257t99.5 -372q0 -262 -156 -452l109 -107q26 -26 26 -55q0 -35 -24.5 -59.5t-57.5 -24.5q-35 0 -57 22l-112 113q-94 -70 -210 -107.5t-243 -37.5q-197 0 -346.5 88t-230.5 244.5t-81 357.5zM264 721 q0 -160 63.5 -285t178.5 -194.5t260 -69.5q94 0 180 28.5t158 82.5l-152 149q-23 23 -22 45q0 31 31.5 58.5t62.5 27.5q20 0 35 -12l160 -158q112 151 112 341q0 163 -75.5 294t-198.5 207t-260 76q-133 0 -256 -72t-200 -206t-77 -312z" />
<glyph unicode="R" horiz-adv-x="1312" d="M96 1223q0 45 62 77l18 9v57q0 35 20.5 53.5t55.5 18.5q33 0 53.5 -14.5t20.5 -37.5v-10q145 57 303 58q170 0 298 -53.5t196.5 -149.5t68.5 -225q0 -139 -79 -234.5t-209 -143.5t-286 -48q-74 0 -172 24l682 -424q41 -24 41 -61q0 -35 -20.5 -63.5t-56.5 -28.5 q-16 0 -36 7t-32 15l-680 428q-2 -150 -2 -416q0 -35 -20.5 -53t-55.5 -18q-39 0 -60.5 21.5t-21.5 62.5v647q0 119 -4 299l-2 123l-6 -2q-12 -4 -18 -4q-31 0 -44.5 25.5t-13.5 60.5zM328 1214q4 -78 4 -114q10 -168 12 -350q111 -31 258 -31q193 0 305.5 73.5t112.5 206.5 q0 127 -105.5 208t-275.5 81q-74 0 -147.5 -17.5t-163.5 -56.5z" />
<glyph unicode="S" horiz-adv-x="1153" d="M123 1044q0 117 61.5 209.5t164 143.5t224.5 51q127 0 230.5 -55.5t162 -145.5t58.5 -190q0 -45 -17.5 -63.5t-58.5 -18.5q-47 0 -63.5 18.5t-16.5 50.5q0 109 -81.5 185t-213.5 76q-131 0 -211.5 -75t-80.5 -188q0 -76 44 -124t110.5 -74.5t189.5 -63.5 q104 -33 189 -72.5t152.5 -123.5t67.5 -213q0 -111 -56 -195t-155.5 -129t-224.5 -45q-149 0 -255.5 60.5t-161 162t-54.5 219.5q0 37 17.5 57.5t60.5 20.5q80 0 80 -67q0 -96 43 -166t114.5 -107t155.5 -37q123 0 202 57.5t79 166.5q0 80 -43 132t-113 83.5t-178 64.5 q-117 33 -199 69t-152.5 115.5t-70.5 210.5z" />
<glyph unicode="T" horiz-adv-x="1140" d="M74 1331q0 63 61 70q216 24 437 24h18q285 0 407 -14q72 -8 72 -74q0 -37 -20.5 -56t-57.5 -17q-186 14 -334 16q-16 -190 -26 -551l-2 -43q-14 -418 -15 -620q0 -47 -19.5 -66.5t-64.5 -19.5q-47 0 -65.5 22.5t-18.5 81.5q0 63 6.5 226t10.5 255l6 119l29 596 q-158 -4 -344 -23q-37 -4 -58.5 15.5t-21.5 58.5z" />
<glyph unicode="U" horiz-adv-x="1366" d="M147 535q0 111 2.5 237.5t4.5 194.5q4 137 8 403q0 68 76 68q39 0 59 -18.5t20 -51.5q0 -61 -6 -430q-4 -262 -4 -401q0 -190 89 -288.5t257 -98.5q106 0 198.5 65.5t147 165.5t54.5 197q0 254 -6 800q0 72 73 72q39 0 60.5 -20.5t21.5 -55.5q0 -221 6 -502q0 -84 2 -131 q4 -348 4 -678q0 -67 -75 -67h-2q-41 0 -60.5 19.5t-19.5 62.5v160q-57 -102 -172 -168t-258 -66q-246 0 -363 151.5t-117 379.5z" />
<glyph unicode="V" horiz-adv-x="1316" d="M102 1382q0 29 26 48.5t58 19.5q53 0 66 -39q66 -215 104 -360l76 -260q80 -264 121 -386t66.5 -168.5t50.5 -46.5q27 2 50 46.5t60 162t113 392.5l166 616q14 39 69 39q37 0 61.5 -19.5t24.5 -50.5q0 -12 -2 -18q-49 -186 -131 -473l-32 -115q-158 -555 -213 -672 q-20 -45 -65.5 -71.5t-98.5 -26.5q-54 0 -97 25.5t-67 72.5q-57 109 -227 666l-95 325v-2q-35 113 -80 273q-4 16 -4 22z" />
<glyph unicode="W" horiz-adv-x="1798" d="M131 1374q0 29 21.5 48.5t60.5 19.5q31 0 48.5 -13.5t25.5 -44.5q98 -356 149 -561q27 -109 47 -202q41 -180 68 -278.5t37 -98.5t30.5 45t51.5 117l51 118l18 41q66 156 98.5 214.5t61.5 58.5t60.5 -48.5t93.5 -175.5q16 -31 31.5 -60.5t27.5 -53.5q14 -27 29.5 -58.5 t34.5 -64.5q29 -57 49 -95t28 -38q6 0 29 100t49 225q43 219 51 252q57 266 127 565q6 27 26.5 40.5t49.5 13.5q35 0 58.5 -20.5t23.5 -55.5q0 -12 -2 -21q-63 -244 -131 -552l-70 -330q-37 -195 -78 -371q-18 -82 -106 -82q-37 0 -70.5 29t-71.5 92.5t-100 185.5 q-31 61 -71 160q-18 45 -35 80t-23 35q-12 0 -67 -141q-47 -119 -66 -160q-53 -121 -86 -180.5t-59.5 -82t-61.5 -22.5q-39 0 -69.5 19.5t-40.5 54.5q-43 141 -117 465q2 -8 2 -9q0 -2 -59 254q-53 223 -150 553q-4 16 -4 33z" />
<glyph unicode="X" horiz-adv-x="1359" d="M117 74q0 18 5 28.5t19 26.5l441 578l-443 606q-16 23 -16 41q0 33 25.5 55.5t62.5 22.5q20 0 34.5 -12.5t39.5 -43.5l393 -540q264 348 412 546q16 25 29.5 35t29.5 10q37 0 64.5 -23.5t27.5 -47.5q0 -27 -22 -53l-445 -596l434 -588q23 -31 23 -47q0 -31 -26.5 -55.5 t-61.5 -24.5q-31 0 -56 31l-411 555l-400 -533q-16 -23 -34.5 -33t-44.5 -10q-33 0 -56.5 22.5t-23.5 49.5z" />
<glyph unicode="Y" horiz-adv-x="1341" d="M143 1366q0 27 26 47.5t58 20.5q51 0 82 -72q59 -141 87 -197.5t87 -154.5q57 -92 104.5 -151.5t84.5 -59.5q63 0 190 213q47 80 86 159.5t90 198.5q14 35 30.5 47.5t41.5 12.5q37 0 62.5 -22t25.5 -52q0 -14 -6 -27q-57 -143 -98 -229t-90 -164q-72 -115 -141.5 -182.5 t-114.5 -81.5l6 -584q0 -82 -78 -82q-80 0 -80 78l-6 588q-100 35 -248 268q-63 100 -103 184t-92 217q-4 12 -4 25z" />
<glyph unicode="Z" horiz-adv-x="1378" d="M88 109q0 51 79 145t275 297q205 211 236 244q8 10 19.5 21t23.5 26q190 201 266 283.5t127 150.5q-229 -23 -381 -23q-121 0 -270.5 11.5t-220.5 27.5q-41 10 -59.5 27.5t-18.5 44.5q0 33 19.5 52.5t58.5 19.5q51 0 159 -15q165 -24 307 -24h11q86 0 174 6t209 16l76 6 q23 2 50 -5t48 -21q37 -27 37 -66q0 -59 -106.5 -184t-340.5 -367l-49 -51q-45 -45 -119 -123q-141 -147 -249.5 -261t-147.5 -161q272 14 449 15q121 0 213 -6.5t215 -20.5q33 -4 50 -22.5t17 -47.5q0 -33 -23.5 -54t-58.5 -15l-57 4q-104 8 -204.5 14t-219.5 6 q-115 0 -381 -10q-45 0 -64.5 -1t-25.5 -1q-63 0 -93 13.5t-30 48.5z" />
<glyph unicode="[" horiz-adv-x="688" d="M104 1520q133 8 406 8q33 0 50.5 -19.5t17.5 -44.5q0 -68 -70 -67h-119q-90 0 -139 -2q0 -25 4 -107q12 -516 12 -676q0 -537 -10 -813q82 -4 121 -4l102 2q20 2 51 2q55 0 56 -63q0 -57 -68 -64q-70 -6 -209 -6q-79 1 -190 19q18 297 18 725l-2 196q-2 254 -8 455 t-23 459z" />
<glyph unicode="\" horiz-adv-x="991" d="M133 1790q0 14 4 25q6 25 29.5 40t48.5 15q51 0 70 -51l567 -1708q6 -25 6 -43q0 -12 -2 -19q-16 -49 -84 -49q-18 0 -35.5 12.5t-25.5 36.5l-572 1712q-6 12 -6 29z" />
<glyph unicode="]" horiz-adv-x="688" d="M102 -264q0 63 56 63l164 -2q74 0 110 2q-10 276 -10 813q0 283 14 688l2 103q-47 2 -83 1t-60 -1q-35 -2 -105 -2q-80 0 -79 65q0 27 13 43.5t44 16.5h123q225 0 293 -6q-16 -248 -20.5 -442.5t-4.5 -471.5q0 -645 10 -921q-84 -16 -190 -17h-78q-96 0 -137 4 q-61 6 -62 64z" />
<glyph unicode="^" horiz-adv-x="1249" d="M162 500q117 424 242.5 680t222.5 256q195 0 458 -912q4 -20 5 -26q0 -27 -18.5 -44.5t-47.5 -17.5q-20 0 -37.5 11.5t-23.5 31.5q-45 176 -111 368.5t-127 320.5t-94 128q-35 0 -98.5 -129t-131 -322.5t-112.5 -367.5q-6 -20 -24.5 -32.5t-45.5 -12.5q-31 0 -47 22.5 t-10 45.5z" />
<glyph unicode="_" horiz-adv-x="1134" d="M-20 -182q0 31 19 49t52 18l297 -2q178 -2 363.5 -3t378.5 -1q29 0 47 -17.5t18 -47.5q0 -33 -17.5 -53.5t-47.5 -20.5q-133 0 -478 4q-377 4 -561 4q-33 0 -52 19.5t-19 50.5z" />
<glyph unicode="`" horiz-adv-x="643" d="M72 1430q0 23 20.5 44t44.5 21q25 0 53 -29q225 -225 361 -356q20 -18 20 -47q0 -23 -20.5 -41t-44.5 -18q-29 0 -49 20l-359 354q-27 25 -26 52z" />
<glyph unicode="a" horiz-adv-x="1275" d="M119 483q0 137 55 258t162.5 195t257.5 74q102 0 178 -41t119 -115l8 68q4 75 68 75h2q41 0 62.5 -19.5t17.5 -45.5l-7 -51q-14 -86 -20 -179q-6 -78 -6 -208v-142q0 -88 5 -130t21.5 -64.5t55.5 -24.5q28 -4 42.5 -16.5t14.5 -44.5q0 -31 -15.5 -49.5t-41.5 -18.5 q-84 0 -124 26.5t-69 100.5q-91 -149 -324 -149h-3q-166 0 -268.5 73.5t-146.5 187t-44 240.5zM276 483q0 -143 71 -256.5t233 -113.5q121 0 199.5 62.5t80.5 178.5q2 96 2 248q0 100 -43 162.5t-104.5 89.5t-116.5 27q-109 0 -181.5 -61.5t-106.5 -154t-34 -182.5z" />
<glyph unicode="b" horiz-adv-x="1304" d="M63 90q0 25 21 43q6 6 20.5 17.5t25.5 24.5t17 32q14 43 15 123l-4 157l-6 301l-5 279q-4 403 -16 651q-2 31 20.5 48.5t57.5 17.5q33 0 54.5 -16.5t23.5 -45.5q10 -174 14 -329.5t6 -323.5q0 -111 2 -174q49 59 139.5 100t215.5 41q149 0 266 -64.5t182.5 -183 t65.5 -280.5q0 -176 -76 -292t-192.5 -169t-245.5 -53q-90 0 -170 27.5t-135.5 67.5t-77.5 77q-12 -45 -46 -84t-65 -53q-16 -8 -35 -9q-31 0 -51.5 23t-20.5 47zM315 563q0 -119 7 -196q4 -63 52 -120t124.5 -90.5t163.5 -33.5q90 0 170.5 39t134 127t53.5 223 q0 188 -101.5 291.5t-265.5 103.5q-113 0 -204 -57t-134 -131v-156z" />
<glyph unicode="c" horiz-adv-x="1204" d="M111 496q0 145 61 272t179 205t280 78q176 0 287.5 -84t160.5 -203q8 -16 8 -35q0 -23 -19 -39t-54 -16q-25 0 -41.5 13t-30.5 42q-31 80 -109.5 136.5t-191.5 56.5t-199 -59.5t-131 -157t-45 -205.5q0 -160 94.5 -264.5t266.5 -104.5q111 0 187.5 43t116.5 107.5 t44 130.5q0 23 15.5 36t45.5 13q78 0 78 -68q0 -90 -57.5 -180t-169 -150.5t-264.5 -60.5q-164 0 -280 66.5t-174 178t-58 249.5z" />
<glyph unicode="d" horiz-adv-x="1298" d="M117 520q0 160 65.5 276.5t185 179t279.5 62.5q115 0 202 -33.5t138 -86.5v43q8 322 13.5 469t19.5 294q4 29 24.5 47.5t53.5 18.5q37 0 59.5 -19.5t20.5 -50.5q-14 -150 -27 -514t-12 -657q0 -299 14 -344q12 -45 29.5 -75t38.5 -30q6 0 6 -22q0 -31 -26.5 -55.5 t-59.5 -24.5q-23 0 -39 10q-29 16 -58.5 54t-39.5 106q-51 -82 -147.5 -129t-215.5 -47q-143 0 -262 57t-190.5 176t-71.5 295zM272 514q0 -131 54.5 -217t138.5 -126t172 -40t167 38t128 102.5t49 140.5q0 90 2 143l2 170q-35 66 -127 121t-211 55q-170 0 -272.5 -102.5 t-102.5 -284.5z" />
<glyph unicode="e" horiz-adv-x="1267" d="M119 518q0 145 65.5 267t186.5 194t278 72q139 0 250 -56.5t172.5 -157t61.5 -229.5q0 -61 -14.5 -86.5t-71.5 -27.5l-781 -17q0 -78 47 -159.5t134.5 -137t201.5 -55.5q86 0 147.5 25.5t96.5 58.5t84 92q14 18 45 18q27 0 50.5 -20t23.5 -47q0 -20 -17 -43 q-66 -90 -159 -153.5t-265 -63.5q-168 0 -289.5 72.5t-184 192.5t-62.5 261zM266 600l713 18q20 0 20 29q0 123 -98 200t-248 77q-113 0 -200.5 -57.5t-137 -135.5t-49.5 -131z" />
<glyph unicode="f" horiz-adv-x="796" d="M41 760q0 29 14.5 45t53.5 18l122 2q-4 201 -4 262q0 197 77 313t235 116q284 0 284 -324q0 -74 -75 -74q-80 0 -80 70q0 92 -25 143t-102 51q-88 0 -122 -73.5t-34 -223.5q0 -158 2 -256h162q29 0 45 -17t16 -50q0 -55 -61 -57l-160 -5q4 -385 4 -630q0 -37 -21.5 -53.5 t-54.5 -16.5q-37 0 -55 18.5t-18 49.5q0 188 -8 516l-3 112l-122 -2q-37 0 -53.5 16.5t-16.5 49.5z" />
<glyph unicode="g" horiz-adv-x="1187" d="M94 510q0 137 59.5 258t169 194.5t252.5 73.5q92 0 163 -26.5t110 -65.5q33 94 39 107q17 34 51 34h2q31 0 58.5 -16t29.5 -41q0 -12 -2 -18q-2 -8 -13.5 -45t-29.5 -109l74 -506l16 -108q14 -88 20.5 -135.5t6.5 -98.5q0 -156 -61.5 -273.5t-174 -182t-260.5 -64.5 q-109 0 -203 46t-150 123t-56 167q0 61 75 61q25 0 38.5 -11t19.5 -38q25 -109 97.5 -162t178.5 -53q164 0 252 102.5t88 284.5q0 59 -16 154q-47 -70 -132 -112t-200 -42q-152 0 -266.5 69.5t-175 184.5t-60.5 248zM250 516q0 -96 38 -179t115.5 -133t190.5 -50 q65 0 133 27.5t117 69.5t59 83q-10 98 -49 328l-18 106q-10 27 -47 56.5t-92.5 50t-116.5 20.5q-96 0 -171 -50t-117 -136t-42 -193z" />
<glyph unicode="h" horiz-adv-x="1155" d="M195 61q0 424 10 799q10 336 33 676q6 72 77 72q33 0 54.5 -15.5t19.5 -42.5l-14 -286q-12 -264 -21 -385q51 76 135 126t209 50q135 0 212 -67.5t114 -209.5q29 -114 39 -284t10 -433q0 -27 -21.5 -44t-56.5 -17t-56 17.5t-21 52.5q0 539 -46 684q-25 84 -70.5 121.5 t-123.5 37.5q-106 0 -180 -62.5t-111 -158.5t-37 -200v-433q0 -25 -22.5 -41t-55.5 -16q-35 0 -56 16.5t-21 42.5z" />
<glyph unicode="i" horiz-adv-x="626" d="M217 1286q0 55 37 91t94 36q55 0 91 -35t36 -90t-38 -92t-93 -37q-53 0 -90 36t-37 91zM233 80l21 870q0 35 21.5 53.5t58.5 18.5t58.5 -18.5t21.5 -55.5l-21 -868q-2 -33 -23.5 -50.5t-56.5 -17.5q-37 0 -58.5 18.5t-21.5 49.5z" />
<glyph unicode="j" horiz-adv-x="688" d="M-164 -197q0 47 16.5 65.5t55.5 18.5q70 0 76 -67q10 -94 41.5 -134t91.5 -40q193 0 200 403q12 498 13 909q0 27 19.5 44.5t60.5 17.5q75 0 75 -64q0 -435 -12 -907q-8 -260 -96 -396t-248 -136q-127 0 -210 80.5t-83 205.5zM285 1286q0 53 36.5 89t94.5 36q57 0 93 -36 t36 -89q0 -55 -38 -90t-91 -35q-56 0 -93.5 36t-37.5 89z" />
<glyph unicode="k" horiz-adv-x="1087" d="M193 47v1448q0 33 20 51.5t57 18.5t58.5 -17.5t21.5 -52.5l-4 -725l150 84q309 174 409 236q31 18 47 18q29 0 50.5 -29.5t21.5 -64.5q0 -23 -45 -49l-631 -375l639 -455q20 -16 21 -45q0 -31 -26 -56.5t-52 -25.5q-25 0 -62 23l-211 147q-150 111 -309 219l-2 -348 q0 -27 -21.5 -43t-54.5 -16q-32 0 -54.5 16.5t-22.5 40.5z" />
<glyph unicode="l" horiz-adv-x="514" d="M156 1548q0 35 22.5 54.5t59.5 19.5q35 0 55 -19.5t20 -52.5l11 -1460q0 -35 -21.5 -53.5t-56.5 -18.5t-56.5 18.5t-21.5 53.5z" />
<glyph unicode="m" horiz-adv-x="1632" d="M123 952q0 31 22.5 51.5t51.5 20.5q14 0 33.5 -15.5t33.5 -35.5q23 -31 32 -61.5t9 -73.5v-35q35 117 104.5 177t165.5 60q211 0 277 -237q31 119 106.5 181.5t188.5 62.5q182 0 256 -121t74 -338q0 -344 -2 -522q0 -29 -19.5 -47.5t-54.5 -18.5q-37 0 -56.5 18.5 t-19.5 51.5v505q0 184 -40 266.5t-148 82.5q-102 0 -151.5 -115t-51.5 -270v-158v-311q0 -66 -76 -66q-80 0 -80 70l2 370v95q-2 145 -58 260.5t-155 115.5q-76 0 -126 -74.5t-83 -238.5q-18 -98 -18 -285v-135v-119q0 -29 -22.5 -44t-53.5 -15q-35 2 -54.5 17.5t-19.5 44.5 q0 207 -4 661v78q-2 51 -12 73.5t-29 41.5q-4 4 -13 12t-9 20z" />
<glyph unicode="n" horiz-adv-x="1134" d="M117 965q0 25 27.5 46t54.5 21t55 -39q23 -33 42 -79t19 -87v-22q37 102 119 169.5t217 67.5q346 0 346 -489v-479q0 -72 -75 -72q-82 0 -82 70v483q0 180 -41 265t-148 85q-113 0 -184.5 -86t-99.5 -225q-18 -94 -19 -232l2 -303q0 -29 -20.5 -44t-55.5 -15 q-39 0 -59 16.5t-20 42.5q0 182 -9 445q-6 152 -6 268q0 51 -11 81t-44 83q-8 12 -8 29z" />
<glyph unicode="o" horiz-adv-x="1214" d="M74 506q0 164 62.5 288t181 193.5t280.5 69.5q156 0 279.5 -64.5t194.5 -188.5t71 -296q0 -250 -146.5 -380t-386.5 -130q-231 0 -383.5 123t-152.5 385zM231 510q0 -199 109 -291t266 -92q164 0 271.5 97.5t107.5 285.5q0 123 -48 218t-135 147.5t-200 52.5 q-168 0 -269.5 -115t-101.5 -303z" />
<glyph unicode="p" horiz-adv-x="1263" d="M66 942q0 27 29.5 50.5t56.5 23.5q14 0 25 -7.5t13 -9.5q14 -12 40 -53t42 -80q49 72 149.5 128.5t244.5 56.5q137 0 250.5 -58.5t181 -176.5t67.5 -290q0 -166 -64.5 -285.5t-179 -181t-262.5 -61.5q-121 0 -219 35t-145 69l-6 -206l-8 -289q-2 -31 -23.5 -48.5 t-56.5 -17.5q-37 0 -56.5 19.5t-19.5 52.5q4 166 8 258l6 223q6 244 6 625q0 63 -14 105t-45 79q-2 2 -11 11.5t-9 27.5zM301 276q10 -27 65.5 -62.5t134.5 -60t156 -24.5q156 0 253.5 104.5t97.5 294.5q0 199 -100.5 293t-248.5 94q-102 0 -184 -46t-127 -107.5t-45 -97.5 q0 -225 -2 -388z" />
<glyph unicode="q" horiz-adv-x="1312" d="M82 524q0 178 77 296t195.5 173.5t243.5 55.5q131 0 240.5 -60.5t162.5 -150.5q23 43 66 114q14 23 24.5 32t26.5 9q29 2 54.5 -14t29.5 -39l2 -12q0 -14 -16 -41q-70 -123 -84 -150q-16 -340 -17 -712l-2 -195q-4 -152 -4 -254q0 -29 -22.5 -45t-54.5 -16 q-37 0 -58.5 16t-21.5 41q2 49 2 139l10 410q-49 -55 -139 -90t-195 -35q-147 0 -265 61.5t-186.5 180t-68.5 286.5zM240 522q0 -190 103 -290.5t261 -100.5q68 0 141.5 26.5t127 66.5t67.5 77l8 363q-12 49 -58 108t-123 102.5t-175 43.5q-88 0 -169 -44.5t-132 -133.5 t-51 -218z" />
<glyph unicode="r" horiz-adv-x="1028" d="M141 1012q-2 33 18.5 50t57.5 17q63 0 68 -61q12 -129 14 -252q35 135 121 211t207 76q131 0 204.5 -83t73.5 -202q0 -113 -67.5 -177.5t-173.5 -64.5q-41 0 -58.5 12.5t-17.5 45.5q0 53 51 55q133 12 133 131q0 63 -35 108.5t-112 45.5q-82 0 -142.5 -70t-95.5 -173 t-41 -204q-12 -188 -12 -356q0 -84 -16 -110.5t-60 -26.5q-45 0 -62.5 21.5t-17.5 74.5l-2 391q0 135 -20 356q-12 129 -15 185z" />
<glyph unicode="s" horiz-adv-x="995" d="M96 272q0 29 25.5 50.5t56.5 21.5q20 0 31.5 -11t32.5 -40q51 -78 108.5 -124t151.5 -46q88 0 146.5 43t58.5 108q0 47 -32 80t-78 53.5t-132 51.5q-109 39 -175.5 70.5t-113.5 90t-47 148.5q0 80 44 148.5t126 109.5t188 41t188.5 -41t127.5 -108.5t45 -149.5 q0 -41 -15.5 -59.5t-54.5 -18.5q-41 0 -54 15.5t-15 39.5q-8 96 -67.5 142.5t-154.5 46.5q-111 0 -156.5 -52.5t-45.5 -111.5q0 -70 60.5 -107.5t186.5 -82.5q109 -39 174.5 -72t111.5 -90.5t46 -143.5q0 -133 -104.5 -208.5t-257.5 -75.5q-140 0 -238 68.5t-153 174.5 q-14 29 -15 39z" />
<glyph unicode="t" horiz-adv-x="901" d="M80 877q0 61 59 61q16 0 70 -4q45 -4 70 -4q14 152 49 381q4 31 21.5 46t56.5 15t61 -20.5t18 -51.5l-10 -67q-31 -238 -39 -311l164 -4q31 0 46.5 -12.5t15.5 -43.5q0 -39 -15.5 -52t-58.5 -15q-63 -2 -164 -2q-10 -129 -10 -238q0 -199 31.5 -311.5t115.5 -112.5 q45 0 71.5 35t31.5 104q2 33 13 48.5t52 15.5q37 0 52.5 -17.5t15.5 -62.5q0 -106 -71 -180t-181 -74q-154 0 -220.5 135t-66.5 420q0 106 10 244q-23 2 -127 10q-61 6 -61 68z" />
<glyph unicode="u" horiz-adv-x="1120" d="M135 465v506q0 27 21.5 43t54.5 16q35 0 57.5 -16.5t22.5 -42.5v-510q0 -172 49 -252t158 -80q276 0 276 502v342q0 33 20.5 51t55.5 18q37 0 59.5 -18t22.5 -51l8 -748q0 -39 9 -65.5t23.5 -50t14.5 -31.5q0 -23 -22.5 -43.5t-42.5 -20.5q-41 0 -73 51.5t-32 98.5v29 q-43 -94 -132 -143.5t-204 -49.5q-174 0 -260 119t-86 346z" />
<glyph unicode="v" horiz-adv-x="1083" d="M102 950q0 39 21.5 58.5t58.5 19.5q33 0 52.5 -17.5t23.5 -47.5q23 -182 102 -435q45 -133 97.5 -235.5t72.5 -102.5q25 0 76 97.5t105 240.5q96 264 114 443q4 31 24.5 49t53.5 18q37 0 57.5 -22.5t20.5 -59.5q0 -63 -36 -201.5t-93 -287.5q-174 -455 -320 -455 q-77 0 -156 121t-151 326q-51 143 -87 286.5t-36 204.5z" />
<glyph unicode="w" horiz-adv-x="1589" d="M152 967q0 47 14 69.5t63 22.5q72 0 76 -64q12 -170 27.5 -273.5t60.5 -272.5q37 -137 65.5 -204t61.5 -67q25 0 75 170t118 440q12 43 30.5 63.5t53.5 20.5t51 -19t33 -65q23 -63 75 -239q55 -184 91 -273.5t71 -89.5q29 0 52.5 69t54.5 208q41 184 53 274t20 252 q2 31 16.5 49.5t59.5 18.5q49 0 63.5 -24.5t14.5 -78.5q0 -102 -26.5 -275t-65.5 -319q-45 -168 -102.5 -262t-122.5 -94q-63 0 -128 86t-119 232.5t-89 326.5q-39 -276 -118 -460.5t-175 -184.5q-66 0 -128.5 91t-113.5 251q-49 150 -80.5 330t-31.5 291z" />
<glyph unicode="x" horiz-adv-x="1042" d="M96 68q0 14 8 26q82 113 326 457q-41 51 -98 127q-102 129 -207 266q-8 12 -8 29q0 23 27.5 46t54.5 23q12 0 24.5 -5t18.5 -13l47 -61q150 -190 225 -289l244 348q16 23 39 22q31 0 58.5 -25.5t27.5 -51.5q0 -10 -6 -21l-273 -389l348 -451q15 -16 15 -32 q0 -31 -24.5 -52.5t-55.5 -21.5t-49 25q-129 168 -318 409l-289 -411q-18 -27 -55 -27q-33 0 -56.5 21.5t-23.5 50.5z" />
<glyph unicode="y" horiz-adv-x="1069" d="M80 979q0 25 20.5 43t59.5 18q31 0 43 -12t20 -43q209 -643 381 -756q125 442 207 764q8 29 22.5 41.5t45.5 12.5q76 0 88 -62q2 -8 -2 -22q-70 -287 -114 -445t-110 -348q-47 -135 -117.5 -330.5t-117.5 -314.5q-10 -29 -27.5 -42t-44.5 -13q-35 0 -58.5 21.5 t-23.5 51.5q0 12 6 29q113 279 193 504q-84 53 -178 200.5t-171 333t-118 342.5q-4 12 -4 27z" />
<glyph unicode="z" horiz-adv-x="1138" d="M84 61q0 37 35 72q399 426 729 764q-35 0 -117 -8q-143 -10 -211 -10q-96 0 -182 8t-125 18q-59 16 -59 66q0 29 16 49t49 16q196 -26 341 -26h11q78 0 236 14q102 8 137 8q68 0 90.5 -15.5t22.5 -47.5q0 -47 -37 -86l-221 -228q-295 -297 -502 -522l92 4q139 8 240 8 q154 0 313 -18q25 -2 38 -20.5t13 -45.5q0 -31 -18.5 -49t-48.5 -16q-171 18 -314 18q-78 0 -282 -10l-129 -4q-57 0 -87 14.5t-30 46.5z" />
<glyph unicode="{" horiz-adv-x="817" d="M102 610q0 29 17.5 53.5t48.5 34.5q74 23 74 480q0 115 43 205t121.5 141t179.5 51q66 0 97.5 -14.5t31.5 -59.5q0 -43 -30 -57t-75 -14q-86 0 -135 -32t-70.5 -103.5t-21.5 -196.5q0 -213 -26.5 -332t-96.5 -158q53 -45 83 -103.5t43 -155.5t13 -261q0 -156 52.5 -234.5 t171.5 -78.5q37 0 59.5 -20.5t22.5 -49.5t-25 -51.5t-62 -22.5q-110 0 -192 56.5t-125 150.5t-43 207q0 215 -14.5 326.5t-71.5 142.5q-33 18 -51.5 44t-18.5 52z" />
<glyph unicode="|" horiz-adv-x="542" d="M205 -139l2 379q4 315 4 606l-2 938q0 18 19.5 30.5t45.5 12.5q25 0 44.5 -11.5t19.5 -27.5v-938q0 -311 -4 -623l-2 -366q0 -23 -17.5 -36t-46.5 -13q-26 0 -44.5 13t-18.5 36z" />
<glyph unicode="}" horiz-adv-x="817" d="M102 1509q0 45 29 55.5t98 10.5q100 0 179 -51t123 -141.5t44 -204.5q0 -457 72 -480q31 -10 49.5 -34.5t18.5 -53.5q0 -27 -18.5 -52.5t-51.5 -43.5q-57 -31 -71.5 -142.5t-14.5 -326.5q0 -113 -43 -207t-125 -150.5t-192 -56.5q-39 0 -62.5 18.5t-23.5 47.5t22.5 49.5 t59.5 20.5q229 0 229 321q0 164 13.5 261t43 155.5t84.5 103.5q-70 39 -96.5 158t-26.5 332q0 182 -54 261t-181 79q-47 0 -76 14t-29 57z" />
<glyph unicode="~" horiz-adv-x="1105" d="M141 631q0 27 33 55q33 29 90.5 46.5t114.5 17.5q37 0 80 -10.5t81 -22.5t50 -17q96 -31 160 -30q37 0 94 28q41 18 55 19q27 0 47.5 -21.5t20.5 -46.5q0 -12 -4.5 -19t-18.5 -20q-33 -29 -83 -45t-99 -16q-60 0 -105 9t-106 28l-41 12q-47 14 -77 21.5t-66 7.5 q-53 0 -99 -21q-8 -4 -30.5 -15t-40.5 -11q-20 0 -38 15t-18 36z" />
<glyph unicode="&#xa1;" horiz-adv-x="542" d="M145 922q0 51 37 89t88 38q47 0 87 -39t40 -88q0 -47 -39 -84t-88 -37q-51 0 -88 36.5t-37 84.5zM211 -332l12 963q0 33 14.5 50t41.5 17t43 -21.5t16 -53.5l-8 -955q0 -33 -15.5 -51t-42.5 -18q-28 0 -44.5 18t-16.5 51z" />
<glyph unicode="&#xa2;" horiz-adv-x="1204" d="M111 498q0 135 54 255.5t159.5 199.5t250.5 94v155q0 20 14.5 30.5t33.5 10.5q49 0 49 -41v-155q158 -10 259 -92.5t148 -194.5q8 -16 8 -33q0 -41 -51 -53q-8 -2 -22 -2q-43 0 -72 53q-31 80 -109.5 137.5t-191.5 57.5t-199 -58.5t-131 -155t-45 -204.5 q0 -160 94.5 -264.5t266.5 -104.5q111 0 187.5 43t116.5 107.5t44 130.5q0 49 61 49q78 0 78 -68q0 -84 -52 -171t-153.5 -148.5t-240.5 -69.5v-151q0 -23 -13.5 -34t-33.5 -11q-49 0 -50 43v153q-147 10 -251.5 79t-156.5 176.5t-52 236.5z" />
<glyph unicode="&#xa3;" horiz-adv-x="1218" d="M123 47q0 14 4 23.5t12 21.5q27 41 97.5 80t146.5 49q63 96 63 223q0 63 -26 134l-182 2q-37 0 -57.5 10t-20.5 41q0 29 19.5 38t58.5 9l139 -2q-10 25 -53 104q-49 94 -74 156.5t-25 132.5q0 90 53.5 175t149.5 137.5t215 52.5q172 0 279.5 -98.5t107.5 -264.5 q0 -41 -12 -58.5t-47 -17.5t-50.5 18.5t-15.5 55.5q0 119 -77.5 184.5t-184.5 65.5q-80 0 -144.5 -36t-100.5 -95.5t-36 -126.5q0 -66 28 -133.5t85 -175.5l41 -78l264 -2q43 0 63.5 -11.5t20.5 -39.5q0 -29 -19.5 -38.5t-64.5 -9.5l-223 2q20 -76 21 -129 q0 -61 -19.5 -127.5t-50.5 -117.5q14 -4 78 -27q70 -29 128 -45t113 -16q63 0 97 25.5t73 86.5q27 39 56 39q24 0 43.5 -16.5t19.5 -38.5q0 -8 -8 -29q-41 -84 -111.5 -132t-173.5 -48q-72 0 -129 15.5t-123 43.5q-51 23 -85.5 33t-71.5 10q-55 0 -89 -21.5t-85 -66.5 q-33 -27 -56 -26q-29 0 -45 19.5t-16 39.5z" />
<glyph unicode="&#xa4;" horiz-adv-x="1722" d="M213 717q0 113 41 218t117 191l-111 115q-25 27 -24 51q0 31 24.5 54.5t56.5 23.5q18 0 37 -11t31 -26l98 -106q170 125 383 125q104 0 201.5 -32t175.5 -89l94 102q37 37 72 37q16 0 31 -6q25 -10 37 -28.5t12 -39.5q0 -27 -27 -55l-104 -111q74 -84 112.5 -189 t38.5 -222q0 -240 -163 -416l127 -139q10 -10 13 -18.5t3 -20.5q0 -29 -24.5 -50.5t-53.5 -21.5q-18 0 -37.5 11.5t-30.5 23.5l-110 119q-82 -57 -177 -89t-194 -32q-98 0 -193.5 30.5t-179.5 90.5l-110 -119q-20 -20 -45 -28.5t-41 -2.5q-25 8 -42.5 26.5t-17.5 39.5 q0 16 15 39q8 10 129 141q-80 90 -122 195.5t-42 218.5zM373 729q0 -139 66.5 -256t179 -185.5t245.5 -68.5q129 0 241 65.5t178.5 181.5t66.5 259t-66.5 257t-177.5 177.5t-240 63.5q-131 0 -244.5 -64.5t-181 -178.5t-67.5 -251z" />
<glyph unicode="&#xa5;" horiz-adv-x="1341" d="M143 1366q0 27 26 47.5t58 20.5q51 0 82 -72q59 -141 87 -197.5t87 -154.5q57 -92 104.5 -151.5t84.5 -59.5q63 0 190 213q47 80 86 159.5t90 198.5q14 35 30.5 47.5t41.5 12.5q37 0 62.5 -22t25.5 -52q0 -14 -6 -27q-57 -143 -98 -229t-90 -164q-56 -90 -112 -151.5 t-104 -92.5l232 4q23 0 35 -14t12 -35q0 -23 -12.5 -37t-34.5 -14l-272 -4l2 -105l268 5q23 0 36 -13.5t13 -36.5t-13.5 -37t-35.5 -14l-268 -4l4 -299q0 -82 -78 -82q-80 0 -80 78l-4 301l-277 -4q-25 0 -37 14.5t-12 38.5q0 20 13.5 33.5t35.5 13.5l277 4l-2 105l-275 -4 q-23 0 -36 14t-13 37t12.5 36t36.5 13l240 4q-92 59 -213 250q-63 100 -103 184t-92 217q-4 12 -4 25z" />
<glyph unicode="&#xa6;" horiz-adv-x="555" d="M205 -133l14 813q0 59 64 59q63 0 63 -59l-12 -813q0 -55 -64 -55q-30 0 -47.5 14t-17.5 41zM207 1774q0 25 18.5 39t46.5 14q61 0 62 -53l16 -811q0 -27 -17.5 -40.5t-45.5 -13.5q-29 0 -46.5 13.5t-17.5 40.5z" />
<glyph unicode="&#xa7;" horiz-adv-x="1318" d="M184 702q0 90 40 170t110 134q-74 90 -74 198q0 98 57.5 179t159 127t228.5 46q113 0 203.5 -43t144 -122.5t53.5 -184.5q0 -68 -66 -67q-59 0 -59 47q0 125 -79 190.5t-210 65.5q-133 0 -218 -65.5t-85 -172.5q0 -94 73 -163.5t259 -120.5q414 -115 414 -367 q0 -74 -43 -148.5t-121 -121.5q51 -47 74.5 -114t23.5 -161q0 -86 -49 -163.5t-144.5 -128t-226.5 -50.5q-135 0 -239.5 58.5t-163 159t-58.5 220.5q0 27 17.5 42.5t50.5 15.5q27 0 44 -15.5t17 -40.5q0 -86 39 -160.5t115 -119.5t180 -45q96 0 162 36t96.5 90t30.5 111 q0 86 -38 141.5t-109.5 91.5t-194.5 71q-203 57 -308.5 147t-105.5 233zM313 721q0 -74 27 -125t96.5 -91t200.5 -75q141 -37 215 -74q68 31 111 85.5t43 115.5q0 88 -82 148.5t-262 111.5q-145 41 -242 111q-43 -33 -75 -90.5t-32 -116.5z" />
<glyph unicode="&#xa8;" horiz-adv-x="770" d="M27 1298q0 49 33.5 81t82.5 32t84 -32.5t35 -80.5q0 -49 -33.5 -83.5t-85.5 -34.5q-49 0 -82.5 33.5t-33.5 84.5zM518 1298q0 49 34 81t83 32t83 -32.5t34 -80.5q0 -49 -34 -83.5t-83 -34.5t-83 33.5t-34 84.5z" />
<glyph unicode="&#xa9;" horiz-adv-x="1830" d="M184 731q0 190 92.5 354t263.5 262.5t400 98.5q221 0 381 -104.5t243 -271.5t83 -349q0 -193 -84 -357.5t-245 -264t-378 -99.5q-223 0 -396 102.5t-266.5 270.5t-93.5 358zM303 737q0 -170 82 -313t227.5 -228t327.5 -85q172 0 306 76.5t208 214t74 309.5 q0 162 -63.5 305t-195.5 232t-329 89q-186 0 -331.5 -83t-225.5 -221t-80 -296zM522 688q0 137 55.5 243.5t147.5 166t203 59.5q68 0 122 -24.5t105 -73.5v53q0 41 41 41q25 0 41 -10t16 -27q0 -109 -11 -153.5t-46 -47.5q-35 0 -49 17q-59 68 -100 95.5t-103 27.5 q-74 0 -141.5 -45t-109.5 -128t-42 -192q0 -162 80 -233.5t217 -71.5q117 0 173.5 59.5t56.5 141.5q0 20 16 31.5t43 11.5t43 -11.5t16 -31.5q-2 -131 -96 -216t-260 -85q-113 0 -208 44t-152.5 135t-57.5 224z" />
<glyph unicode="&#xaa;" horiz-adv-x="727" d="M98 1217q0 113 63.5 193.5t174.5 80.5q98 0 151 -61v18q0 12 13.5 24.5t31.5 12.5t34 -11.5t14 -25.5q-8 -43 -15 -111q-2 -61 -2 -196q0 -49 3 -67.5t10.5 -25t29.5 -12.5q12 -4 17.5 -9t5.5 -21q0 -41 -35 -41q-41 0 -65.5 15t-36.5 48q-25 -37 -61 -53.5t-89 -16.5 q-127 0 -185.5 78t-58.5 181zM197 1217q0 -72 30.5 -123.5t108.5 -51.5q59 0 95 29t38 86q2 41 2 129q0 70 -40 96.5t-87 26.5q-80 0 -113.5 -57.5t-33.5 -134.5z" />
<glyph unicode="&#xab;" horiz-adv-x="1163" d="M123 752q0 53 61.5 123.5t164 134t218.5 96.5q12 4 33 4q27 0 42 -13.5t15 -39.5q0 -27 -16 -42.5t-51 -27.5q-76 -18 -157 -66.5t-137 -98.5t-56 -68q0 -20 54 -69.5t130 -97.5t141 -65q29 -8 46.5 -27.5t17.5 -41.5q0 -23 -16.5 -37.5t-39.5 -14.5q-14 0 -20 2 q-113 33 -212 94.5t-158.5 131t-59.5 123.5zM514 741q0 51 62.5 121t165 134.5t219.5 99.5q16 4 22 4q25 0 41 -17.5t16 -44.5q0 -47 -53 -61q-84 -25 -165 -72t-132 -94t-51 -72q0 -20 49 -66t124 -92t149 -69q61 -20 61 -68q0 -23 -17.5 -39t-41.5 -16q-11 0 -17 2 q-115 35 -214 98.5t-158.5 132t-59.5 119.5z" />
<glyph unicode="&#xac;" horiz-adv-x="1574" d="M123 905q0 70 82 70l616 2h545q35 0 56.5 -16.5t23.5 -47.5l6 -458q0 -72 -72 -72q-61 0 -61 74q0 248 -2 383l-508 2l-596 -2q-90 0 -90 65z" />
<glyph unicode="&#xad;" horiz-adv-x="780" d="M82 567q0 31 16.5 49.5t40.5 18.5q147 6 484 6q37 0 56 -18.5t19 -53.5q0 -29 -22.5 -48t-57.5 -19q-152 0 -299 -6q-127 -4 -176 -4q-26 0 -43.5 22.5t-17.5 52.5z" />
<glyph unicode="&#xae;" horiz-adv-x="1830" d="M184 731q0 188 93.5 355t263.5 267.5t391 100.5q227 0 389 -106.5t244 -276.5t82 -356q0 -188 -85 -352t-246 -263.5t-380 -99.5q-221 0 -393 102.5t-265.5 270.5t-93.5 358zM303 735q0 -166 82 -310t227.5 -231.5t325.5 -87.5q172 0 308 80t213 219.5t77 307.5 q0 160 -68.5 305t-205 237.5t-330.5 92.5q-184 0 -327.5 -85t-222.5 -225.5t-79 -302.5zM606 1018q0 20 39 39v33q0 27 17.5 38t44.5 11q49 0 49 -37q109 35 194 35q129 0 216 -71t87 -192q0 -120 -99 -182.5t-265 -62.5q-12 0 -45 4l366 -252q14 -8 19.5 -15.5t5.5 -19.5 q0 -23 -18.5 -41t-40.5 -18q-20 0 -37 12l-371 279l-2 -240q0 -23 -13.5 -39t-43.5 -16q-53 0 -54 55l2 166v213q0 59 -8 239q-20 2 -31.5 21.5t-11.5 40.5zM756 999q4 -170 10 -247q45 -23 149 -23q98 0 164 36t66 116q0 73 -57.5 115t-153.5 42q-80 0 -178 -39z" />
<glyph unicode="&#xaf;" horiz-adv-x="784" d="M41 1329q0 27 17.5 43.5t41.5 16.5q12 0 56.5 -8.5t101.5 -8.5q45 0 139 8q98 8 156 9q27 0 76 -5q33 -4 51 -4q27 -2 45 -20.5t18 -42.5q0 -29 -21.5 -46.5t-47.5 -13.5q-66 8 -109 9q-61 0 -151 -9q-82 -8 -133 -8l-91 -2q-57 0 -104 17q-45 18 -45 65z" />
<glyph unicode="&#xb0;" horiz-adv-x="788" d="M82 1436q0 88 42 159.5t113.5 111.5t159.5 40q90 0 161 -41t110 -108.5t39 -141.5q0 -88 -45.5 -157.5t-118 -108.5t-154.5 -39q-137 0 -222 81t-85 204zM197 1436q0 -82 56 -130.5t136 -48.5q88 0 145.5 53.5t57.5 141.5q0 72 -50 129t-153 57q-90 0 -141 -61t-51 -141z " />
<glyph unicode="&#xb1;" horiz-adv-x="1105" d="M102 752q0 61 80 61l310 -4v231q0 61 67 62q35 0 50.5 -15.5t15.5 -46.5v-233l290 -2q50 0 70.5 -16.5t20.5 -47.5q0 -61 -88 -61l-293 2v-227q0 -33 -17.5 -52.5t-50.5 -19.5q-35 0 -49 18.5t-14 55.5v227l-316 2q-76 0 -76 66zM154 168q0 33 19.5 49t66.5 16l632 7 q46 0 68.5 -18.5t22.5 -49.5q0 -59 -99 -59l-631 -7q-41 0 -60 14.5t-19 47.5z" />
<glyph unicode="&#xb2;" horiz-adv-x="774" d="M61 805q18 104 99.5 202.5t230.5 202.5q162 113 162 248q0 78 -49 126t-127 48q-70 0 -116 -52t-46 -126q0 -53 -72 -53q-70 0 -69 69q0 74 41 139.5t112.5 104.5t161.5 39q137 0 224 -84t87 -211q0 -193 -227 -346q-188 -129 -240 -229q49 2 148 2l160 -2q43 -2 108 -2 q31 0 47.5 -17.5t16.5 -46.5t-17.5 -49t-46.5 -20l-82 2q-74 6 -186 6q-53 0 -139 -4l-117 -2q-31 0 -48.5 15t-15.5 40z" />
<glyph unicode="&#xb3;" horiz-adv-x="868" d="M66 1081q0 80 69 80q72 0 72 -63q2 -98 49 -165t195 -67q98 0 156.5 42t58.5 124q0 84 -56.5 118t-146.5 38q-31 2 -45.5 15.5t-14.5 39.5q0 35 14.5 49.5t43.5 14.5q184 10 184 161q0 74 -47 119t-117 45q-74 0 -126 -44t-52 -109q0 -20 6 -49q4 -23 -14.5 -39.5 t-56.5 -16.5q-49 0 -66 33q-14 27 -14 78q0 74 44 135t116.5 97t156.5 36t155.5 -36t114.5 -98.5t43 -137.5q0 -80 -34.5 -139.5t-91.5 -90.5q65 -30 105 -89.5t40 -139.5q0 -72 -40 -135.5t-118 -102.5t-188 -39q-180 0 -287.5 83t-107.5 253z" />
<glyph unicode="&#xb4;" horiz-adv-x="770" d="M225 1206q0 23 23 51l178 218q20 27 37.5 37t40.5 10q29 0 47 -18.5t18 -47.5q0 -33 -41 -78l-180 -192q-18 -20 -32.5 -27.5t-32.5 -7.5q-21 0 -36.5 12.5t-19.5 30.5z" />
<glyph unicode="&#xb6;" horiz-adv-x="1228" d="M102 1036q0 154 79 264.5t219.5 169t324.5 58.5q143 0 180 -4q49 -4 68.5 -24.5t19.5 -61.5v-1434q0 -37 -11 -51t-44 -14q-27 0 -41 10t-14 41l-6 1401q0 23 -14.5 27.5t-55.5 4.5q-55 0 -71.5 -6t-16.5 -31l2 -1396q0 -51 -59 -51q-27 0 -39.5 12t-12.5 41l-2 575 q-137 4 -252.5 59.5t-184.5 161t-69 248.5z" />
<glyph unicode="&#xb7;" horiz-adv-x="892" d="M283 713q0 70 50 117t116 47q68 0 114.5 -47.5t46.5 -116.5q0 -74 -48 -118t-113 -44q-68 0 -117 47t-49 115z" />
<glyph unicode="&#xb8;" horiz-adv-x="770" d="M90 -369q0 27 17.5 43.5t42.5 16.5q14 0 20 -2q82 -23 123 -23q70 0 100.5 10.5t30.5 53.5q0 29 -26.5 40t-68.5 17t-61 10q-35 4 -51 23.5t-8 46.5l121 186q23 35 47 35q31 0 58.5 -14.5t27.5 -38.5q0 -8 -12 -29l-72 -117q80 -16 128 -47.5t48 -97.5q0 -102 -76 -151.5 t-194 -49.5q-76 0 -152 29q-20 8 -31.5 24.5t-11.5 34.5z" />
<glyph unicode="&#xb9;" horiz-adv-x="579" d="M47 1448q0 25 31 59l49 62l113 145q25 27 86 27q39 0 64.5 -19.5t25.5 -54.5v-854q0 -29 -19.5 -45t-56.5 -16q-66 0 -66 61v754q-8 -12 -39.5 -57.5t-80.5 -96.5q-18 -20 -48 -20q-23 0 -41 15t-18 40z" />
<glyph unicode="&#xba;" horiz-adv-x="722" d="M98 1200q0 129 69 203t193 74q113 0 189 -73t76 -196q0 -127 -73 -189.5t-194 -62.5q-108 0 -184 60.5t-76 183.5zM190 1200q0 -82 49.5 -123t118.5 -41q78 0 125 41t47 121q0 90 -48 144.5t-122 54.5q-82 0 -126 -52.5t-44 -144.5z" />
<glyph unicode="&#xbb;" horiz-adv-x="1165" d="M123 461q0 47 53 61q84 25 165 72t132 94t51 72q0 18 -49 65t-124 93.5t-148 70.5q-29 8 -45.5 25.5t-16.5 38.5q0 25 17.5 41t40.5 16q12 0 18 -2q115 -35 214 -97.5t158.5 -131t59.5 -121.5q0 -51 -61.5 -120t-165 -133.5t-219.5 -101.5q-20 -4 -27 -4 q-24 0 -38.5 17.5t-14.5 44.5zM506 444q0 27 18.5 44.5t48.5 23.5q76 14 158 62.5t138.5 100.5t56.5 70t-54.5 68.5t-130 97.5t-141.5 66q-31 8 -48 27.5t-17 42.5t16 38t39 15q4 0 20 -4q113 -33 213.5 -95.5t159.5 -132t59 -120.5q0 -53 -61 -124t-164.5 -134.5 t-220.5 -96.5q-20 -4 -29 -4q-26 0 -43.5 15.5t-17.5 39.5z" />
<glyph unicode="&#xbc;" horiz-adv-x="1781" d="M47 1278q0 25 31 59l49 62l113 145q25 27 86 27q39 0 64.5 -19.5t25.5 -54.5v-854q0 -29 -19.5 -45t-56.5 -16q-66 0 -66 61v754q-8 -12 -39.5 -57.5t-80.5 -96.5q-18 -20 -48 -20q-23 0 -41 15t-18 40zM305 57q0 25 19 52l833 1411q27 47 76 47q27 0 46 -16.5t19 -45.5 q0 -26 -12 -49l-842 -1415q-23 -41 -69 -41q-29 0 -49.5 15.5t-20.5 41.5zM909 334q0 20 13 45q104 207 192 351t189 251q16 16 45 16q31 0 47 -16t16 -43t-31 -64q-88 -98 -169 -230t-130 -241q-2 -4 -2 -10q0 -12 23 -14q49 -10 186 -10q45 0 131 4l13 299q4 61 69 61 q37 0 56.5 -19.5t17.5 -51.5l-12 -279q37 2 100 10q25 4 41 -13.5t16 -47.5q0 -27 -11 -41.5t-42 -20.5l-108 -12l-11 -219q0 -25 -20.5 -42t-52.5 -17q-35 0 -52.5 18t-17.5 49l8 207q-66 -2 -211 -2q-125 0 -237 27q-55 12 -56 55z" />
<glyph unicode="&#xbd;" horiz-adv-x="1806" d="M47 1276q0 25 31 59l49 62l113 145q25 27 86 27q39 0 64.5 -19.5t25.5 -54.5v-854q0 -29 -19.5 -45t-56.5 -16q-66 0 -66 61v754q-8 -12 -39.5 -57.5t-80.5 -96.5q-18 -20 -48 -20q-23 0 -41 15t-18 40zM305 57q0 25 19 52l833 1411q27 47 76 47q27 0 46 -16.5t19 -45.5 q0 -26 -12 -49l-842 -1415q-23 -41 -69 -41q-29 0 -49.5 15.5t-20.5 41.5zM1094 53q18 104 99 202.5t230 203.5q162 113 162 248q0 78 -49 126t-127 48q-70 0 -116 -52.5t-46 -126.5q0 -53 -71 -53q-70 0 -70 70q0 74 41 139.5t112.5 104t161.5 38.5q137 0 224.5 -83.5 t87.5 -210.5q0 -193 -228 -347q-188 -129 -239 -229q49 2 147 2l160 -2q43 -2 108 -2q31 0 47.5 -17.5t16.5 -45.5q0 -29 -17.5 -49.5t-46.5 -20.5l-82 2q-74 6 -186 6q-53 0 -139 -4l-117 -2q-31 0 -48 15.5t-15 39.5z" />
<glyph unicode="&#xbe;" horiz-adv-x="2074" d="M66 897q0 80 69 80q72 0 72 -64q2 -98 49 -164.5t195 -66.5q98 0 156.5 42t58.5 124q0 84 -56.5 117.5t-146.5 38.5q-31 2 -45.5 15t-14.5 40q0 35 14.5 49t43.5 14q184 10 184 162q0 74 -47 119t-117 45q-74 0 -126 -44t-52 -110q0 -20 6 -49q4 -23 -14.5 -39t-56.5 -16 q-49 0 -66 33q-14 27 -14 77q0 74 44 135.5t116.5 97.5t156.5 36t155.5 -36t114.5 -98.5t43 -138.5q0 -80 -34.5 -139t-91.5 -90q66 -31 105.5 -90t39.5 -139q0 -72 -40 -135.5t-118 -102.5t-188 -39q-180 0 -287.5 83t-107.5 253zM598 57q0 25 18 52l834 1411q27 47 74 47 q29 0 48 -16.5t19 -45.5q0 -26 -14 -49l-840 -1415q-23 -41 -69 -41q-29 0 -49.5 15.5t-20.5 41.5zM1202 334q0 20 12 45q104 207 192.5 351t188.5 251q16 16 45 16q31 0 47.5 -16t16.5 -43t-31 -64q-88 -98 -169 -230t-130 -241q-2 -4 -2 -10q0 -12 23 -14q49 -10 186 -10 q45 0 131 4l12 299q4 61 70 61q37 0 56.5 -19.5t17.5 -51.5l-13 -279q37 2 101 10q24 4 40.5 -13.5t16.5 -47.5q0 -27 -11 -41.5t-42 -20.5l-109 -12l-10 -219q0 -25 -20.5 -42t-53.5 -17q-35 0 -52 18t-17 49l8 207q-66 -2 -211 -2q-125 0 -238 27q-55 12 -55 55z" />
<glyph unicode="&#xbf;" horiz-adv-x="1079" d="M123 160q0 106 47 181t141 171q82 82 122 142.5t40 138.5q0 33 17.5 52t46.5 19q27 0 42 -19.5t15 -51.5q0 -78 -26.5 -141.5t-64.5 -109.5t-102 -112q-78 -76 -117.5 -135t-39.5 -135q0 -133 78.5 -214t209.5 -81q158 0 231 64.5t73 191.5q0 61 -38 108t-100 47 q-68 0 -67 66q0 25 20.5 40t48.5 15q70 0 129.5 -37.5t93 -101t33.5 -137.5q0 -174 -111.5 -275.5t-307.5 -101.5q-127 0 -221.5 57.5t-143.5 152.5t-49 206zM424 1079q0 45 32.5 78t75.5 33q47 0 80 -32t33 -79q0 -43 -33.5 -75.5t-79.5 -32.5q-43 0 -75.5 32.5t-32.5 75.5 z" />
<glyph unicode="&#xc0;" horiz-adv-x="1417" d="M152 47q0 4 4 25q207 606 350 1054q33 98 33 99q41 125 82 178t100 53q57 0 94 -47t74 -164q78 -242 194 -627l35 -116h58q33 0 54 -22.5t21 -57.5q0 -80 -63 -80h-23q47 -162 82 -272q6 -19 6 -25q0 -33 -25.5 -49t-62.5 -16q-27 0 -47 12t-26 33l-95 317l-583 4 l-101 -313q-16 -51 -75 -51q-35 0 -60.5 18t-25.5 47zM467 510l485 -6l-61 211q-72 248 -111 379q-25 82 -39 118.5t-26 36.5q-10 0 -22.5 -31.5t-41.5 -121.5l-100 -316zM561 1825q0 27 17.5 45.5t42.5 18.5q35 0 76 -49l149 -175q29 -33 29 -59q0 -23 -16.5 -39t-39.5 -16 q-16 0 -29.5 7t-31.5 26l-162 176q-35 39 -35 65z" />
<glyph unicode="&#xc1;" horiz-adv-x="1417" d="M152 47q0 4 4 25q207 606 350 1054q33 98 33 99q41 125 82 178t100 53q57 0 94 -47t74 -164q78 -242 194 -627l35 -116h58q33 0 54 -22.5t21 -57.5q0 -80 -63 -80h-23q47 -162 82 -272q6 -19 6 -25q0 -33 -25.5 -49t-62.5 -16q-27 0 -47 12t-26 33l-95 317l-583 4 l-101 -313q-16 -51 -75 -51q-35 0 -60.5 18t-25.5 47zM467 510l485 -6l-61 211q-72 248 -111 379q-25 82 -39 118.5t-26 36.5q-10 0 -22.5 -31.5t-41.5 -121.5l-100 -316zM586 1606q0 33 29 59l166 175q25 27 41 38t34 11q25 0 42.5 -18.5t17.5 -45.5q0 -31 -35 -65 l-180 -176q-33 -33 -62 -33q-22 0 -37.5 16.5t-15.5 38.5z" />
<glyph unicode="&#xc2;" horiz-adv-x="1417" d="M152 47q0 4 4 25q207 606 350 1054q33 98 33 99q41 125 82 178t100 53q57 0 94 -47t74 -164q78 -242 194 -627l35 -116h58q33 0 54 -22.5t21 -57.5q0 -80 -63 -80h-23q47 -162 82 -272q6 -19 6 -25q0 -33 -25.5 -49t-62.5 -16q-27 0 -47 12t-26 33l-95 317l-583 4 l-101 -313q-16 -51 -75 -51q-35 0 -60.5 18t-25.5 47zM404 1633q0 27 20 47q33 33 51 55q78 86 136.5 138.5t99.5 52.5q53 0 104.5 -48.5t126.5 -146.5l56 -70q18 -18 18 -41t-17.5 -40t-39.5 -17q-36 0 -54 27q-70 94 -120 151.5t-68 57.5q-16 0 -59 -43t-129 -142 q-35 -41 -64 -41q-23 0 -42 18.5t-19 41.5zM467 510l485 -6l-61 211q-72 248 -111 379q-25 82 -39 118.5t-26 36.5q-10 0 -22.5 -31.5t-41.5 -121.5l-100 -316z" />
<glyph unicode="&#xc3;" horiz-adv-x="1417" d="M152 47q0 4 4 25q207 606 350 1054q33 98 33 99q41 125 82 178t100 53q57 0 94 -47t74 -164q78 -242 194 -627l35 -116h58q33 0 54 -22.5t21 -57.5q0 -80 -63 -80h-23q47 -162 82 -272q6 -19 6 -25q0 -33 -25.5 -49t-62.5 -16q-27 0 -47 12t-26 33l-95 317l-583 4 l-101 -313q-16 -51 -75 -51q-35 0 -60.5 18t-25.5 47zM383 1629q0 23 17 43q49 59 88 83.5t92 24.5q94 0 180 -45q12 -6 38 -19.5t43 -19.5t32 -6q16 0 29.5 9t29.5 26q29 31 51 31q23 0 42.5 -20.5t19.5 -43.5t-17 -43q-43 -41 -80.5 -60.5t-78.5 -19.5q-29 0 -56.5 9.5 t-62.5 27.5q-8 4 -45 21q-10 4 -50 21t-67 17q-18 0 -34.5 -12t-32 -28.5t-19.5 -22.5q-33 -33 -61 -33q-23 0 -39 17q-19 23 -19 43zM467 510l485 -6l-61 211q-72 248 -111 379q-25 82 -39 118.5t-26 36.5q-10 0 -22.5 -31.5t-41.5 -121.5l-100 -316z" />
<glyph unicode="&#xc4;" horiz-adv-x="1417" d="M152 47q0 4 4 25q207 606 350 1054q33 98 33 99q41 125 82 178t100 53q57 0 94 -47t74 -164q78 -242 194 -627l35 -116h58q33 0 54 -22.5t21 -57.5q0 -80 -63 -80h-23q47 -162 82 -272q6 -19 6 -25q0 -33 -25.5 -49t-62.5 -16q-27 0 -47 12t-26 33l-95 317l-583 4 l-101 -313q-16 -51 -75 -51q-35 0 -60.5 18t-25.5 47zM359 1702q0 45 31.5 76t78.5 31t80 -31t33 -76t-34 -78.5t-79 -33.5q-47 0 -78.5 32.5t-31.5 79.5zM467 510l485 -6l-61 211q-72 248 -111 379q-25 82 -39 118.5t-26 36.5q-10 0 -22.5 -31.5t-41.5 -121.5l-100 -316z M850 1702q0 45 32 76t79 31t78.5 -31t31.5 -76q0 -47 -32.5 -79.5t-77.5 -32.5q-47 0 -79 32.5t-32 79.5z" />
<glyph unicode="&#xc5;" horiz-adv-x="1417" d="M152 47q0 4 4 25q207 606 350 1054q33 98 33 99q41 125 82 178t100 53q57 0 94 -47t74 -164q78 -242 194 -627l35 -116h58q33 0 54 -22.5t21 -57.5q0 -80 -63 -80h-23q47 -162 82 -272q6 -19 6 -25q0 -33 -25.5 -49t-62.5 -16q-27 0 -47 12t-26 33l-95 317l-583 4 l-101 -313q-16 -51 -75 -51q-35 0 -60.5 18t-25.5 47zM467 510l485 -6l-61 211q-72 248 -111 379q-25 82 -39 118.5t-26 36.5q-10 0 -22.5 -31.5t-41.5 -121.5l-100 -316zM494 1733q0 90 65.5 153.5t163.5 63.5q59 0 109.5 -30.5t78 -81t27.5 -105.5q0 -96 -62.5 -159.5 t-158.5 -63.5q-94 0 -158.5 64.5t-64.5 158.5zM598 1733q0 -51 34 -85t85 -34t85 34t34 85q0 45 -34 80t-85 35t-85 -34t-34 -81z" />
<glyph unicode="&#xc6;" horiz-adv-x="1871" d="M154 78q240 520 460 922.5t347 412.5q4 2 14 2l188 4q133 6 211 6q98 0 375 -18q45 -4 45 -59q0 -43 -18.5 -58.5t-40.5 -13.5l-66 2q-143 8 -276 8q-170 0 -252 -6q8 -139 8 -348v-125l219 -4q193 -4 227 -6q16 -2 25.5 -17.5t9.5 -40.5q0 -57 -74 -57l-155 4l-133 4 h-123q-8 -180 -31 -479q0 -20 -4 -66q231 -20 360 -20q72 0 112 3t126 15q27 4 50.5 -12t23.5 -53q0 -57 -62 -76q-47 -14 -198 -14q-70 0 -217 4q-276 6 -332 6q-66 0 -89.5 15.5t-23.5 49.5q0 41 19.5 57.5t64.5 16.5q14 129 21 250l-484 4l-116 -241l-52 -107 q-10 -23 -21 -32t-34 -9q-41 0 -79 25.5t-25 50.5zM541 508l432 -6q12 287 12 547q0 137 -2 188q-127 -96 -442 -729z" />
<glyph unicode="&#xc7;" horiz-adv-x="1462" d="M102 686q0 223 91.5 400.5t246 275.5t334.5 98q125 0 225.5 -47t167.5 -133l-2 100q0 33 19.5 51.5t58.5 18.5q74 0 74 -76v-229q0 -92 -74 -92q-27 0 -45 10t-35 33q-162 219 -389 219q-139 0 -258 -83t-187.5 -227.5t-68.5 -324.5q0 -178 77 -300t198.5 -181.5 t259.5 -59.5q111 0 211 39t163.5 120t63.5 204q0 37 20.5 57.5t57.5 20.5q82 0 82 -78q0 -137 -72 -251t-207 -183.5t-313 -73.5l-64 -105q80 -16 128 -47.5t48 -97.5q0 -102 -75.5 -151.5t-194.5 -49.5q-76 0 -151 29q-20 8 -31.5 24.5t-11.5 34.5q0 27 17 43.5t42 16.5 q14 0 20 -2q82 -23 123 -23q72 0 101.5 10.5t29.5 53.5q0 29 -26.5 40t-68.5 17t-60 10q-35 4 -51.5 23.5t-8.5 46.5l88 137q-156 25 -280.5 108t-198.5 228t-74 346z" />
<glyph unicode="&#xc8;" horiz-adv-x="1173" d="M104 117q0 31 14.5 51t37.5 20q20 0 34 -2q33 205 35 500h-24q-35 0 -53.5 18.5t-18.5 53.5q0 72 64 71h32v228q0 147 -2 221q-57 10 -57 65q0 43 21.5 56.5t60.5 17.5q115 12 352 13q297 0 426 -19q35 -6 52.5 -19.5t17.5 -48.5t-18.5 -55t-47.5 -16q-205 16 -377 16 q-133 0 -276 -8q8 -287 8 -453l137 -2q164 -4 209 -4q111 -4 139 -4q57 0 58 -67q0 -35 -14.5 -55.5t-43.5 -20.5l-108 2q-92 6 -244 6q-92 0 -135 2q-2 -233 -35 -508q127 -10 318 -10q111 0 175 4t156 14q43 4 64.5 -14t21.5 -57q0 -35 -16 -50.5t-45 -21.5 q-80 -16 -309 -16h-66q-137 0 -244.5 4t-242.5 20q-55 6 -56 68zM462 1825q0 27 17.5 45.5t42.5 18.5q35 0 76 -49l149 -175q29 -33 29 -59q0 -23 -16.5 -39t-39.5 -16q-16 0 -29.5 7t-31.5 26l-162 176q-35 39 -35 65z" />
<glyph unicode="&#xc9;" horiz-adv-x="1173" d="M104 117q0 31 14.5 51t37.5 20q20 0 34 -2q33 205 35 500h-24q-35 0 -53.5 18.5t-18.5 53.5q0 72 64 71h32v228q0 147 -2 221q-57 10 -57 65q0 43 21.5 56.5t60.5 17.5q115 12 352 13q297 0 426 -19q35 -6 52.5 -19.5t17.5 -48.5t-18.5 -55t-47.5 -16q-205 16 -377 16 q-133 0 -276 -8q8 -287 8 -453l137 -2q164 -4 209 -4q111 -4 139 -4q57 0 58 -67q0 -35 -14.5 -55.5t-43.5 -20.5l-108 2q-92 6 -244 6q-92 0 -135 2q-2 -233 -35 -508q127 -10 318 -10q111 0 175 4t156 14q43 4 64.5 -14t21.5 -57q0 -35 -16 -50.5t-45 -21.5 q-80 -16 -309 -16h-66q-137 0 -244.5 4t-242.5 20q-55 6 -56 68zM487 1606q0 33 29 59l166 175q25 27 41 38t34 11q25 0 42.5 -18.5t17.5 -45.5q0 -31 -35 -65l-180 -176q-33 -33 -62 -33q-22 0 -37.5 16.5t-15.5 38.5z" />
<glyph unicode="&#xca;" horiz-adv-x="1173" d="M104 117q0 31 14.5 51t37.5 20q20 0 34 -2q33 205 35 500h-24q-35 0 -53.5 18.5t-18.5 53.5q0 72 64 71h32v228q0 147 -2 221q-57 10 -57 65q0 43 21.5 56.5t60.5 17.5q115 12 352 13q297 0 426 -19q35 -6 52.5 -19.5t17.5 -48.5t-18.5 -55t-47.5 -16q-205 16 -377 16 q-133 0 -276 -8q8 -287 8 -453l137 -2q164 -4 209 -4q111 -4 139 -4q57 0 58 -67q0 -35 -14.5 -55.5t-43.5 -20.5l-108 2q-92 6 -244 6q-92 0 -135 2q-2 -233 -35 -508q127 -10 318 -10q111 0 175 4t156 14q43 4 64.5 -14t21.5 -57q0 -35 -16 -50.5t-45 -21.5 q-80 -16 -309 -16h-66q-137 0 -244.5 4t-242.5 20q-55 6 -56 68zM305 1633q0 27 20 47q33 33 51 55q78 86 136.5 138.5t99.5 52.5q53 0 104.5 -48.5t126.5 -146.5l56 -70q18 -18 18 -41t-17.5 -40t-39.5 -17q-36 0 -54 27q-70 94 -120 151.5t-68 57.5q-16 0 -59 -43 t-129 -142q-35 -41 -64 -41q-23 0 -42 18.5t-19 41.5z" />
<glyph unicode="&#xcb;" horiz-adv-x="1173" d="M104 117q0 31 14.5 51t37.5 20q20 0 34 -2q33 205 35 500h-24q-35 0 -53.5 18.5t-18.5 53.5q0 72 64 71h32v228q0 147 -2 221q-57 10 -57 65q0 43 21.5 56.5t60.5 17.5q115 12 352 13q297 0 426 -19q35 -6 52.5 -19.5t17.5 -48.5t-18.5 -55t-47.5 -16q-205 16 -377 16 q-133 0 -276 -8q8 -287 8 -453l137 -2q164 -4 209 -4q111 -4 139 -4q57 0 58 -67q0 -35 -14.5 -55.5t-43.5 -20.5l-108 2q-92 6 -244 6q-92 0 -135 2q-2 -233 -35 -508q127 -10 318 -10q111 0 175 4t156 14q43 4 64.5 -14t21.5 -57q0 -35 -16 -50.5t-45 -21.5 q-80 -16 -309 -16h-66q-137 0 -244.5 4t-242.5 20q-55 6 -56 68zM260 1702q0 45 31.5 76t78.5 31t80 -31t33 -76t-34 -78.5t-79 -33.5q-47 0 -78.5 32.5t-31.5 79.5zM751 1702q0 45 32 76t79 31t78.5 -31t31.5 -76q0 -47 -32.5 -79.5t-77.5 -32.5q-47 0 -79 32.5t-32 79.5z " />
<glyph unicode="&#xcc;" horiz-adv-x="897" d="M66 1362q0 59 65 72q37 6 158 12t235 6q172 0 244 -12q31 -6 47 -19.5t16 -50.5q0 -35 -19 -54.5t-52 -17.5q-80 6 -189 9q0 -332 -8 -599.5t-31 -551.5l230 -2q69 0 69 -72q0 -74 -71 -74l-621 8q-63 2 -63 74q0 37 19.5 54.5t47.5 17.5l234 -4q37 590 37 1147 q-92 -2 -240 -13l-55 -4q-20 0 -36.5 20.5t-16.5 53.5zM307 1825q0 27 17.5 45.5t42.5 18.5q35 0 76 -49l149 -175q29 -33 29 -59q0 -23 -16.5 -39t-39.5 -16q-16 0 -29.5 7t-31.5 26l-162 176q-35 39 -35 65z" />
<glyph unicode="&#xcd;" horiz-adv-x="897" d="M66 1362q0 59 65 72q37 6 158 12t235 6q172 0 244 -12q31 -6 47 -19.5t16 -50.5q0 -35 -19 -54.5t-52 -17.5q-80 6 -189 9q0 -332 -8 -599.5t-31 -551.5l230 -2q69 0 69 -72q0 -74 -71 -74l-621 8q-63 2 -63 74q0 37 19.5 54.5t47.5 17.5l234 -4q37 590 37 1147 q-92 -2 -240 -13l-55 -4q-20 0 -36.5 20.5t-16.5 53.5zM332 1606q0 33 29 59l166 175q25 27 41 38t34 11q25 0 42.5 -18.5t17.5 -45.5q0 -31 -35 -65l-180 -176q-33 -33 -62 -33q-22 0 -37.5 16.5t-15.5 38.5z" />
<glyph unicode="&#xce;" horiz-adv-x="897" d="M66 1362q0 59 65 72q37 6 158 12t235 6q172 0 244 -12q31 -6 47 -19.5t16 -50.5q0 -35 -19 -54.5t-52 -17.5q-80 6 -189 9q0 -332 -8 -599.5t-31 -551.5l230 -2q69 0 69 -72q0 -74 -71 -74l-621 8q-63 2 -63 74q0 37 19.5 54.5t47.5 17.5l234 -4q37 590 37 1147 q-92 -2 -240 -13l-55 -4q-20 0 -36.5 20.5t-16.5 53.5zM150 1633q0 27 20 47q33 33 51 55q78 86 136.5 138.5t99.5 52.5q53 0 104.5 -48.5t126.5 -146.5l56 -70q18 -18 18 -41t-17.5 -40t-39.5 -17q-36 0 -54 27q-70 94 -120 151.5t-68 57.5q-16 0 -59 -43t-129 -142 q-35 -41 -64 -41q-23 0 -42 18.5t-19 41.5z" />
<glyph unicode="&#xcf;" horiz-adv-x="897" d="M66 1362q0 59 65 72q37 6 158 12t235 6q172 0 244 -12q31 -6 47 -19.5t16 -50.5q0 -35 -19 -54.5t-52 -17.5q-80 6 -189 9q0 -332 -8 -599.5t-31 -551.5l230 -2q69 0 69 -72q0 -74 -71 -74l-621 8q-63 2 -63 74q0 37 19.5 54.5t47.5 17.5l234 -4q37 590 37 1147 q-92 -2 -240 -13l-55 -4q-20 0 -36.5 20.5t-16.5 53.5zM105 1702q0 45 31.5 76t78.5 31t80 -31t33 -76t-34 -78.5t-79 -33.5q-47 0 -78.5 32.5t-31.5 79.5zM596 1702q0 45 32 76t79 31t78.5 -31t31.5 -76q0 -47 -32.5 -79.5t-77.5 -32.5q-47 0 -79 32.5t-32 79.5z" />
<glyph unicode="&#xd0;" horiz-adv-x="1476" d="M82 748q0 37 27.5 58t80.5 19l148 -4l-12 471q-98 6 -99 78q0 33 26 47.5t83 16.5q18 29 70 28q57 0 75 -32q408 -23 648.5 -198t240.5 -505q0 -217 -109.5 -378t-314.5 -248t-485 -87h-146q-45 0 -65.5 16.5t-20.5 55.5q-2 68 78 68h49l-14 516l-154 2q-51 0 -78.5 20.5 t-27.5 55.5zM498 1286l12 -469l229 -4q45 -2 71 -23.5t26 -56.5t-26 -53t-71 -18l-225 4l14 -510q312 14 493 165.5t181 413.5q0 272 -196.5 399.5t-507.5 151.5z" />
<glyph unicode="&#xd1;" horiz-adv-x="1511" d="M164 1317q0 66 20.5 97.5t71.5 31.5q55 0 110.5 -49t114 -135t170.5 -267q-16 29 109 -176q254 -406 405 -600q20 150 21 414v756q0 33 21.5 52t58.5 19q41 0 61.5 -21.5t20.5 -60.5l-2 -747q0 -248 -15.5 -379t-45.5 -179t-81 -48q-61 0 -128.5 64.5t-151.5 188 t-244 375.5q-150 238 -226.5 355.5t-131.5 193.5q0 -139 2 -223l2 -272l2 -621q0 -27 -22.5 -46.5t-57.5 -19.5q-33 0 -56.5 19.5t-23.5 46.5v623q0 195 -2 303zM436 1629q0 23 17 43q49 59 88 83.5t92 24.5q94 0 180 -45q12 -6 38 -19.5t43 -19.5t32 -6q16 0 29.5 9 t29.5 26q29 31 51 31q23 0 42.5 -20.5t19.5 -43.5t-17 -43q-43 -41 -80.5 -60.5t-78.5 -19.5q-29 0 -56.5 9.5t-62.5 27.5q-8 4 -45 21q-10 4 -50 21t-67 17q-18 0 -34.5 -12t-32 -28.5t-19.5 -22.5q-33 -33 -61 -33q-23 0 -39 17q-19 23 -19 43z" />
<glyph unicode="&#xd2;" horiz-adv-x="1622" d="M111 702q0 215 84 385t237.5 265.5t353.5 95.5q203 0 369 -97.5t261 -269.5t95 -389q0 -219 -98 -371.5t-261 -228.5t-355 -76q-191 0 -346.5 75t-247.5 229.5t-92 381.5zM266 713q0 -195 80 -319t203 -178t258 -54q137 0 262 56t205 178t80 304q0 172 -72 309.5 t-200 215.5t-287 78q-156 0 -276 -75t-186.5 -208t-66.5 -307zM653 1825q0 27 17.5 45.5t42.5 18.5q35 0 76 -49l149 -175q29 -33 29 -59q0 -23 -16.5 -39t-39.5 -16q-16 0 -29.5 7t-31.5 26l-162 176q-35 39 -35 65z" />
<glyph unicode="&#xd3;" horiz-adv-x="1622" d="M111 702q0 215 84 385t237.5 265.5t353.5 95.5q203 0 369 -97.5t261 -269.5t95 -389q0 -219 -98 -371.5t-261 -228.5t-355 -76q-191 0 -346.5 75t-247.5 229.5t-92 381.5zM266 713q0 -195 80 -319t203 -178t258 -54q137 0 262 56t205 178t80 304q0 172 -72 309.5 t-200 215.5t-287 78q-156 0 -276 -75t-186.5 -208t-66.5 -307zM678 1606q0 33 29 59l166 175q25 27 41 38t34 11q25 0 42.5 -18.5t17.5 -45.5q0 -31 -35 -65l-180 -176q-33 -33 -62 -33q-22 0 -37.5 16.5t-15.5 38.5z" />
<glyph unicode="&#xd4;" horiz-adv-x="1622" d="M111 702q0 215 84 385t237.5 265.5t353.5 95.5q203 0 369 -97.5t261 -269.5t95 -389q0 -219 -98 -371.5t-261 -228.5t-355 -76q-191 0 -346.5 75t-247.5 229.5t-92 381.5zM266 713q0 -195 80 -319t203 -178t258 -54q137 0 262 56t205 178t80 304q0 172 -72 309.5 t-200 215.5t-287 78q-156 0 -276 -75t-186.5 -208t-66.5 -307zM496 1633q0 27 20 47q33 33 51 55q78 86 136.5 138.5t99.5 52.5q53 0 104.5 -48.5t126.5 -146.5l56 -70q18 -18 18 -41t-17.5 -40t-39.5 -17q-36 0 -54 27q-70 94 -120 151.5t-68 57.5q-16 0 -59 -43t-129 -142 q-35 -41 -64 -41q-23 0 -42 18.5t-19 41.5z" />
<glyph unicode="&#xd5;" horiz-adv-x="1622" d="M111 702q0 215 84 385t237.5 265.5t353.5 95.5q203 0 369 -97.5t261 -269.5t95 -389q0 -219 -98 -371.5t-261 -228.5t-355 -76q-191 0 -346.5 75t-247.5 229.5t-92 381.5zM266 713q0 -195 80 -319t203 -178t258 -54q137 0 262 56t205 178t80 304q0 172 -72 309.5 t-200 215.5t-287 78q-156 0 -276 -75t-186.5 -208t-66.5 -307zM475 1629q0 23 17 43q49 59 88 83.5t92 24.5q94 0 180 -45q12 -6 38 -19.5t43 -19.5t32 -6q16 0 29.5 9t29.5 26q29 31 51 31q23 0 42.5 -20.5t19.5 -43.5t-17 -43q-43 -41 -80.5 -60.5t-78.5 -19.5 q-29 0 -56.5 9.5t-62.5 27.5q-8 4 -45 21q-10 4 -50 21t-67 17q-18 0 -34.5 -12t-32 -28.5t-19.5 -22.5q-33 -33 -61 -33q-23 0 -39 17q-19 23 -19 43z" />
<glyph unicode="&#xd6;" horiz-adv-x="1622" d="M111 702q0 215 84 385t237.5 265.5t353.5 95.5q203 0 369 -97.5t261 -269.5t95 -389q0 -219 -98 -371.5t-261 -228.5t-355 -76q-191 0 -346.5 75t-247.5 229.5t-92 381.5zM266 713q0 -195 80 -319t203 -178t258 -54q137 0 262 56t205 178t80 304q0 172 -72 309.5 t-200 215.5t-287 78q-156 0 -276 -75t-186.5 -208t-66.5 -307zM451 1702q0 45 31.5 76t78.5 31t80 -31t33 -76t-34 -78.5t-79 -33.5q-47 0 -78.5 32.5t-31.5 79.5zM942 1702q0 45 32 76t79 31t78.5 -31t31.5 -76q0 -47 -32.5 -79.5t-77.5 -32.5q-47 0 -79 32.5t-32 79.5z " />
<glyph unicode="&#xd7;" horiz-adv-x="1105" d="M197 924q0 23 20.5 42t50.5 19q20 0 33.5 -9t32.5 -28q57 -63 207 -213l188 209q16 18 28.5 26.5t30.5 8.5q35 0 55.5 -17.5t20.5 -43.5q0 -14 -3 -23.5t-13 -22.5l-211 -229l256 -252q16 -16 16 -39t-19.5 -41t-45.5 -18q-20 0 -33.5 9t-34.5 28l-223 223 q-109 -119 -219 -231q-29 -29 -60 -29q-25 0 -47 18.5t-22 36.5q0 25 14 39q123 129 240 258l-238 232q-16 16 -20 25t-4 22z" />
<glyph unicode="&#xd8;" horiz-adv-x="1622" d="M111 702q0 215 84 385t237.5 265.5t353.5 95.5q240 0 422 -131l138 162q31 41 63 41q25 0 43 -18.5t18 -43.5t-22 -49l-145 -174q98 -102 153 -241.5t55 -301.5q0 -219 -98 -371.5t-261 -228.5t-355 -76q-246 0 -422 119l-121 -143q-33 -39 -66 -39q-25 0 -45 16.5 t-20 40.5q0 16 18 43l140 164q-170 184 -170 485zM266 713q0 -232 119 -371l729 862q-139 98 -319 99q-156 0 -276 -75t-186.5 -208t-66.5 -307zM477 258q139 -96 330 -96q137 0 262 56t205 178t80 304q0 125 -39 232.5t-109 189.5z" />
<glyph unicode="&#xd9;" horiz-adv-x="1366" d="M147 535q0 111 2.5 237.5t4.5 194.5q4 137 8 403q0 68 76 68q39 0 59 -18.5t20 -51.5q0 -61 -6 -430q-4 -262 -4 -401q0 -190 89 -288.5t257 -98.5q106 0 198.5 65.5t147 165.5t54.5 197q0 254 -6 800q0 72 73 72q39 0 60.5 -20.5t21.5 -55.5q0 -221 6 -502q0 -84 2 -131 q4 -348 4 -678q0 -68 -77 -67q-41 0 -60.5 19.5t-19.5 62.5v160q-57 -102 -172 -168t-258 -66q-246 0 -363 151.5t-117 379.5zM526 1825q0 27 17.5 45.5t42.5 18.5q35 0 76 -49l149 -175q29 -33 29 -59q0 -23 -16.5 -39t-39.5 -16q-16 0 -29.5 7t-31.5 26l-162 176 q-35 39 -35 65z" />
<glyph unicode="&#xda;" horiz-adv-x="1366" d="M147 535q0 111 2.5 237.5t4.5 194.5q4 137 8 403q0 68 76 68q39 0 59 -18.5t20 -51.5q0 -61 -6 -430q-4 -262 -4 -401q0 -190 89 -288.5t257 -98.5q106 0 198.5 65.5t147 165.5t54.5 197q0 254 -6 800q0 72 73 72q39 0 60.5 -20.5t21.5 -55.5q0 -221 6 -502q0 -84 2 -131 q4 -348 4 -678q0 -68 -77 -67q-41 0 -60.5 19.5t-19.5 62.5v160q-57 -102 -172 -168t-258 -66q-246 0 -363 151.5t-117 379.5zM551 1606q0 33 29 59l166 175q25 27 41 38t34 11q25 0 42.5 -18.5t17.5 -45.5q0 -31 -35 -65l-180 -176q-33 -33 -62 -33q-22 0 -37.5 16.5 t-15.5 38.5z" />
<glyph unicode="&#xdb;" horiz-adv-x="1366" d="M147 535q0 111 2.5 237.5t4.5 194.5q4 137 8 403q0 68 76 68q39 0 59 -18.5t20 -51.5q0 -61 -6 -430q-4 -262 -4 -401q0 -190 89 -288.5t257 -98.5q106 0 198.5 65.5t147 165.5t54.5 197q0 254 -6 800q0 72 73 72q39 0 60.5 -20.5t21.5 -55.5q0 -221 6 -502q0 -84 2 -131 q4 -348 4 -678q0 -68 -77 -67q-41 0 -60.5 19.5t-19.5 62.5v160q-57 -102 -172 -168t-258 -66q-246 0 -363 151.5t-117 379.5zM369 1633q0 27 20 47q33 33 51 55q78 86 136.5 138.5t99.5 52.5q53 0 104.5 -48.5t126.5 -146.5l56 -70q18 -18 18 -41t-17.5 -40t-39.5 -17 q-36 0 -54 27q-70 94 -120 151.5t-68 57.5q-16 0 -59 -43t-129 -142q-35 -41 -64 -41q-23 0 -42 18.5t-19 41.5z" />
<glyph unicode="&#xdc;" horiz-adv-x="1366" d="M147 535q0 111 2.5 237.5t4.5 194.5q4 137 8 403q0 68 76 68q39 0 59 -18.5t20 -51.5q0 -61 -6 -430q-4 -262 -4 -401q0 -190 89 -288.5t257 -98.5q106 0 198.5 65.5t147 165.5t54.5 197q0 254 -6 800q0 72 73 72q39 0 60.5 -20.5t21.5 -55.5q0 -221 6 -502q0 -84 2 -131 q4 -348 4 -678q0 -68 -77 -67q-41 0 -60.5 19.5t-19.5 62.5v160q-57 -102 -172 -168t-258 -66q-246 0 -363 151.5t-117 379.5zM324 1702q0 45 31.5 76t78.5 31t80 -31t33 -76t-34 -78.5t-79 -33.5q-47 0 -78.5 32.5t-31.5 79.5zM815 1702q0 45 32 76t79 31t78.5 -31 t31.5 -76q0 -47 -32.5 -79.5t-77.5 -32.5q-47 0 -79 32.5t-32 79.5z" />
<glyph unicode="&#xdd;" horiz-adv-x="1341" d="M143 1366q0 27 26 47.5t58 20.5q51 0 82 -72q59 -141 87 -197.5t87 -154.5q57 -92 104.5 -151.5t84.5 -59.5q63 0 190 213q47 80 86 159.5t90 198.5q14 35 30.5 47.5t41.5 12.5q37 0 62.5 -22t25.5 -52q0 -14 -6 -27q-57 -143 -98 -229t-90 -164q-72 -115 -141.5 -182.5 t-114.5 -81.5l6 -584q0 -82 -78 -82q-80 0 -80 78l-6 588q-100 35 -248 268q-63 100 -103 184t-92 217q-4 12 -4 25zM547 1606q0 33 29 59l166 175q25 27 41 38t34 11q25 0 42.5 -18.5t17.5 -45.5q0 -31 -35 -65l-180 -176q-33 -33 -62 -33q-22 0 -37.5 16.5t-15.5 38.5z " />
<glyph unicode="&#xde;" horiz-adv-x="1292" d="M94 1112q0 33 33 55q18 14 90 43q-10 213 -18 303q-4 31 21.5 52.5t64.5 21.5q37 0 60.5 -18.5t23.5 -55.5q0 -90 12 -243q160 53 287 53q143 0 273 -57.5t210 -165t80 -246.5q0 -131 -72 -232.5t-196.5 -155.5t-276.5 -54q-141 0 -276 49l-7 -402q0 -31 -24.5 -52 t-59.5 -21q-43 0 -67.5 21.5t-24.5 62.5q0 12 6.5 60t6.5 235q0 61 -4 237l-13 465l-28 -18q-14 -10 -29 -11q-29 0 -50.5 21.5t-21.5 52.5zM389 1139l6 -109l6 -149q0 -47 2 -76q0 -117 5 -199q150 -51 266 -51q104 0 191 39t138.5 109.5t51.5 158.5q0 90 -54.5 163 t-147.5 113t-202 40q-129 0 -262 -39z" />
<glyph unicode="&#xdf;" horiz-adv-x="1298" d="M156 96l6 766q2 307 111.5 471t369.5 164q117 0 213 -54t150.5 -144.5t54.5 -194.5q0 -127 -53 -215q-98 -20 -153.5 -62.5t-55.5 -85.5q0 -35 33.5 -66.5t109.5 -80.5q109 -74 167 -135.5t58 -147.5q0 -317 -411 -317q-152 0 -256 53q-37 18 -37 55q0 27 18.5 52.5 t40.5 25.5l17 -4q129 -55 209 -55q137 0 201.5 46t64.5 144q0 59 -40 98.5t-126 92.5q-94 57 -144.5 108.5t-50.5 130.5q0 68 55.5 138.5t180.5 97.5q23 55 22 110q0 76 -37.5 140.5t-102 102.5t-140.5 38q-160 0 -238 -121t-82 -387l-12 -764q0 -72 -70 -71q-37 0 -55 19 t-18 52z" />
<glyph unicode="&#xe0;" horiz-adv-x="1275" d="M119 483q0 137 55 258t162.5 195t257.5 74q102 0 178 -41t119 -115l8 68q4 76 70 75q41 0 62.5 -19.5t17.5 -45.5l-7 -51q-14 -86 -20 -179q-6 -78 -6 -208v-142q0 -88 5 -130t21.5 -64.5t55.5 -24.5q28 -4 42.5 -16.5t14.5 -44.5q0 -31 -15.5 -49.5t-41.5 -18.5 q-84 0 -124 26.5t-69 100.5q-92 -150 -327 -149q-166 0 -268.5 73.5t-146.5 187t-44 240.5zM276 483q0 -143 71 -256.5t233 -113.5q121 0 199.5 62.5t80.5 178.5q2 96 2 248q0 100 -43 162.5t-104.5 89.5t-116.5 27q-109 0 -181.5 -61.5t-106.5 -154t-34 -182.5zM473 1415 q0 27 17.5 45.5t42.5 18.5q35 0 76 -49l149 -175q29 -33 29 -59q0 -23 -16.5 -39t-39.5 -16q-16 0 -29.5 7t-31.5 26l-162 176q-35 39 -35 65z" />
<glyph unicode="&#xe1;" horiz-adv-x="1275" d="M119 483q0 137 55 258t162.5 195t257.5 74q102 0 178 -41t119 -115l8 68q4 76 70 75q41 0 62.5 -19.5t17.5 -45.5l-7 -51q-14 -86 -20 -179q-6 -78 -6 -208v-142q0 -88 5 -130t21.5 -64.5t55.5 -24.5q28 -4 42.5 -16.5t14.5 -44.5q0 -31 -15.5 -49.5t-41.5 -18.5 q-84 0 -124 26.5t-69 100.5q-92 -150 -327 -149q-166 0 -268.5 73.5t-146.5 187t-44 240.5zM276 483q0 -143 71 -256.5t233 -113.5q121 0 199.5 62.5t80.5 178.5q2 96 2 248q0 100 -43 162.5t-104.5 89.5t-116.5 27q-109 0 -181.5 -61.5t-106.5 -154t-34 -182.5zM498 1196 q0 33 29 59l166 175q25 27 41 38t34 11q25 0 42.5 -18.5t17.5 -45.5q0 -31 -35 -65l-180 -176q-33 -33 -62 -33q-22 0 -37.5 16.5t-15.5 38.5z" />
<glyph unicode="&#xe2;" horiz-adv-x="1275" d="M119 483q0 137 55 258t162.5 195t257.5 74q102 0 178 -41t119 -115l8 68q4 76 70 75q41 0 62.5 -19.5t17.5 -45.5l-7 -51q-14 -86 -20 -179q-6 -78 -6 -208v-142q0 -88 5 -130t21.5 -64.5t55.5 -24.5q28 -4 42.5 -16.5t14.5 -44.5q0 -31 -15.5 -49.5t-41.5 -18.5 q-84 0 -124 26.5t-69 100.5q-92 -150 -327 -149q-166 0 -268.5 73.5t-146.5 187t-44 240.5zM276 483q0 -143 71 -256.5t233 -113.5q121 0 199.5 62.5t80.5 178.5q2 96 2 248q0 100 -43 162.5t-104.5 89.5t-116.5 27q-109 0 -181.5 -61.5t-106.5 -154t-34 -182.5zM316 1223 q0 27 20 47q33 33 51 55q78 86 136.5 138.5t99.5 52.5q53 0 104.5 -48.5t126.5 -146.5l56 -70q18 -18 18 -41t-17.5 -40t-39.5 -17q-36 0 -54 27q-70 94 -120 151.5t-68 57.5q-16 0 -59 -43t-129 -142q-35 -41 -64 -41q-23 0 -42 18.5t-19 41.5z" />
<glyph unicode="&#xe3;" horiz-adv-x="1275" d="M119 483q0 137 55 258t162.5 195t257.5 74q102 0 178 -41t119 -115l8 68q4 76 70 75q41 0 62.5 -19.5t17.5 -45.5l-7 -51q-14 -86 -20 -179q-6 -78 -6 -208v-142q0 -88 5 -130t21.5 -64.5t55.5 -24.5q28 -4 42.5 -16.5t14.5 -44.5q0 -31 -15.5 -49.5t-41.5 -18.5 q-84 0 -124 26.5t-69 100.5q-92 -150 -327 -149q-166 0 -268.5 73.5t-146.5 187t-44 240.5zM276 483q0 -143 71 -256.5t233 -113.5q121 0 199.5 62.5t80.5 178.5q2 96 2 248q0 100 -43 162.5t-104.5 89.5t-116.5 27q-109 0 -181.5 -61.5t-106.5 -154t-34 -182.5zM295 1219 q0 23 17 43q49 59 88 83.5t92 24.5q94 0 180 -45q12 -6 38 -19.5t43 -19.5t32 -6q16 0 29.5 9t29.5 26q29 31 51 31q23 0 42.5 -20.5t19.5 -43.5t-17 -43q-43 -41 -80.5 -60.5t-78.5 -19.5q-29 0 -56.5 9.5t-62.5 27.5q-8 4 -45 21q-10 4 -50 21t-67 17q-18 0 -34.5 -12 t-32 -28.5t-19.5 -22.5q-33 -33 -61 -33q-23 0 -39 17q-19 23 -19 43z" />
<glyph unicode="&#xe4;" horiz-adv-x="1275" d="M119 483q0 137 55 258t162.5 195t257.5 74q102 0 178 -41t119 -115l8 68q4 76 70 75q41 0 62.5 -19.5t17.5 -45.5l-7 -51q-14 -86 -20 -179q-6 -78 -6 -208v-142q0 -88 5 -130t21.5 -64.5t55.5 -24.5q28 -4 42.5 -16.5t14.5 -44.5q0 -31 -15.5 -49.5t-41.5 -18.5 q-84 0 -124 26.5t-69 100.5q-92 -150 -327 -149q-166 0 -268.5 73.5t-146.5 187t-44 240.5zM271 1292q0 45 31.5 76t78.5 31t80 -31t33 -76t-34 -78.5t-79 -33.5q-47 0 -78.5 32.5t-31.5 79.5zM276 483q0 -143 71 -256.5t233 -113.5q121 0 199.5 62.5t80.5 178.5q2 96 2 248 q0 100 -43 162.5t-104.5 89.5t-116.5 27q-109 0 -181.5 -61.5t-106.5 -154t-34 -182.5zM762 1292q0 45 32 76t79 31t78.5 -31t31.5 -76q0 -47 -32.5 -79.5t-77.5 -32.5q-47 0 -79 32.5t-32 79.5z" />
<glyph unicode="&#xe5;" horiz-adv-x="1275" d="M119 483q0 137 55 258t162.5 195t257.5 74q102 0 178 -41t119 -115l8 68q4 76 70 75q41 0 62.5 -19.5t17.5 -45.5l-7 -51q-14 -86 -20 -179q-6 -78 -6 -208v-142q0 -88 5 -130t21.5 -64.5t55.5 -24.5q28 -4 42.5 -16.5t14.5 -44.5q0 -31 -15.5 -49.5t-41.5 -18.5 q-84 0 -124 26.5t-69 100.5q-92 -150 -327 -149q-166 0 -268.5 73.5t-146.5 187t-44 240.5zM276 483q0 -143 71 -256.5t233 -113.5q121 0 199.5 62.5t80.5 178.5q2 96 2 248q0 100 -43 162.5t-104.5 89.5t-116.5 27q-109 0 -181.5 -61.5t-106.5 -154t-34 -182.5zM406 1323 q0 90 65.5 153.5t163.5 63.5q59 0 109.5 -30.5t78 -81t27.5 -105.5q0 -96 -62.5 -159.5t-158.5 -63.5q-94 0 -158.5 64.5t-64.5 158.5zM510 1323q0 -51 34 -85t85 -34t85 34t34 85q0 45 -34 80t-85 35t-85 -34t-34 -81z" />
<glyph unicode="&#xe6;" horiz-adv-x="2031" d="M119 815q0 25 28 53q176 176 422 176q143 0 249 -70.5t147 -176.5q53 111 169.5 183.5t272.5 72.5q135 0 247.5 -58.5t177 -155t64.5 -202.5q0 -66 -23.5 -95.5t-78.5 -29.5l-762 -18v-31q0 -186 87 -271.5t280 -85.5q137 0 217 54.5t131 136.5q16 27 49 27 q27 0 49.5 -21.5t22.5 -46.5q0 -23 -19 -51q-68 -109 -188.5 -167t-265.5 -58q-162 0 -271.5 54t-154.5 152q-41 -96 -150.5 -151t-265.5 -55q-223 0 -327.5 67.5t-104.5 212.5q0 330 416 342l344 8v29q0 117 -82 196.5t-230 79.5q-113 0 -187.5 -36.5t-145.5 -100.5 q-27 -23 -56 -22q-25 0 -43 18.5t-18 40.5zM268 260q0 -80 70 -118t217 -38q141 0 233.5 59.5t92.5 172.5v151l-344 -8q-135 -4 -202 -61.5t-67 -157.5zM1036 614l713 19v20q0 59 -43 124t-121 108t-174 43q-94 0 -176 -43t-134 -115t-65 -156z" />
<glyph unicode="&#xe7;" horiz-adv-x="1204" d="M111 496q0 145 61 272t179 205t280 78q176 0 287.5 -84t160.5 -203q8 -16 8 -35q0 -23 -19 -39t-54 -16q-25 0 -41.5 13t-30.5 42q-31 80 -109.5 136.5t-191.5 56.5t-199 -59.5t-131 -157t-45 -205.5q0 -160 94.5 -264.5t266.5 -104.5q111 0 187.5 43t116.5 107.5 t44 130.5q0 23 15.5 36t45.5 13q78 0 78 -68q0 -80 -46 -163t-138 -144t-221 -78v-2l-72 -117q80 -16 128 -47.5t48 -97.5q0 -102 -75.5 -151.5t-194.5 -49.5q-76 0 -152 29q-20 8 -31.5 24.5t-11.5 34.5q0 27 17.5 43.5t42.5 16.5q14 0 20 -2q82 -23 123 -23 q72 0 101.5 10.5t29.5 53.5q0 29 -26.5 40t-68.5 17t-61 10q-35 4 -51 23.5t-8 46.5l90 137q-143 14 -243.5 83t-151.5 175.5t-51 233.5z" />
<glyph unicode="&#xe8;" horiz-adv-x="1267" d="M119 518q0 145 65.5 267t186.5 194t278 72q139 0 250 -56.5t172.5 -157t61.5 -229.5q0 -61 -14.5 -86.5t-71.5 -27.5l-781 -17q0 -78 47 -159.5t134.5 -137t201.5 -55.5q86 0 147.5 25.5t96.5 58.5t84 92q14 18 45 18q27 0 50.5 -20t23.5 -47q0 -20 -17 -43 q-66 -90 -159 -153.5t-265 -63.5q-168 0 -289.5 72.5t-184 192.5t-62.5 261zM266 600l713 18q20 0 20 29q0 123 -98 200t-248 77q-113 0 -200.5 -57.5t-137 -135.5t-49.5 -131zM489 1415q0 27 17.5 45.5t42.5 18.5q35 0 76 -49l149 -175q29 -33 29 -59q0 -23 -16.5 -39 t-39.5 -16q-16 0 -29.5 7t-31.5 26l-162 176q-35 39 -35 65z" />
<glyph unicode="&#xe9;" horiz-adv-x="1267" d="M119 518q0 145 65.5 267t186.5 194t278 72q139 0 250 -56.5t172.5 -157t61.5 -229.5q0 -61 -14.5 -86.5t-71.5 -27.5l-781 -17q0 -78 47 -159.5t134.5 -137t201.5 -55.5q86 0 147.5 25.5t96.5 58.5t84 92q14 18 45 18q27 0 50.5 -20t23.5 -47q0 -20 -17 -43 q-66 -90 -159 -153.5t-265 -63.5q-168 0 -289.5 72.5t-184 192.5t-62.5 261zM266 600l713 18q20 0 20 29q0 123 -98 200t-248 77q-113 0 -200.5 -57.5t-137 -135.5t-49.5 -131zM487 1206q0 23 23 51l178 218q20 27 37.5 37t40.5 10q29 0 47 -18.5t18 -47.5q0 -33 -41 -78 l-180 -192q-18 -20 -32.5 -27.5t-32.5 -7.5q-21 0 -36.5 12.5t-19.5 30.5z" />
<glyph unicode="&#xea;" horiz-adv-x="1267" d="M119 518q0 145 65.5 267t186.5 194t278 72q139 0 250 -56.5t172.5 -157t61.5 -229.5q0 -61 -14.5 -86.5t-71.5 -27.5l-781 -17q0 -78 47 -159.5t134.5 -137t201.5 -55.5q86 0 147.5 25.5t96.5 58.5t84 92q14 18 45 18q27 0 50.5 -20t23.5 -47q0 -20 -17 -43 q-66 -90 -159 -153.5t-265 -63.5q-168 0 -289.5 72.5t-184 192.5t-62.5 261zM266 600l713 18q20 0 20 29q0 123 -98 200t-248 77q-113 0 -200.5 -57.5t-137 -135.5t-49.5 -131zM332 1223q0 27 20 47q33 33 51 55q78 86 136.5 138.5t99.5 52.5q53 0 104.5 -48.5t126.5 -146.5 l56 -70q18 -18 18 -41t-17.5 -40t-39.5 -17q-36 0 -54 27q-70 94 -120 151.5t-68 57.5q-16 0 -59 -43t-129 -142q-35 -41 -64 -41q-23 0 -42 18.5t-19 41.5z" />
<glyph unicode="&#xeb;" horiz-adv-x="1267" d="M119 518q0 145 65.5 267t186.5 194t278 72q139 0 250 -56.5t172.5 -157t61.5 -229.5q0 -61 -14.5 -86.5t-71.5 -27.5l-781 -17q0 -78 47 -159.5t134.5 -137t201.5 -55.5q86 0 147.5 25.5t96.5 58.5t84 92q14 18 45 18q27 0 50.5 -20t23.5 -47q0 -20 -17 -43 q-66 -90 -159 -153.5t-265 -63.5q-168 0 -289.5 72.5t-184 192.5t-62.5 261zM266 600l713 18q20 0 20 29q0 123 -98 200t-248 77q-113 0 -200.5 -57.5t-137 -135.5t-49.5 -131zM287 1292q0 45 31.5 76t78.5 31t80 -31t33 -76t-34 -78.5t-79 -33.5q-47 0 -78.5 32.5 t-31.5 79.5zM778 1292q0 45 32 76t79 31t78.5 -31t31.5 -76q0 -47 -32.5 -79.5t-77.5 -32.5q-47 0 -79 32.5t-32 79.5z" />
<glyph unicode="&#xec;" horiz-adv-x="643" d="M170 1415q0 27 17.5 45.5t42.5 18.5q35 0 76 -49l149 -175q29 -33 29 -59q0 -23 -16.5 -39t-39.5 -16q-16 0 -29.5 7t-31.5 26l-162 176q-35 39 -35 65zM233 86l19 872q0 37 21.5 57.5t58.5 20.5t58.5 -20.5t21.5 -57.5l-27 -874q0 -35 -19.5 -55.5t-54.5 -20.5 t-56.5 21.5t-21.5 56.5z" />
<glyph unicode="&#xed;" horiz-adv-x="643" d="M194 1196q0 33 29 59l166 175q25 27 41 38t34 11q25 0 42.5 -18.5t17.5 -45.5q0 -31 -35 -65l-180 -176q-33 -33 -62 -33q-22 0 -37.5 16.5t-15.5 38.5zM233 86l19 872q0 37 21.5 57.5t58.5 20.5t58.5 -20.5t21.5 -57.5l-27 -874q0 -35 -19.5 -55.5t-54.5 -20.5 t-56.5 21.5t-21.5 56.5z" />
<glyph unicode="&#xee;" horiz-adv-x="643" d="M13 1223q0 27 20 47q33 33 51 55q78 86 136.5 138.5t99.5 52.5q53 0 104.5 -48.5t126.5 -146.5l56 -70q18 -18 18 -41t-17.5 -40t-39.5 -17q-36 0 -54 27q-70 94 -120 151.5t-68 57.5q-16 0 -59 -43t-129 -142q-35 -41 -64 -41q-23 0 -42 18.5t-19 41.5zM233 86l19 872 q0 37 21.5 57.5t58.5 20.5t58.5 -20.5t21.5 -57.5l-27 -874q0 -35 -19.5 -55.5t-54.5 -20.5t-56.5 21.5t-21.5 56.5z" />
<glyph unicode="&#xef;" horiz-adv-x="643" d="M-32 1292q0 45 31.5 76t78.5 31t80 -31t33 -76t-34 -78.5t-79 -33.5q-47 0 -78.5 32.5t-31.5 79.5zM233 86l19 872q0 37 21.5 57.5t58.5 20.5t58.5 -20.5t21.5 -57.5l-27 -874q0 -35 -19.5 -55.5t-54.5 -20.5t-56.5 21.5t-21.5 56.5zM459 1292q0 45 32 76t79 31t78.5 -31 t31.5 -76q0 -47 -32.5 -79.5t-77.5 -32.5q-47 0 -79 32.5t-32 79.5z" />
<glyph unicode="&#xf0;" horiz-adv-x="1245" d="M117 502q0 141 61.5 262t177 194.5t271.5 73.5q125 0 221 -49q-35 63 -76 119q-66 84 -133 139l-168 -94q-27 -14 -49 -14q-31 0 -49.5 18t-18.5 47t35 49l135 78q-72 43 -135 64q-37 14 -37 55q0 27 20.5 49.5t49.5 22.5q25 0 74 -23q106 -51 168 -90l167 96 q16 10 37 10q18 0 43 -18t25 -49q0 -33 -45 -60l-115 -65q74 -63 131 -137q109 -138 165 -308t56 -323q0 -174 -69.5 -297t-188 -185.5t-264.5 -62.5q-150 0 -260 66.5t-169.5 179t-59.5 252.5zM272 502q0 -102 42 -185.5t120 -131.5t176 -48q95 0 176.5 46t131 136.5 t49.5 219.5q0 84 -21 178q-61 94 -143 140t-172 46q-102 0 -184 -55t-128.5 -147.5t-46.5 -198.5z" />
<glyph unicode="&#xf1;" horiz-adv-x="1134" d="M117 965q0 25 27.5 46t54.5 21t55 -39q23 -33 42 -79t19 -87v-22q37 102 119 169.5t217 67.5q346 0 346 -489v-479q0 -72 -75 -72q-82 0 -82 70v483q0 180 -41 265t-148 85q-113 0 -184.5 -86t-99.5 -225q-18 -94 -19 -232l2 -303q0 -29 -20.5 -44t-55.5 -15 q-39 0 -59 16.5t-20 42.5q0 182 -9 445q-6 152 -6 268q0 51 -11 81t-44 83q-8 12 -8 29zM246 1219q0 23 17 43q49 59 88 83.5t92 24.5q94 0 180 -45q12 -6 38 -19.5t43 -19.5t32 -6q16 0 29.5 9t29.5 26q29 31 51 31q23 0 42.5 -20.5t19.5 -43.5t-17 -43 q-43 -41 -80.5 -60.5t-78.5 -19.5q-29 0 -56.5 9.5t-62.5 27.5q-8 4 -45 21q-10 4 -50 21t-67 17q-18 0 -34.5 -12t-32 -28.5t-19.5 -22.5q-33 -33 -61 -33q-23 0 -39 17q-19 23 -19 43z" />
<glyph unicode="&#xf2;" horiz-adv-x="1214" d="M74 506q0 164 62.5 288t181 193.5t280.5 69.5q156 0 279.5 -64.5t194.5 -188.5t71 -296q0 -250 -146.5 -380t-386.5 -130q-231 0 -383.5 123t-152.5 385zM231 510q0 -199 109 -291t266 -92q164 0 271.5 97.5t107.5 285.5q0 123 -48 218t-135 147.5t-200 52.5 q-168 0 -269.5 -115t-101.5 -303zM454 1415q0 27 17.5 45.5t42.5 18.5q35 0 76 -49l149 -175q29 -33 29 -59q0 -23 -16.5 -39t-39.5 -16q-16 0 -29.5 7t-31.5 26l-162 176q-35 39 -35 65z" />
<glyph unicode="&#xf3;" horiz-adv-x="1214" d="M74 506q0 164 62.5 288t181 193.5t280.5 69.5q156 0 279.5 -64.5t194.5 -188.5t71 -296q0 -250 -146.5 -380t-386.5 -130q-231 0 -383.5 123t-152.5 385zM231 510q0 -199 109 -291t266 -92q164 0 271.5 97.5t107.5 285.5q0 123 -48 218t-135 147.5t-200 52.5 q-168 0 -269.5 -115t-101.5 -303zM479 1196q0 33 29 59l166 175q25 27 41 38t34 11q25 0 42.5 -18.5t17.5 -45.5q0 -31 -35 -65l-180 -176q-33 -33 -62 -33q-22 0 -37.5 16.5t-15.5 38.5z" />
<glyph unicode="&#xf4;" horiz-adv-x="1214" d="M74 506q0 164 62.5 288t181 193.5t280.5 69.5q156 0 279.5 -64.5t194.5 -188.5t71 -296q0 -250 -146.5 -380t-386.5 -130q-231 0 -383.5 123t-152.5 385zM231 510q0 -199 109 -291t266 -92q164 0 271.5 97.5t107.5 285.5q0 123 -48 218t-135 147.5t-200 52.5 q-168 0 -269.5 -115t-101.5 -303zM297 1223q0 27 20 47q33 33 51 55q78 86 136.5 138.5t99.5 52.5q53 0 104.5 -48.5t126.5 -146.5l56 -70q18 -18 18 -41t-17.5 -40t-39.5 -17q-36 0 -54 27q-70 94 -120 151.5t-68 57.5q-16 0 -59 -43t-129 -142q-35 -41 -64 -41 q-23 0 -42 18.5t-19 41.5z" />
<glyph unicode="&#xf5;" horiz-adv-x="1214" d="M74 506q0 164 62.5 288t181 193.5t280.5 69.5q156 0 279.5 -64.5t194.5 -188.5t71 -296q0 -250 -146.5 -380t-386.5 -130q-231 0 -383.5 123t-152.5 385zM231 510q0 -199 109 -291t266 -92q164 0 271.5 97.5t107.5 285.5q0 123 -48 218t-135 147.5t-200 52.5 q-168 0 -269.5 -115t-101.5 -303zM276 1219q0 23 17 43q49 59 88 83.5t92 24.5q94 0 180 -45q12 -6 38 -19.5t43 -19.5t32 -6q16 0 29.5 9t29.5 26q29 31 51 31q23 0 42.5 -20.5t19.5 -43.5t-17 -43q-43 -41 -80.5 -60.5t-78.5 -19.5q-29 0 -56.5 9.5t-62.5 27.5 q-8 4 -45 21q-10 4 -50 21t-67 17q-18 0 -34.5 -12t-32 -28.5t-19.5 -22.5q-33 -33 -61 -33q-23 0 -39 17q-19 23 -19 43z" />
<glyph unicode="&#xf6;" horiz-adv-x="1214" d="M74 506q0 164 62.5 288t181 193.5t280.5 69.5q156 0 279.5 -64.5t194.5 -188.5t71 -296q0 -250 -146.5 -380t-386.5 -130q-231 0 -383.5 123t-152.5 385zM231 510q0 -199 109 -291t266 -92q164 0 271.5 97.5t107.5 285.5q0 123 -48 218t-135 147.5t-200 52.5 q-168 0 -269.5 -115t-101.5 -303zM252 1292q0 45 31.5 76t78.5 31t80 -31t33 -76t-34 -78.5t-79 -33.5q-47 0 -78.5 32.5t-31.5 79.5zM743 1292q0 45 32 76t79 31t78.5 -31t31.5 -76q0 -47 -32.5 -79.5t-77.5 -32.5q-47 0 -79 32.5t-32 79.5z" />
<glyph unicode="&#xf7;" horiz-adv-x="1105" d="M156 592q0 23 28 61q70 100 201 101q100 0 199 -43q92 -41 153 -41q29 0 48.5 7t43.5 21q37 25 66 25q23 0 39 -17.5t16 -33.5q2 -29 -55 -72q-31 -20 -78 -40.5t-88 -20.5q-94 0 -201 51q-41 20 -70.5 30.5t-64.5 10.5q-39 0 -62.5 -10.5t-37.5 -21.5t-19 -15 q-8 -6 -20 -17.5t-23.5 -17.5t-23.5 -6q-19 0 -35 14t-16 35zM449 381q0 41 35.5 73.5t76.5 32.5t74 -31.5t33 -74.5q0 -45 -32 -76t-79 -31q-45 0 -76.5 31t-31.5 76zM451 899q0 45 32.5 76t73.5 31q43 0 76 -30t33 -75q0 -43 -32 -73.5t-77 -30.5t-75.5 30.5t-30.5 71.5z " />
<glyph unicode="&#xf8;" horiz-adv-x="1228" d="M74 10q0 27 16 45l100 117q-102 129 -102 334q0 164 62.5 288t181.5 193.5t280 69.5q160 0 281 -66l108 125q23 29 54 29q23 0 40 -17.5t17 -40.5t-16 -38l-107 -125q80 -72 124 -177.5t44 -238.5q0 -250 -146.5 -380t-385.5 -130q-211 0 -349 96l-94 -108 q-12 -14 -22 -20.5t-27 -6.5q-20 0 -39.5 16.5t-19.5 34.5zM246 510q0 -127 49 -215l506 588q-84 45 -185 45q-168 0 -269 -115t-101 -303zM371 205q98 -78 250 -78q163 0 270.5 97.5t107.5 285.5q0 186 -106 303z" />
<glyph unicode="&#xf9;" horiz-adv-x="1120" d="M135 465v506q0 27 21.5 43t54.5 16q35 0 57.5 -16.5t22.5 -42.5v-510q0 -172 49 -252t158 -80q276 0 276 502v342q0 33 20.5 51t55.5 18q37 0 59.5 -18t22.5 -51l8 -748q0 -39 9 -65.5t23.5 -50t14.5 -31.5q0 -23 -22.5 -43.5t-42.5 -20.5q-41 0 -73 51.5t-32 98.5v29 q-43 -94 -132 -143.5t-204 -49.5q-174 0 -260 119t-86 346zM381 1415q0 27 17.5 45.5t42.5 18.5q35 0 76 -49l149 -175q29 -33 29 -59q0 -23 -16.5 -39t-39.5 -16q-16 0 -29.5 7t-31.5 26l-162 176q-35 39 -35 65z" />
<glyph unicode="&#xfa;" horiz-adv-x="1120" d="M135 465v506q0 27 21.5 43t54.5 16q35 0 57.5 -16.5t22.5 -42.5v-510q0 -172 49 -252t158 -80q276 0 276 502v342q0 33 20.5 51t55.5 18q37 0 59.5 -18t22.5 -51l8 -748q0 -39 9 -65.5t23.5 -50t14.5 -31.5q0 -23 -22.5 -43.5t-42.5 -20.5q-41 0 -73 51.5t-32 98.5v29 q-43 -94 -132 -143.5t-204 -49.5q-174 0 -260 119t-86 346zM405 1196q0 33 29 59l166 175q25 27 41 38t34 11q25 0 42.5 -18.5t17.5 -45.5q0 -31 -35 -65l-180 -176q-33 -33 -62 -33q-22 0 -37.5 16.5t-15.5 38.5z" />
<glyph unicode="&#xfb;" horiz-adv-x="1120" d="M135 465v506q0 27 21.5 43t54.5 16q35 0 57.5 -16.5t22.5 -42.5v-510q0 -172 49 -252t158 -80q276 0 276 502v342q0 33 20.5 51t55.5 18q37 0 59.5 -18t22.5 -51l8 -748q0 -39 9 -65.5t23.5 -50t14.5 -31.5q0 -23 -22.5 -43.5t-42.5 -20.5q-41 0 -73 51.5t-32 98.5v29 q-43 -94 -132 -143.5t-204 -49.5q-174 0 -260 119t-86 346zM224 1223q0 27 20 47q33 33 51 55q78 86 136.5 138.5t99.5 52.5q53 0 104.5 -48.5t126.5 -146.5l56 -70q18 -18 18 -41t-17.5 -40t-39.5 -17q-36 0 -54 27q-70 94 -120 151.5t-68 57.5q-16 0 -59 -43t-129 -142 q-35 -41 -64 -41q-23 0 -42 18.5t-19 41.5z" />
<glyph unicode="&#xfc;" horiz-adv-x="1120" d="M135 465v506q0 27 21.5 43t54.5 16q35 0 57.5 -16.5t22.5 -42.5v-510q0 -172 49 -252t158 -80q276 0 276 502v342q0 33 20.5 51t55.5 18q37 0 59.5 -18t22.5 -51l8 -748q0 -39 9 -65.5t23.5 -50t14.5 -31.5q0 -23 -22.5 -43.5t-42.5 -20.5q-41 0 -73 51.5t-32 98.5v29 q-43 -94 -132 -143.5t-204 -49.5q-174 0 -260 119t-86 346zM179 1292q0 45 31.5 76t78.5 31t80 -31t33 -76t-34 -78.5t-79 -33.5q-47 0 -78.5 32.5t-31.5 79.5zM670 1292q0 45 32 76t79 31t78.5 -31t31.5 -76q0 -47 -32.5 -79.5t-77.5 -32.5q-47 0 -79 32.5t-32 79.5z" />
<glyph unicode="&#xfd;" horiz-adv-x="1069" d="M80 979q0 25 20.5 43t59.5 18q31 0 43 -12t20 -43q209 -643 381 -756q125 442 207 764q8 29 22.5 41.5t45.5 12.5q76 0 88 -62q2 -8 -2 -22q-70 -287 -114 -445t-110 -348q-47 -135 -117.5 -330.5t-117.5 -314.5q-10 -29 -27.5 -42t-44.5 -13q-35 0 -58.5 21.5 t-23.5 51.5q0 12 6 29q113 279 193 504q-84 53 -178 200.5t-171 333t-118 342.5q-4 12 -4 27zM405 1196q0 33 29 59l166 175q25 27 41 38t34 11q25 0 42.5 -18.5t17.5 -45.5q0 -31 -35 -65l-180 -176q-33 -33 -62 -33q-22 0 -37.5 16.5t-15.5 38.5z" />
<glyph unicode="&#xfe;" horiz-adv-x="1206" d="M66 -365q0 76 14 412q6 170 6 494v882q0 35 19.5 55.5t52.5 20.5q35 0 59.5 -18.5t24.5 -48.5l-2 -537q63 72 159.5 116t186.5 44q123 0 242.5 -51.5t199.5 -170t80 -307.5q0 -250 -143.5 -387t-397.5 -137q-82 0 -173 32t-152 81q-6 -313 -21 -484q-4 -31 -25.5 -48 t-58.5 -17q-31 0 -51 18.5t-20 50.5zM242 254q12 -25 67.5 -54.5t127 -49t132.5 -19.5q179 0 280 104.5t101 292.5q0 135 -54 224.5t-137 131.5t-169 42q-84 0 -158 -37t-123 -84t-67 -80v-227v-244z" />
<glyph unicode="&#xff;" horiz-adv-x="1069" d="M80 979q0 25 20.5 43t59.5 18q31 0 43 -12t20 -43q209 -643 381 -756q125 442 207 764q8 29 22.5 41.5t45.5 12.5q76 0 88 -62q2 -8 -2 -22q-70 -287 -114 -445t-110 -348q-47 -135 -117.5 -330.5t-117.5 -314.5q-10 -29 -27.5 -42t-44.5 -13q-35 0 -58.5 21.5 t-23.5 51.5q0 12 6 29q113 279 193 504q-84 53 -178 200.5t-171 333t-118 342.5q-4 12 -4 27zM179 1292q0 45 31.5 76t78.5 31t80 -31t33 -76t-34 -78.5t-79 -33.5q-47 0 -78.5 32.5t-31.5 79.5zM670 1292q0 45 32 76t79 31t78.5 -31t31.5 -76q0 -47 -32.5 -79.5 t-77.5 -32.5q-47 0 -79 32.5t-32 79.5z" />
<glyph unicode="&#x100;" horiz-adv-x="1417" d="M152 47q0 4 4 25q207 606 350 1054q33 98 33 99q41 125 82 178t100 53q57 0 94 -47t74 -164q78 -242 194 -627l35 -116h58q33 0 54 -22.5t21 -57.5q0 -80 -63 -80h-23q47 -162 82 -272q6 -19 6 -25q0 -33 -25.5 -49t-62.5 -16q-27 0 -47 12t-26 33l-95 317l-583 4 l-101 -313q-16 -51 -75 -51q-35 0 -60.5 18t-25.5 47zM354 1739q0 27 17.5 43.5t41.5 16.5q12 0 56.5 -8.5t101.5 -8.5q45 0 139 8q98 8 156 9q27 0 76 -5q33 -4 51 -4q27 -2 45 -20.5t18 -42.5q0 -29 -21.5 -46.5t-47.5 -13.5q-66 8 -109 9q-61 0 -151 -9q-82 -8 -133 -8 l-91 -2q-57 0 -104 17q-45 18 -45 65zM467 510l485 -6l-61 211q-72 248 -111 379q-25 82 -39 118.5t-26 36.5q-10 0 -22.5 -31.5t-41.5 -121.5l-100 -316z" />
<glyph unicode="&#x101;" horiz-adv-x="1275" d="M119 483q0 137 55 258t162.5 195t257.5 74q102 0 178 -41t119 -115l8 68q4 76 70 75q41 0 62.5 -19.5t17.5 -45.5l-7 -51q-14 -86 -20 -179q-6 -78 -6 -208v-142q0 -88 5 -130t21.5 -64.5t55.5 -24.5q28 -4 42.5 -16.5t14.5 -44.5q0 -31 -15.5 -49.5t-41.5 -18.5 q-84 0 -124 26.5t-69 100.5q-92 -150 -327 -149q-166 0 -268.5 73.5t-146.5 187t-44 240.5zM236 1235q0 27 14.5 44t40.5 21q160 27 361 29h118h162q31 0 49.5 -18.5t18.5 -48.5q0 -57 -66 -58q-37 0 -65 2l-224 2q-141 0 -238 -15t-114 -17q-26 -5 -41.5 11.5t-15.5 47.5z M276 483q0 -143 71 -256.5t233 -113.5q121 0 199.5 62.5t80.5 178.5q2 96 2 248q0 100 -43 162.5t-104.5 89.5t-116.5 27q-109 0 -181.5 -61.5t-106.5 -154t-34 -182.5z" />
<glyph unicode="&#x102;" horiz-adv-x="1417" d="M152 47q0 4 4 25q207 606 350 1054q33 98 33 99q41 125 82 178t100 53q57 0 94 -47t74 -164q78 -242 194 -627l35 -116h58q33 0 54 -22.5t21 -57.5q0 -80 -63 -80h-23q47 -162 82 -272q6 -19 6 -25q0 -33 -25.5 -49t-62.5 -16q-27 0 -47 12t-26 33l-95 317l-583 4 l-101 -313q-16 -51 -75 -51q-35 0 -60.5 18t-25.5 47zM391 1837q0 23 17.5 40.5t40.5 17.5t41 -9.5t20 -29.5q4 -82 61.5 -130t143.5 -48q76 0 132 50t58 122q0 25 19.5 38t44.5 13t42 -16.5t17 -40.5q0 -72 -43 -135.5t-114.5 -101.5t-155.5 -38q-92 0 -166 37t-116 98.5 t-42 132.5zM467 510l485 -6l-61 211q-72 248 -111 379q-25 82 -39 118.5t-26 36.5q-10 0 -22.5 -31.5t-41.5 -121.5l-100 -316z" />
<glyph unicode="&#x103;" horiz-adv-x="1275" d="M119 483q0 137 55 258t162.5 195t257.5 74q102 0 178 -41t119 -115l8 68q4 76 70 75q41 0 62.5 -19.5t17.5 -45.5l-7 -51q-14 -86 -20 -179q-6 -78 -6 -208v-142q0 -88 5 -130t21.5 -64.5t55.5 -24.5q28 -4 42.5 -16.5t14.5 -44.5q0 -31 -15.5 -49.5t-41.5 -18.5 q-84 0 -124 26.5t-69 100.5q-92 -150 -327 -149q-166 0 -268.5 73.5t-146.5 187t-44 240.5zM276 483q0 -143 71 -256.5t233 -113.5q121 0 199.5 62.5t80.5 178.5q2 96 2 248q0 100 -43 162.5t-104.5 89.5t-116.5 27q-109 0 -181.5 -61.5t-106.5 -154t-34 -182.5zM303 1427 q0 23 17.5 40.5t40.5 17.5t41 -9.5t20 -29.5q4 -82 61.5 -130t143.5 -48q76 0 132 50t58 122q0 25 19.5 38t44.5 13t42 -16.5t17 -40.5q0 -72 -43 -135.5t-114.5 -101.5t-155.5 -38q-92 0 -166 37t-116 98.5t-42 132.5z" />
<glyph unicode="&#x104;" horiz-adv-x="1417" d="M152 47q0 4 4 25q207 606 350 1054q33 98 33 99q41 125 82 178t100 53q57 0 94 -47t74 -164q78 -242 194 -627l35 -116h58q33 0 54 -22.5t21 -57.5q0 -80 -63 -80h-23q47 -162 82 -272q6 -18 6 -25q0 -33 -30 -53h-2q-55 -45 -82 -82t-27 -78q0 -35 24.5 -51.5 t61.5 -16.5q14 0 39 7.5t31 7.5q14 0 24.5 -12.5t10.5 -32.5q0 -74 -113 -74q-86 0 -141.5 39t-55.5 123q0 102 99 201v2l-95 317l-583 4l-101 -313q-16 -51 -75 -51q-35 0 -60.5 18t-25.5 47zM467 510l485 -6l-61 211q-72 248 -111 379q-25 82 -39 118.5t-26 36.5 q-10 0 -22.5 -31.5t-41.5 -121.5l-100 -316z" />
<glyph unicode="&#x105;" horiz-adv-x="1275" d="M119 483q0 137 55 258t162.5 195t257.5 74q102 0 178 -41t119 -115l8 68q4 76 70 75q41 0 62.5 -19.5t17.5 -45.5l-7 -51q-14 -86 -20 -179q-6 -78 -6 -208v-142q0 -88 5 -130t21.5 -64.5t55.5 -24.5q29 -4 43 -16.5t14 -44.5q0 -18 -6 -35q-6 -16 -23 -29 q-55 -45 -81.5 -82t-26.5 -78q0 -35 24.5 -51t61.5 -16q14 0 38.5 7t31.5 7q14 0 24 -12t10 -33q0 -74 -112 -74q-86 0 -141.5 39t-55.5 123q0 96 86 187q-49 25 -80 106q-92 -150 -327 -149q-166 0 -268.5 73.5t-146.5 187t-44 240.5zM276 483q0 -143 71 -256.5t233 -113.5 q121 0 199.5 62.5t80.5 178.5q2 96 2 248q0 100 -43 162.5t-104.5 89.5t-116.5 27q-109 0 -181.5 -61.5t-106.5 -154t-34 -182.5z" />
<glyph unicode="&#x106;" horiz-adv-x="1462" d="M102 686q0 223 91.5 400.5t246 275.5t334.5 98q125 0 225.5 -47t167.5 -133l-2 100q0 33 19.5 51.5t58.5 18.5q74 0 74 -76v-229q0 -92 -74 -92q-27 0 -45 10t-35 33q-162 219 -389 219q-139 0 -258 -83t-187.5 -227.5t-68.5 -324.5q0 -178 77 -300t198.5 -181.5 t259.5 -59.5q111 0 211 39t163.5 120t63.5 204q0 37 20.5 57.5t57.5 20.5q82 0 82 -78q0 -139 -75 -255t-213 -184.5t-323 -68.5q-180 0 -335.5 75.5t-250 231.5t-94.5 385zM668 1606q0 33 29 59l166 175q25 27 41 38t34 11q25 0 42.5 -18.5t17.5 -45.5q0 -31 -35 -65 l-180 -176q-33 -33 -62 -33q-22 0 -37.5 16.5t-15.5 38.5z" />
<glyph unicode="&#x107;" horiz-adv-x="1204" d="M111 496q0 145 61 272t179 205t280 78q176 0 287.5 -84t160.5 -203q8 -16 8 -35q0 -23 -19 -39t-54 -16q-25 0 -41.5 13t-30.5 42q-31 80 -109.5 136.5t-191.5 56.5t-199 -59.5t-131 -157t-45 -205.5q0 -160 94.5 -264.5t266.5 -104.5q111 0 187.5 43t116.5 107.5 t44 130.5q0 23 15.5 36t45.5 13q78 0 78 -68q0 -90 -57.5 -180t-169 -150.5t-264.5 -60.5q-164 0 -280 66.5t-174 178t-58 249.5zM506 1196q0 33 29 59l166 175q25 27 41 38t34 11q25 0 42.5 -18.5t17.5 -45.5q0 -31 -35 -65l-180 -176q-33 -33 -62 -33q-22 0 -37.5 16.5 t-15.5 38.5z" />
<glyph unicode="&#x108;" horiz-adv-x="1462" d="M102 686q0 223 91.5 400.5t246 275.5t334.5 98q125 0 225.5 -47t167.5 -133l-2 100q0 33 19.5 51.5t58.5 18.5q74 0 74 -76v-229q0 -92 -74 -92q-27 0 -45 10t-35 33q-162 219 -389 219q-139 0 -258 -83t-187.5 -227.5t-68.5 -324.5q0 -178 77 -300t198.5 -181.5 t259.5 -59.5q111 0 211 39t163.5 120t63.5 204q0 37 20.5 57.5t57.5 20.5q82 0 82 -78q0 -139 -75 -255t-213 -184.5t-323 -68.5q-180 0 -335.5 75.5t-250 231.5t-94.5 385zM486 1633q0 27 20 47q33 33 51 55q78 86 136.5 138.5t99.5 52.5q53 0 104.5 -48.5t126.5 -146.5 l56 -70q18 -18 18 -41t-17.5 -40t-39.5 -17q-36 0 -54 27q-70 94 -120 151.5t-68 57.5q-16 0 -59 -43t-129 -142q-35 -41 -64 -41q-23 0 -42 18.5t-19 41.5z" />
<glyph unicode="&#x109;" horiz-adv-x="1204" d="M111 496q0 145 61 272t179 205t280 78q176 0 287.5 -84t160.5 -203q8 -16 8 -35q0 -23 -19 -39t-54 -16q-25 0 -41.5 13t-30.5 42q-31 80 -109.5 136.5t-191.5 56.5t-199 -59.5t-131 -157t-45 -205.5q0 -160 94.5 -264.5t266.5 -104.5q111 0 187.5 43t116.5 107.5 t44 130.5q0 23 15.5 36t45.5 13q78 0 78 -68q0 -90 -57.5 -180t-169 -150.5t-264.5 -60.5q-164 0 -280 66.5t-174 178t-58 249.5zM324 1223q0 27 20 47q33 33 51 55q78 86 136.5 138.5t99.5 52.5q53 0 104.5 -48.5t126.5 -146.5l56 -70q18 -18 18 -41t-17.5 -40t-39.5 -17 q-36 0 -54 27q-70 94 -120 151.5t-68 57.5q-16 0 -59 -43t-129 -142q-35 -41 -64 -41q-23 0 -42 18.5t-19 41.5z" />
<glyph unicode="&#x10a;" horiz-adv-x="1462" d="M102 686q0 223 91.5 400.5t246 275.5t334.5 98q125 0 225.5 -47t167.5 -133l-2 100q0 33 19.5 51.5t58.5 18.5q74 0 74 -76v-229q0 -92 -74 -92q-27 0 -45 10t-35 33q-162 219 -389 219q-139 0 -258 -83t-187.5 -227.5t-68.5 -324.5q0 -178 77 -300t198.5 -181.5 t259.5 -59.5q111 0 211 39t163.5 120t63.5 204q0 37 20.5 57.5t57.5 20.5q82 0 82 -78q0 -139 -75 -255t-213 -184.5t-323 -68.5q-180 0 -335.5 75.5t-250 231.5t-94.5 385zM686 1702q0 45 32 76t79 31t79 -31t32 -76q0 -47 -32 -79.5t-79 -32.5t-79 32.5t-32 79.5z" />
<glyph unicode="&#x10b;" horiz-adv-x="1204" d="M111 496q0 145 61 272t179 205t280 78q176 0 287.5 -84t160.5 -203q8 -16 8 -35q0 -23 -19 -39t-54 -16q-25 0 -41.5 13t-30.5 42q-31 80 -109.5 136.5t-191.5 56.5t-199 -59.5t-131 -157t-45 -205.5q0 -160 94.5 -264.5t266.5 -104.5q111 0 187.5 43t116.5 107.5 t44 130.5q0 23 15.5 36t45.5 13q78 0 78 -68q0 -90 -57.5 -180t-169 -150.5t-264.5 -60.5q-164 0 -280 66.5t-174 178t-58 249.5zM524 1292q0 45 32 76t79 31t79 -31t32 -76q0 -47 -32 -79.5t-79 -32.5t-79 32.5t-32 79.5z" />
<glyph unicode="&#x10c;" horiz-adv-x="1462" d="M102 686q0 223 91.5 400.5t246 275.5t334.5 98q125 0 225.5 -47t167.5 -133l-2 100q0 33 19.5 51.5t58.5 18.5q74 0 74 -76v-229q0 -92 -74 -92q-27 0 -45 10t-35 33q-162 219 -389 219q-139 0 -258 -83t-187.5 -227.5t-68.5 -324.5q0 -178 77 -300t198.5 -181.5 t259.5 -59.5q111 0 211 39t163.5 120t63.5 204q0 37 20.5 57.5t57.5 20.5q82 0 82 -78q0 -139 -75 -255t-213 -184.5t-323 -68.5q-180 0 -335.5 75.5t-250 231.5t-94.5 385zM486 1862q0 23 19.5 41t41.5 18q29 0 64 -41q154 -184 188 -184q16 0 59 50t129 161q18 25 54 25 q22 0 39.5 -17.5t17.5 -40.5q0 -10 -5 -20t-13 -21q-94 -131 -158 -197.5t-129 -66.5q-41 0 -97.5 51.5t-134.5 137.5l-55 59q-20 20 -20 45z" />
<glyph unicode="&#x10d;" horiz-adv-x="1204" d="M111 496q0 145 61 272t179 205t280 78q176 0 287.5 -84t160.5 -203q8 -16 8 -35q0 -23 -19 -39t-54 -16q-25 0 -41.5 13t-30.5 42q-31 80 -109.5 136.5t-191.5 56.5t-199 -59.5t-131 -157t-45 -205.5q0 -160 94.5 -264.5t266.5 -104.5q111 0 187.5 43t116.5 107.5 t44 130.5q0 23 15.5 36t45.5 13q78 0 78 -68q0 -90 -57.5 -180t-169 -150.5t-264.5 -60.5q-164 0 -280 66.5t-174 178t-58 249.5zM324 1452q0 23 19.5 41t41.5 18q29 0 64 -41q154 -184 188 -184q16 0 59 50t129 161q18 25 54 25q22 0 39.5 -17.5t17.5 -40.5q0 -10 -5 -20 t-13 -21q-94 -131 -158 -197.5t-129 -66.5q-41 0 -97.5 51.5t-134.5 137.5l-55 59q-20 20 -20 45z" />
<glyph unicode="&#x10e;" horiz-adv-x="1406" d="M158 1358q0 43 23.5 59.5t68.5 16.5h22q18 37 70 36q55 0 70 -40q415 -27 651.5 -196t236.5 -495q0 -219 -109.5 -382.5t-315 -253t-484.5 -89.5h-145q-45 0 -65.5 16.5t-20.5 55.5q0 70 65 70h70l-31 1134h-14q-45 0 -68.5 14.5t-23.5 53.5zM383 1862q0 23 19.5 41 t41.5 18q29 0 64 -41q154 -184 188 -184q16 0 59 50t129 161q18 25 54 25q22 0 39.5 -17.5t17.5 -40.5q0 -10 -5 -20t-13 -21q-94 -131 -158 -197.5t-129 -66.5q-41 0 -97.5 51.5t-134.5 137.5l-55 59q-20 20 -20 45zM422 1284l29 -1128q204 8 361 78.5t245 199.5t88 305 q0 496 -723 545z" />
<glyph unicode="&#x10f;" horiz-adv-x="1581" d="M117 520q0 160 65.5 276.5t185 179t279.5 62.5q115 0 202 -33.5t138 -86.5v43q8 322 13.5 469t19.5 294q4 29 24.5 47.5t53.5 18.5q37 0 59.5 -19.5t20.5 -50.5q-14 -150 -26.5 -514t-12.5 -657q0 -299 14 -344q12 -45 29.5 -75t38.5 -30q6 0 6 -22q0 -31 -26.5 -55.5 t-59.5 -24.5q-23 0 -39 10q-29 16 -58.5 54t-39.5 106q-51 -82 -147.5 -129t-215.5 -47q-143 0 -262 57t-190.5 176t-71.5 295zM272 514q0 -131 54.5 -217t138.5 -126t172 -40t167 38t128 102.5t49 140.5q0 90 2 143l2 170q-35 66 -127 121t-211 55q-170 0 -272.5 -102.5 t-102.5 -284.5zM1299 1333q0 16 12 31l46 46t57 73q-37 0 -65 32.5t-28 71.5q0 49 36 84t85 35t84 -36t35 -85q0 -127 -176 -287q-18 -14 -35 -14q-23 0 -37 14.5t-14 34.5z" />
<glyph unicode="&#x110;" horiz-adv-x="1476" d="M82 748q0 37 27.5 58t80.5 19l148 -4l-12 471q-98 6 -99 78q0 33 26 47.5t83 16.5q18 29 70 28q57 0 75 -32q408 -23 648.5 -198t240.5 -505q0 -217 -109.5 -378t-314.5 -248t-485 -87h-146q-45 0 -65.5 16.5t-20.5 55.5q-2 68 78 68h49l-14 516l-154 2q-51 0 -78.5 20.5 t-27.5 55.5zM498 1286l12 -469l229 -4q45 -2 71 -23.5t26 -56.5t-26 -53t-71 -18l-225 4l14 -510q312 14 493 165.5t181 413.5q0 272 -196.5 399.5t-507.5 151.5z" />
<glyph unicode="&#x111;" horiz-adv-x="1476" d="M117 520q0 160 65.5 276.5t185 179t279.5 62.5q115 0 202 -33.5t138 -86.5l4 163l6 244l-163 -2q-33 0 -51.5 16.5t-18.5 44.5q0 29 18.5 44.5t51.5 15.5l167 4q6 139 19 276q4 29 24.5 47.5t53.5 18.5q37 0 59.5 -19.5t20.5 -50.5q-10 -104 -17 -268l135 4q76 0 76 -59 q0 -29 -21.5 -47.5t-54.5 -18.5l-141 -2q-16 -399 -16 -780q0 -299 14 -344q12 -45 29.5 -75t38.5 -30q6 0 6 -22q0 -31 -26.5 -55.5t-59.5 -24.5q-23 0 -39 10q-29 16 -58.5 54t-39.5 106q-51 -82 -147.5 -129t-215.5 -47q-143 0 -262 57t-190.5 176t-71.5 295zM272 514 q0 -131 54.5 -217t138.5 -126t172 -40t167 38t128 102.5t49 140.5q0 90 2 143l2 170q-35 66 -127 121t-211 55q-170 0 -272.5 -102.5t-102.5 -284.5z" />
<glyph unicode="&#x112;" horiz-adv-x="1173" d="M104 117q0 31 14.5 51t37.5 20q20 0 34 -2q33 205 35 500h-24q-35 0 -53.5 18.5t-18.5 53.5q0 72 64 71h32v228q0 147 -2 221q-57 10 -57 65q0 43 21.5 56.5t60.5 17.5q115 12 352 13q297 0 426 -19q35 -6 52.5 -19.5t17.5 -48.5t-18.5 -55t-47.5 -16q-205 16 -377 16 q-133 0 -276 -8q8 -287 8 -453l137 -2q164 -4 209 -4q111 -4 139 -4q57 0 58 -67q0 -35 -14.5 -55.5t-43.5 -20.5l-108 2q-92 6 -244 6q-92 0 -135 2q-2 -233 -35 -508q127 -10 318 -10q111 0 175 4t156 14q43 4 64.5 -14t21.5 -57q0 -35 -16 -50.5t-45 -21.5 q-80 -16 -309 -16h-66q-137 0 -244.5 4t-242.5 20q-55 6 -56 68zM225 1645q0 27 14.5 44t40.5 21q160 27 361 29h118h162q31 0 49.5 -18.5t18.5 -48.5q0 -57 -66 -58q-37 0 -65 2l-224 2q-141 0 -238 -15t-114 -17q-26 -5 -41.5 11.5t-15.5 47.5z" />
<glyph unicode="&#x113;" horiz-adv-x="1267" d="M119 518q0 145 65.5 267t186.5 194t278 72q139 0 250 -56.5t172.5 -157t61.5 -229.5q0 -61 -14.5 -86.5t-71.5 -27.5l-781 -17q0 -78 47 -159.5t134.5 -137t201.5 -55.5q86 0 147.5 25.5t96.5 58.5t84 92q14 18 45 18q27 0 50.5 -20t23.5 -47q0 -20 -17 -43 q-66 -90 -159 -153.5t-265 -63.5q-168 0 -289.5 72.5t-184 192.5t-62.5 261zM252 1235q0 27 14.5 44t40.5 21q160 27 361 29h118h162q31 0 49.5 -18.5t18.5 -48.5q0 -57 -66 -58q-37 0 -65 2l-224 2q-141 0 -238 -15t-114 -17q-26 -5 -41.5 11.5t-15.5 47.5zM266 600l713 18 q20 0 20 29q0 123 -98 200t-248 77q-113 0 -200.5 -57.5t-137 -135.5t-49.5 -131z" />
<glyph unicode="&#x114;" horiz-adv-x="1173" d="M104 117q0 31 14.5 51t37.5 20q20 0 34 -2q33 205 35 500h-24q-35 0 -53.5 18.5t-18.5 53.5q0 72 64 71h32v228q0 147 -2 221q-57 10 -57 65q0 43 21.5 56.5t60.5 17.5q115 12 352 13q297 0 426 -19q35 -6 52.5 -19.5t17.5 -48.5t-18.5 -55t-47.5 -16q-205 16 -377 16 q-133 0 -276 -8q8 -287 8 -453l137 -2q164 -4 209 -4q111 -4 139 -4q57 0 58 -67q0 -35 -14.5 -55.5t-43.5 -20.5l-108 2q-92 6 -244 6q-92 0 -135 2q-2 -233 -35 -508q127 -10 318 -10q111 0 175 4t156 14q43 4 64.5 -14t21.5 -57q0 -35 -16 -50.5t-45 -21.5 q-80 -16 -309 -16h-66q-137 0 -244.5 4t-242.5 20q-55 6 -56 68zM292 1837q0 23 17.5 40.5t40.5 17.5t41 -9.5t20 -29.5q4 -82 61.5 -130t143.5 -48q76 0 132 50t58 122q0 25 19.5 38t44.5 13t42 -16.5t17 -40.5q0 -72 -43 -135.5t-114.5 -101.5t-155.5 -38q-92 0 -166 37 t-116 98.5t-42 132.5z" />
<glyph unicode="&#x115;" horiz-adv-x="1267" d="M119 518q0 145 65.5 267t186.5 194t278 72q139 0 250 -56.5t172.5 -157t61.5 -229.5q0 -61 -14.5 -86.5t-71.5 -27.5l-781 -17q0 -78 47 -159.5t134.5 -137t201.5 -55.5q86 0 147.5 25.5t96.5 58.5t84 92q14 18 45 18q27 0 50.5 -20t23.5 -47q0 -20 -17 -43 q-66 -90 -159 -153.5t-265 -63.5q-168 0 -289.5 72.5t-184 192.5t-62.5 261zM266 600l713 18q20 0 20 29q0 123 -98 200t-248 77q-113 0 -200.5 -57.5t-137 -135.5t-49.5 -131zM319 1427q0 23 17.5 40.5t40.5 17.5t41 -9.5t20 -29.5q4 -82 61.5 -130t143.5 -48q76 0 132 50 t58 122q0 25 19.5 38t44.5 13t42 -16.5t17 -40.5q0 -72 -43 -135.5t-114.5 -101.5t-155.5 -38q-92 0 -166 37t-116 98.5t-42 132.5z" />
<glyph unicode="&#x116;" horiz-adv-x="1173" d="M104 117q0 31 14.5 51t37.5 20q20 0 34 -2q33 205 35 500h-24q-35 0 -53.5 18.5t-18.5 53.5q0 72 64 71h32v228q0 147 -2 221q-57 10 -57 65q0 43 21.5 56.5t60.5 17.5q115 12 352 13q297 0 426 -19q35 -6 52.5 -19.5t17.5 -48.5t-18.5 -55t-47.5 -16q-205 16 -377 16 q-133 0 -276 -8q8 -287 8 -453l137 -2q164 -4 209 -4q111 -4 139 -4q57 0 58 -67q0 -35 -14.5 -55.5t-43.5 -20.5l-108 2q-92 6 -244 6q-92 0 -135 2q-2 -233 -35 -508q127 -10 318 -10q111 0 175 4t156 14q43 4 64.5 -14t21.5 -57q0 -35 -16 -50.5t-45 -21.5 q-80 -16 -309 -16h-66q-137 0 -244.5 4t-242.5 20q-55 6 -56 68zM505 1702q0 45 32 76t79 31t79 -31t32 -76q0 -47 -32 -79.5t-79 -32.5t-79 32.5t-32 79.5z" />
<glyph unicode="&#x117;" horiz-adv-x="1267" d="M119 518q0 145 65.5 267t186.5 194t278 72q139 0 250 -56.5t172.5 -157t61.5 -229.5q0 -61 -14.5 -86.5t-71.5 -27.5l-781 -17q0 -78 47 -159.5t134.5 -137t201.5 -55.5q86 0 147.5 25.5t96.5 58.5t84 92q14 18 45 18q27 0 50.5 -20t23.5 -47q0 -20 -17 -43 q-66 -90 -159 -153.5t-265 -63.5q-168 0 -289.5 72.5t-184 192.5t-62.5 261zM266 600l713 18q20 0 20 29q0 123 -98 200t-248 77q-113 0 -200.5 -57.5t-137 -135.5t-49.5 -131zM532 1292q0 45 32 76t79 31t79 -31t32 -76q0 -47 -32 -79.5t-79 -32.5t-79 32.5t-32 79.5z" />
<glyph unicode="&#x118;" horiz-adv-x="1173" d="M104 117q0 31 14.5 51t37.5 20q20 0 34 -2q33 205 35 500h-24q-35 0 -53.5 18.5t-18.5 53.5q0 72 64 71h32v228q0 147 -2 221q-57 10 -57 65q0 43 21.5 56.5t60.5 17.5q115 12 352 13q297 0 426 -19q35 -6 52.5 -19.5t17.5 -48.5t-18.5 -55t-47.5 -16q-205 16 -377 16 q-133 0 -276 -8q8 -287 8 -453l137 -2q164 -4 209 -4q111 -4 139 -4q57 0 58 -67q0 -35 -14.5 -55.5t-43.5 -20.5l-108 2q-92 6 -244 6q-92 0 -135 2q-2 -233 -35 -508q127 -10 318 -10q111 0 175 4t156 14q43 4 64.5 -14t21.5 -57t-22 -56q-2 -6 -8 -8q-55 -45 -82 -82 t-27 -78q0 -35 24.5 -51t61.5 -16q14 0 39 7t31 7q14 0 24.5 -12t10.5 -33q0 -74 -113 -74q-86 0 -141.5 39t-55.5 123q0 74 54 148q-80 -2 -232 -2q-137 0 -244.5 4t-242.5 20q-55 6 -56 68z" />
<glyph unicode="&#x119;" horiz-adv-x="1267" d="M119 518q0 145 65.5 267t186.5 194t278 72q139 0 250 -56.5t172.5 -157t61.5 -229.5q0 -61 -14.5 -86.5t-71.5 -27.5l-781 -17q0 -78 47 -159.5t134.5 -137t201.5 -55.5q86 0 147.5 25.5t96.5 58.5t84 92q14 18 45 18q27 0 50.5 -20t23.5 -47q0 -20 -17 -43 q-55 -80 -116 -125q-70 -66 -70 -125q0 -35 24.5 -51.5t61.5 -16.5q14 0 38.5 7.5t31.5 7.5q14 0 24 -12.5t10 -32.5q0 -74 -112 -74q-86 0 -141.5 39t-55.5 123q0 31 8 55q-57 -12 -127 -12q-168 0 -289.5 72.5t-184 192.5t-62.5 261zM266 600l713 18q20 0 20 29 q0 123 -98 200t-248 77q-113 0 -200.5 -57.5t-137 -135.5t-49.5 -131z" />
<glyph unicode="&#x11a;" horiz-adv-x="1173" d="M104 117q0 31 14.5 51t37.5 20q20 0 34 -2q33 205 35 500h-24q-35 0 -53.5 18.5t-18.5 53.5q0 72 64 71h32v228q0 147 -2 221q-57 10 -57 65q0 43 21.5 56.5t60.5 17.5q115 12 352 13q297 0 426 -19q35 -6 52.5 -19.5t17.5 -48.5t-18.5 -55t-47.5 -16q-205 16 -377 16 q-133 0 -276 -8q8 -287 8 -453l137 -2q164 -4 209 -4q111 -4 139 -4q57 0 58 -67q0 -35 -14.5 -55.5t-43.5 -20.5l-108 2q-92 6 -244 6q-92 0 -135 2q-2 -233 -35 -508q127 -10 318 -10q111 0 175 4t156 14q43 4 64.5 -14t21.5 -57q0 -35 -16 -50.5t-45 -21.5 q-80 -16 -309 -16h-66q-137 0 -244.5 4t-242.5 20q-55 6 -56 68zM305 1862q0 23 19.5 41t41.5 18q29 0 64 -41q154 -184 188 -184q16 0 59 50t129 161q18 25 54 25q22 0 39.5 -17.5t17.5 -40.5q0 -10 -5 -20t-13 -21q-94 -131 -158 -197.5t-129 -66.5q-41 0 -97.5 51.5 t-134.5 137.5l-55 59q-20 20 -20 45z" />
<glyph unicode="&#x11b;" horiz-adv-x="1267" d="M119 518q0 145 65.5 267t186.5 194t278 72q139 0 250 -56.5t172.5 -157t61.5 -229.5q0 -61 -14.5 -86.5t-71.5 -27.5l-781 -17q0 -78 47 -159.5t134.5 -137t201.5 -55.5q86 0 147.5 25.5t96.5 58.5t84 92q14 18 45 18q27 0 50.5 -20t23.5 -47q0 -20 -17 -43 q-66 -90 -159 -153.5t-265 -63.5q-168 0 -289.5 72.5t-184 192.5t-62.5 261zM266 600l713 18q20 0 20 29q0 123 -98 200t-248 77q-113 0 -200.5 -57.5t-137 -135.5t-49.5 -131zM332 1452q0 23 19.5 41t41.5 18q29 0 64 -41q154 -184 188 -184q16 0 59 50t129 161 q18 25 54 25q22 0 39.5 -17.5t17.5 -40.5q0 -10 -5 -20t-13 -21q-94 -131 -158 -197.5t-129 -66.5q-41 0 -97.5 51.5t-134.5 137.5l-55 59q-20 20 -20 45z" />
<glyph unicode="&#x11c;" horiz-adv-x="1517" d="M94 711q0 193 86 353.5t239.5 254.5t346.5 94q145 0 250.5 -50t171.5 -126v41q0 35 22.5 54.5t59.5 19.5q35 0 56.5 -16.5t21.5 -39.5q0 -145 -23 -192q-20 -45 -80 -45q-23 0 -41 9t-47 36q-61 55 -106 88t-107.5 54.5t-148.5 21.5q-162 0 -285 -76t-190.5 -205 t-67.5 -282q0 -154 67.5 -282t189.5 -202t277 -74q186 0 277.5 111t99.5 328l-289 6q-76 2 -75 72q0 37 23.5 56t56.5 17l487 -10q80 0 80 -70q0 -35 -20.5 -54t-55.5 -17l-53 2q-10 -285 -141.5 -435.5t-387.5 -150.5q-207 0 -365.5 96.5t-243.5 258t-85 354.5zM457 1633 q0 27 20 47q33 33 51 55q78 86 136.5 138.5t99.5 52.5q53 0 104.5 -48.5t126.5 -146.5l56 -70q18 -18 18 -41t-17.5 -40t-39.5 -17q-36 0 -54 27q-70 94 -120 151.5t-68 57.5q-16 0 -59 -43t-129 -142q-35 -41 -64 -41q-23 0 -42 18.5t-19 41.5z" />
<glyph unicode="&#x11d;" horiz-adv-x="1187" d="M94 510q0 137 59.5 258t169 194.5t252.5 73.5q92 0 163 -26.5t110 -65.5q33 94 39 107q18 35 53 34q31 0 58.5 -16t29.5 -41q0 -12 -2 -18q-2 -8 -13.5 -45t-29.5 -109l74 -506l16 -108q14 -88 20.5 -135.5t6.5 -98.5q0 -156 -61.5 -273.5t-174 -182t-260.5 -64.5 q-109 0 -203 46t-150 123t-56 167q0 61 75 61q25 0 38.5 -11t19.5 -38q25 -109 97.5 -162t178.5 -53q164 0 252 102.5t88 284.5q0 59 -16 154q-47 -70 -132 -112t-200 -42q-152 0 -266.5 69.5t-175 184.5t-60.5 248zM250 516q0 -96 38 -179t115.5 -133t190.5 -50 q65 0 133 27.5t117 69.5t59 83q-10 98 -49 328l-18 106q-10 27 -47 56.5t-92.5 50t-116.5 20.5q-96 0 -171 -50t-117 -136t-42 -193zM279 1223q0 27 20 47q33 33 51 55q78 86 136.5 138.5t99.5 52.5q53 0 104.5 -48.5t126.5 -146.5l56 -70q18 -18 18 -41t-17.5 -40 t-39.5 -17q-36 0 -54 27q-70 94 -120 151.5t-68 57.5q-16 0 -59 -43t-129 -142q-35 -41 -64 -41q-23 0 -42 18.5t-19 41.5z" />
<glyph unicode="&#x11e;" horiz-adv-x="1517" d="M94 711q0 193 86 353.5t239.5 254.5t346.5 94q145 0 250.5 -50t171.5 -126v41q0 35 22.5 54.5t59.5 19.5q35 0 56.5 -16.5t21.5 -39.5q0 -145 -23 -192q-20 -45 -80 -45q-23 0 -41 9t-47 36q-61 55 -106 88t-107.5 54.5t-148.5 21.5q-162 0 -285 -76t-190.5 -205 t-67.5 -282q0 -154 67.5 -282t189.5 -202t277 -74q186 0 277.5 111t99.5 328l-289 6q-76 2 -75 72q0 37 23.5 56t56.5 17l487 -10q80 0 80 -70q0 -35 -20.5 -54t-55.5 -17l-53 2q-10 -285 -141.5 -435.5t-387.5 -150.5q-207 0 -365.5 96.5t-243.5 258t-85 354.5zM444 1837 q0 23 17.5 40.5t40.5 17.5t41 -9.5t20 -29.5q4 -82 61.5 -130t143.5 -48q76 0 132 50t58 122q0 25 19.5 38t44.5 13t42 -16.5t17 -40.5q0 -72 -43 -135.5t-114.5 -101.5t-155.5 -38q-92 0 -166 37t-116 98.5t-42 132.5z" />
<glyph unicode="&#x11f;" horiz-adv-x="1187" d="M94 510q0 137 59.5 258t169 194.5t252.5 73.5q92 0 163 -26.5t110 -65.5q33 94 39 107q18 35 53 34q31 0 58.5 -16t29.5 -41q0 -12 -2 -18q-2 -8 -13.5 -45t-29.5 -109l74 -506l16 -108q14 -88 20.5 -135.5t6.5 -98.5q0 -156 -61.5 -273.5t-174 -182t-260.5 -64.5 q-109 0 -203 46t-150 123t-56 167q0 61 75 61q25 0 38.5 -11t19.5 -38q25 -109 97.5 -162t178.5 -53q164 0 252 102.5t88 284.5q0 59 -16 154q-47 -70 -132 -112t-200 -42q-152 0 -266.5 69.5t-175 184.5t-60.5 248zM250 516q0 -96 38 -179t115.5 -133t190.5 -50 q65 0 133 27.5t117 69.5t59 83q-10 98 -49 328l-18 106q-10 27 -47 56.5t-92.5 50t-116.5 20.5q-96 0 -171 -50t-117 -136t-42 -193zM266 1427q0 23 17.5 40.5t40.5 17.5t41 -9.5t20 -29.5q4 -82 61.5 -130t143.5 -48q76 0 132 50t58 122q0 25 19.5 38t44.5 13t42 -16.5 t17 -40.5q0 -72 -43 -135.5t-114.5 -101.5t-155.5 -38q-92 0 -166 37t-116 98.5t-42 132.5z" />
<glyph unicode="&#x120;" horiz-adv-x="1517" d="M94 711q0 193 86 353.5t239.5 254.5t346.5 94q145 0 250.5 -50t171.5 -126v41q0 35 22.5 54.5t59.5 19.5q35 0 56.5 -16.5t21.5 -39.5q0 -145 -23 -192q-20 -45 -80 -45q-23 0 -41 9t-47 36q-61 55 -106 88t-107.5 54.5t-148.5 21.5q-162 0 -285 -76t-190.5 -205 t-67.5 -282q0 -154 67.5 -282t189.5 -202t277 -74q186 0 277.5 111t99.5 328l-289 6q-76 2 -75 72q0 37 23.5 56t56.5 17l487 -10q80 0 80 -70q0 -35 -20.5 -54t-55.5 -17l-53 2q-10 -285 -141.5 -435.5t-387.5 -150.5q-207 0 -365.5 96.5t-243.5 258t-85 354.5zM657 1702 q0 45 32 76t79 31t79 -31t32 -76q0 -47 -32 -79.5t-79 -32.5t-79 32.5t-32 79.5z" />
<glyph unicode="&#x121;" horiz-adv-x="1187" d="M94 510q0 137 59.5 258t169 194.5t252.5 73.5q92 0 163 -26.5t110 -65.5q33 94 39 107q18 35 53 34q31 0 58.5 -16t29.5 -41q0 -12 -2 -18q-2 -8 -13.5 -45t-29.5 -109l74 -506l16 -108q14 -88 20.5 -135.5t6.5 -98.5q0 -156 -61.5 -273.5t-174 -182t-260.5 -64.5 q-109 0 -203 46t-150 123t-56 167q0 61 75 61q25 0 38.5 -11t19.5 -38q25 -109 97.5 -162t178.5 -53q164 0 252 102.5t88 284.5q0 59 -16 154q-47 -70 -132 -112t-200 -42q-152 0 -266.5 69.5t-175 184.5t-60.5 248zM250 516q0 -96 38 -179t115.5 -133t190.5 -50 q65 0 133 27.5t117 69.5t59 83q-10 98 -49 328l-18 106q-10 27 -47 56.5t-92.5 50t-116.5 20.5q-96 0 -171 -50t-117 -136t-42 -193zM479 1292q0 45 32 76t79 31t79 -31t32 -76q0 -47 -32 -79.5t-79 -32.5t-79 32.5t-32 79.5z" />
<glyph unicode="&#x122;" horiz-adv-x="1517" d="M94 711q0 193 86 353.5t239.5 254.5t346.5 94q145 0 250.5 -50t171.5 -126v41q0 35 22.5 54.5t59.5 19.5q35 0 56.5 -16.5t21.5 -39.5q0 -145 -23 -192q-20 -45 -80 -45q-23 0 -41 9t-47 36q-61 55 -106 88t-107.5 54.5t-148.5 21.5q-162 0 -285 -76t-190.5 -205 t-67.5 -282q0 -154 67.5 -282t189.5 -202t277 -74q186 0 277.5 111t99.5 328l-289 6q-76 2 -75 72q0 37 23.5 56t56.5 17l487 -10q80 0 80 -70q0 -35 -20.5 -54t-55.5 -17l-53 2q-10 -285 -141.5 -435.5t-387.5 -150.5q-207 0 -365.5 96.5t-243.5 258t-85 354.5zM629 -520 q0 12 8 24l31 35q59 63 75 92q-37 4 -63.5 34t-26.5 69q0 49 36 84t85 35t84 -35t35 -84q0 -70 -46 -145.5t-130 -143.5q-14 -14 -35 -14q-18 0 -35.5 14t-17.5 35z" />
<glyph unicode="&#x123;" horiz-adv-x="1187" d="M94 510q0 137 59.5 258t169 194.5t252.5 73.5q92 0 163 -26.5t110 -65.5q33 94 39 107q18 35 53 34q31 0 58.5 -16t29.5 -41q0 -12 -2 -18q-2 -8 -13.5 -45t-29.5 -109l74 -506l16 -108q14 -88 20.5 -135.5t6.5 -98.5q0 -156 -61.5 -273.5t-174 -182t-260.5 -64.5 q-109 0 -203 46t-150 123t-56 167q0 61 75 61q25 0 38.5 -11t19.5 -38q25 -109 97.5 -162t178.5 -53q164 0 252 102.5t88 284.5q0 59 -16 154q-47 -70 -132 -112t-200 -42q-152 0 -266.5 69.5t-175 184.5t-60.5 248zM250 516q0 -96 38 -179t115.5 -133t190.5 -50 q65 0 133 27.5t117 69.5t59 83q-10 98 -49 328l-18 106q-10 27 -47 56.5t-92.5 50t-116.5 20.5q-96 0 -171 -50t-117 -136t-42 -193zM450 1268q0 72 47.5 149.5t133.5 141.5q16 12 30 12q18 0 35 -15.5t17 -35.5q0 -18 -15 -33q-83 -84 -110 -117q43 -4 73.5 -33.5 t30.5 -72.5q0 -49 -36 -82t-87 -33q-47 0 -83 35t-36 84z" />
<glyph unicode="&#x124;" horiz-adv-x="1460" d="M119 664q0 35 24.5 53t63.5 18h47l53 672q2 37 25.5 54.5t56.5 17.5q41 0 59.5 -23.5t16.5 -58.5l-53 -666l659 -10l-20 680q0 37 20.5 57.5t56.5 20.5q37 0 58.5 -20.5t21.5 -51.5l21 -688h37q92 0 92 -74q0 -72 -92 -72h-33l14 -497q2 -35 -18.5 -56.5t-57.5 -21.5 q-39 0 -59 19.5t-22 54.5l-15 506l-676 10l-43 -543q-6 -57 -77 -57q-86 0 -80 69l43 535h-39q-35 0 -59.5 18.5t-24.5 53.5zM439 1633q0 27 20 47q33 33 51 55q78 86 136.5 138.5t99.5 52.5q53 0 104.5 -48.5t126.5 -146.5l56 -70q18 -18 18 -41t-17.5 -40t-39.5 -17 q-36 0 -54 27q-70 94 -120 151.5t-68 57.5q-16 0 -59 -43t-129 -142q-35 -41 -64 -41q-23 0 -42 18.5t-19 41.5z" />
<glyph unicode="&#x125;" horiz-adv-x="1155" d="M6 1807q0 27 20 47q33 33 51 55q78 86 136.5 138.5t99.5 52.5q53 0 104.5 -48.5t126.5 -146.5l56 -70q18 -18 18 -41t-17.5 -40t-39.5 -17q-36 0 -54 27q-70 94 -120 151.5t-68 57.5q-16 0 -59 -43t-129 -142q-35 -41 -64 -41q-23 0 -42 18.5t-19 41.5zM195 61 q0 424 10 799q10 336 33 676q6 72 77 72q33 0 54.5 -15.5t19.5 -42.5l-14 -286q-12 -264 -21 -385q51 76 135 126t209 50q135 0 212 -67.5t114 -209.5q29 -114 39 -284t10 -433q0 -27 -21.5 -44t-56.5 -17t-56 17.5t-21 52.5q0 539 -46 684q-25 84 -70.5 121.5t-123.5 37.5 q-106 0 -180 -62.5t-111 -158.5t-37 -200v-433q0 -25 -22.5 -41t-55.5 -16q-35 0 -56 16.5t-21 42.5z" />
<glyph unicode="&#x126;" horiz-adv-x="1492" d="M119 1083q0 31 26.5 48.5t63.5 17.5l106 -2l21 260q2 37 25.5 54.5t56.5 17.5q41 0 59.5 -23.5t16.5 -58.5l-21 -252l614 -8l-8 264q0 37 20.5 57.5t57.5 20.5t58.5 -20.5t21.5 -51.5l8 -274h55q41 0 66 -17.5t25 -48.5q0 -35 -25 -51.5t-66 -16.5h-51l8 -280h37 q92 0 92 -74q0 -72 -92 -72h-32l14 -497q2 -35 -18.5 -56.5t-57.5 -21.5q-39 0 -59.5 19.5t-22.5 54.5l-14 506l-676 10l-43 -543q-6 -57 -78 -57q-86 0 -80 69l43 535h-39q-35 0 -59.5 18.5t-24.5 53.5t25 53t64 18h47l22 281l-100 2q-37 2 -61.5 19.5t-24.5 45.5zM440 731 l660 -10l-8 283l-629 10z" />
<glyph unicode="&#x127;" horiz-adv-x="1171" d="M80 1280q0 27 20.5 43t46.5 16l95 -4l12 201q6 72 78 72q33 0 54.5 -15.5t19.5 -42.5q-8 -141 -11 -219l221 -8q33 0 51.5 -16.5t18.5 -44.5q0 -29 -18.5 -45.5t-49.5 -16.5l-229 8l-18 -329q51 76 135 126t209 50q135 0 212 -67.5t113 -209.5q29 -114 39.5 -284 t10.5 -433q0 -27 -21.5 -44t-56.5 -17t-56.5 17.5t-21.5 52.5q0 539 -45 684q-25 84 -71 121.5t-124 37.5q-106 0 -180 -62.5t-110.5 -158.5t-36.5 -200v-433q0 -25 -22.5 -41t-55.5 -16q-35 0 -56.5 16.5t-21.5 42.5q0 424 10 799l2 62l13 290l-93 5q-27 0 -45 18t-18 45z " />
<glyph unicode="&#x128;" horiz-adv-x="897" d="M66 1362q0 59 65 72q37 6 158 12t235 6q172 0 244 -12q31 -6 47 -19.5t16 -50.5q0 -35 -19 -54.5t-52 -17.5q-80 6 -189 9q0 -332 -8 -599.5t-31 -551.5l230 -2q69 0 69 -72q0 -74 -71 -74l-621 8q-63 2 -63 74q0 37 19.5 54.5t47.5 17.5l234 -4q37 590 37 1147 q-92 -2 -240 -13l-55 -4q-20 0 -36.5 20.5t-16.5 53.5zM129 1629q0 23 17 43q49 59 88 83.5t92 24.5q94 0 180 -45q12 -6 38 -19.5t43 -19.5t32 -6q16 0 29.5 9t29.5 26q29 31 51 31q23 0 42.5 -20.5t19.5 -43.5t-17 -43q-43 -41 -80.5 -60.5t-78.5 -19.5q-29 0 -56.5 9.5 t-62.5 27.5q-8 4 -45 21q-10 4 -50 21t-67 17q-18 0 -34.5 -12t-32 -28.5t-19.5 -22.5q-33 -33 -61 -33q-23 0 -39 17q-19 23 -19 43z" />
<glyph unicode="&#x129;" horiz-adv-x="643" d="M-8 1219q0 23 17 43q49 59 88 83.5t92 24.5q94 0 180 -45q12 -6 38 -19.5t43 -19.5t32 -6q16 0 29.5 9t29.5 26q29 31 51 31q23 0 42.5 -20.5t19.5 -43.5t-17 -43q-43 -41 -80.5 -60.5t-78.5 -19.5q-29 0 -56.5 9.5t-62.5 27.5q-8 4 -45 21q-10 4 -50 21t-67 17 q-18 0 -34.5 -12t-32 -28.5t-19.5 -22.5q-33 -33 -61 -33q-23 0 -39 17q-19 23 -19 43zM233 86l19 872q0 37 21.5 57.5t58.5 20.5t58.5 -20.5t21.5 -57.5l-27 -874q0 -35 -19.5 -55.5t-54.5 -20.5t-56.5 21.5t-21.5 56.5z" />
<glyph unicode="&#x12a;" horiz-adv-x="897" d="M66 1362q0 59 65 72q37 6 158 12t235 6q172 0 244 -12q31 -6 47 -19.5t16 -50.5q0 -35 -19 -54.5t-52 -17.5q-80 6 -189 9q0 -332 -8 -599.5t-31 -551.5l230 -2q69 0 69 -72q0 -74 -71 -74l-621 8q-63 2 -63 74q0 37 19.5 54.5t47.5 17.5l234 -4q37 590 37 1147 q-92 -2 -240 -13l-55 -4q-20 0 -36.5 20.5t-16.5 53.5zM70 1645q0 27 14.5 44t40.5 21q160 27 361 29h118h162q31 0 49.5 -18.5t18.5 -48.5q0 -57 -66 -58q-37 0 -65 2l-224 2q-141 0 -238 -15t-114 -17q-26 -5 -41.5 11.5t-15.5 47.5z" />
<glyph unicode="&#x12b;" horiz-adv-x="643" d="M-67 1235q0 27 14.5 44t40.5 21q160 27 361 29h118h162q31 0 49.5 -18.5t18.5 -48.5q0 -57 -66 -58q-37 0 -65 2l-224 2q-141 0 -238 -15t-114 -17q-26 -5 -41.5 11.5t-15.5 47.5zM233 86l19 872q0 37 21.5 57.5t58.5 20.5t58.5 -20.5t21.5 -57.5l-27 -874 q0 -35 -19.5 -55.5t-54.5 -20.5t-56.5 21.5t-21.5 56.5z" />
<glyph unicode="&#x12c;" horiz-adv-x="897" d="M66 1362q0 59 65 72q37 6 158 12t235 6q172 0 244 -12q31 -6 47 -19.5t16 -50.5q0 -35 -19 -54.5t-52 -17.5q-80 6 -189 9q0 -332 -8 -599.5t-31 -551.5l230 -2q69 0 69 -72q0 -74 -71 -74l-621 8q-63 2 -63 74q0 37 19.5 54.5t47.5 17.5l234 -4q37 590 37 1147 q-92 -2 -240 -13l-55 -4q-20 0 -36.5 20.5t-16.5 53.5zM137 1837q0 23 17.5 40.5t40.5 17.5t41 -9.5t20 -29.5q4 -82 61.5 -130t143.5 -48q76 0 132 50t58 122q0 25 19.5 38t44.5 13t42 -16.5t17 -40.5q0 -72 -43 -135.5t-114.5 -101.5t-155.5 -38q-92 0 -166 37t-116 98.5 t-42 132.5z" />
<glyph unicode="&#x12d;" horiz-adv-x="643" d="M0 1427q0 23 17.5 40.5t40.5 17.5t41 -9.5t20 -29.5q4 -82 61.5 -130t143.5 -48q76 0 132 50t58 122q0 25 19.5 38t44.5 13t42 -16.5t17 -40.5q0 -72 -43 -135.5t-114.5 -101.5t-155.5 -38q-92 0 -166 37t-116 98.5t-42 132.5zM233 86l19 872q0 37 21.5 57.5t58.5 20.5 t58.5 -20.5t21.5 -57.5l-27 -874q0 -35 -19.5 -55.5t-54.5 -20.5t-56.5 21.5t-21.5 56.5z" />
<glyph unicode="&#x12e;" horiz-adv-x="897" d="M66 1362q0 59 65 72q37 6 158 12t235 6q172 0 244 -12q31 -6 47 -19.5t16 -50.5q0 -35 -19 -54.5t-52 -17.5q-80 6 -189 9q0 -332 -8 -599.5t-31 -551.5l230 -2q70 0 69 -72q0 -49 -30 -66q-53 -45 -80 -80.5t-27 -76.5q0 -35 24.5 -51.5t61.5 -16.5q14 0 39 7t31 7 q14 0 24.5 -12t10.5 -33q0 -74 -113 -73q-86 0 -141.5 38.5t-55.5 122.5q0 82 64 162l-500 6q-63 2 -63 74q0 37 19.5 54.5t47.5 17.5l234 -4q37 590 37 1147q-92 -2 -240 -13l-55 -4q-20 0 -36.5 20.5t-16.5 53.5z" />
<glyph unicode="&#x12f;" horiz-adv-x="643" d="M127 -154q0 109 111 213q-4 16 -5 27l19 872q0 37 21.5 57.5t58.5 20.5t58.5 -20.5t21.5 -57.5l-27 -874q0 -23 -10 -43q-6 -14 -21 -25q-55 -45 -81.5 -81.5t-26.5 -77.5q0 -35 24.5 -51.5t61.5 -16.5q14 0 38.5 7t30.5 7q15 0 25 -12t10 -33q0 -74 -112 -73 q-86 0 -141.5 38.5t-55.5 122.5zM213 1292q0 45 31.5 76t79.5 31q47 0 78.5 -31t31.5 -76q0 -47 -31.5 -79.5t-78.5 -32.5q-48 0 -79.5 32.5t-31.5 79.5z" />
<glyph unicode="&#x130;" horiz-adv-x="897" d="M66 1362q0 59 65 72q37 6 158 12t235 6q172 0 244 -12q31 -6 47 -19.5t16 -50.5q0 -35 -19 -54.5t-52 -17.5q-80 6 -189 9q0 -332 -8 -599.5t-31 -551.5l230 -2q69 0 69 -72q0 -74 -71 -74l-621 8q-63 2 -63 74q0 37 19.5 54.5t47.5 17.5l234 -4q37 590 37 1147 q-92 -2 -240 -13l-55 -4q-20 0 -36.5 20.5t-16.5 53.5zM350 1702q0 45 32 76t79 31t79 -31t32 -76q0 -47 -32 -79.5t-79 -32.5t-79 32.5t-32 79.5z" />
<glyph unicode="&#x131;" horiz-adv-x="643" d="M233 86l19 872q0 37 21.5 57.5t58.5 20.5t58.5 -20.5t21.5 -57.5l-27 -874q0 -35 -19.5 -55.5t-54.5 -20.5t-56.5 21.5t-21.5 56.5z" />
<glyph unicode="&#x132;" horiz-adv-x="2021" d="M66 1362q0 59 65 72q37 6 158 12t235 6q172 0 244 -12q31 -6 47 -19.5t16 -50.5q0 -35 -19 -54.5t-52 -17.5q-80 6 -189 9q0 -332 -8 -599.5t-31 -551.5l230 -2q69 0 69 -72q0 -74 -71 -74l-621 8q-63 2 -63 74q0 37 19.5 54.5t47.5 17.5l234 -4q37 590 37 1147 q-92 -2 -240 -13l-55 -4q-20 0 -36.5 20.5t-16.5 53.5zM944 524q0 41 16.5 61.5t59.5 20.5t61.5 -20.5t20.5 -61.5q6 -109 22.5 -186.5t71.5 -135t164 -57.5q133 0 212 95.5t79 298.5q0 324 12 749h-143q-37 0 -57.5 18.5t-20.5 53.5q0 31 15 48t38 19q98 8 229 9 q170 0 211 -2q66 -6 66 -72q0 -70 -76 -70h-104q-6 -432 -6 -764q0 -250 -119 -389t-336 -139q-193 0 -304.5 123t-111.5 401z" />
<glyph unicode="&#x133;" horiz-adv-x="1314" d="M217 1286q0 55 37 91t94 36q55 0 91 -35t36 -90t-38 -92t-93 -37q-53 0 -90 36t-37 91zM233 80l21 870q0 35 21.5 53.5t58.5 18.5t58.5 -18.5t21.5 -55.5l-21 -868q-2 -33 -23.5 -50.5t-56.5 -17.5q-37 0 -58.5 18.5t-21.5 49.5zM463 -197q0 47 16.5 65.5t55.5 18.5 q70 0 76 -67q10 -94 41.5 -134t91.5 -40q193 0 200 403q12 498 13 909q0 27 19.5 44.5t60.5 17.5q76 0 75 -66q0 -434 -12 -905q-8 -260 -96 -396t-248 -136q-127 0 -210 80.5t-83 205.5zM912 1286q0 53 36.5 89t94.5 36q57 0 93 -36t36 -89q0 -55 -38 -90t-91 -35 q-56 0 -93.5 36t-37.5 89z" />
<glyph unicode="&#x134;" horiz-adv-x="1124" d="M47 524q0 41 16.5 61.5t59.5 20.5t61.5 -20.5t20.5 -61.5q6 -109 22.5 -186.5t71.5 -135t164 -57.5q133 0 212 95.5t79 298.5q0 324 12 749h-143q-37 0 -57.5 18.5t-20.5 53.5q0 31 15 48t38 19q98 8 229 9q170 0 211 -2q66 -6 66 -72q0 -70 -76 -70h-104 q-6 -432 -6 -764q0 -250 -119 -389t-336 -139q-193 0 -304.5 123t-111.5 401zM525 1633q0 27 20 47q33 33 51 55q78 86 136.5 138.5t99.5 52.5q53 0 104.5 -48.5t126.5 -146.5l56 -70q18 -18 18 -41t-17.5 -40t-39.5 -17q-36 0 -54 27q-70 94 -120 151.5t-68 57.5 q-16 0 -59 -43t-129 -142q-35 -41 -64 -41q-23 0 -42 18.5t-19 41.5z" />
<glyph unicode="&#x135;" horiz-adv-x="628" d="M-164 -197q0 43 15.5 63.5t56.5 20.5q76 0 76 -67q0 -74 29.5 -124t103.5 -50q100 0 148 104.5t52 298.5q12 498 13 909q0 27 19.5 44.5t60.5 17.5q76 0 75 -66q0 -434 -12 -905q-8 -274 -100 -403t-244 -129q-129 0 -211 82t-82 204zM101 1223q0 27 20 47q33 33 51 55 q78 86 136.5 138.5t99.5 52.5q53 0 104.5 -48.5t126.5 -146.5l56 -70q18 -18 18 -41t-17.5 -40t-39.5 -17q-36 0 -54 27q-70 94 -120 151.5t-68 57.5q-16 0 -59 -43t-129 -142q-35 -41 -64 -41q-23 0 -42 18.5t-19 41.5z" />
<glyph unicode="&#x136;" horiz-adv-x="1243" d="M156 92q0 92 4 297q6 176 6 389q0 190 -2 279l-2 305q0 29 22.5 49.5t57.5 20.5q37 0 58.5 -21.5t21.5 -54.5l2 -477q158 104 346 233l45 31q248 172 364 262q23 16 49 16q31 0 54.5 -22.5t23.5 -55.5q0 -35 -26 -55q-123 -98 -314 -221q-66 -41 -98 -63 q-31 -20 -244 -158q-106 -68 -137 -88l94 -86q113 -106 248 -223q115 -98 190.5 -155.5t213.5 -156.5q31 -20 30 -63q0 -35 -22.5 -55.5t-53.5 -20.5q-29 0 -45 14q-250 193 -401 320q-164 137 -319 295q0 -76 -5 -211q-4 -213 -4 -340q0 -37 -21.5 -56.5t-58.5 -19.5 q-78 0 -77 92zM482 -520q0 12 8 24l31 35q59 63 75 92q-37 4 -63.5 34t-26.5 69q0 49 36 84t85 35t84 -35t35 -84q0 -70 -46 -145.5t-130 -143.5q-14 -14 -35 -14q-18 0 -35.5 14t-17.5 35z" />
<glyph unicode="&#x137;" horiz-adv-x="1087" d="M193 47v1448q0 33 20 51.5t57 18.5t58.5 -17.5t21.5 -52.5l-4 -725l150 84q309 174 409 236q31 18 47 18q29 0 50.5 -29.5t21.5 -64.5q0 -23 -45 -49l-631 -375l639 -455q20 -16 21 -45q0 -31 -26 -56.5t-52 -25.5q-25 0 -62 23l-211 147q-150 111 -309 219l-2 -348 q0 -27 -21.5 -43t-54.5 -16q-32 0 -54.5 16.5t-22.5 40.5zM451 -520q0 12 8 24l31 35q59 63 75 92q-37 4 -63.5 34t-26.5 69q0 49 36 84t85 35t84 -35t35 -84q0 -70 -46 -145.5t-130 -143.5q-14 -14 -35 -14q-18 0 -35.5 14t-17.5 35z" />
<glyph unicode="&#x138;" horiz-adv-x="1087" d="M193 47v965q0 33 20 51t57 18t58.5 -17t21.5 -52l-4 -242l150 84q309 174 409 236q31 18 47 18q29 0 50.5 -29.5t21.5 -64.5q0 -23 -45 -49l-631 -375l639 -455q20 -16 21 -45q0 -31 -26 -56.5t-52 -25.5q-31 0 -62 23q-143 106 -520 366l-2 -348q0 -27 -21.5 -43 t-54.5 -16q-32 0 -54.5 16.5t-22.5 40.5z" />
<glyph unicode="&#x139;" horiz-adv-x="1077" d="M125 449q0 223 21.5 436t66.5 491q4 29 26.5 46.5t57.5 17.5q74 0 74 -68q0 -14 -2 -20q-53 -348 -73 -522.5t-20 -385.5q0 -135 15.5 -195.5t65 -85t159.5 -24.5q115 0 202 12.5t224 41.5q8 2 21 2q33 0 48 -20.5t15 -51.5q0 -33 -20.5 -51.5t-63.5 -28.5 q-190 -45 -412 -45q-184 0 -268 37t-110.5 128t-26.5 286zM194 1606q0 33 29 59l166 175q25 27 41 38t34 11q25 0 42.5 -18.5t17.5 -45.5q0 -31 -35 -65l-180 -176q-33 -33 -62 -33q-22 0 -37.5 16.5t-15.5 38.5z" />
<glyph unicode="&#x13a;" horiz-adv-x="514" d="M108 1794q0 33 29 59l166 175q25 27 41 38t34 11q25 0 42.5 -18.5t17.5 -45.5q0 -31 -35 -65l-180 -176q-33 -33 -62 -33q-22 0 -37.5 16.5t-15.5 38.5zM156 1548q0 35 22.5 54.5t59.5 19.5q35 0 55 -19.5t20 -52.5l11 -1460q0 -35 -21.5 -53.5t-56.5 -18.5t-56.5 18.5 t-21.5 53.5z" />
<glyph unicode="&#x13b;" horiz-adv-x="1077" d="M125 449q0 223 21.5 436t66.5 491q4 29 26.5 46.5t57.5 17.5q74 0 74 -68q0 -14 -2 -20q-53 -348 -73 -522.5t-20 -385.5q0 -135 15.5 -195.5t65 -85t159.5 -24.5q115 0 202 12.5t224 41.5q8 2 21 2q33 0 48 -20.5t15 -51.5q0 -33 -20.5 -51.5t-63.5 -28.5 q-190 -45 -412 -45q-184 0 -268 37t-110.5 128t-26.5 286zM400 -520q0 12 8 24l31 35q59 63 75 92q-37 4 -63.5 34t-26.5 69q0 49 36 84t85 35t84 -35t35 -84q0 -70 -46 -145.5t-130 -143.5q-14 -14 -35 -14q-18 0 -35.5 14t-17.5 35z" />
<glyph unicode="&#x13c;" horiz-adv-x="514" d="M103 -520q0 12 8 24l31 35q59 63 75 92q-37 4 -63.5 34t-26.5 69q0 49 36 84t85 35t84 -35t35 -84q0 -70 -46 -145.5t-130 -143.5q-14 -14 -35 -14q-18 0 -35.5 14t-17.5 35zM156 1548q0 35 22.5 54.5t59.5 19.5q35 0 55 -19.5t20 -52.5l11 -1460q0 -35 -21.5 -53.5 t-56.5 -18.5t-56.5 18.5t-21.5 53.5z" />
<glyph unicode="&#x13d;" horiz-adv-x="1077" d="M125 449q0 223 21.5 436t66.5 491q4 29 26.5 46.5t57.5 17.5q74 0 74 -68q0 -14 -2 -20q-53 -348 -73 -522.5t-20 -385.5q0 -135 15.5 -195.5t65 -85t159.5 -24.5q115 0 202 12.5t224 41.5q8 2 21 2q33 0 48 -20.5t15 -51.5q0 -33 -20.5 -51.5t-63.5 -28.5 q-190 -45 -412 -45q-184 0 -268 37t-110.5 128t-26.5 286zM660 1079q0 16 12 31l46 46t57 73q-37 0 -65 32.5t-28 71.5q0 49 36 84t85 35t84 -36t35 -85q0 -127 -176 -287q-18 -14 -35 -14q-23 0 -37 14.5t-14 34.5z" />
<glyph unicode="&#x13e;" horiz-adv-x="751" d="M156 1548q0 35 22.5 54.5t59.5 19.5q35 0 55 -19.5t20 -52.5l11 -1460q0 -35 -21.5 -53.5t-56.5 -18.5t-56.5 18.5t-21.5 53.5zM440 1255q0 16 12 31l46 46t57 73q-37 0 -65 32.5t-28 71.5q0 49 36 84t85 35t84 -36t35 -85q0 -127 -176 -287q-18 -14 -35 -14 q-23 0 -37 14.5t-14 34.5z" />
<glyph unicode="&#x13f;" horiz-adv-x="1077" d="M125 449q0 223 21.5 436t66.5 491q4 29 26.5 46.5t57.5 17.5q74 0 74 -68q0 -14 -2 -20q-53 -348 -73 -522.5t-20 -385.5q0 -135 15.5 -195.5t65 -85t159.5 -24.5q115 0 202 12.5t224 41.5q8 2 21 2q33 0 48 -20.5t15 -51.5q0 -33 -20.5 -51.5t-63.5 -28.5 q-190 -45 -412 -45q-184 0 -268 37t-110.5 128t-26.5 286zM480 697q0 70 50 117t116 47q68 0 114.5 -47.5t46.5 -116.5q0 -74 -48 -118t-113 -44q-68 0 -117 47t-49 115z" />
<glyph unicode="&#x140;" horiz-adv-x="757" d="M156 1548q0 35 22.5 54.5t59.5 19.5q35 0 55 -19.5t20 -52.5l11 -1460q0 -35 -21.5 -53.5t-56.5 -18.5t-56.5 18.5t-21.5 53.5zM410 518q0 70 50 117t116 47q68 0 114.5 -47.5t46.5 -116.5q0 -74 -48 -118t-113 -44q-68 0 -117 47t-49 115z" />
<glyph unicode="&#x141;" horiz-adv-x="1077" d="M6 580q0 41 49 79l78 62q18 281 80 655q4 29 26.5 46.5t57.5 17.5q74 0 74 -68q0 -14 -2 -20q-4 -25 -8.5 -51.5t-8.5 -55.5q-43 -287 -53 -391l256 205q25 18 55 18q37 0 58 -24q16 -23 16 -45q0 -45 -45 -80l-358 -289q-4 -123 -5 -195q0 -135 15.5 -195.5t65 -85 t159.5 -24.5q115 0 202 12.5t224 41.5q9 2 21 2q33 0 48 -20.5t15 -51.5q0 -33 -20.5 -51.5t-63.5 -28.5q-190 -45 -412 -45q-184 0 -268 37t-110.5 128t-26.5 286v75q-33 -8 -49 -8q-33 0 -51 19q-18 23 -19 45z" />
<glyph unicode="&#x142;" horiz-adv-x="636" d="M20 786q0 35 41 58l193 110l-4 594q0 35 22.5 54.5t59.5 19.5q35 0 55.5 -19.5t20.5 -52.5l4 -508l110 64q14 8 29 8q27 0 46 -20.5t19 -49.5q0 -25 -13 -38t-34 -25l-157 -88l6 -803q0 -35 -21.5 -53.5t-56.5 -18.5t-56.5 18.5t-21.5 53.5l-6 717l-131 -74 q-25 -12 -41 -12q-25 0 -44.5 18.5t-19.5 46.5z" />
<glyph unicode="&#x143;" horiz-adv-x="1511" d="M164 1317q0 66 20.5 97.5t71.5 31.5q55 0 110.5 -49t114 -135t170.5 -267q-16 29 109 -176q254 -406 405 -600q20 150 21 414v756q0 33 21.5 52t58.5 19q41 0 61.5 -21.5t20.5 -60.5l-2 -747q0 -248 -15.5 -379t-45.5 -179t-81 -48q-61 0 -128.5 64.5t-151.5 188 t-244 375.5q-150 238 -226.5 355.5t-131.5 193.5q0 -139 2 -223l2 -272l2 -621q0 -27 -22.5 -46.5t-57.5 -19.5q-33 0 -56.5 19.5t-23.5 46.5v623q0 195 -2 303zM639 1606q0 33 29 59l166 175q25 27 41 38t34 11q25 0 42.5 -18.5t17.5 -45.5q0 -31 -35 -65l-180 -176 q-33 -33 -62 -33q-22 0 -37.5 16.5t-15.5 38.5z" />
<glyph unicode="&#x144;" horiz-adv-x="1134" d="M117 965q0 25 27.5 46t54.5 21t55 -39q23 -33 42 -79t19 -87v-22q37 102 119 169.5t217 67.5q346 0 346 -489v-479q0 -72 -75 -72q-82 0 -82 70v483q0 180 -41 265t-148 85q-113 0 -184.5 -86t-99.5 -225q-18 -94 -19 -232l2 -303q0 -29 -20.5 -44t-55.5 -15 q-39 0 -59 16.5t-20 42.5q0 182 -9 445q-6 152 -6 268q0 51 -11 81t-44 83q-8 12 -8 29zM448 1196q0 33 29 59l166 175q25 27 41 38t34 11q25 0 42.5 -18.5t17.5 -45.5q0 -31 -35 -65l-180 -176q-33 -33 -62 -33q-22 0 -37.5 16.5t-15.5 38.5z" />
<glyph unicode="&#x145;" horiz-adv-x="1511" d="M164 1317q0 66 20.5 97.5t71.5 31.5q55 0 110.5 -49t114 -135t170.5 -267q-16 29 109 -176q254 -406 405 -600q20 150 21 414v756q0 33 21.5 52t58.5 19q41 0 61.5 -21.5t20.5 -60.5l-2 -747q0 -248 -15.5 -379t-45.5 -179t-81 -48q-61 0 -128.5 64.5t-151.5 188 t-244 375.5q-150 238 -226.5 355.5t-131.5 193.5q0 -139 2 -223l2 -272l2 -621q0 -27 -22.5 -46.5t-57.5 -19.5q-33 0 -56.5 19.5t-23.5 46.5v623q0 195 -2 303zM629 -520q0 12 8 24l31 35q59 63 75 92q-37 4 -63.5 34t-26.5 69q0 49 36 84t85 35t84 -35t35 -84 q0 -70 -46 -145.5t-130 -143.5q-14 -14 -35 -14q-18 0 -35.5 14t-17.5 35z" />
<glyph unicode="&#x146;" horiz-adv-x="1134" d="M117 965q0 25 27.5 46t54.5 21t55 -39q23 -33 42 -79t19 -87v-22q37 102 119 169.5t217 67.5q346 0 346 -489v-479q0 -72 -75 -72q-82 0 -82 70v483q0 180 -41 265t-148 85q-113 0 -184.5 -86t-99.5 -225q-18 -94 -19 -232l2 -303q0 -29 -20.5 -44t-55.5 -15 q-39 0 -59 16.5t-20 42.5q0 182 -9 445q-6 152 -6 268q0 51 -11 81t-44 83q-8 12 -8 29zM439 -520q0 12 8 24l31 35q59 63 75 92q-37 4 -63.5 34t-26.5 69q0 49 36 84t85 35t84 -35t35 -84q0 -70 -46 -145.5t-130 -143.5q-14 -14 -35 -14q-18 0 -35.5 14t-17.5 35z" />
<glyph unicode="&#x147;" horiz-adv-x="1511" d="M164 1317q0 66 20.5 97.5t71.5 31.5q55 0 110.5 -49t114 -135t170.5 -267q-16 29 109 -176q254 -406 405 -600q20 150 21 414v756q0 33 21.5 52t58.5 19q41 0 61.5 -21.5t20.5 -60.5l-2 -747q0 -248 -15.5 -379t-45.5 -179t-81 -48q-61 0 -128.5 64.5t-151.5 188 t-244 375.5q-150 238 -226.5 355.5t-131.5 193.5q0 -139 2 -223l2 -272l2 -621q0 -27 -22.5 -46.5t-57.5 -19.5q-33 0 -56.5 19.5t-23.5 46.5v623q0 195 -2 303zM457 1862q0 23 19.5 41t41.5 18q29 0 64 -41q154 -184 188 -184q16 0 59 50t129 161q18 25 54 25 q22 0 39.5 -17.5t17.5 -40.5q0 -10 -5 -20t-13 -21q-94 -131 -158 -197.5t-129 -66.5q-41 0 -97.5 51.5t-134.5 137.5l-55 59q-20 20 -20 45z" />
<glyph unicode="&#x148;" horiz-adv-x="1134" d="M117 965q0 25 27.5 46t54.5 21t55 -39q23 -33 42 -79t19 -87v-22q37 102 119 169.5t217 67.5q346 0 346 -489v-479q0 -72 -75 -72q-82 0 -82 70v483q0 180 -41 265t-148 85q-113 0 -184.5 -86t-99.5 -225q-18 -94 -19 -232l2 -303q0 -29 -20.5 -44t-55.5 -15 q-39 0 -59 16.5t-20 42.5q0 182 -9 445q-6 152 -6 268q0 51 -11 81t-44 83q-8 12 -8 29zM267 1452q0 23 19.5 41t41.5 18q29 0 64 -41q154 -184 188 -184q16 0 59 50t129 161q18 25 54 25q22 0 39.5 -17.5t17.5 -40.5q0 -10 -5 -20t-13 -21q-94 -131 -158 -197.5t-129 -66.5 q-41 0 -97.5 51.5t-134.5 137.5l-55 59q-20 20 -20 45z" />
<glyph unicode="&#x149;" horiz-adv-x="1320" d="M21 1112q0 16 12 31l46 46t57 73q-37 0 -65 32.5t-28 71.5q0 49 36 84t85 35t84 -36t35 -85q0 -127 -176 -287q-18 -14 -35 -14q-23 0 -37 14.5t-14 34.5zM303 965q0 25 27.5 46t54.5 21t55 -39q23 -33 42 -79t19 -87v-22q37 102 119 169.5t217 67.5q346 0 346 -489v-479 q0 -72 -75 -72q-82 0 -82 70v483q0 180 -41 265t-148 85q-113 0 -184.5 -86t-99.5 -225q-18 -94 -19 -232l2 -303q0 -29 -20.5 -44t-55.5 -15q-39 0 -59 16.5t-20 42.5q0 182 -9 445q-6 152 -6 268q0 51 -11 81t-44 83q-8 12 -8 29z" />
<glyph unicode="&#x14a;" horiz-adv-x="1511" d="M164 1317q0 66 20.5 97.5t71.5 31.5q55 0 110.5 -49t114 -135t170.5 -267q-16 29 109 -176q254 -406 405 -600q10 72 13 129l8 227v58v756q0 33 21.5 52t58.5 19q41 0 61.5 -21.5t20.5 -60.5l-2 -747q0 -193 -11 -332l-6 -305q-4 -258 -99 -379t-255 -121 q-80 0 -148.5 35t-108.5 97.5t-40 140.5q0 84 82 83q37 0 56.5 -18t19.5 -49q0 -82 42 -119t105 -37q94 0 136 92.5t48 274.5l2 37q-55 16 -120.5 85.5t-145.5 187.5t-223 349q-150 238 -226.5 355.5t-131.5 193.5q0 -139 2 -223l2 -272l2 -621q0 -27 -22.5 -46.5 t-57.5 -19.5q-33 0 -56.5 19.5t-23.5 46.5v623q0 195 -2 303z" />
<glyph unicode="&#x14b;" horiz-adv-x="1144" d="M117 956q0 27 21.5 44.5t56.5 17.5q25 0 38 -13.5t37 -56.5q37 -61 47 -108q41 102 114 146t179 44q389 0 389 -487l2 -273q0 -195 -21.5 -318.5t-94 -198.5t-215.5 -75q-41 0 -64.5 17.5t-23.5 48.5q0 33 20.5 49.5t56.5 16.5q104 0 138 101t34 329l-2 295 q0 190 -49 278t-174 88q-72 0 -116 -30.5t-72.5 -103.5t-50.5 -206q-16 -115 -17 -225l2 -275q0 -33 -21.5 -51t-56.5 -18q-37 0 -57 19.5t-20 54.5l-25 749q0 12 -5 24.5t-15 32.5l-23 46q-12 18 -12 38z" />
<glyph unicode="&#x14c;" horiz-adv-x="1622" d="M111 702q0 215 84 385t237.5 265.5t353.5 95.5q203 0 369 -97.5t261 -269.5t95 -389q0 -219 -98 -371.5t-261 -228.5t-355 -76q-191 0 -346.5 75t-247.5 229.5t-92 381.5zM266 713q0 -195 80 -319t203 -178t258 -54q137 0 262 56t205 178t80 304q0 172 -72 309.5 t-200 215.5t-287 78q-156 0 -276 -75t-186.5 -208t-66.5 -307zM416 1645q0 27 14.5 44t40.5 21q160 27 361 29h118h162q31 0 49.5 -18.5t18.5 -48.5q0 -57 -66 -58q-37 0 -65 2l-224 2q-141 0 -238 -15t-114 -17q-26 -5 -41.5 11.5t-15.5 47.5z" />
<glyph unicode="&#x14d;" horiz-adv-x="1214" d="M74 506q0 164 62.5 288t181 193.5t280.5 69.5q156 0 279.5 -64.5t194.5 -188.5t71 -296q0 -250 -146.5 -380t-386.5 -130q-231 0 -383.5 123t-152.5 385zM217 1235q0 27 14.5 44t40.5 21q160 27 361 29h118h162q31 0 49.5 -18.5t18.5 -48.5q0 -57 -66 -58q-37 0 -65 2 l-224 2q-141 0 -238 -15t-114 -17q-26 -5 -41.5 11.5t-15.5 47.5zM231 510q0 -199 109 -291t266 -92q164 0 271.5 97.5t107.5 285.5q0 123 -48 218t-135 147.5t-200 52.5q-168 0 -269.5 -115t-101.5 -303z" />
<glyph unicode="&#x14e;" horiz-adv-x="1622" d="M111 702q0 215 84 385t237.5 265.5t353.5 95.5q203 0 369 -97.5t261 -269.5t95 -389q0 -219 -98 -371.5t-261 -228.5t-355 -76q-191 0 -346.5 75t-247.5 229.5t-92 381.5zM266 713q0 -195 80 -319t203 -178t258 -54q137 0 262 56t205 178t80 304q0 172 -72 309.5 t-200 215.5t-287 78q-156 0 -276 -75t-186.5 -208t-66.5 -307zM483 1837q0 23 17.5 40.5t40.5 17.5t41 -9.5t20 -29.5q4 -82 61.5 -130t143.5 -48q76 0 132 50t58 122q0 25 19.5 38t44.5 13t42 -16.5t17 -40.5q0 -72 -43 -135.5t-114.5 -101.5t-155.5 -38q-92 0 -166 37 t-116 98.5t-42 132.5z" />
<glyph unicode="&#x14f;" horiz-adv-x="1214" d="M74 506q0 164 62.5 288t181 193.5t280.5 69.5q156 0 279.5 -64.5t194.5 -188.5t71 -296q0 -250 -146.5 -380t-386.5 -130q-231 0 -383.5 123t-152.5 385zM231 510q0 -199 109 -291t266 -92q164 0 271.5 97.5t107.5 285.5q0 123 -48 218t-135 147.5t-200 52.5 q-168 0 -269.5 -115t-101.5 -303zM284 1427q0 23 17.5 40.5t40.5 17.5t41 -9.5t20 -29.5q4 -82 61.5 -130t143.5 -48q76 0 132 50t58 122q0 25 19.5 38t44.5 13t42 -16.5t17 -40.5q0 -72 -43 -135.5t-114.5 -101.5t-155.5 -38q-92 0 -166 37t-116 98.5t-42 132.5z" />
<glyph unicode="&#x150;" horiz-adv-x="1622" d="M111 702q0 215 84 385t237.5 265.5t353.5 95.5q203 0 369 -97.5t261 -269.5t95 -389q0 -219 -98 -371.5t-261 -228.5t-355 -76q-191 0 -346.5 75t-247.5 229.5t-92 381.5zM266 713q0 -195 80 -319t203 -178t258 -54q137 0 262 56t205 178t80 304q0 172 -72 309.5 t-200 215.5t-287 78q-156 0 -276 -75t-186.5 -208t-66.5 -307zM508 1606q0 27 27 59l149 175q41 49 76 49q25 0 42 -18.5t17 -45.5q0 -31 -35 -65l-163 -179q-31 -31 -60 -30q-22 0 -37.5 16.5t-15.5 38.5zM817 1606q0 27 29 59l147 175q41 49 78 49q25 0 42.5 -18.5 t17.5 -45.5q0 -29 -37 -65l-162 -176q-18 -18 -31.5 -25.5t-30.5 -7.5q-22 0 -37.5 16.5t-15.5 38.5z" />
<glyph unicode="&#x151;" horiz-adv-x="1214" d="M74 506q0 164 62.5 288t181 193.5t280.5 69.5q156 0 279.5 -64.5t194.5 -188.5t71 -296q0 -250 -146.5 -380t-386.5 -130q-231 0 -383.5 123t-152.5 385zM231 510q0 -199 109 -291t266 -92q164 0 271.5 97.5t107.5 285.5q0 123 -48 218t-135 147.5t-200 52.5 q-168 0 -269.5 -115t-101.5 -303zM309 1196q0 27 27 59l149 175q41 49 76 49q25 0 42 -18.5t17 -45.5q0 -31 -35 -65l-163 -179q-31 -31 -60 -30q-22 0 -37.5 16.5t-15.5 38.5zM618 1196q0 27 29 59l147 175q41 49 78 49q25 0 42.5 -18.5t17.5 -45.5q0 -29 -37 -65 l-162 -176q-18 -18 -31.5 -25.5t-30.5 -7.5q-22 0 -37.5 16.5t-15.5 38.5z" />
<glyph unicode="&#x152;" horiz-adv-x="1998" d="M111 713q0 225 73.5 395t200.5 261t287 91q186 0 326.5 -111.5t191.5 -283.5l-2 57l-4 68q0 49 -6 106q-41 0 -41 58q0 61 67 61l131 4q209 6 219 6q162 0 326 -14q20 -2 30.5 -19.5t10.5 -48.5q0 -33 -19.5 -47t-43.5 -12q-193 12 -271 12h-98q-106 0 -158 -4 q14 -172 15 -266q0 -113 -3 -221l211 -2q53 -2 136 -2q35 0 53 -16.5t18 -49.5q0 -29 -17.5 -47t-49.5 -20q-49 -2 -178 2l-181 2q-8 -299 -26 -504l80 -6q168 -12 249 -12q66 0 123 6l86 6q31 2 46.5 -14.5t15.5 -43.5q0 -55 -58 -63q-115 -16 -249 -10l-109 6 q-266 10 -336 10q-47 0 -66.5 13.5t-19.5 39.5q0 57 80 58l16 164q-45 -129 -177 -215.5t-318 -86.5q-147 0 -275.5 74t-207 229.5t-78.5 389.5zM270 721q0 -195 59.5 -322t157 -184t215.5 -57q121 0 220.5 60.5t160 187t60.5 317.5q0 176 -60.5 314.5t-165 216t-231.5 77.5 q-111 0 -206 -75.5t-152.5 -215t-57.5 -319.5z" />
<glyph unicode="&#x153;" horiz-adv-x="2142" d="M74 487q0 270 140 420t398 150q143 0 272.5 -84t182.5 -219q55 133 173 216t273 83q137 0 251 -58.5t178.5 -156t64.5 -203.5q0 -63 -20.5 -94t-81.5 -33l-762 -16v-17q0 -82 49 -163t135 -133t191 -52q129 0 202.5 52t132.5 132q27 29 54 29q23 0 44 -20.5t21 -45.5 q0 -18 -12 -36q-70 -117 -183.5 -178.5t-258.5 -61.5q-154 0 -274 77t-175 197q-49 -129 -176 -201.5t-295 -72.5q-137 0 -257 53t-193.5 163t-73.5 273zM231 487q0 -119 53.5 -199.5t137.5 -120.5t176 -40q385 0 385 391q0 123 -49 216t-133 143.5t-189 50.5 q-180 0 -280.5 -111.5t-100.5 -329.5zM1151 608l709 17v16q0 76 -45.5 141.5t-123 103.5t-173.5 38q-95 0 -175.5 -44t-131 -117t-60.5 -155z" />
<glyph unicode="&#x154;" horiz-adv-x="1312" d="M96 1223q0 45 62 77l18 9v57q0 35 20.5 53.5t55.5 18.5q33 0 53.5 -14.5t20.5 -37.5v-10q145 57 303 58q170 0 298 -53.5t196.5 -149.5t68.5 -225q0 -139 -79 -234.5t-209 -143.5t-286 -48q-74 0 -172 24l682 -424q41 -24 41 -61q0 -35 -20.5 -63.5t-56.5 -28.5 q-16 0 -36 7t-32 15l-680 428q-2 -150 -2 -416q0 -35 -20.5 -53t-55.5 -18q-39 0 -60.5 21.5t-21.5 62.5v647q0 119 -4 299l-2 123l-6 -2q-12 -4 -18 -4q-31 0 -44.5 25.5t-13.5 60.5zM328 1214q4 -78 4 -114q10 -168 12 -350q111 -31 258 -31q193 0 305.5 73.5t112.5 206.5 q0 127 -105.5 208t-275.5 81q-74 0 -147.5 -17.5t-163.5 -56.5zM532 1606q0 33 29 59l166 175q25 27 41 38t34 11q25 0 42.5 -18.5t17.5 -45.5q0 -31 -35 -65l-180 -176q-33 -33 -62 -33q-22 0 -37.5 16.5t-15.5 38.5z" />
<glyph unicode="&#x155;" horiz-adv-x="1028" d="M141 1012q-2 33 18.5 50t57.5 17q63 0 68 -61q12 -129 14 -252q35 135 121 211t207 76q131 0 204.5 -83t73.5 -202q0 -113 -67.5 -177.5t-173.5 -64.5q-41 0 -58.5 12.5t-17.5 45.5q0 53 51 55q133 12 133 131q0 63 -35 108.5t-112 45.5q-82 0 -142.5 -70t-95.5 -173 t-41 -204q-12 -188 -12 -356q0 -84 -15.5 -110.5t-60.5 -26.5t-62.5 21.5t-17.5 74.5l-2 391q0 135 -20 356q-12 129 -15 185zM424 1196q0 33 29 59l166 175q25 27 41 38t34 11q25 0 42.5 -18.5t17.5 -45.5q0 -31 -35 -65l-180 -176q-33 -33 -62 -33q-22 0 -37.5 16.5 t-15.5 38.5z" />
<glyph unicode="&#x156;" horiz-adv-x="1312" d="M96 1223q0 45 62 77l18 9v57q0 35 20.5 53.5t55.5 18.5q33 0 53.5 -14.5t20.5 -37.5v-10q145 57 303 58q170 0 298 -53.5t196.5 -149.5t68.5 -225q0 -139 -79 -234.5t-209 -143.5t-286 -48q-74 0 -172 24l682 -424q41 -24 41 -61q0 -35 -20.5 -63.5t-56.5 -28.5 q-16 0 -36 7t-32 15l-680 428q-2 -150 -2 -416q0 -35 -20.5 -53t-55.5 -18q-39 0 -60.5 21.5t-21.5 62.5v647q0 119 -4 299l-2 123l-6 -2q-12 -4 -18 -4q-31 0 -44.5 25.5t-13.5 60.5zM328 1214q4 -78 4 -114q10 -168 12 -350q111 -31 258 -31q193 0 305.5 73.5t112.5 206.5 q0 127 -105.5 208t-275.5 81q-74 0 -147.5 -17.5t-163.5 -56.5zM523 -520q0 12 8 24l31 35q59 63 75 92q-37 4 -63.5 34t-26.5 69q0 49 36 84t85 35t84 -35t35 -84q0 -70 -46 -145.5t-130 -143.5q-14 -14 -35 -14q-18 0 -35.5 14t-17.5 35z" />
<glyph unicode="&#x157;" horiz-adv-x="1028" d="M117 -520q0 12 8 24l31 35q59 63 75 92q-37 4 -63.5 34t-26.5 69q0 49 36 84t85 35t84 -35t35 -84q0 -70 -46 -145.5t-130 -143.5q-14 -14 -35 -14q-18 0 -35.5 14t-17.5 35zM141 1012q-2 33 18.5 50t57.5 17q63 0 68 -61q12 -129 14 -252q35 135 121 211t207 76 q131 0 204.5 -83t73.5 -202q0 -113 -67.5 -177.5t-173.5 -64.5q-41 0 -58.5 12.5t-17.5 45.5q0 53 51 55q133 12 133 131q0 63 -35 108.5t-112 45.5q-82 0 -142.5 -70t-95.5 -173t-41 -204q-12 -188 -12 -356q0 -84 -15.5 -110.5t-60.5 -26.5t-62.5 21.5t-17.5 74.5l-2 391 q0 135 -20 356q-12 129 -15 185z" />
<glyph unicode="&#x158;" horiz-adv-x="1312" d="M96 1223q0 45 62 77l18 9v57q0 35 20.5 53.5t55.5 18.5q33 0 53.5 -14.5t20.5 -37.5v-10q145 57 303 58q170 0 298 -53.5t196.5 -149.5t68.5 -225q0 -139 -79 -234.5t-209 -143.5t-286 -48q-74 0 -172 24l682 -424q41 -24 41 -61q0 -35 -20.5 -63.5t-56.5 -28.5 q-16 0 -36 7t-32 15l-680 428q-2 -150 -2 -416q0 -35 -20.5 -53t-55.5 -18q-39 0 -60.5 21.5t-21.5 62.5v647q0 119 -4 299l-2 123l-6 -2q-12 -4 -18 -4q-31 0 -44.5 25.5t-13.5 60.5zM328 1214q4 -78 4 -114q10 -168 12 -350q111 -31 258 -31q193 0 305.5 73.5t112.5 206.5 q0 127 -105.5 208t-275.5 81q-74 0 -147.5 -17.5t-163.5 -56.5zM351 1862q0 23 19.5 41t41.5 18q29 0 64 -41q154 -184 188 -184q16 0 59 50t129 161q18 25 54 25q22 0 39.5 -17.5t17.5 -40.5q0 -10 -5 -20t-13 -21q-94 -131 -158 -197.5t-129 -66.5q-41 0 -97.5 51.5 t-134.5 137.5l-55 59q-20 20 -20 45z" />
<glyph unicode="&#x159;" horiz-adv-x="1028" d="M141 1012q-2 33 18.5 50t57.5 17q63 0 68 -61q12 -129 14 -252q35 135 121 211t207 76q131 0 204.5 -83t73.5 -202q0 -113 -67.5 -177.5t-173.5 -64.5q-41 0 -58.5 12.5t-17.5 45.5q0 53 51 55q133 12 133 131q0 63 -35 108.5t-112 45.5q-82 0 -142.5 -70t-95.5 -173 t-41 -204q-12 -188 -12 -356q0 -84 -15.5 -110.5t-60.5 -26.5t-62.5 21.5t-17.5 74.5l-2 391q0 135 -20 356q-12 129 -15 185zM242 1452q0 23 19.5 41t41.5 18q29 0 64 -41q154 -184 188 -184q16 0 59 50t129 161q18 25 54 25q22 0 39.5 -17.5t17.5 -40.5q0 -10 -5 -20 t-13 -21q-94 -131 -158 -197.5t-129 -66.5q-41 0 -97.5 51.5t-134.5 137.5l-55 59q-20 20 -20 45z" />
<glyph unicode="&#x15a;" horiz-adv-x="1153" d="M123 1044q0 117 61.5 209.5t164 143.5t224.5 51q127 0 230.5 -55.5t162 -145.5t58.5 -190q0 -45 -17.5 -63.5t-58.5 -18.5q-47 0 -63.5 18.5t-16.5 50.5q0 109 -81.5 185t-213.5 76q-131 0 -211.5 -75t-80.5 -188q0 -76 44 -124t110.5 -74.5t189.5 -63.5 q104 -33 189 -72.5t152.5 -123.5t67.5 -213q0 -111 -56 -195t-155.5 -129t-224.5 -45q-149 0 -255.5 60.5t-161 162t-54.5 219.5q0 37 17.5 57.5t60.5 20.5q80 0 80 -67q0 -96 43 -166t114.5 -107t155.5 -37q123 0 202 57.5t79 166.5q0 80 -43 132t-113 83.5t-178 64.5 q-117 33 -199 69t-152.5 115.5t-70.5 210.5zM463 1606q0 33 29 59l166 175q25 27 41 38t34 11q25 0 42.5 -18.5t17.5 -45.5q0 -31 -35 -65l-180 -176q-33 -33 -62 -33q-22 0 -37.5 16.5t-15.5 38.5z" />
<glyph unicode="&#x15b;" horiz-adv-x="995" d="M96 272q0 29 25.5 50.5t56.5 21.5q20 0 31.5 -11t32.5 -40q51 -78 108.5 -124t151.5 -46q88 0 146.5 43t58.5 108q0 47 -32 80t-78 53.5t-132 51.5q-109 39 -175.5 70.5t-113.5 90t-47 148.5q0 80 44 148.5t126 109.5t188 41t188.5 -41t127.5 -108.5t45 -149.5 q0 -41 -15.5 -59.5t-54.5 -18.5q-41 0 -54 15.5t-15 39.5q-8 96 -67.5 142.5t-154.5 46.5q-111 0 -156.5 -52.5t-45.5 -111.5q0 -70 60.5 -107.5t186.5 -82.5q109 -39 174.5 -72t111.5 -90.5t46 -143.5q0 -133 -104.5 -208.5t-257.5 -75.5q-140 0 -238 68.5t-153 174.5 q-14 29 -15 39zM346 1206q0 23 23 51l178 218q20 27 37.5 37t40.5 10q29 0 47 -18.5t18 -47.5q0 -33 -41 -78l-180 -192q-18 -20 -32.5 -27.5t-32.5 -7.5q-21 0 -36.5 12.5t-19.5 30.5z" />
<glyph unicode="&#x15c;" horiz-adv-x="1153" d="M123 1044q0 117 61.5 209.5t164 143.5t224.5 51q127 0 230.5 -55.5t162 -145.5t58.5 -190q0 -45 -17.5 -63.5t-58.5 -18.5q-47 0 -63.5 18.5t-16.5 50.5q0 109 -81.5 185t-213.5 76q-131 0 -211.5 -75t-80.5 -188q0 -76 44 -124t110.5 -74.5t189.5 -63.5 q104 -33 189 -72.5t152.5 -123.5t67.5 -213q0 -111 -56 -195t-155.5 -129t-224.5 -45q-149 0 -255.5 60.5t-161 162t-54.5 219.5q0 37 17.5 57.5t60.5 20.5q80 0 80 -67q0 -96 43 -166t114.5 -107t155.5 -37q123 0 202 57.5t79 166.5q0 80 -43 132t-113 83.5t-178 64.5 q-117 33 -199 69t-152.5 115.5t-70.5 210.5zM281 1633q0 27 20 47q33 33 51 55q78 86 136.5 138.5t99.5 52.5q53 0 104.5 -48.5t126.5 -146.5l56 -70q18 -18 18 -41t-17.5 -40t-39.5 -17q-36 0 -54 27q-70 94 -120 151.5t-68 57.5q-16 0 -59 -43t-129 -142q-35 -41 -64 -41 q-23 0 -42 18.5t-19 41.5z" />
<glyph unicode="&#x15d;" horiz-adv-x="995" d="M96 272q0 29 25.5 50.5t56.5 21.5q20 0 31.5 -11t32.5 -40q51 -78 108.5 -124t151.5 -46q88 0 146.5 43t58.5 108q0 47 -32 80t-78 53.5t-132 51.5q-109 39 -175.5 70.5t-113.5 90t-47 148.5q0 80 44 148.5t126 109.5t188 41t188.5 -41t127.5 -108.5t45 -149.5 q0 -41 -15.5 -59.5t-54.5 -18.5q-41 0 -54 15.5t-15 39.5q-8 96 -67.5 142.5t-154.5 46.5q-111 0 -156.5 -52.5t-45.5 -111.5q0 -70 60.5 -107.5t186.5 -82.5q109 -39 174.5 -72t111.5 -90.5t46 -143.5q0 -133 -104.5 -208.5t-257.5 -75.5q-140 0 -238 68.5t-153 174.5 q-14 29 -15 39zM191 1223q0 27 20 47q33 33 51 55q78 86 136.5 138.5t99.5 52.5q53 0 104.5 -48.5t126.5 -146.5l56 -70q18 -18 18 -41t-17.5 -40t-39.5 -17q-36 0 -54 27q-70 94 -120 151.5t-68 57.5q-16 0 -59 -43t-129 -142q-35 -41 -64 -41q-23 0 -42 18.5t-19 41.5z " />
<glyph unicode="&#x15e;" horiz-adv-x="1153" d="M123 1044q0 117 61.5 209.5t164 143.5t224.5 51q127 0 230.5 -55.5t162 -145.5t58.5 -190q0 -45 -17.5 -63.5t-58.5 -18.5q-47 0 -63.5 18.5t-16.5 50.5q0 109 -81.5 185t-213.5 76q-131 0 -211.5 -75t-80.5 -188q0 -76 44 -124t110.5 -74.5t189.5 -63.5 q104 -33 189 -72.5t152.5 -123.5t67.5 -213q0 -152 -102.5 -250t-265.5 -115l-72 -117q80 -16 128 -47.5t48 -97.5q0 -102 -76 -151.5t-194 -49.5q-76 0 -152 29q-20 8 -31.5 24.5t-11.5 34.5q0 27 17.5 43.5t42.5 16.5q14 0 20 -2q82 -23 123 -23q70 0 100.5 10.5 t30.5 53.5q0 29 -26.5 40t-68.5 17t-61 10q-35 4 -51 23.5t-8 46.5l90 141q-123 16 -210 79t-132 156t-45 201q0 37 17.5 57.5t60.5 20.5q80 0 80 -67q0 -96 43 -166t114.5 -107t155.5 -37q123 0 202 57.5t79 166.5q0 80 -43 132t-113 83.5t-178 64.5q-117 33 -199 69 t-152.5 115.5t-70.5 210.5z" />
<glyph unicode="&#x15f;" horiz-adv-x="995" d="M96 272q0 29 25.5 50.5t56.5 21.5q20 0 31.5 -11t32.5 -40q51 -78 108.5 -124t151.5 -46q88 0 146.5 43t58.5 108q0 47 -32 80t-78 53.5t-132 51.5q-109 39 -175.5 70.5t-113.5 90t-47 148.5q0 80 44 148.5t126 109.5t188 41t188.5 -41t127.5 -108.5t45 -149.5 q0 -41 -15.5 -59.5t-54.5 -18.5q-41 0 -54 15.5t-15 39.5q-8 96 -67.5 142.5t-154.5 46.5q-111 0 -156.5 -52.5t-45.5 -111.5q0 -70 60.5 -107.5t186.5 -82.5q109 -39 174.5 -72t111.5 -90.5t46 -143.5q0 -114 -81 -188t-208 -92l-75 -117q76 -20 128 -63t52 -115 q0 -90 -78 -148.5t-184 -58.5q-41 0 -86 9.5t-74 21.5q-45 20 -45 59q0 25 16.5 42.5t44.5 17.5q12 0 50 -13q66 -18 104 -18q51 0 86 21.5t35 62.5q0 47 -41 65.5t-79 23.5t-48 7q-23 6 -36 20.5t-13 30.5q0 14 8 25l84 129q-111 18 -188.5 82.5t-124.5 154.5 q-14 29 -15 39z" />
<glyph unicode="&#x160;" horiz-adv-x="1153" d="M123 1044q0 117 61.5 209.5t164 143.5t224.5 51q127 0 230.5 -55.5t162 -145.5t58.5 -190q0 -45 -17.5 -63.5t-58.5 -18.5q-47 0 -63.5 18.5t-16.5 50.5q0 109 -81.5 185t-213.5 76q-131 0 -211.5 -75t-80.5 -188q0 -76 44 -124t110.5 -74.5t189.5 -63.5 q104 -33 189 -72.5t152.5 -123.5t67.5 -213q0 -111 -56 -195t-155.5 -129t-224.5 -45q-149 0 -255.5 60.5t-161 162t-54.5 219.5q0 37 17.5 57.5t60.5 20.5q80 0 80 -67q0 -96 43 -166t114.5 -107t155.5 -37q123 0 202 57.5t79 166.5q0 80 -43 132t-113 83.5t-178 64.5 q-117 33 -199 69t-152.5 115.5t-70.5 210.5zM281 1862q0 23 19.5 41t41.5 18q29 0 64 -41q154 -184 188 -184q16 0 59 50t129 161q18 25 54 25q22 0 39.5 -17.5t17.5 -40.5q0 -10 -5 -20t-13 -21q-94 -131 -158 -197.5t-129 -66.5q-41 0 -97.5 51.5t-134.5 137.5l-55 59 q-20 20 -20 45z" />
<glyph unicode="&#x161;" horiz-adv-x="995" d="M96 272q0 29 25.5 50.5t56.5 21.5q20 0 31.5 -11t32.5 -40q51 -78 108.5 -124t151.5 -46q88 0 146.5 43t58.5 108q0 47 -32 80t-78 53.5t-132 51.5q-109 39 -175.5 70.5t-113.5 90t-47 148.5q0 80 44 148.5t126 109.5t188 41t188.5 -41t127.5 -108.5t45 -149.5 q0 -41 -15.5 -59.5t-54.5 -18.5q-41 0 -54 15.5t-15 39.5q-8 96 -67.5 142.5t-154.5 46.5q-111 0 -156.5 -52.5t-45.5 -111.5q0 -70 60.5 -107.5t186.5 -82.5q109 -39 174.5 -72t111.5 -90.5t46 -143.5q0 -133 -104.5 -208.5t-257.5 -75.5q-140 0 -238 68.5t-153 174.5 q-14 29 -15 39zM191 1452q0 23 19.5 41t41.5 18q29 0 64 -41q154 -184 188 -184q16 0 59 50t129 161q18 25 54 25q22 0 39.5 -17.5t17.5 -40.5q0 -10 -5 -20t-13 -21q-94 -131 -158 -197.5t-129 -66.5q-41 0 -97.5 51.5t-134.5 137.5l-55 59q-20 20 -20 45z" />
<glyph unicode="&#x162;" horiz-adv-x="1140" d="M74 1331q0 63 61 70q225 25 455 24q285 0 407 -14q72 -8 72 -74q0 -37 -20.5 -56t-57.5 -17q-186 14 -334 16q-16 -190 -26 -551l-2 -43q-14 -418 -15 -620q0 -53 -26 -72l-64 -105q80 -16 128 -47.5t48 -97.5q0 -102 -75.5 -151.5t-194.5 -49.5q-76 0 -151 29 q-20 8 -31.5 24.5t-11.5 34.5q0 27 17 43.5t42 16.5q14 0 20 -2q82 -23 123 -23q72 0 101.5 10.5t29.5 53.5q0 29 -26.5 40t-68.5 17t-60 10q-35 4 -51.5 23.5t-8.5 46.5l101 153q-8 25 -9 74q2 154 23 590l29 596q-158 -4 -344 -23q-37 -4 -58.5 15.5t-21.5 58.5z" />
<glyph unicode="&#x163;" horiz-adv-x="901" d="M80 877q0 61 59 61q16 0 70 -4q45 -4 70 -4q14 152 49 381q4 31 21.5 46t56.5 15t61 -20.5t18 -51.5l-10 -67q-31 -238 -39 -311l164 -4q31 0 46.5 -12.5t15.5 -43.5q0 -39 -15.5 -52t-58.5 -15q-63 -2 -164 -2q-10 -129 -10 -238q0 -199 31.5 -311.5t115.5 -112.5 q45 0 71.5 35t31.5 104q2 33 13 48.5t52 15.5q37 0 52.5 -17.5t15.5 -62.5q0 -86 -46 -151.5t-126 -90.5q-1 -8 -7 -14l-77 -121q76 -20 128 -63t52 -115q0 -90 -78 -148.5t-184 -58.5q-41 0 -86 9.5t-74 21.5q-45 20 -45 59q0 25 16.5 42.5t44.5 17.5q12 0 50 -13 q66 -18 104 -18q51 0 86 21.5t35 62.5q0 47 -41 65.5t-79 23.5t-48 7q-23 6 -36 20.5t-13 30.5q0 14 8 25l92 141q-115 31 -165 164t-50 383q0 106 10 244q-23 2 -127 10q-61 6 -61 68z" />
<glyph unicode="&#x164;" horiz-adv-x="1140" d="M74 1331q0 63 61 70q225 25 455 24q285 0 407 -14q72 -8 72 -74q0 -37 -20.5 -56t-57.5 -17q-186 14 -334 16q-16 -190 -26 -551l-2 -43q-14 -418 -15 -620q0 -47 -19.5 -66.5t-64.5 -19.5q-47 0 -65.5 22.5t-18.5 81.5q0 63 6.5 226t10.5 255l6 119l29 596 q-158 -4 -344 -23q-37 -4 -58.5 15.5t-21.5 58.5zM246 1862q0 23 19.5 41t41.5 18q29 0 64 -41q154 -184 188 -184q16 0 59 50t129 161q18 25 54 25q22 0 39.5 -17.5t17.5 -40.5q0 -10 -5 -20t-13 -21q-94 -131 -158 -197.5t-129 -66.5q-41 0 -97.5 51.5t-134.5 137.5 l-55 59q-20 20 -20 45z" />
<glyph unicode="&#x165;" horiz-adv-x="954" d="M80 877q0 61 59 61q16 0 70 -4q45 -4 70 -4q14 152 49 381q4 31 21.5 46t56.5 15t61 -20.5t18 -51.5l-10 -67q-31 -238 -39 -311l164 -4q31 0 46.5 -12.5t15.5 -43.5q0 -39 -15.5 -52t-58.5 -15q-63 -2 -164 -2q-10 -129 -10 -238q0 -199 31.5 -311.5t115.5 -112.5 q45 0 71.5 35t31.5 104q2 33 13 48.5t52 15.5q37 0 52.5 -17.5t15.5 -62.5q0 -106 -71 -180t-181 -74q-154 0 -220.5 135t-66.5 420q0 106 10 244q-23 2 -127 10q-61 6 -61 68zM672 1063q0 16 12 31l46 46t57 73q-37 0 -65 32.5t-28 71.5q0 49 36 84t85 35t84 -36t35 -85 q0 -127 -176 -287q-18 -14 -35 -14q-23 0 -37 14.5t-14 34.5z" />
<glyph unicode="&#x166;" horiz-adv-x="1140" d="M74 1331q0 63 61 70q225 25 455 24q285 0 407 -14q72 -8 72 -74q0 -37 -20.5 -56t-57.5 -17q-186 14 -334 16q-14 -170 -20 -377l207 -6q70 -4 69 -61q0 -31 -18 -48.5t-49 -17.5l-213 8l-4 -92q-14 -418 -15 -620q0 -47 -19.5 -66.5t-64.5 -19.5q-47 0 -65.5 22.5 t-18.5 81.5q0 63 6.5 226t10.5 255l6 119l4 98l-207 9q-27 0 -45 18t-18 45t20.5 43t46.5 16l209 -6l19 373q-158 -4 -344 -23q-37 -4 -58.5 15.5t-21.5 58.5z" />
<glyph unicode="&#x167;" horiz-adv-x="911" d="M80 621q0 31 17.5 44t56.5 11l116 -4q4 111 13 235l-138 6q-61 4 -61 54q0 68 72 59q68 -8 135 -12q25 299 51 420q6 33 23.5 47t50.5 14q39 0 57.5 -20.5t13.5 -51.5q-23 -139 -47 -415q55 -2 160 -2q35 0 50.5 -14.5t15.5 -43.5q0 -27 -16.5 -39t-55.5 -12 q-47 0 -162 4q-10 -111 -14 -235l174 -7q37 -2 52 -15t15 -42q0 -59 -73 -57l-170 6q4 -193 38.5 -299.5t114.5 -106.5q43 0 74 36t31 104q0 33 14 48t49 15q37 0 53.5 -17.5t16.5 -58.5q0 -109 -69.5 -183.5t-180.5 -74.5q-147 0 -215 137.5t-72 405.5l-125 4q-66 0 -65 60 z" />
<glyph unicode="&#x168;" horiz-adv-x="1366" d="M147 535q0 111 2.5 237.5t4.5 194.5q4 137 8 403q0 68 76 68q39 0 59 -18.5t20 -51.5q0 -61 -6 -430q-4 -262 -4 -401q0 -190 89 -288.5t257 -98.5q106 0 198.5 65.5t147 165.5t54.5 197q0 254 -6 800q0 72 73 72q39 0 60.5 -20.5t21.5 -55.5q0 -221 6 -502q0 -84 2 -131 q4 -348 4 -678q0 -68 -77 -67q-41 0 -60.5 19.5t-19.5 62.5v160q-57 -102 -172 -168t-258 -66q-246 0 -363 151.5t-117 379.5zM348 1629q0 23 17 43q49 59 88 83.5t92 24.5q94 0 180 -45q12 -6 38 -19.5t43 -19.5t32 -6q16 0 29.5 9t29.5 26q29 31 51 31q23 0 42.5 -20.5 t19.5 -43.5t-17 -43q-43 -41 -80.5 -60.5t-78.5 -19.5q-29 0 -56.5 9.5t-62.5 27.5q-8 4 -45 21q-10 4 -50 21t-67 17q-18 0 -34.5 -12t-32 -28.5t-19.5 -22.5q-33 -33 -61 -33q-23 0 -39 17q-19 23 -19 43z" />
<glyph unicode="&#x169;" horiz-adv-x="1120" d="M135 465v506q0 27 21.5 43t54.5 16q35 0 57.5 -16.5t22.5 -42.5v-510q0 -172 49 -252t158 -80q276 0 276 502v342q0 33 20.5 51t55.5 18q37 0 59.5 -18t22.5 -51l8 -748q0 -39 9 -65.5t23.5 -50t14.5 -31.5q0 -23 -22.5 -43.5t-42.5 -20.5q-41 0 -73 51.5t-32 98.5v29 q-43 -94 -132 -143.5t-204 -49.5q-174 0 -260 119t-86 346zM203 1219q0 23 17 43q49 59 88 83.5t92 24.5q94 0 180 -45q12 -6 38 -19.5t43 -19.5t32 -6q16 0 29.5 9t29.5 26q29 31 51 31q23 0 42.5 -20.5t19.5 -43.5t-17 -43q-43 -41 -80.5 -60.5t-78.5 -19.5 q-29 0 -56.5 9.5t-62.5 27.5q-8 4 -45 21q-10 4 -50 21t-67 17q-18 0 -34.5 -12t-32 -28.5t-19.5 -22.5q-33 -33 -61 -33q-23 0 -39 17q-19 23 -19 43z" />
<glyph unicode="&#x16a;" horiz-adv-x="1366" d="M147 535q0 111 2.5 237.5t4.5 194.5q4 137 8 403q0 68 76 68q39 0 59 -18.5t20 -51.5q0 -61 -6 -430q-4 -262 -4 -401q0 -190 89 -288.5t257 -98.5q106 0 198.5 65.5t147 165.5t54.5 197q0 254 -6 800q0 72 73 72q39 0 60.5 -20.5t21.5 -55.5q0 -221 6 -502q0 -84 2 -131 q4 -348 4 -678q0 -68 -77 -67q-41 0 -60.5 19.5t-19.5 62.5v160q-57 -102 -172 -168t-258 -66q-246 0 -363 151.5t-117 379.5zM289 1645q0 27 14.5 44t40.5 21q160 27 361 29h118h162q31 0 49.5 -18.5t18.5 -48.5q0 -57 -66 -58q-37 0 -65 2l-224 2q-141 0 -238 -15 t-114 -17q-26 -5 -41.5 11.5t-15.5 47.5z" />
<glyph unicode="&#x16b;" horiz-adv-x="1120" d="M135 465v506q0 27 21.5 43t54.5 16q35 0 57.5 -16.5t22.5 -42.5v-510q0 -172 49 -252t158 -80q276 0 276 502v342q0 33 20.5 51t55.5 18q37 0 59.5 -18t22.5 -51l8 -748q0 -39 9 -65.5t23.5 -50t14.5 -31.5q0 -23 -22.5 -43.5t-42.5 -20.5q-41 0 -73 51.5t-32 98.5v29 q-43 -94 -132 -143.5t-204 -49.5q-174 0 -260 119t-86 346zM144 1235q0 27 14.5 44t40.5 21q160 27 361 29h118h162q31 0 49.5 -18.5t18.5 -48.5q0 -57 -66 -58q-37 0 -65 2l-224 2q-141 0 -238 -15t-114 -17q-26 -5 -41.5 11.5t-15.5 47.5z" />
<glyph unicode="&#x16c;" horiz-adv-x="1366" d="M147 535q0 111 2.5 237.5t4.5 194.5q4 137 8 403q0 68 76 68q39 0 59 -18.5t20 -51.5q0 -61 -6 -430q-4 -262 -4 -401q0 -190 89 -288.5t257 -98.5q106 0 198.5 65.5t147 165.5t54.5 197q0 254 -6 800q0 72 73 72q39 0 60.5 -20.5t21.5 -55.5q0 -221 6 -502q0 -84 2 -131 q4 -348 4 -678q0 -68 -77 -67q-41 0 -60.5 19.5t-19.5 62.5v160q-57 -102 -172 -168t-258 -66q-246 0 -363 151.5t-117 379.5zM356 1837q0 23 17.5 40.5t40.5 17.5t41 -9.5t20 -29.5q4 -82 61.5 -130t143.5 -48q76 0 132 50t58 122q0 25 19.5 38t44.5 13t42 -16.5t17 -40.5 q0 -72 -43 -135.5t-114.5 -101.5t-155.5 -38q-92 0 -166 37t-116 98.5t-42 132.5z" />
<glyph unicode="&#x16d;" horiz-adv-x="1120" d="M135 465v506q0 27 21.5 43t54.5 16q35 0 57.5 -16.5t22.5 -42.5v-510q0 -172 49 -252t158 -80q276 0 276 502v342q0 33 20.5 51t55.5 18q37 0 59.5 -18t22.5 -51l8 -748q0 -39 9 -65.5t23.5 -50t14.5 -31.5q0 -23 -22.5 -43.5t-42.5 -20.5q-41 0 -73 51.5t-32 98.5v29 q-43 -94 -132 -143.5t-204 -49.5q-174 0 -260 119t-86 346zM211 1427q0 23 17.5 40.5t40.5 17.5t41 -9.5t20 -29.5q4 -82 61.5 -130t143.5 -48q76 0 132 50t58 122q0 25 19.5 38t44.5 13t42 -16.5t17 -40.5q0 -72 -43 -135.5t-114.5 -101.5t-155.5 -38q-92 0 -166 37 t-116 98.5t-42 132.5z" />
<glyph unicode="&#x16e;" horiz-adv-x="1366" d="M147 535q0 111 2.5 237.5t4.5 194.5q4 137 8 403q0 68 76 68q39 0 59 -18.5t20 -51.5q0 -61 -6 -430q-4 -262 -4 -401q0 -190 89 -288.5t257 -98.5q106 0 198.5 65.5t147 165.5t54.5 197q0 254 -6 800q0 72 73 72q39 0 60.5 -20.5t21.5 -55.5q0 -221 6 -502q0 -84 2 -131 q4 -348 4 -678q0 -68 -77 -67q-41 0 -60.5 19.5t-19.5 62.5v160q-57 -102 -172 -168t-258 -66q-246 0 -363 151.5t-117 379.5zM459 1733q0 90 65.5 153.5t163.5 63.5q59 0 109.5 -30.5t78 -81t27.5 -105.5q0 -96 -62.5 -159.5t-158.5 -63.5q-94 0 -158.5 64.5t-64.5 158.5z M563 1733q0 -51 34 -85t85 -34t85 34t34 85q0 45 -34 80t-85 35t-85 -34t-34 -81z" />
<glyph unicode="&#x16f;" horiz-adv-x="1120" d="M135 465v506q0 27 21.5 43t54.5 16q35 0 57.5 -16.5t22.5 -42.5v-510q0 -172 49 -252t158 -80q276 0 276 502v342q0 33 20.5 51t55.5 18q37 0 59.5 -18t22.5 -51l8 -748q0 -39 9 -65.5t23.5 -50t14.5 -31.5q0 -23 -22.5 -43.5t-42.5 -20.5q-41 0 -73 51.5t-32 98.5v29 q-43 -94 -132 -143.5t-204 -49.5q-174 0 -260 119t-86 346zM314 1323q0 90 65.5 153.5t163.5 63.5q59 0 109.5 -30.5t78 -81t27.5 -105.5q0 -96 -62.5 -159.5t-158.5 -63.5q-94 0 -158.5 64.5t-64.5 158.5zM418 1323q0 -51 34 -85t85 -34t85 34t34 85q0 45 -34 80t-85 35 t-85 -34t-34 -81z" />
<glyph unicode="&#x170;" horiz-adv-x="1366" d="M147 535q0 111 2.5 237.5t4.5 194.5q4 137 8 403q0 68 76 68q39 0 59 -18.5t20 -51.5q0 -61 -6 -430q-4 -262 -4 -401q0 -190 89 -288.5t257 -98.5q106 0 198.5 65.5t147 165.5t54.5 197q0 254 -6 800q0 72 73 72q39 0 60.5 -20.5t21.5 -55.5q0 -221 6 -502q0 -84 2 -131 q4 -348 4 -678q0 -68 -77 -67q-41 0 -60.5 19.5t-19.5 62.5v160q-57 -102 -172 -168t-258 -66q-246 0 -363 151.5t-117 379.5zM381 1606q0 27 27 59l149 175q41 49 76 49q25 0 42 -18.5t17 -45.5q0 -31 -35 -65l-163 -179q-31 -31 -60 -30q-22 0 -37.5 16.5t-15.5 38.5z M690 1606q0 27 29 59l147 175q41 49 78 49q25 0 42.5 -18.5t17.5 -45.5q0 -29 -37 -65l-162 -176q-18 -18 -31.5 -25.5t-30.5 -7.5q-22 0 -37.5 16.5t-15.5 38.5z" />
<glyph unicode="&#x171;" horiz-adv-x="1120" d="M135 465v506q0 27 21.5 43t54.5 16q35 0 57.5 -16.5t22.5 -42.5v-510q0 -172 49 -252t158 -80q276 0 276 502v342q0 33 20.5 51t55.5 18q37 0 59.5 -18t22.5 -51l8 -748q0 -39 9 -65.5t23.5 -50t14.5 -31.5q0 -23 -22.5 -43.5t-42.5 -20.5q-41 0 -73 51.5t-32 98.5v29 q-43 -94 -132 -143.5t-204 -49.5q-174 0 -260 119t-86 346zM236 1196q0 27 27 59l149 175q41 49 76 49q25 0 42 -18.5t17 -45.5q0 -31 -35 -65l-163 -179q-31 -31 -60 -30q-22 0 -37.5 16.5t-15.5 38.5zM545 1196q0 27 29 59l147 175q41 49 78 49q25 0 42.5 -18.5 t17.5 -45.5q0 -29 -37 -65l-162 -176q-18 -18 -31.5 -25.5t-30.5 -7.5q-22 0 -37.5 16.5t-15.5 38.5z" />
<glyph unicode="&#x172;" horiz-adv-x="1366" d="M147 535q0 111 2.5 237.5t4.5 194.5q4 137 8 403q0 68 76 68q39 0 59 -18.5t20 -51.5q0 -61 -6 -430q-4 -262 -4 -401q0 -190 89 -288.5t257 -98.5q106 0 198.5 65.5t147 165.5t54.5 197q0 254 -6 800q0 72 73 72q39 0 60.5 -20.5t21.5 -55.5q0 -221 6 -502q0 -84 2 -131 q4 -348 4 -678q0 -45 -32 -59q-53 -43 -80 -80t-27 -78q0 -35 24.5 -51t61.5 -16q14 0 39 7t31 7q14 0 24.5 -12t10.5 -33q0 -74 -113 -74q-86 0 -141.5 39t-55.5 123q0 106 105 207q-4 20 -4 35v160q-57 -102 -172 -168t-258 -66q-246 0 -363 151.5t-117 379.5z" />
<glyph unicode="&#x173;" horiz-adv-x="1120" d="M135 465v506q0 27 21.5 43t54.5 16q35 0 57.5 -16.5t22.5 -42.5v-510q0 -172 49 -252t158 -80q276 0 276 502v342q0 33 20.5 51t55.5 18q37 0 59.5 -18t22.5 -51l8 -748q0 -39 9 -65.5t23.5 -50t14.5 -31.5q0 -14 -10 -28.5t-27 -24.5q-51 -43 -75.5 -79t-24.5 -75 q0 -35 24.5 -51.5t61.5 -16.5q14 0 38.5 7.5t31.5 7.5q14 0 24 -12.5t10 -32.5q0 -74 -112 -74q-86 0 -141.5 39t-55.5 123q0 111 113 213q-27 49 -27 90v29q-43 -94 -132 -143.5t-204 -49.5q-174 0 -260 119t-86 346z" />
<glyph unicode="&#x174;" horiz-adv-x="1798" d="M131 1374q0 29 21.5 48.5t60.5 19.5q31 0 48.5 -13.5t25.5 -44.5q98 -356 149 -561q27 -109 47 -202q41 -180 68 -278.5t37 -98.5t30.5 45t51.5 117l51 118l18 41q66 156 98.5 214.5t61.5 58.5t60.5 -48.5t93.5 -175.5q16 -31 31.5 -60.5t27.5 -53.5q14 -27 29.5 -58.5 t34.5 -64.5q29 -57 49 -95t28 -38q6 0 29 100t49 225q43 219 51 252q57 266 127 565q6 27 26.5 40.5t49.5 13.5q35 0 58.5 -20.5t23.5 -55.5q0 -12 -2 -21q-63 -244 -131 -552l-70 -330q-37 -195 -78 -371q-18 -82 -106 -82q-37 0 -70.5 29t-71.5 92.5t-100 185.5 q-31 61 -71 160q-18 45 -35 80t-23 35q-12 0 -67 -141q-47 -119 -66 -160q-53 -121 -86 -180.5t-59.5 -82t-61.5 -22.5q-39 0 -69.5 19.5t-40.5 54.5q-43 141 -117 465q12 -55 -57 245q-53 223 -150 553q-4 16 -4 33zM594 1633q0 27 20 47q33 33 51 55q78 86 136.5 138.5 t99.5 52.5q53 0 104.5 -48.5t126.5 -146.5l56 -70q18 -18 18 -41t-17.5 -40t-39.5 -17q-36 0 -54 27q-70 94 -120 151.5t-68 57.5q-16 0 -59 -43t-129 -142q-35 -41 -64 -41q-23 0 -42 18.5t-19 41.5z" />
<glyph unicode="&#x175;" horiz-adv-x="1589" d="M152 967q0 47 14 69.5t63 22.5q72 0 76 -64q12 -170 27.5 -273.5t60.5 -272.5q37 -137 65.5 -204t61.5 -67q25 0 75 170t118 440q12 43 30.5 63.5t53.5 20.5t51 -19t33 -65q23 -63 75 -239q55 -184 91 -273.5t71 -89.5q29 0 52.5 69t54.5 208q41 184 53 274t20 252 q2 31 16.5 49.5t59.5 18.5q49 0 63.5 -24.5t14.5 -78.5q0 -102 -26.5 -275t-65.5 -319q-45 -168 -102.5 -262t-122.5 -94q-63 0 -128 86t-119 232.5t-89 326.5q-39 -276 -118 -460.5t-175 -184.5q-66 0 -128.5 91t-113.5 251q-49 150 -80.5 330t-31.5 291zM486 1223 q0 27 20 47q33 33 51 55q78 86 136.5 138.5t99.5 52.5q53 0 104.5 -48.5t126.5 -146.5l56 -70q18 -18 18 -41t-17.5 -40t-39.5 -17q-36 0 -54 27q-70 94 -120 151.5t-68 57.5q-16 0 -59 -43t-129 -142q-35 -41 -64 -41q-23 0 -42 18.5t-19 41.5z" />
<glyph unicode="&#x176;" horiz-adv-x="1341" d="M143 1366q0 27 26 47.5t58 20.5q51 0 82 -72q59 -141 87 -197.5t87 -154.5q57 -92 104.5 -151.5t84.5 -59.5q63 0 190 213q47 80 86 159.5t90 198.5q14 35 30.5 47.5t41.5 12.5q37 0 62.5 -22t25.5 -52q0 -14 -6 -27q-57 -143 -98 -229t-90 -164q-72 -115 -141.5 -182.5 t-114.5 -81.5l6 -584q0 -82 -78 -82q-80 0 -80 78l-6 588q-100 35 -248 268q-63 100 -103 184t-92 217q-4 12 -4 25zM365 1633q0 27 20 47q33 33 51 55q78 86 136.5 138.5t99.5 52.5q53 0 104.5 -48.5t126.5 -146.5l56 -70q18 -18 18 -41t-17.5 -40t-39.5 -17q-36 0 -54 27 q-70 94 -120 151.5t-68 57.5q-16 0 -59 -43t-129 -142q-35 -41 -64 -41q-23 0 -42 18.5t-19 41.5z" />
<glyph unicode="&#x177;" horiz-adv-x="1069" d="M80 979q0 25 20.5 43t59.5 18q31 0 43 -12t20 -43q209 -643 381 -756q125 442 207 764q8 29 22.5 41.5t45.5 12.5q76 0 88 -62q2 -8 -2 -22q-70 -287 -114 -445t-110 -348q-47 -135 -117.5 -330.5t-117.5 -314.5q-10 -29 -27.5 -42t-44.5 -13q-35 0 -58.5 21.5 t-23.5 51.5q0 12 6 29q113 279 193 504q-84 53 -178 200.5t-171 333t-118 342.5q-4 12 -4 27zM224 1223q0 27 20 47q33 33 51 55q78 86 136.5 138.5t99.5 52.5q53 0 104.5 -48.5t126.5 -146.5l56 -70q18 -18 18 -41t-17.5 -40t-39.5 -17q-36 0 -54 27q-70 94 -120 151.5 t-68 57.5q-16 0 -59 -43t-129 -142q-35 -41 -64 -41q-23 0 -42 18.5t-19 41.5z" />
<glyph unicode="&#x178;" horiz-adv-x="1341" d="M143 1366q0 27 26 47.5t58 20.5q51 0 82 -72q59 -141 87 -197.5t87 -154.5q57 -92 104.5 -151.5t84.5 -59.5q63 0 190 213q47 80 86 159.5t90 198.5q14 35 30.5 47.5t41.5 12.5q37 0 62.5 -22t25.5 -52q0 -14 -6 -27q-57 -143 -98 -229t-90 -164q-72 -115 -141.5 -182.5 t-114.5 -81.5l6 -584q0 -82 -78 -82q-80 0 -80 78l-6 588q-100 35 -248 268q-63 100 -103 184t-92 217q-4 12 -4 25zM320 1702q0 45 31.5 76t78.5 31t80 -31t33 -76t-34 -78.5t-79 -33.5q-47 0 -78.5 32.5t-31.5 79.5zM811 1702q0 45 32 76t79 31t78.5 -31t31.5 -76 q0 -47 -32.5 -79.5t-77.5 -32.5q-47 0 -79 32.5t-32 79.5z" />
<glyph unicode="&#x179;" horiz-adv-x="1378" d="M88 109q0 51 79 145t275 297q205 211 236 244q8 10 19.5 21t23.5 26q190 201 266 283.5t127 150.5q-229 -23 -381 -23q-121 0 -270.5 11.5t-220.5 27.5q-41 10 -59.5 27.5t-18.5 44.5q0 33 19.5 52.5t58.5 19.5q51 0 159 -15q172 -25 318 -24q86 0 174 6t209 16l76 6 q23 2 50 -5t48 -21q37 -27 37 -66q0 -59 -106.5 -184t-340.5 -367l-49 -51q-45 -45 -119 -123q-141 -147 -249.5 -261t-147.5 -161q272 14 449 15q121 0 213 -6.5t215 -20.5q33 -4 50 -22.5t17 -47.5q0 -33 -23.5 -54t-58.5 -15l-57 4q-104 8 -204.5 14t-219.5 6 q-115 0 -381 -10q-45 0 -64.5 -1t-25.5 -1q-63 0 -93 13.5t-30 48.5zM559 1606q0 33 29 59l166 175q25 27 41 38t34 11q25 0 42.5 -18.5t17.5 -45.5q0 -31 -35 -65l-180 -176q-33 -33 -62 -33q-22 0 -37.5 16.5t-15.5 38.5z" />
<glyph unicode="&#x17a;" horiz-adv-x="1138" d="M84 61q0 37 35 72q399 426 729 764q-35 0 -117 -8q-143 -10 -211 -10q-96 0 -182 8t-125 18q-59 16 -59 66q0 29 16 49t49 16q203 -27 352 -26q78 0 236 14q102 8 137 8q68 0 90.5 -15.5t22.5 -47.5q0 -47 -37 -86l-221 -228q-295 -297 -502 -522l92 4q139 8 240 8 q154 0 313 -18q25 -2 38 -20.5t13 -45.5q0 -31 -18.5 -49t-48.5 -16q-171 18 -314 18q-78 0 -282 -10l-129 -4q-57 0 -87 14.5t-30 46.5zM469 1196q0 33 29 59l166 175q25 27 41 38t34 11q25 0 42.5 -18.5t17.5 -45.5q0 -31 -35 -65l-180 -176q-33 -33 -62 -33 q-22 0 -37.5 16.5t-15.5 38.5z" />
<glyph unicode="&#x17b;" horiz-adv-x="1378" d="M88 109q0 51 79 145t275 297q205 211 236 244q8 10 19.5 21t23.5 26q190 201 266 283.5t127 150.5q-229 -23 -381 -23q-121 0 -270.5 11.5t-220.5 27.5q-41 10 -59.5 27.5t-18.5 44.5q0 33 19.5 52.5t58.5 19.5q51 0 159 -15q172 -25 318 -24q86 0 174 6t209 16l76 6 q23 2 50 -5t48 -21q37 -27 37 -66q0 -59 -106.5 -184t-340.5 -367l-49 -51q-45 -45 -119 -123q-141 -147 -249.5 -261t-147.5 -161q272 14 449 15q121 0 213 -6.5t215 -20.5q33 -4 50 -22.5t17 -47.5q0 -33 -23.5 -54t-58.5 -15l-57 4q-104 8 -204.5 14t-219.5 6 q-115 0 -381 -10q-45 0 -64.5 -1t-25.5 -1q-63 0 -93 13.5t-30 48.5zM577 1702q0 45 32 76t79 31t79 -31t32 -76q0 -47 -32 -79.5t-79 -32.5t-79 32.5t-32 79.5z" />
<glyph unicode="&#x17c;" horiz-adv-x="1138" d="M84 61q0 37 35 72q399 426 729 764q-35 0 -117 -8q-143 -10 -211 -10q-96 0 -182 8t-125 18q-59 16 -59 66q0 29 16 49t49 16q203 -27 352 -26q78 0 236 14q102 8 137 8q68 0 90.5 -15.5t22.5 -47.5q0 -47 -37 -86l-221 -228q-295 -297 -502 -522l92 4q139 8 240 8 q154 0 313 -18q25 -2 38 -20.5t13 -45.5q0 -31 -18.5 -49t-48.5 -16q-171 18 -314 18q-78 0 -282 -10l-129 -4q-57 0 -87 14.5t-30 46.5zM487 1292q0 45 32 76t79 31t79 -31t32 -76q0 -47 -32 -79.5t-79 -32.5t-79 32.5t-32 79.5z" />
<glyph unicode="&#x17d;" horiz-adv-x="1378" d="M88 109q0 51 79 145t275 297q205 211 236 244q8 10 19.5 21t23.5 26q190 201 266 283.5t127 150.5q-229 -23 -381 -23q-121 0 -270.5 11.5t-220.5 27.5q-41 10 -59.5 27.5t-18.5 44.5q0 33 19.5 52.5t58.5 19.5q51 0 159 -15q172 -25 318 -24q86 0 174 6t209 16l76 6 q23 2 50 -5t48 -21q37 -27 37 -66q0 -59 -106.5 -184t-340.5 -367l-49 -51q-45 -45 -119 -123q-141 -147 -249.5 -261t-147.5 -161q272 14 449 15q121 0 213 -6.5t215 -20.5q33 -4 50 -22.5t17 -47.5q0 -33 -23.5 -54t-58.5 -15l-57 4q-104 8 -204.5 14t-219.5 6 q-115 0 -381 -10q-45 0 -64.5 -1t-25.5 -1q-63 0 -93 13.5t-30 48.5zM377 1862q0 23 19.5 41t41.5 18q29 0 64 -41q154 -184 188 -184q16 0 59 50t129 161q18 25 54 25q22 0 39.5 -17.5t17.5 -40.5q0 -10 -5 -20t-13 -21q-94 -131 -158 -197.5t-129 -66.5q-41 0 -97.5 51.5 t-134.5 137.5l-55 59q-20 20 -20 45z" />
<glyph unicode="&#x17e;" horiz-adv-x="1138" d="M84 61q0 37 35 72q399 426 729 764q-35 0 -117 -8q-143 -10 -211 -10q-96 0 -182 8t-125 18q-59 16 -59 66q0 29 16 49t49 16q203 -27 352 -26q78 0 236 14q102 8 137 8q68 0 90.5 -15.5t22.5 -47.5q0 -47 -37 -86l-221 -228q-295 -297 -502 -522l92 4q139 8 240 8 q154 0 313 -18q25 -2 38 -20.5t13 -45.5q0 -31 -18.5 -49t-48.5 -16q-171 18 -314 18q-78 0 -282 -10l-129 -4q-57 0 -87 14.5t-30 46.5zM287 1452q0 23 19.5 41t41.5 18q29 0 64 -41q154 -184 188 -184q16 0 59 50t129 161q18 25 54 25q22 0 39.5 -17.5t17.5 -40.5 q0 -10 -5 -20t-13 -21q-94 -131 -158 -197.5t-129 -66.5q-41 0 -97.5 51.5t-134.5 137.5l-55 59q-20 20 -20 45z" />
<glyph unicode="&#x18f;" horiz-adv-x="1626" d="M119 551q0 88 31.5 123t121.5 37l1041 16q10 0 13 4t3 17q0 156 -70.5 274.5t-195.5 184t-287 65.5q-135 0 -227 -44t-142.5 -101.5t-95.5 -131.5q-6 -10 -21.5 -17t-35.5 -7q-35 0 -65.5 17.5t-30.5 45.5q0 25 22 62q90 154 250 238.5t358 84.5q215 0 375 -97t244 -259 t84 -350q0 -197 -88 -364t-250 -266t-373 -99q-186 0 -337.5 79.5t-237.5 211t-86 276.5zM272 541q0 -109 72 -208.5t189.5 -159.5t250.5 -60q156 0 281 71.5t194.5 181t69.5 220.5q0 10 -3 14t-13 4l-998 -18q-25 0 -34 -10.5t-9 -34.5z" />
<glyph unicode="&#x192;" horiz-adv-x="1359" d="M61 -285q0 31 19.5 52.5t50.5 21.5q12 0 19 -2q84 -18 145 -18q150 0 221.5 307t87.5 788h-227q-31 0 -51.5 20.5t-20.5 49.5q0 33 20.5 51.5t57.5 18.5h225q16 336 132 500.5t352 164.5q72 0 147 -24q59 -21 59 -74q0 -27 -14 -44.5t-41 -17.5q-16 0 -47 7 q-53 12 -96 12q-152 0 -240 -132t-98 -392h250q37 0 59.5 -17.5t22.5 -48.5q0 -33 -22.5 -53.5t-57.5 -20.5h-254q-4 -403 -65.5 -679.5t-165 -417t-234.5 -146.5q-49 -2 -123 6q-51 6 -81 28.5t-30 59.5z" />
<glyph unicode="&#x1a0;" horiz-adv-x="1677" d="M111 702q0 215 84 385t237.5 265.5t353.5 95.5q195 0 356 -90t257 -248q72 37 109.5 109.5t37.5 164.5q0 55 56 56q27 0 41 -15.5t14 -42.5q0 -114 -50.5 -214.5t-158.5 -151.5q63 -150 63 -324q0 -219 -98 -371.5t-261 -228.5t-355 -76q-190 0 -346 75t-248 229.5 t-92 381.5zM266 713q0 -195 80 -319t203 -178t258 -54q137 0 262 56t205 178t80 304q0 172 -72 309.5t-200 215.5t-287 78q-156 0 -276 -75t-186.5 -208t-66.5 -307z" />
<glyph unicode="&#x1a1;" horiz-adv-x="1214" d="M74 506q0 164 62.5 288t181 193.5t280.5 69.5q170 0 301 -77t195 -218q49 41 75.5 104.5t26.5 141.5q0 55 55 55q27 0 41.5 -15.5t14.5 -41.5q0 -107 -44 -201t-137 -150q16 -72 17 -147q0 -250 -146.5 -380t-386.5 -130q-231 0 -383.5 123t-152.5 385zM231 510 q0 -199 109 -291t266 -92q164 0 271.5 97.5t107.5 285.5q0 123 -48 218t-135 147.5t-200 52.5q-168 0 -269.5 -115t-101.5 -303z" />
<glyph unicode="&#x1af;" horiz-adv-x="1484" d="M147 535q0 111 2.5 237.5t4.5 194.5q4 137 8 403q0 68 76 68q39 0 59 -18.5t20 -51.5q0 -61 -6 -430q-4 -262 -4 -401q0 -190 89 -288.5t257 -98.5q106 0 198.5 65.5t147 165.5t54.5 197q0 254 -6 800q0 72 73 72q39 0 60.5 -20.5t21.5 -55.5q0 -164 2 -246 q72 37 111 110t39 167q0 55 55 55q27 0 41 -15t14 -42q0 -129 -62.5 -235.5t-195.5 -149.5q0 -94 2 -146q0 -84 2 -131q4 -348 4 -678q0 -68 -77 -67q-41 0 -60.5 19.5t-19.5 62.5v160q-57 -102 -172 -168t-258 -66q-246 0 -363 151.5t-117 379.5z" />
<glyph unicode="&#x1b0;" horiz-adv-x="1120" d="M135 465v506q0 27 21.5 43t54.5 16q35 0 57.5 -16.5t22.5 -42.5v-510q0 -172 49 -252t158 -80q276 0 276 502v342q0 33 20.5 51t55.5 18q37 0 59.5 -18t22.5 -51l2 -244q63 37 97 106.5t34 157.5q0 55 55 56q27 0 41.5 -15.5t14.5 -42.5q0 -123 -58.5 -227.5 t-181.5 -151.5l4 -387q0 -39 9 -65.5t23.5 -50t14.5 -31.5q0 -23 -22.5 -43.5t-42.5 -20.5q-41 0 -73 51.5t-32 98.5v29q-43 -94 -132 -143.5t-204 -49.5q-174 0 -260 119t-86 346z" />
<glyph unicode="&#x1cd;" horiz-adv-x="1417" d="M152 47q0 4 4 25q207 606 350 1054q33 98 33 99q41 125 82 178t100 53q57 0 94 -47t74 -164q78 -242 194 -627l35 -116h58q33 0 54 -22.5t21 -57.5q0 -80 -63 -80h-23q47 -162 82 -272q6 -19 6 -25q0 -33 -25.5 -49t-62.5 -16q-27 0 -47 12t-26 33l-95 317l-583 4 l-101 -313q-16 -51 -75 -51q-35 0 -60.5 18t-25.5 47zM404 1862q0 23 19.5 41t41.5 18q29 0 64 -41q154 -184 188 -184q16 0 59 50t129 161q18 25 54 25q22 0 39.5 -17.5t17.5 -40.5q0 -10 -5 -20t-13 -21q-94 -131 -158 -197.5t-129 -66.5q-41 0 -97.5 51.5t-134.5 137.5 l-55 59q-20 20 -20 45zM467 510l485 -6l-61 211q-72 248 -111 379q-25 82 -39 118.5t-26 36.5q-10 0 -22.5 -31.5t-41.5 -121.5l-100 -316z" />
<glyph unicode="&#x1ce;" horiz-adv-x="1275" d="M119 483q0 137 55 258t162.5 195t257.5 74q102 0 178 -41t119 -115l8 68q4 76 70 75q41 0 62.5 -19.5t17.5 -45.5l-7 -51q-14 -86 -20 -179q-6 -78 -6 -208v-142q0 -88 5 -130t21.5 -64.5t55.5 -24.5q28 -4 42.5 -16.5t14.5 -44.5q0 -31 -15.5 -49.5t-41.5 -18.5 q-84 0 -124 26.5t-69 100.5q-92 -150 -327 -149q-166 0 -268.5 73.5t-146.5 187t-44 240.5zM276 483q0 -143 71 -256.5t233 -113.5q121 0 199.5 62.5t80.5 178.5q2 96 2 248q0 100 -43 162.5t-104.5 89.5t-116.5 27q-109 0 -181.5 -61.5t-106.5 -154t-34 -182.5zM316 1452 q0 23 19.5 41t41.5 18q29 0 64 -41q154 -184 188 -184q16 0 59 50t129 161q18 25 54 25q22 0 39.5 -17.5t17.5 -40.5q0 -10 -5 -20t-13 -21q-94 -131 -158 -197.5t-129 -66.5q-41 0 -97.5 51.5t-134.5 137.5l-55 59q-20 20 -20 45z" />
<glyph unicode="&#x1cf;" horiz-adv-x="897" d="M66 1362q0 59 65 72q37 6 158 12t235 6q172 0 244 -12q31 -6 47 -19.5t16 -50.5q0 -35 -19 -54.5t-52 -17.5q-80 6 -189 9q0 -332 -8 -599.5t-31 -551.5l230 -2q69 0 69 -72q0 -74 -71 -74l-621 8q-63 2 -63 74q0 37 19.5 54.5t47.5 17.5l234 -4q37 590 37 1147 q-92 -2 -240 -13l-55 -4q-20 0 -36.5 20.5t-16.5 53.5zM150 1862q0 23 19.5 41t41.5 18q29 0 64 -41q154 -184 188 -184q16 0 59 50t129 161q18 25 54 25q22 0 39.5 -17.5t17.5 -40.5q0 -10 -5 -20t-13 -21q-94 -131 -158 -197.5t-129 -66.5q-41 0 -97.5 51.5t-134.5 137.5 l-55 59q-20 20 -20 45z" />
<glyph unicode="&#x1d0;" horiz-adv-x="643" d="M13 1452q0 23 19.5 41t41.5 18q29 0 64 -41q154 -184 188 -184q16 0 59 50t129 161q18 25 54 25q22 0 39.5 -17.5t17.5 -40.5q0 -10 -5 -20t-13 -21q-94 -131 -158 -197.5t-129 -66.5q-41 0 -97.5 51.5t-134.5 137.5l-55 59q-20 20 -20 45zM233 86l19 872q0 37 21.5 57.5 t58.5 20.5t58.5 -20.5t21.5 -57.5l-27 -874q0 -35 -19.5 -55.5t-54.5 -20.5t-56.5 21.5t-21.5 56.5z" />
<glyph unicode="&#x1d1;" horiz-adv-x="1622" d="M111 702q0 215 84 385t237.5 265.5t353.5 95.5q203 0 369 -97.5t261 -269.5t95 -389q0 -219 -98 -371.5t-261 -228.5t-355 -76q-191 0 -346.5 75t-247.5 229.5t-92 381.5zM266 713q0 -195 80 -319t203 -178t258 -54q137 0 262 56t205 178t80 304q0 172 -72 309.5 t-200 215.5t-287 78q-156 0 -276 -75t-186.5 -208t-66.5 -307zM496 1862q0 23 19.5 41t41.5 18q29 0 64 -41q154 -184 188 -184q16 0 59 50t129 161q18 25 54 25q22 0 39.5 -17.5t17.5 -40.5q0 -10 -5 -20t-13 -21q-94 -131 -158 -197.5t-129 -66.5q-41 0 -97.5 51.5 t-134.5 137.5l-55 59q-20 20 -20 45z" />
<glyph unicode="&#x1d2;" horiz-adv-x="1214" d="M74 506q0 164 62.5 288t181 193.5t280.5 69.5q156 0 279.5 -64.5t194.5 -188.5t71 -296q0 -250 -146.5 -380t-386.5 -130q-231 0 -383.5 123t-152.5 385zM231 510q0 -199 109 -291t266 -92q164 0 271.5 97.5t107.5 285.5q0 123 -48 218t-135 147.5t-200 52.5 q-168 0 -269.5 -115t-101.5 -303zM297 1452q0 23 19.5 41t41.5 18q29 0 64 -41q154 -184 188 -184q16 0 59 50t129 161q18 25 54 25q22 0 39.5 -17.5t17.5 -40.5q0 -10 -5 -20t-13 -21q-94 -131 -158 -197.5t-129 -66.5q-41 0 -97.5 51.5t-134.5 137.5l-55 59q-20 20 -20 45 z" />
<glyph unicode="&#x1d3;" horiz-adv-x="1366" d="M147 535q0 111 2.5 237.5t4.5 194.5q4 137 8 403q0 68 76 68q39 0 59 -18.5t20 -51.5q0 -61 -6 -430q-4 -262 -4 -401q0 -190 89 -288.5t257 -98.5q106 0 198.5 65.5t147 165.5t54.5 197q0 254 -6 800q0 72 73 72q39 0 60.5 -20.5t21.5 -55.5q0 -221 6 -502q0 -84 2 -131 q4 -348 4 -678q0 -68 -77 -67q-41 0 -60.5 19.5t-19.5 62.5v160q-57 -102 -172 -168t-258 -66q-246 0 -363 151.5t-117 379.5zM369 1862q0 23 19.5 41t41.5 18q29 0 64 -41q154 -184 188 -184q16 0 59 50t129 161q18 25 54 25q22 0 39.5 -17.5t17.5 -40.5q0 -10 -5 -20 t-13 -21q-94 -131 -158 -197.5t-129 -66.5q-41 0 -97.5 51.5t-134.5 137.5l-55 59q-20 20 -20 45z" />
<glyph unicode="&#x1d4;" horiz-adv-x="1120" d="M135 465v506q0 27 21.5 43t54.5 16q35 0 57.5 -16.5t22.5 -42.5v-510q0 -172 49 -252t158 -80q276 0 276 502v342q0 33 20.5 51t55.5 18q37 0 59.5 -18t22.5 -51l8 -748q0 -39 9 -65.5t23.5 -50t14.5 -31.5q0 -23 -22.5 -43.5t-42.5 -20.5q-41 0 -73 51.5t-32 98.5v29 q-43 -94 -132 -143.5t-204 -49.5q-174 0 -260 119t-86 346zM224 1452q0 23 19.5 41t41.5 18q29 0 64 -41q154 -184 188 -184q16 0 59 50t129 161q18 25 54 25q22 0 39.5 -17.5t17.5 -40.5q0 -10 -5 -20t-13 -21q-94 -131 -158 -197.5t-129 -66.5q-41 0 -97.5 51.5 t-134.5 137.5l-55 59q-20 20 -20 45z" />
<glyph unicode="&#x1d5;" horiz-adv-x="1366" d="M147 535q0 111 2.5 237.5t4.5 194.5q4 137 8 403q0 68 76 68q39 0 59 -18.5t20 -51.5q0 -61 -6 -430q-4 -262 -4 -401q0 -190 89 -288.5t257 -98.5q106 0 198.5 65.5t147 165.5t54.5 197q0 254 -6 800q0 72 73 72q39 0 60.5 -20.5t21.5 -55.5q0 -221 6 -502q0 -84 2 -131 q4 -348 4 -678q0 -68 -77 -67q-41 0 -60.5 19.5t-19.5 62.5v160q-57 -102 -172 -168t-258 -66q-246 0 -363 151.5t-117 379.5zM320 1991q0 27 17.5 43.5t41.5 16.5q12 0 56.5 -8.5t101.5 -8.5q45 0 139 8q98 8 156 9q27 0 76 -5q33 -4 51 -4q27 -2 45 -20.5t18 -42.5 q0 -29 -21.5 -46.5t-47.5 -13.5q-66 8 -109 9q-61 0 -151 -9q-82 -8 -133 -8l-91 -2q-57 0 -104 17q-45 18 -45 65zM324 1702q0 45 31.5 76t78.5 31t80 -31t33 -76t-34 -78.5t-79 -33.5q-47 0 -78.5 32.5t-31.5 79.5zM815 1702q0 45 32 76t79 31t78.5 -31t31.5 -76 q0 -47 -32.5 -79.5t-77.5 -32.5q-47 0 -79 32.5t-32 79.5z" />
<glyph unicode="&#x1d6;" horiz-adv-x="1120" d="M135 465v506q0 27 21.5 43t54.5 16q35 0 57.5 -16.5t22.5 -42.5v-510q0 -172 49 -252t158 -80q276 0 276 502v342q0 33 20.5 51t55.5 18q37 0 59.5 -18t22.5 -51l8 -748q0 -39 9 -65.5t23.5 -50t14.5 -31.5q0 -23 -22.5 -43.5t-42.5 -20.5q-41 0 -73 51.5t-32 98.5v29 q-43 -94 -132 -143.5t-204 -49.5q-174 0 -260 119t-86 346zM175 1581q0 27 17.5 43.5t41.5 16.5q12 0 56.5 -8.5t101.5 -8.5q45 0 139 8q98 8 156 9q27 0 76 -5q33 -4 51 -4q27 -2 45 -20.5t18 -42.5q0 -29 -21.5 -46.5t-47.5 -13.5q-66 8 -109 9q-61 0 -151 -9 q-82 -8 -133 -8l-91 -2q-57 0 -104 17q-45 18 -45 65zM179 1292q0 45 31.5 76t78.5 31t80 -31t33 -76t-34 -78.5t-79 -33.5q-47 0 -78.5 32.5t-31.5 79.5zM670 1292q0 45 32 76t79 31t78.5 -31t31.5 -76q0 -47 -32.5 -79.5t-77.5 -32.5q-47 0 -79 32.5t-32 79.5z" />
<glyph unicode="&#x1d7;" horiz-adv-x="1366" d="M147 535q0 111 2.5 237.5t4.5 194.5q4 137 8 403q0 68 76 68q39 0 59 -18.5t20 -51.5q0 -61 -6 -430q-4 -262 -4 -401q0 -190 89 -288.5t257 -98.5q106 0 198.5 65.5t147 165.5t54.5 197q0 254 -6 800q0 72 73 72q39 0 60.5 -20.5t21.5 -55.5q0 -221 6 -502q0 -84 2 -131 q4 -348 4 -678q0 -68 -77 -67q-41 0 -60.5 19.5t-19.5 62.5v160q-57 -102 -172 -168t-258 -66q-246 0 -363 151.5t-117 379.5zM326 1702q0 45 31.5 76t78.5 31t80 -31t33 -76t-34 -78.5t-79 -33.5q-47 0 -78.5 32.5t-31.5 79.5zM588 1872q0 33 29 59l166 175q25 27 41 38 t34 11q25 0 42.5 -18.5t17.5 -45.5q0 -31 -35 -65l-180 -176q-33 -33 -62 -33q-22 0 -37.5 16.5t-15.5 38.5zM817 1702q0 45 32 76t79 31t78.5 -31t31.5 -76q0 -47 -32.5 -79.5t-77.5 -32.5q-47 0 -79 32.5t-32 79.5z" />
<glyph unicode="&#x1d8;" horiz-adv-x="1120" d="M135 465v506q0 27 21.5 43t54.5 16q35 0 57.5 -16.5t22.5 -42.5v-510q0 -172 49 -252t158 -80q276 0 276 502v342q0 33 20.5 51t55.5 18q37 0 59.5 -18t22.5 -51l8 -748q0 -39 9 -65.5t23.5 -50t14.5 -31.5q0 -23 -22.5 -43.5t-42.5 -20.5q-41 0 -73 51.5t-32 98.5v29 q-43 -94 -132 -143.5t-204 -49.5q-174 0 -260 119t-86 346zM181 1292q0 45 31.5 76t78.5 31t80 -31t33 -76t-34 -78.5t-79 -33.5q-47 0 -78.5 32.5t-31.5 79.5zM443 1462q0 33 29 59l166 175q25 27 41 38t34 11q25 0 42.5 -18.5t17.5 -45.5q0 -31 -35 -65l-180 -176 q-33 -33 -62 -33q-22 0 -37.5 16.5t-15.5 38.5zM672 1292q0 45 32 76t79 31t78.5 -31t31.5 -76q0 -47 -32.5 -79.5t-77.5 -32.5q-47 0 -79 32.5t-32 79.5z" />
<glyph unicode="&#x1d9;" horiz-adv-x="1366" d="M147 535q0 111 2.5 237.5t4.5 194.5q4 137 8 403q0 68 76 68q39 0 59 -18.5t20 -51.5q0 -61 -6 -430q-4 -262 -4 -401q0 -190 89 -288.5t257 -98.5q106 0 198.5 65.5t147 165.5t54.5 197q0 254 -6 800q0 72 73 72q39 0 60.5 -20.5t21.5 -55.5q0 -221 6 -502q0 -84 2 -131 q4 -348 4 -678q0 -68 -77 -67q-41 0 -60.5 19.5t-19.5 62.5v160q-57 -102 -172 -168t-258 -66q-246 0 -363 151.5t-117 379.5zM326 1702q0 45 31.5 76t78.5 31t80 -31t33 -76t-34 -78.5t-79 -33.5q-47 0 -78.5 32.5t-31.5 79.5zM373 2130q0 23 19.5 41t41.5 18q29 0 64 -41 q154 -184 188 -184q16 0 59 50t129 161q18 25 54 25q22 0 39.5 -17.5t17.5 -40.5q0 -10 -5 -20t-13 -21q-94 -131 -158 -197.5t-129 -66.5q-41 0 -97.5 51.5t-134.5 137.5l-55 59q-20 20 -20 45zM817 1702q0 45 32 76t79 31t78.5 -31t31.5 -76q0 -47 -32.5 -79.5 t-77.5 -32.5q-47 0 -79 32.5t-32 79.5z" />
<glyph unicode="&#x1da;" horiz-adv-x="1120" d="M135 465v506q0 27 21.5 43t54.5 16q35 0 57.5 -16.5t22.5 -42.5v-510q0 -172 49 -252t158 -80q276 0 276 502v342q0 33 20.5 51t55.5 18q37 0 59.5 -18t22.5 -51l8 -748q0 -39 9 -65.5t23.5 -50t14.5 -31.5q0 -23 -22.5 -43.5t-42.5 -20.5q-41 0 -73 51.5t-32 98.5v29 q-43 -94 -132 -143.5t-204 -49.5q-174 0 -260 119t-86 346zM181 1292q0 45 31.5 76t78.5 31t80 -31t33 -76t-34 -78.5t-79 -33.5q-47 0 -78.5 32.5t-31.5 79.5zM228 1720q0 23 19.5 41t41.5 18q29 0 64 -41q154 -184 188 -184q16 0 59 50t129 161q18 25 54 25 q22 0 39.5 -17.5t17.5 -40.5q0 -10 -5 -20t-13 -21q-94 -131 -158 -197.5t-129 -66.5q-41 0 -97.5 51.5t-134.5 137.5l-55 59q-20 20 -20 45zM672 1292q0 45 32 76t79 31t78.5 -31t31.5 -76q0 -47 -32.5 -79.5t-77.5 -32.5q-47 0 -79 32.5t-32 79.5z" />
<glyph unicode="&#x1db;" horiz-adv-x="1366" d="M147 535q0 111 2.5 237.5t4.5 194.5q4 137 8 403q0 68 76 68q39 0 59 -18.5t20 -51.5q0 -61 -6 -430q-4 -262 -4 -401q0 -190 89 -288.5t257 -98.5q106 0 198.5 65.5t147 165.5t54.5 197q0 254 -6 800q0 72 73 72q39 0 60.5 -20.5t21.5 -55.5q0 -221 6 -502q0 -84 2 -131 q4 -348 4 -678q0 -68 -77 -67q-41 0 -60.5 19.5t-19.5 62.5v160q-57 -102 -172 -168t-258 -66q-246 0 -363 151.5t-117 379.5zM326 1702q0 45 31.5 76t78.5 31t80 -31t33 -76t-34 -78.5t-79 -33.5q-47 0 -78.5 32.5t-31.5 79.5zM424 2108q0 27 17.5 45.5t42.5 18.5 q35 0 76 -49l149 -175q29 -33 29 -59q0 -23 -16.5 -39t-39.5 -16q-16 0 -29.5 7t-31.5 26l-162 176q-35 39 -35 65zM817 1702q0 45 32 76t79 31t78.5 -31t31.5 -76q0 -47 -32.5 -79.5t-77.5 -32.5q-47 0 -79 32.5t-32 79.5z" />
<glyph unicode="&#x1dc;" horiz-adv-x="1120" d="M135 465v506q0 27 21.5 43t54.5 16q35 0 57.5 -16.5t22.5 -42.5v-510q0 -172 49 -252t158 -80q276 0 276 502v342q0 33 20.5 51t55.5 18q37 0 59.5 -18t22.5 -51l8 -748q0 -39 9 -65.5t23.5 -50t14.5 -31.5q0 -23 -22.5 -43.5t-42.5 -20.5q-41 0 -73 51.5t-32 98.5v29 q-43 -94 -132 -143.5t-204 -49.5q-174 0 -260 119t-86 346zM181 1292q0 45 31.5 76t78.5 31t80 -31t33 -76t-34 -78.5t-79 -33.5q-47 0 -78.5 32.5t-31.5 79.5zM279 1698q0 27 17.5 45.5t42.5 18.5q35 0 76 -49l149 -175q29 -33 29 -59q0 -23 -16.5 -39t-39.5 -16 q-16 0 -29.5 7t-31.5 26l-162 176q-35 39 -35 65zM672 1292q0 45 32 76t79 31t78.5 -31t31.5 -76q0 -47 -32.5 -79.5t-77.5 -32.5q-47 0 -79 32.5t-32 79.5z" />
<glyph unicode="&#x1e6;" horiz-adv-x="1517" d="M94 711q0 193 86 353.5t239.5 254.5t346.5 94q145 0 250.5 -50t171.5 -126v41q0 35 22.5 54.5t59.5 19.5q35 0 56.5 -16.5t21.5 -39.5q0 -145 -23 -192q-20 -45 -80 -45q-23 0 -41 9t-47 36q-61 55 -106 88t-107.5 54.5t-148.5 21.5q-162 0 -285 -76t-190.5 -205 t-67.5 -282q0 -154 67.5 -282t189.5 -202t277 -74q186 0 277.5 111t99.5 328l-289 6q-76 2 -75 72q0 37 23.5 56t56.5 17l487 -10q80 0 80 -70q0 -35 -20.5 -54t-55.5 -17l-53 2q-10 -285 -141.5 -435.5t-387.5 -150.5q-207 0 -365.5 96.5t-243.5 258t-85 354.5zM457 1862 q0 23 19.5 41t41.5 18q29 0 64 -41q154 -184 188 -184q16 0 59 50t129 161q18 25 54 25q22 0 39.5 -17.5t17.5 -40.5q0 -10 -5 -20t-13 -21q-94 -131 -158 -197.5t-129 -66.5q-41 0 -97.5 51.5t-134.5 137.5l-55 59q-20 20 -20 45z" />
<glyph unicode="&#x1e7;" horiz-adv-x="1187" d="M94 510q0 137 59.5 258t169 194.5t252.5 73.5q92 0 163 -26.5t110 -65.5q33 94 39 107q18 35 53 34q31 0 58.5 -16t29.5 -41q0 -12 -2 -18q-2 -8 -13.5 -45t-29.5 -109l74 -506l16 -108q14 -88 20.5 -135.5t6.5 -98.5q0 -156 -61.5 -273.5t-174 -182t-260.5 -64.5 q-109 0 -203 46t-150 123t-56 167q0 61 75 61q25 0 38.5 -11t19.5 -38q25 -109 97.5 -162t178.5 -53q164 0 252 102.5t88 284.5q0 59 -16 154q-47 -70 -132 -112t-200 -42q-152 0 -266.5 69.5t-175 184.5t-60.5 248zM250 516q0 -96 38 -179t115.5 -133t190.5 -50 q65 0 133 27.5t117 69.5t59 83q-10 98 -49 328l-18 106q-10 27 -47 56.5t-92.5 50t-116.5 20.5q-96 0 -171 -50t-117 -136t-42 -193zM279 1452q0 23 19.5 41t41.5 18q29 0 64 -41q154 -184 188 -184q16 0 59 50t129 161q18 25 54 25q22 0 39.5 -17.5t17.5 -40.5 q0 -10 -5 -20t-13 -21q-94 -131 -158 -197.5t-129 -66.5q-41 0 -97.5 51.5t-134.5 137.5l-55 59q-20 20 -20 45z" />
<glyph unicode="&#x1fa;" horiz-adv-x="1417" d="M152 47q0 4 4 25q207 606 350 1054q33 98 33 99q41 125 82 178t100 53q57 0 94 -47t74 -164q78 -242 194 -627l35 -116h58q33 0 54 -22.5t21 -57.5q0 -80 -63 -80h-23q47 -162 82 -272q6 -19 6 -25q0 -33 -25.5 -49t-62.5 -16q-27 0 -47 12t-26 33l-95 317l-583 4 l-101 -313q-16 -51 -75 -51q-35 0 -60.5 18t-25.5 47zM467 510l485 -6l-61 211q-72 248 -111 379q-25 82 -39 118.5t-26 36.5q-10 0 -22.5 -31.5t-41.5 -121.5l-100 -316zM494 1733q0 90 65.5 153.5t163.5 63.5q59 0 109.5 -31t78 -81t27.5 -105q0 -96 -62.5 -160 t-158.5 -64q-94 0 -158.5 64.5t-64.5 159.5zM598 1733q0 -51 34 -85t85 -34t85 33.5t34 85.5q0 45 -34 79.5t-85 34.5t-85 -33.5t-34 -80.5zM649 2064q0 29 27 62l84 102q41 49 78 49q25 0 41 -16t16 -43q0 -35 -35 -70l-96 -104q-33 -33 -64 -33q-22 0 -36.5 14.5 t-14.5 38.5z" />
<glyph unicode="&#x1fb;" horiz-adv-x="1275" d="M119 483q0 137 55 258t162.5 195t257.5 74q102 0 178 -41t119 -115l8 68q4 76 70 75q41 0 62.5 -19.5t17.5 -45.5l-7 -51q-14 -86 -20 -179q-6 -78 -6 -208v-142q0 -88 5 -130t21.5 -64.5t55.5 -24.5q28 -4 42.5 -16.5t14.5 -44.5q0 -31 -15.5 -49.5t-41.5 -18.5 q-84 0 -124 26.5t-69 100.5q-92 -150 -327 -149q-166 0 -268.5 73.5t-146.5 187t-44 240.5zM276 483q0 -143 71 -256.5t233 -113.5q121 0 199.5 62.5t80.5 178.5q2 96 2 248q0 100 -43 162.5t-104.5 89.5t-116.5 27q-109 0 -181.5 -61.5t-106.5 -154t-34 -182.5zM406 1323 q0 90 65.5 153.5t163.5 63.5q59 0 109.5 -30.5t78 -81t27.5 -105.5q0 -96 -62.5 -159.5t-158.5 -63.5q-94 0 -158.5 64.5t-64.5 158.5zM498 1712q0 33 29 59l166 175q25 27 41 38t34 11q25 0 42.5 -18.5t17.5 -45.5q0 -31 -35 -65l-180 -176q-33 -33 -62 -33 q-22 0 -37.5 16.5t-15.5 38.5zM510 1323q0 -51 34 -85t85 -34t85 34t34 85q0 45 -34 80t-85 35t-85 -34t-34 -81z" />
<glyph unicode="&#x1fc;" horiz-adv-x="1871" d="M154 78q240 520 460 922.5t347 412.5q4 2 14 2l188 4q133 6 211 6q98 0 375 -18q45 -4 45 -59q0 -43 -18.5 -58.5t-40.5 -13.5l-66 2q-143 8 -276 8q-170 0 -252 -6q8 -139 8 -348v-125l219 -4q193 -4 227 -6q16 -2 25.5 -17.5t9.5 -40.5q0 -57 -74 -57l-155 4l-133 4 h-123q-8 -180 -31 -479q0 -20 -4 -66q231 -20 360 -20q72 0 112 3t126 15q27 4 50.5 -12t23.5 -53q0 -57 -62 -76q-47 -14 -198 -14q-70 0 -217 4q-276 6 -332 6q-66 0 -89.5 15.5t-23.5 49.5q0 41 19.5 57.5t64.5 16.5q14 129 21 250l-484 4l-116 -241l-52 -107 q-10 -23 -21 -32t-34 -9q-41 0 -79 25.5t-25 50.5zM541 508l432 -6q12 287 12 547q0 137 -2 188q-127 -96 -442 -729zM1147 1602q0 33 29 59l166 175q25 27 41 38t34 11q25 0 42.5 -18.5t17.5 -45.5q0 -31 -35 -65l-180 -176q-33 -33 -62 -33q-22 0 -37.5 16.5t-15.5 38.5z " />
<glyph unicode="&#x1fd;" horiz-adv-x="2031" d="M119 815q0 25 28 53q176 176 422 176q143 0 249 -70.5t147 -176.5q53 111 169.5 183.5t272.5 72.5q135 0 247.5 -58.5t177 -155t64.5 -202.5q0 -66 -23.5 -95.5t-78.5 -29.5l-762 -18v-31q0 -186 87 -271.5t280 -85.5q137 0 217 54.5t131 136.5q16 27 49 27 q27 0 49.5 -21.5t22.5 -46.5q0 -23 -19 -51q-68 -109 -188.5 -167t-265.5 -58q-162 0 -271.5 54t-154.5 152q-41 -96 -150.5 -151t-265.5 -55q-223 0 -327.5 67.5t-104.5 212.5q0 330 416 342l344 8v29q0 117 -82 196.5t-230 79.5q-113 0 -187.5 -36.5t-145.5 -100.5 q-27 -23 -56 -22q-25 0 -43 18.5t-18 40.5zM268 260q0 -80 70 -118t217 -38q141 0 233.5 59.5t92.5 172.5v151l-344 -8q-135 -4 -202 -61.5t-67 -157.5zM817 1206q0 23 23 51l178 218q20 27 37.5 37t40.5 10q29 0 47 -18.5t18 -47.5q0 -33 -41 -78l-180 -192 q-18 -20 -32.5 -27.5t-32.5 -7.5q-21 0 -36.5 12.5t-19.5 30.5zM1036 614l713 19v20q0 59 -43 124t-121 108t-174 43q-94 0 -176 -43t-134 -115t-65 -156z" />
<glyph unicode="&#x1fe;" horiz-adv-x="1622" d="M111 702q0 215 84 385t237.5 265.5t353.5 95.5q240 0 422 -131l138 162q31 41 63 41q25 0 43 -18.5t18 -43.5t-22 -49l-145 -174q98 -102 153 -241.5t55 -301.5q0 -219 -98 -371.5t-261 -228.5t-355 -76q-246 0 -422 119l-121 -143q-33 -39 -66 -39q-25 0 -45 16.5 t-20 40.5q0 16 18 43l140 164q-170 184 -170 485zM266 713q0 -232 119 -371l729 862q-139 98 -319 99q-156 0 -276 -75t-186.5 -208t-66.5 -307zM477 258q139 -96 330 -96q137 0 262 56t205 178t80 304q0 125 -39 232.5t-109 189.5zM678 1606q0 33 29 59l166 175 q25 27 41 38t34 11q25 0 42.5 -18.5t17.5 -45.5q0 -31 -35 -65l-180 -176q-33 -33 -62 -33q-22 0 -37.5 16.5t-15.5 38.5z" />
<glyph unicode="&#x1ff;" horiz-adv-x="1228" d="M74 10q0 27 16 45l100 117q-102 129 -102 334q0 164 62.5 288t181.5 193.5t280 69.5q160 0 281 -66l108 125q23 29 54 29q23 0 40 -17.5t17 -40.5t-16 -38l-107 -125q80 -72 124 -177.5t44 -238.5q0 -250 -146.5 -380t-385.5 -130q-211 0 -349 96l-94 -108 q-12 -14 -22 -20.5t-27 -6.5q-20 0 -39.5 16.5t-19.5 34.5zM246 510q0 -127 49 -215l506 588q-84 45 -185 45q-168 0 -269 -115t-101 -303zM371 205q98 -78 250 -78q163 0 270.5 97.5t107.5 285.5q0 186 -106 303zM493 1196q0 33 29 59l166 175q25 27 41 38t34 11 q25 0 42.5 -18.5t17.5 -45.5q0 -31 -35 -65l-180 -176q-33 -33 -62 -33q-22 0 -37.5 16.5t-15.5 38.5z" />
<glyph unicode="&#x218;" horiz-adv-x="1153" d="M123 1044q0 117 61.5 209.5t164 143.5t224.5 51q127 0 230.5 -55.5t162 -145.5t58.5 -190q0 -45 -17.5 -63.5t-58.5 -18.5q-47 0 -63.5 18.5t-16.5 50.5q0 109 -81.5 185t-213.5 76q-131 0 -211.5 -75t-80.5 -188q0 -76 44 -124t110.5 -74.5t189.5 -63.5 q104 -33 189 -72.5t152.5 -123.5t67.5 -213q0 -111 -56 -195t-155.5 -129t-224.5 -45q-149 0 -255.5 60.5t-161 162t-54.5 219.5q0 37 17.5 57.5t60.5 20.5q80 0 80 -67q0 -96 43 -166t114.5 -107t155.5 -37q123 0 202 57.5t79 166.5q0 80 -43 132t-113 83.5t-178 64.5 q-117 33 -199 69t-152.5 115.5t-70.5 210.5zM453 -520q0 12 8 24l31 35q59 63 75 92q-37 4 -63.5 34t-26.5 69q0 49 36 84t85 35t84 -35t35 -84q0 -70 -46 -145.5t-130 -143.5q-14 -14 -35 -14q-18 0 -35.5 14t-17.5 35z" />
<glyph unicode="&#x219;" horiz-adv-x="995" d="M96 272q0 29 25.5 50.5t56.5 21.5q20 0 31.5 -11t32.5 -40q51 -78 108.5 -124t151.5 -46q88 0 146.5 43t58.5 108q0 47 -32 80t-78 53.5t-132 51.5q-109 39 -175.5 70.5t-113.5 90t-47 148.5q0 80 44 148.5t126 109.5t188 41t188.5 -41t127.5 -108.5t45 -149.5 q0 -41 -15.5 -59.5t-54.5 -18.5q-41 0 -54 15.5t-15 39.5q-8 96 -67.5 142.5t-154.5 46.5q-111 0 -156.5 -52.5t-45.5 -111.5q0 -70 60.5 -107.5t186.5 -82.5q109 -39 174.5 -72t111.5 -90.5t46 -143.5q0 -133 -104.5 -208.5t-257.5 -75.5q-140 0 -238 68.5t-153 174.5 q-14 29 -15 39zM363 -520q0 12 8 24l31 35q59 63 75 92q-37 4 -63.5 34t-26.5 69q0 49 36 84t85 35t84 -35t35 -84q0 -70 -46 -145.5t-130 -143.5q-14 -14 -35 -14q-18 0 -35.5 14t-17.5 35z" />
<glyph unicode="&#x21a;" horiz-adv-x="1140" d="M74 1331q0 63 61 70q225 25 455 24q285 0 407 -14q72 -8 72 -74q0 -37 -20.5 -56t-57.5 -17q-186 14 -334 16q-16 -190 -26 -551l-2 -43q-14 -418 -15 -620q0 -47 -19.5 -66.5t-64.5 -19.5q-47 0 -65.5 22.5t-18.5 81.5q0 63 6.5 226t10.5 255l6 119l29 596 q-158 -4 -344 -23q-37 -4 -58.5 15.5t-21.5 58.5zM383 -520q0 12 8 24l31 35q59 63 75 92q-37 4 -63.5 34t-26.5 69q0 49 36 84t85 35t84 -35t35 -84q0 -70 -46 -145.5t-130 -143.5q-14 -14 -35 -14q-18 0 -35.5 14t-17.5 35z" />
<glyph unicode="&#x21b;" horiz-adv-x="901" d="M80 877q0 61 59 61q16 0 70 -4q45 -4 70 -4q14 152 49 381q4 31 21.5 46t56.5 15t61 -20.5t18 -51.5l-10 -67q-31 -238 -39 -311l164 -4q31 0 46.5 -12.5t15.5 -43.5q0 -39 -15.5 -52t-58.5 -15q-63 -2 -164 -2q-10 -129 -10 -238q0 -199 31.5 -311.5t115.5 -112.5 q45 0 71.5 35t31.5 104q2 33 13 48.5t52 15.5q37 0 52.5 -17.5t15.5 -62.5q0 -106 -71 -180t-181 -74q-154 0 -220.5 135t-66.5 420q0 106 10 244q-23 2 -127 10q-61 6 -61 68zM404 -520q0 12 8 24l31 35q59 63 75 92q-37 4 -63.5 34t-26.5 69q0 49 36 84t85 35t84 -35 t35 -84q0 -70 -46 -145.5t-130 -143.5q-14 -14 -35 -14q-18 0 -35.5 14t-17.5 35z" />
<glyph unicode="&#x237;" horiz-adv-x="628" d="M-164 -197q0 43 15.5 63.5t56.5 20.5q76 0 76 -67q0 -74 29.5 -124t103.5 -50q100 0 148 104.5t52 298.5q12 498 13 909q0 27 19.5 44.5t60.5 17.5q76 0 75 -66q0 -434 -12 -905q-8 -274 -100 -403t-244 -129q-129 0 -211 82t-82 204z" />
<glyph unicode="&#x251;" horiz-adv-x="1275" d="M119 483q0 137 55 258t162.5 195t257.5 74q102 0 178 -41t119 -115l8 68q4 76 70 75q41 0 62.5 -19.5t17.5 -45.5l-7 -51q-14 -86 -20 -179q-6 -78 -6 -208v-142q0 -88 5 -130t21.5 -64.5t55.5 -24.5q28 -4 42.5 -16.5t14.5 -44.5q0 -31 -15.5 -49.5t-41.5 -18.5 q-84 0 -124 26.5t-69 100.5q-92 -150 -327 -149q-166 0 -268.5 73.5t-146.5 187t-44 240.5zM276 483q0 -143 71 -256.5t233 -113.5q121 0 199.5 62.5t80.5 178.5q2 96 2 248q0 100 -43 162.5t-104.5 89.5t-116.5 27q-109 0 -181.5 -61.5t-106.5 -154t-34 -182.5z" />
<glyph unicode="&#x259;" horiz-adv-x="1267" d="M135 416q0 61 14.5 86.5t71.5 27.5l780 17q0 78 -47 159.5t-134 137t-202 55.5q-86 0 -147 -25.5t-96 -58.5t-84 -92q-14 -18 -45 -18q-27 0 -50.5 20t-23.5 47q0 20 16 43q66 90 159 153.5t265 63.5q168 0 290 -72.5t184.5 -192.5t62.5 -261q0 -145 -65.5 -267 t-186.5 -194t-279 -72q-139 0 -249.5 56.5t-172 157t-61.5 229.5zM268 377q0 -123 98.5 -200t247.5 -77q113 0 201 57.5t137 135.5t49 131l-712 -18q-20 0 -21 -29z" />
<glyph unicode="&#x2bb;" horiz-adv-x="493" d="M106 1268q0 72 47.5 149.5t133.5 141.5q16 12 30 12q18 0 35 -15.5t17 -35.5q0 -18 -15 -33q-83 -84 -110 -117q43 -4 73.5 -33.5t30.5 -72.5q0 -49 -36 -82t-87 -33q-47 0 -83 35t-36 84z" />
<glyph unicode="&#x2bc;" horiz-adv-x="493" d="M125 1112q0 16 12 31l46 46t57 73q-37 0 -65 32.5t-28 71.5q0 49 36 84t85 35t84 -36t35 -85q0 -127 -176 -287q-18 -14 -35 -14q-23 0 -37 14.5t-14 34.5z" />
<glyph unicode="&#x2be;" d="M-164 1208q0 14 10.5 28.5t26.5 16.5q70 6 100.5 23.5t30.5 75.5q0 51 -36 72.5t-89 21.5q-20 0 -31.5 16.5t-11.5 38.5q0 31 27 51q14 12 43 13q109 0 168 -59.5t59 -153.5t-60.5 -153.5t-168.5 -59.5q-25 0 -43 14q-10 8 -17.5 24.5t-7.5 30.5z" />
<glyph unicode="&#x2bf;" d="M-121 1352q0 90 63.5 151.5t161.5 61.5q29 0 41 -6q31 -14 31 -54q0 -25 -12 -39t-33 -14q-53 0 -88 -26.5t-35 -73.5q0 -94 125 -95q18 0 29.5 -15t11.5 -40q0 -31 -18 -49q-14 -14 -50 -14q-104 0 -165.5 59t-61.5 154z" />
<glyph unicode="&#x2c6;" horiz-adv-x="1142" d="M221 1223q0 27 21 47l32 33q86 90 158 151.5t117 61.5t95 -38t89 -81t123 -146q18 -18 18 -41t-17 -40t-40 -17q-35 0 -53 27q-63 86 -126 147.5t-83 61.5q-18 0 -78.5 -53.5t-130.5 -131.5q-35 -41 -63 -41q-23 0 -42.5 18.5t-19.5 41.5z" />
</font>
</defs>
</svg>
