<?xml version="1.0" standalone="no"?>
<!DOCTYPE svg PUBLIC "-//W3C//DTD SVG 1.1//EN" "http://www.w3.org/Graphics/SVG/1.1/DTD/svg11.dtd" >
<svg xmlns="http://www.w3.org/2000/svg" xmlns:xlink="http://www.w3.org/1999/xlink" version="1.1">
<metadata></metadata>
<defs>
<font id="mali_extralightregular" horiz-adv-x="0" >
<font-face units-per-em="2048" ascent="1638" descent="-410" />
<missing-glyph horiz-adv-x="573" />
<glyph unicode="fi" horiz-adv-x="1259" d="M61 754q0 33 37 32q45 0 164 5l-2 243q0 242 62.5 362t216.5 120q114 0 183 -79t69 -231q0 -37 -31 -37q-20 0 -26.5 9.5t-6.5 25.5q0 248 -182 248q-131 0 -176 -101.5t-45 -316.5l4 -241q123 4 194 4q23 0 32 -7.5t9 -23.5q0 -31 -33 -31l-200 -2l2 -102q8 -385 8 -596 q0 -35 -31 -35q-33 0 -33 35l-12 694l-168 -6q-35 0 -35 31zM934 1307q0 39 27 66.5t68 27.5q39 0 63.5 -25.5t24.5 -66.5t-28 -65.5t-65 -24.5q-36 0 -63 25.5t-27 62.5zM959 43l20 948q0 41 33 41q16 0 24.5 -9t8.5 -32l-23 -946q0 -33 -30 -33q-33 0 -33 31z" />
<glyph unicode="fl" horiz-adv-x="1234" d="M61 754q0 33 37 32q45 0 164 5l-2 243q0 242 62.5 362t216.5 120q114 0 183 -79t69 -231q0 -37 -31 -37q-20 0 -26.5 9.5t-6.5 25.5q0 248 -182 248q-131 0 -176 -101.5t-45 -316.5l4 -241q123 4 194 4q23 0 32 -7.5t9 -23.5q0 -31 -33 -31l-200 -2l2 -102q8 -385 8 -596 q0 -35 -31 -35q-33 0 -33 35l-12 694l-168 -6q-35 0 -35 31zM975 1583q0 39 35 39q31 0 31 -39l10 -1528q0 -37 -31 -37q-32 0 -32 37z" />
<glyph unicode="&#xe24;&#xe45;" horiz-adv-x="2004" d="M90 895q0 45 58.5 123t178 139.5t296.5 61.5q186 0 312 -74t152 -195q18 119 104.5 194t242.5 75q116 0 191 -40t115 -138.5t40 -272.5q0 -80 -2 -141l-2 -447q0 -147 -4 -401q-4 -238 -5 -350q0 -23 -28 -23q-37 0 -37 23q0 109 4 346q6 190 6 407q0 190 4 391l2 195 q0 215 -70.5 303t-217.5 88q-145 0 -226.5 -91t-81.5 -257q0 -313 2 -418v-205l-2 -751q0 -31 -32 -31q-31 0 -31 27l2 755v205q-2 104 -2 420q0 168 -118 257t-320 89q-160 0 -266.5 -51t-155.5 -114.5t-49 -98.5l241 -82q16 -8 24.5 -25.5t8.5 -37.5q0 -2 -8 -113 q-20 -233 -23 -315q23 20 59.5 35.5t73.5 15.5q84 0 142.5 -51.5t58.5 -145.5q0 -96 -57.5 -146t-153.5 -50q-88 0 -142.5 53t-54.5 135q0 41 27 356l16 213q0 18 -28.5 31.5t-85.5 30.5q-78 20 -118 40.5t-40 55.5zM377 168q0 -63 40 -98t99 -35q66 0 111 35.5t45 105.5 q0 66 -40 102.5t-106 36.5q-67 0 -108 -43t-41 -104z" />
<glyph unicode="&#xe26;&#xe45;" horiz-adv-x="2002" d="M68 172q0 92 59 145.5t141 53.5q47 0 93.5 -23.5t68.5 -62.5q12 113 12 221q0 272 -30 280l-86 21q-100 25 -140.5 40t-40.5 42q0 47 72 130t202 147.5t300 64.5q135 0 234.5 -67.5t133.5 -166.5q27 96 120 165t214 69q197 0 277 -122t80 -388q0 -209 -2 -322l-2 -376 l-2 -590q0 -27 -31 -27q-12 0 -21.5 6t-9.5 19l4 587q4 487 4 705q0 160 -25.5 256t-90 144t-181.5 48q-147 0 -223 -97t-76 -240v-811v-590q0 -27 -28 -27q-12 0 -21.5 7t-9.5 20v592v804q0 92 -40 170t-122 125t-201 47q-145 0 -255.5 -54t-171 -121.5t-60.5 -94.5 l236 -63q33 -10 44 -92t11 -240q0 -63 -9.5 -179t-19.5 -173q-16 -92 -74.5 -133t-134.5 -41q-94 0 -146 54t-52 138zM125 172q0 -57 37 -97t102 -40q66 0 105 38t39 101q0 59 -44.5 100t-95.5 41q-57 0 -100 -38.5t-43 -104.5z" />
<glyph />
<glyph />
<glyph unicode=" "  horiz-adv-x="573" />
<glyph unicode="&#x09;" horiz-adv-x="573" />
<glyph unicode="&#xa0;" horiz-adv-x="573" />
<glyph unicode="!" horiz-adv-x="526" d="M174 90q0 33 26.5 58.5t61.5 25.5q33 0 61.5 -25.5t28.5 -58.5q0 -35 -28.5 -62.5t-61.5 -27.5q-35 0 -61.5 27.5t-26.5 62.5zM236 1436q0 37 28 37q25 0 25 -37l8 -1098q0 -18 -7 -30.5t-20 -12.5q-24 0 -24 35z" />
<glyph unicode="&#x22;" horiz-adv-x="643" d="M164 1018q0 98 4 348v74q0 20 31 20q29 0 28 -20q0 -76 -2 -111l-2 -315q0 -29 -33 -29q-14 0 -20 7t-6 26zM416 1018q0 131 4 422q0 20 26 20q33 0 33 -20q0 -76 -2 -111l-2 -315q0 -29 -31 -29q-28 0 -28 33z" />
<glyph unicode="#" horiz-adv-x="1247" d="M164 330q0 14 10 23t29 9h139l74 492l-137 2q-20 0 -29.5 6t-9.5 25q0 35 39 35l145 -2l53 354q4 25 11.5 34t23.5 9q20 0 27.5 -10.5t3.5 -34.5l-54 -352l396 -5l61 379q6 29 33 29q18 0 25.5 -11.5t3.5 -29.5l-58 -369h94q39 0 39 -34q0 -16 -9 -22.5t-30 -6.5h-104 l-78 -485h158q35 0 35 -33t-35 -33h-168l-43 -274q-2 -20 -11.5 -25.5t-27.5 -5.5q-12 0 -19.5 7t-7.5 17l43 281h-389l-41 -274q-6 -33 -32 -33q-37 0 -31 43l39 264h-129q-39 0 -39 31zM408 362l389 3l77 487l-393 2z" />
<glyph unicode="$" horiz-adv-x="1032" d="M102 1063q0 111 52.5 195.5t141.5 133t200 54.5v184q0 10 9 18.5t23 8.5q10 0 20.5 -7.5t10.5 -15.5v-190q160 -10 259.5 -111.5t99.5 -251.5q0 -25 -6.5 -36t-20.5 -11q-31 0 -31 29q0 127 -75.5 222t-225.5 99v-538v-111q156 -45 263.5 -128t107.5 -255 q0 -159 -105.5 -251.5t-271.5 -96.5v-186q0 -33 -31 -33q-14 0 -22 6t-8 16v199q-119 10 -206 69.5t-133.5 149.5t-46.5 193q0 25 6.5 36t28.5 11q16 0 22.5 -8t6.5 -25q0 -156 88 -250t234 -110l6 616h-2q-106 29 -187.5 64.5t-144 111.5t-62.5 199zM164 1065 q0 -129 87 -195.5t247 -115.5v82q0 408 -2 546q-147 -16 -239.5 -102t-92.5 -215zM555 68q111 0 180.5 45t99 106.5t29.5 112.5q0 137 -75.5 213t-229.5 125l-2 -414q-2 -72 -2 -188z" />
<glyph unicode="%" horiz-adv-x="1595" d="M205 1184q0 109 72.5 179.5t185.5 70.5q119 0 183.5 -78t64.5 -180q0 -106 -70 -178t-180 -72q-113 0 -184.5 74.5t-71.5 183.5zM270 1180q0 -90 54.5 -141.5t140.5 -51.5q84 0 134 50t50 137q0 88 -52 143t-136 55q-80 0 -135.5 -51t-55.5 -141zM434 25q0 6 8 26 l607 1479q6 14 12 19t18 5q14 0 23.5 -6t9.5 -16q0 -12 -12 -41l-596 -1462q-8 -20 -15.5 -27.5t-21.5 -7.5q-16 0 -24.5 9t-8.5 22zM883 362q0 106 71.5 178t184.5 72q82 0 138 -38.5t85 -99t29 -124.5q0 -104 -71 -176t-181 -72q-113 0 -184.5 77t-71.5 183zM950 358 q0 -84 53.5 -139t135.5 -55q80 0 134 53t54 135t-53 141.5t-135 59.5q-78 0 -133.5 -53.5t-55.5 -141.5z" />
<glyph unicode="&#x26;" horiz-adv-x="1441" d="M184 420q0 117 69 229.5t163 177.5q-96 31 -152.5 113t-56.5 184q0 131 91 213t226 82q139 0 229.5 -89t90.5 -230q0 -94 -41 -150.5t-97.5 -81t-142.5 -47.5l-10 -2q78 -170 164 -285.5t217 -216.5q31 -25 80 -55q100 117 100 273q0 66 -10 96.5t-31 60.5q-6 10 -6 21 q0 8 11.5 18t25.5 10q8 0 14 -6t17 -24q20 -37 31.5 -89.5t11.5 -101.5q0 -156 -111 -287l248 -118q20 -9 20 -25q0 -12 -8 -22.5t-20 -10.5q-10 0 -35 11q-170 82 -246 122q-84 -78 -196.5 -121.5t-227.5 -43.5q-135 0 -229 59t-141.5 150.5t-47.5 185.5zM248 418 q0 -76 39 -152t120.5 -127t202.5 -51q99 0 194 35t169 98q-55 35 -94 66q-242 184 -390 508q-119 -55 -180 -167t-61 -210zM270 1118q0 -96 69 -168.5t179 -75.5q129 27 195.5 72t66.5 154q0 115 -75.5 185.5t-180.5 70.5q-63 0 -121.5 -30t-95.5 -84t-37 -124z" />
<glyph unicode="'" horiz-adv-x="391" d="M164 1014q0 139 2 207l2 211q0 29 31 28q29 0 28 -28l-2 -220q-2 -63 -2 -198q0 -16 -7 -22.5t-23 -6.5q-29 0 -29 29z" />
<glyph unicode="(" horiz-adv-x="645" d="M102 623q0 176 43 354t128 324.5t208 222.5q16 10 29 10q14 0 23.5 -9t9.5 -26q0 -12 -8.5 -21.5t-24.5 -21.5t-29 -22q-154 -125 -229.5 -334t-75.5 -432q0 -303 97.5 -510t226.5 -336q33 -33 32 -51q0 -14 -11 -25.5t-23 -11.5q-17 0 -27 10q-172 172 -270.5 398.5 t-98.5 480.5z" />
<glyph unicode=")" horiz-adv-x="645" d="M102 -231q0 14 6.5 21t22.5 19.5t33 24.5q160 129 232.5 349t72.5 462q0 305 -94 492.5t-230 322.5q-8 8 -20 19.5t-12 21.5q0 16 11 26.5t26 10.5q10 0 24 -12q178 -147 273.5 -381t95.5 -500q0 -174 -43 -351t-129 -323.5t-207 -226.5q-16 -10 -29 -10q-14 0 -23.5 9 t-9.5 26z" />
<glyph unicode="*" horiz-adv-x="1003" d="M143 1200q0 12 11.5 24.5t25.5 12.5q8 0 21 -6l274 -156l-4 293q0 43 35 43q20 0 26.5 -10t6.5 -33l2 -299l254 150q18 10 34 10t23.5 -13.5t7.5 -23.5q0 -20 -29 -33l-253 -145l268 -154q14 -6 14 -29q0 -14 -9 -26t-24 -12q-12 0 -20 6l-264 157l2 -276 q0 -16 -10.5 -25.5t-24.5 -9.5q-31 0 -31 35l-2 272l-239 -139q-8 -4 -19 -4q-14 0 -22.5 11t-8.5 28q0 18 13 26l231 140l-266 155q-23 16 -23 31z" />
<glyph unicode="+" horiz-adv-x="1064" d="M98 643q0 29 33 29l371 -4q-2 154 -2 366q0 29 32 29q18 0 24.5 -7t6.5 -22v-366l361 -2q26 0 34.5 -7.5t8.5 -23.5q0 -31 -41 -31l-363 4v-362q0 -18 -6 -28.5t-25 -10.5q-18 0 -24 10t-6 33v358q-113 2 -375 2q-29 0 -29 33z" />
<glyph unicode="," horiz-adv-x="604" d="M145 127q0 53 38 91t98 38q79 0 120 -69.5t41 -176.5q0 -70 -37.5 -135t-98 -105t-122.5 -40q-33 0 -32 24q0 12 5 19.5t11 7.5q88 0 152.5 68.5t64.5 160.5q0 29 -8 51q-12 -27 -40 -43t-67 -16q-57 0 -91 36t-34 89zM197 129q0 -35 20.5 -58.5t54.5 -23.5 q39 0 62.5 26.5t23.5 61.5q0 31 -23.5 51.5t-62.5 20.5q-31 0 -53 -24.5t-22 -53.5z" />
<glyph unicode="-" horiz-adv-x="864" d="M82 762q0 35 27 35q156 -6 278 -6q166 0 352 12h6q23 0 30 -10.5t7 -28.5q0 -16 -12 -27.5t-35 -11.5q-84 -2 -282 -2h-344q-27 0 -27 39z" />
<glyph unicode="." horiz-adv-x="589" d="M205 100q0 43 27.5 70t64.5 27q33 0 60.5 -30t27.5 -67q0 -35 -28.5 -61.5t-65.5 -26.5q-39 0 -62.5 24.5t-23.5 63.5z" />
<glyph unicode="/" horiz-adv-x="995" d="M184 -18q0 14 6 30l560 1717q6 18 12 23t18 5q31 0 31 -33q0 -10 -6 -26l-559 -1708q-6 -18 -13.5 -25.5t-21.5 -7.5q-27 0 -27 25z" />
<glyph unicode="0" horiz-adv-x="1341" d="M123 645q0 154 53 316.5t175 277.5t317 115t318.5 -110.5t178 -273.5t54.5 -325q0 -158 -62.5 -300t-188.5 -231t-306 -89q-183 0 -303.5 93t-178 234.5t-57.5 292.5zM186 645q0 -150 54.5 -276.5t161 -203.5t255.5 -77q158 0 270.5 76t170 203t57.5 278 q0 164 -55.5 311.5t-165 239.5t-262.5 92q-158 0 -267.5 -94t-164 -242.5t-54.5 -306.5z" />
<glyph unicode="1" horiz-adv-x="839" d="M205 985q0 14 20 39q143 170 260 328q20 29 52 28q23 0 39 -13t16 -42l2 -1288q0 -16 -6 -25.5t-27 -9.5q-16 0 -24.5 8t-8.5 27v1259q-88 -113 -272 -333q-6 -6 -20 -7q-14 0 -22.5 8.5t-8.5 20.5z" />
<glyph unicode="2" horiz-adv-x="1095" d="M123 29q27 158 146.5 296t330.5 285q289 203 289 441q0 94 -45 169.5t-126 118.5t-186 43q-102 0 -176.5 -48t-112.5 -124.5t-38 -160.5q0 -14 -6 -21.5t-25 -7.5q-20 0 -26.5 11t-6.5 36q0 96 49.5 183t142.5 141.5t218 54.5q123 0 214 -53.5t139 -144.5t48 -199 q0 -276 -317 -494q-156 -106 -284 -236.5t-152 -244.5q109 6 340 6q188 0 403 -6q31 0 31 -31q0 -16 -8.5 -25.5t-22.5 -9.5q-25 0 -119 4q-215 6 -284 6q-236 0 -402 -8q-16 0 -14 19z" />
<glyph unicode="3" horiz-adv-x="1241" d="M123 500q0 29 6 42t25 13q18 0 25 -9t7 -30q0 -248 125 -349t351 -101q139 0 227 46t127 112.5t39 131.5q0 176 -94.5 259t-296.5 83q-29 0 -29 29q0 39 27 39q184 0 274 78t90 207q0 70 -39 137t-112.5 110t-174.5 43q-92 0 -171.5 -38.5t-129 -109.5t-49.5 -159 q0 -23 12 -76q2 -4 3 -10q0 -12 -8.5 -19t-20.5 -7q-16 0 -21.5 4t-13.5 20q-14 49 -14 101q0 102 55 184t149.5 128t204.5 46q100 0 191.5 -45t147 -126t55.5 -183q0 -113 -60.5 -198t-163.5 -116q125 -30 188.5 -137.5t63.5 -232.5q0 -78 -44 -163t-142 -144.5t-252 -59.5 q-256 0 -406.5 111.5t-150.5 388.5z" />
<glyph unicode="4" horiz-adv-x="1308" d="M123 518q0 16 10 37q131 262 261 462t319 388q10 10 24 10q12 0 21.5 -9t9.5 -22q0 -16 -27 -43q-377 -377 -540 -784q-4 -8 -4 -12q0 -12 20 -15q119 -20 320 -20q199 0 337 8l21 520q0 37 31 37q37 0 32 -45l-20 -510q76 6 250 23h6q33 0 33 -31q0 -33 -29 -35 q-195 -16 -262 -20l-18 -430q0 -37 -31 -37q-37 0 -33 41l16 422q-143 -6 -331 -7q-250 0 -394 37q-23 6 -22 35z" />
<glyph unicode="5" horiz-adv-x="1179" d="M123 449q0 25 7 34t24 9q37 0 36 -39q0 -176 78 -280.5t275 -104.5q205 0 327.5 98t122.5 287q0 197 -105.5 311.5t-309.5 114.5q-53 0 -97.5 -8.5t-128.5 -28.5l-69 -19q-6 -2 -17 -2q-20 0 -33.5 11.5t-11.5 29.5q12 147 21.5 285.5t11.5 273.5q145 -8 373 -8 q88 0 198 4q94 4 129 4q31 0 31 -30q0 -16 -9 -26.5t-24 -10.5q-84 0 -129 -2l-196 -2q-111 0 -271 10l-45 2q-14 -246 -28 -455v-6q0 -8 3 -11t11 -3q10 0 18 2q90 27 150.5 40t107.5 13q252 0 368 -136t116 -357q0 -219 -139.5 -334t-368.5 -115q-426 0 -426 449z" />
<glyph unicode="6" horiz-adv-x="1228" d="M123 623q0 227 66.5 402t193.5 272.5t301 97.5q154 0 244 -74t157 -207q10 -20 11 -33q0 -16 -10.5 -24t-24.5 -8q-12 0 -19.5 7t-15.5 25q-35 74 -73 126.5t-104.5 88t-168.5 35.5q-256 0 -379 -211t-113 -571q45 125 176.5 192.5t282.5 67.5q158 0 261.5 -64.5 t150.5 -163t47 -202.5q0 -176 -125 -277.5t-340 -101.5q-518 0 -518 623zM233 410q0 -152 106.5 -249.5t309.5 -97.5q137 0 225.5 45.5t128 117t39.5 151.5q0 82 -38.5 167t-125.5 143t-225 58q-96 0 -192 -31.5t-162 -107.5t-66 -196z" />
<glyph unicode="7" horiz-adv-x="1177" d="M102 1341q0 12 7.5 19.5t21.5 11.5q66 23 175.5 42.5t232.5 19.5q186 0 286.5 -67t100.5 -224q0 -68 -20.5 -178.5t-59.5 -235.5l170 2q39 0 39 -33q0 -35 -31 -34l-199 -2q-86 -268 -233 -639q-8 -23 -37 -23q-18 0 -26.5 13.5t-2.5 27.5q113 254 232 618l-215 -2 q-39 0 -39 31q0 18 12 26.5t27 8.5q84 0 235 4l2 8q80 260 80 393q0 113 -69.5 178.5t-249.5 65.5q-94 0 -178 -13t-145.5 -27.5t-78.5 -18.5h-8q-12 0 -20.5 8t-8.5 20z" />
<glyph unicode="8" horiz-adv-x="1314" d="M123 453q0 98 57.5 185t146.5 147.5t177 80.5q-63 37 -106.5 99.5t-43.5 150.5q0 94 46 162t118 102.5t150 34.5q131 0 215 -76.5t84 -208.5q0 -160 -142 -262q162 -49 264.5 -163.5t102.5 -272.5q0 -139 -69.5 -236.5t-188.5 -146.5t-266 -49q-152 0 -276 53 t-196.5 155.5t-72.5 244.5zM186 459q0 -111 55.5 -201t164 -142.5t262.5 -52.5q153 0 257.5 53.5t154.5 137.5t50 174q0 106 -58 196.5t-161.5 143.5t-234.5 53q-133 0 -246 -51t-178.5 -135t-65.5 -176zM418 1116q0 -106 74.5 -169.5t183.5 -63.5q102 0 164.5 70.5 t62.5 176.5q0 104 -61.5 164t-165.5 60q-113 0 -185.5 -63.5t-72.5 -174.5z" />
<glyph unicode="9" horiz-adv-x="1273" d="M123 424q0 18 7 31.5t22 13.5q35 0 34 -41q0 -96 50.5 -178t147.5 -131t232 -49q252 0 366 217t112 571q-53 -174 -183.5 -241.5t-281.5 -67.5q-217 0 -340 113.5t-123 334.5q0 119 57.5 215.5t161.5 151.5t238 55q251 0 389.5 -171t138.5 -453q0 -352 -134 -571.5 t-394 -219.5q-158 0 -271.5 59.5t-171 154.5t-57.5 206zM229 997q0 -385 400 -385q104 0 200.5 44t157 128t60.5 199q0 106 -57.5 191.5t-154 133.5t-212.5 48q-131 0 -220.5 -54.5t-131.5 -136.5t-42 -168z" />
<glyph unicode=":" horiz-adv-x="626" d="M174 766q0 55 38 94t97 39q63 0 101.5 -39t38.5 -94q0 -59 -37 -98t-103 -39q-59 0 -97 40t-38 97zM178 186q0 57 36 96.5t99 39.5t101.5 -40t38.5 -96q0 -59 -36 -98t-104 -39q-59 0 -97 40t-38 97zM229 770q0 -41 22.5 -65.5t59.5 -24.5q43 0 63.5 24.5t20.5 65.5 q0 31 -26.5 54.5t-63.5 23.5q-29 0 -52.5 -24.5t-23.5 -53.5zM231 190q0 -37 24 -62.5t54 -25.5q43 0 66.5 21.5t23.5 64.5q0 37 -25.5 58.5t-64.5 21.5q-33 0 -55.5 -24.5t-22.5 -53.5z" />
<glyph unicode=";" horiz-adv-x="624" d="M164 127q0 53 38 91t97 38q80 0 121 -69.5t41 -176.5q0 -70 -38 -135t-98.5 -105t-121.5 -40q-33 0 -33 24q0 12 5 19.5t11 7.5q88 0 152.5 68.5t64.5 160.5q0 29 -8 51q-12 -27 -39.5 -43t-66.5 -16q-57 0 -91 36t-34 89zM176 766q0 55 38 94t97 39q63 0 101.5 -39 t38.5 -94q0 -59 -37 -98t-103 -39q-59 0 -97 40t-38 97zM215 129q0 -35 20.5 -58.5t55.5 -23.5q39 0 62.5 26.5t23.5 61.5q0 31 -23.5 51.5t-62.5 20.5q-31 0 -53.5 -24.5t-22.5 -53.5zM231 770q0 -41 22.5 -65.5t59.5 -24.5q43 0 63.5 24.5t20.5 65.5q0 31 -26.5 54.5 t-63.5 23.5q-28 0 -52 -24.5t-24 -53.5z" />
<glyph unicode="&#x3c;" horiz-adv-x="1064" d="M115 616q0 59 103.5 124t277.5 134q80 33 246.5 89.5t183.5 56.5q25 0 24 -29q0 -14 -9 -21t-32 -16q-10 -4 -131 -42t-264 -93q-131 -51 -239.5 -114.5t-108.5 -92.5q0 -27 103.5 -81t236.5 -107l289 -115q76 -33 102 -41q29 -10 29 -37q0 -23 -27 -22q-18 0 -140 48 t-280 114q-168 70 -266 129t-98 116z" />
<glyph unicode="=" horiz-adv-x="1064" d="M115 506q0 18 11 25.5t48 9.5l733 22q18 0 30.5 -8t12.5 -23q0 -14 -11 -20t-40 -8l-749 -25q-35 0 -35 27zM115 748q0 18 12 26t47 8l725 6q18 0 31.5 -9t13.5 -23q0 -27 -51 -27l-743 -6q-35 0 -35 25z" />
<glyph unicode="&#x3e;" horiz-adv-x="1064" d="M115 1012q0 29 24 28q14 0 182 -56t248 -89q381 -152 381 -258q0 -57 -100 -118.5t-264 -127.5l-174 -69q-94 -39 -164 -66t-82 -27q-27 0 -27 23q0 27 29 37q27 8 102 41l289 114q133 53 236.5 107.5t103.5 81.5t-103.5 86t-244.5 121q-137 59 -260 95t-135 40 q-23 8 -32 15t-9 22z" />
<glyph unicode="?" horiz-adv-x="1050" d="M123 1130q0 168 107.5 264.5t297.5 96.5q129 0 219.5 -58.5t135.5 -149.5t45 -191q0 -96 -46 -171t-139 -176q-90 -98 -135 -170.5t-45 -166.5q0 -43 -35 -43q-28 0 -28 43q0 76 26.5 139t63.5 110.5t100 116.5q88 94 131 162t43 156q0 147 -92 241t-240 94 q-346 0 -346 -297q0 -74 48.5 -133t125.5 -59q23 0 31 -8t8 -29q0 -27 -41 -27q-98 0 -166.5 76t-68.5 180zM446 115q0 33 26 57.5t60 24.5q33 0 57.5 -25t24.5 -57q0 -35 -24.5 -59.5t-57.5 -24.5q-34 0 -60 24.5t-26 59.5z" />
<glyph unicode="@" horiz-adv-x="1792" d="M184 508q0 201 98.5 365.5t268.5 260t377 95.5q190 0 346 -81t245 -225.5t89 -324.5q0 -111 -34 -227.5t-101.5 -195.5t-163.5 -79q-72 0 -116 42t-50 104q-35 -61 -102.5 -95t-161.5 -34q-209 0 -279 133t-70 266q0 109 42 200t122 146t189 55q100 0 173.5 -45 t112.5 -114l11 102q4 27 34 27q23 0 34.5 -11.5t8.5 -21.5q-16 -98 -22 -139t-6 -62q-2 -8 -3 -29.5t-7 -72.5q-4 -29 -5 -41q-18 -158 -18 -209q0 -72 22.5 -105.5t77.5 -33.5q84 0 140.5 69.5t82 171t25.5 195.5q0 164 -80 294t-219 202.5t-313 72.5q-190 0 -347 -88 t-247 -239.5t-90 -333.5q0 -186 94 -332.5t258 -228.5t367 -82q70 0 125 10t153 35h6q20 0 21 -27q0 -14 -8.5 -22.5t-26.5 -16.5q-47 -20 -129 -31.5t-158 -11.5q-215 0 -390 91t-275.5 254t-100.5 368zM596 516q0 -143 70.5 -241.5t218.5 -98.5q164 0 219 131 q18 43 28.5 112.5t22.5 205.5q4 55 -35 107t-105.5 86t-131.5 34q-66 0 -131.5 -34t-110.5 -108.5t-45 -193.5z" />
<glyph unicode="A" horiz-adv-x="1292" d="M123 10l2 13q205 610 276 829l127 379q41 121 71 172t67 51q66 0 125 -203q37 -127 76.5 -257t80.5 -265l88 -285h64q12 0 19 -8t7 -20t-7 -20.5t-21 -8.5h-43l110 -364q4 -9 4 -17q0 -12 -12 -19t-24 -7q-16 0 -25 18l-119 389l-680 4l-127 -383q-4 -12 -10 -17t-18 -5 q-14 0 -22.5 7t-8.5 17zM330 453l641 -7q-160 530 -236 797q-18 68 -39.5 111t-33.5 43q-18 0 -72 -160z" />
<glyph unicode="B" horiz-adv-x="1196" d="M102 37q0 16 8.5 23.5t26.5 7.5l62 -2q32 330 32 692v22v154q0 238 -8 366q-4 -2 -19.5 -9t-27.5 -7q-10 0 -18 7t-8 22q0 20 12 31.5t51 27.5q178 74 379 74q223 0 372.5 -97.5t149.5 -285.5q0 -147 -102.5 -230t-306.5 -106q193 -29 291 -128t98 -243 q0 -180 -140.5 -269t-363.5 -89q-45 0 -68 2q-76 6 -176 6h-90q-6 -39 -37 -39q-29 0 -26 39h-56q-35 0 -35 31zM260 66h72q86 0 143 -5q25 -2 74 -2q225 0 353 72t128 225q0 102 -65.5 179t-188.5 119t-289 42q-25 0 -36 8.5t-11 28.5q0 33 49 33q256 0 409 77t153 216 q0 162 -130 243.5t-321 81.5q-217 0 -311 -47q6 -207 6 -553q0 -408 -35 -718z" />
<glyph unicode="C" horiz-adv-x="1409" d="M102 674q0 236 95.5 415t251 274t331.5 95q131 0 238.5 -60.5t187.5 -172.5l-2 192q0 14 9.5 22.5t23.5 8.5q16 0 25.5 -7t9.5 -22v-266q0 -14 -10.5 -23.5t-24.5 -9.5t-23.5 4t-19.5 19q-90 129 -186.5 190.5t-227.5 61.5q-156 0 -298 -93.5t-229 -258t-87 -369.5 q0 -211 91 -349.5t232.5 -202t298.5 -63.5q127 0 242 58.5t185.5 158t70.5 213.5q0 16 9.5 26.5t23.5 10.5q16 0 22.5 -7t6.5 -30q0 -133 -75 -245.5t-203 -180t-282 -67.5q-174 0 -329.5 68.5t-256 220t-100.5 389.5z" />
<glyph unicode="D" horiz-adv-x="1316" d="M123 1399q0 31 39 31h63q6 31 35 30q27 0 31 -35q424 -20 673.5 -188t249.5 -502q0 -219 -107.5 -380.5t-310 -250t-485.5 -88.5h-153q-33 0 -33 31t31 31h106l-35 1288h-67q-37 0 -37 33zM293 1364l33 -1286q249 4 435.5 81t288 224t101.5 352q0 588 -858 629z" />
<glyph unicode="E" horiz-adv-x="1175" d="M164 80q0 33 33 33l41 -2q20 158 31.5 296t13.5 322h-58q-35 0 -35 33q0 14 9.5 22.5t23.5 8.5h60v38v177q0 250 -7 342q-29 0 -38 6t-9 22q0 18 9.5 25.5t31.5 9.5q160 12 367 12q158 0 243 -4t181 -14q33 -4 33 -31q0 -16 -10.5 -24.5t-24.5 -5.5q-103 10 -182.5 14 t-210.5 4q-123 0 -328 -10q8 -186 8 -523v-40q131 -4 201 -5q88 0 215 -4l119 -4q33 0 32 -35q0 -14 -6 -21t-24 -7l-117 4l-225 6q-68 2 -195 2q-2 -160 -11 -280.5t-26 -282.5l-6 -60q176 -14 406 -14q117 0 178 4t155 15h9q31 0 30 -35q0 -12 -6 -19.5t-24 -9.5 q-84 -16 -310 -16h-77q-242 0 -467 20q-33 2 -33 31z" />
<glyph unicode="F" horiz-adv-x="1173" d="M164 1378q0 31 35 33l86 6l-6 72v6q0 31 30 31q33 0 35 -35l6 -70q195 12 307 13q152 0 237 -6.5t167 -20.5q31 -6 31 -35q0 -33 -35 -26q-113 14 -197 20t-196 6q-125 0 -310 -14q14 -160 21.5 -294t9.5 -312q119 12 260 12q127 0 287 -8q35 -4 35 -35q0 -27 -33 -27 q-164 8 -281 8q-156 0 -268 -12q0 -213 -7 -389t-18 -264q-2 -12 -11 -18.5t-21 -6.5q-14 0 -23.5 7.5t-7.5 21.5q25 270 25 641l-121 -16h-6q-27 0 -27 28q0 14 7 23.5t20 11.5l127 16q-2 324 -31 609l-90 -6h-6q-31 0 -31 30z" />
<glyph unicode="G" horiz-adv-x="1495" d="M102 709q0 188 82 348t232.5 256t347.5 96q279 0 473 -209q8 49 8 100q0 25 6 33t23 8q31 0 31 -22q0 -121 -19 -166q-14 -31 -43 -31q-14 0 -23.5 5.5t-25.5 21.5q-102 98 -194.5 147.5t-229.5 49.5q-182 0 -319.5 -90.5t-211 -239t-73.5 -318.5t74.5 -314t214 -229 t325.5 -85q233 0 337 140t108 415l-342 6q-35 0 -35 31q0 33 35 32l501 -10q29 0 29 -31t-29 -30l-96 2q-4 -303 -125 -461t-381 -158q-211 0 -364.5 97.5t-234.5 258t-81 347.5z" />
<glyph unicode="H" horiz-adv-x="1400" d="M123 659q0 16 9 23.5t22 7.5l98 -2l61 754q2 35 35 35t29 -39l-60 -750l770 -12l-22 764q0 37 31 37q33 0 32 -33l23 -768l90 -2q37 0 37 -33t-35 -33l-90 2l16 -575q0 -35 -28 -35q-35 0 -35 33l-16 577l-779 17l-49 -615q-4 -23 -31 -22q-37 0 -32 30l49 607l-96 2 q-29 0 -29 30z" />
<glyph unicode="I" horiz-adv-x="897" d="M102 1397q0 27 33 33q27 4 146.5 12t175.5 8q236 0 309 -12q29 -4 29 -31q0 -16 -10.5 -24.5t-24.5 -6.5q-53 6 -104.5 8t-129.5 2q0 -389 -8 -676.5t-33 -629.5l279 -4q31 0 31 -33t-31 -33l-625 10q-10 0 -18 9.5t-8 23.5q0 31 30 31l279 -4q23 367 32 655.5t9 650.5 q-92 -2 -258 -16l-72 -4q-14 0 -22.5 8t-8.5 23z" />
<glyph unicode="J" horiz-adv-x="1202" d="M102 514q0 41 33 41q31 0 31 -41q0 -190 48 -288.5t118.5 -128t161.5 -29.5q156 0 252 109.5t96 350.5v254q0 352 12 590q-141 -4 -195 -10h-4q-25 0 -24 29q0 29 26 32q74 8 215 9h117q68 0 86 -2q25 -2 25 -31q0 -14 -7.5 -22.5t-17.5 -8.5q-86 4 -160 4 q-12 -209 -12 -510l2 -332q0 -260 -112.5 -393t-294.5 -133q-166 0 -281 110.5t-115 399.5z" />
<glyph unicode="K" horiz-adv-x="1267" d="M164 43l2 246q6 219 6 510l-2 600q0 12 10 20t25 8q14 0 23.5 -10t9.5 -24l2 -584q184 113 413 262q270 180 463 332q10 6 19 6q12 0 21 -9t9 -24q0 -16 -14 -28q-92 -70 -451 -320q-109 -76 -270 -176l-149 -96l75 -78q129 -133 293 -272q111 -94 182.5 -147.5 t190.5 -135.5l84 -57q16 -10 16 -27q0 -12 -8 -22.5t-20 -10.5t-25 8q-119 78 -219 155t-240 191q-123 102 -196.5 173t-175.5 182q0 -156 -5 -414l-2 -254q0 -43 -36 -43q-18 0 -24.5 9.5t-6.5 29.5z" />
<glyph unicode="L" horiz-adv-x="1040" d="M123 414q0 213 22.5 447.5t71.5 541.5q6 35 37 35q33 0 27 -41q-55 -381 -74 -571.5t-19 -411.5q0 -147 15.5 -216t75 -102t190.5 -33q100 0 190.5 11.5t253.5 42.5l13 2q33 0 32 -33q0 -33 -34 -39q-141 -27 -233.5 -37t-190.5 -10q-172 0 -250 34t-102.5 116.5 t-24.5 263.5z" />
<glyph unicode="M" horiz-adv-x="1587" d="M164 27q0 141 2 229l2 403q0 797 197 797q72 0 154.5 -100.5t156.5 -278.5t115 -399q33 215 113.5 394t175 281.5t159.5 102.5q180 0 180 -819l2 -330q2 -88 2 -282q0 -35 -30 -35q-20 0 -26.5 9t-6.5 26l-4 612q-2 350 -36 552t-91 202q-41 0 -118 -98.5t-128 -196.5 q-53 -102 -88 -229.5t-68 -288.5q-2 -16 -10 -22.5t-22 -6.5q-18 0 -26.5 6t-12.5 23q-14 45 -35 129q-31 123 -54.5 207.5t-54.5 158.5q-49 119 -120.5 221.5t-118.5 102.5q-66 0 -104 -214t-38 -521q0 -326 -2 -379v-254q0 -14 -9 -21.5t-21 -7.5t-23.5 6t-11.5 21z" />
<glyph unicode="N" horiz-adv-x="1454" d="M164 1356q0 86 57 86q37 0 143.5 -148.5t266.5 -400.5q29 -49 50 -82t36 -53q166 -256 287.5 -434.5t181.5 -225.5q16 37 26.5 127t10.5 295l-2 901q0 35 32 35q37 0 37 -41l-2 -891q0 -215 -10 -320.5t-29.5 -140t-56.5 -34.5q-59 0 -200.5 199.5t-325.5 490.5 q-346 543 -439 645v-111l2 -272q2 -76 2 -246q0 -299 2 -401v-287q0 -8 -10 -15t-22 -7t-22.5 6t-10.5 16v682q0 193 -2 279z" />
<glyph unicode="O" horiz-adv-x="1568" d="M102 698q0 215 81 385t229.5 265.5t345.5 95.5t358.5 -95.5t255.5 -267.5t94 -391q0 -229 -100 -379.5t-259 -220.5t-337 -70q-174 0 -325.5 69t-247 220.5t-95.5 388.5zM166 707q0 -229 95 -368.5t234.5 -197t280.5 -57.5q150 0 293 61.5t238.5 198.5t95.5 350 q0 197 -84 353.5t-230.5 244.5t-324.5 88q-172 0 -308.5 -83t-213 -236.5t-76.5 -353.5z" />
<glyph unicode="P" horiz-adv-x="1187" d="M102 1272q0 14 11 20q55 31 65 35v74q0 23 7.5 33t27.5 10q35 0 35 -33v-49q170 80 330 80q139 0 265 -53.5t204.5 -157t78.5 -242.5q0 -129 -68.5 -224t-190.5 -146.5t-277 -51.5q-201 0 -332 82l-6 -620q0 -41 -35 -41q-18 0 -25.5 12t-7.5 49q0 72 4 219q4 197 5 428 q0 211 -9 457q-4 78 -4 107l-33 -19q-8 -4 -14 -4q-14 0 -22.5 12.5t-8.5 22.5zM248 1296q0 -51 4 -129l2 -135l2 -194q2 -53 2 -125q82 -47 156.5 -64.5t154.5 -17.5q152 0 264.5 48t171 130t58.5 184q0 111 -67.5 199t-180.5 137t-244 49q-90 0 -166.5 -21.5t-156.5 -60.5 z" />
<glyph unicode="Q" horiz-adv-x="1546" d="M102 717q0 231 97.5 398t251 252t315.5 85q166 0 322.5 -88t256 -251t99.5 -378q0 -143 -46 -265t-130 -214l145 -145q12 -12 12 -27q0 -14 -9 -24.5t-23 -10.5t-25 10l-149 148q-94 -84 -218 -130t-264 -46q-193 0 -336 86t-221 241.5t-78 358.5zM166 713 q0 -176 70.5 -317.5t200.5 -221.5t300 -80q123 0 235.5 42t198.5 120l-192 190q-8 8 -8 19q0 16 14 26.5t27 10.5q10 0 16 -6l193 -193q76 86 117.5 194.5t41.5 231.5q0 197 -89 347.5t-229 231.5t-288 81q-150 0 -290 -79t-229 -232.5t-89 -364.5z" />
<glyph unicode="R" horiz-adv-x="1257" d="M123 1266q0 16 24 28l48 21q-2 31 -2 92q0 29 30 29q33 0 33 -27v-66q115 49 195.5 69t173.5 20q160 0 279.5 -50.5t185 -143.5t65.5 -218q0 -139 -79 -233.5t-206 -140.5t-272 -46q-131 0 -272 49l784 -553q16 -10 16 -28q0 -14 -10 -25.5t-22 -11.5t-35 16l-783 557 l-2 -579q0 -33 -34 -33q-18 0 -25.5 11t-7.5 46l2 213q4 180 4 359q0 147 -10 454l-6 166l-31 -14q-8 -4 -14 -4q-14 0 -21.5 15t-7.5 28zM258 1270q4 -135 8 -205q8 -197 10 -336q141 -65 305 -65h5q129 0 244.5 39.5t188.5 118.5t73 194q0 100 -59.5 181t-164 126 t-239.5 45q-88 0 -174 -23.5t-197 -74.5z" />
<glyph unicode="S" horiz-adv-x="1032" d="M102 1065q0 113 57.5 200t154 134t208.5 47q131 0 220 -53.5t132.5 -140.5t43.5 -189q0 -12 -7.5 -21.5t-23.5 -9.5q-33 0 -33 31q0 141 -93 230t-239 89q-111 0 -191.5 -42t-122.5 -114.5t-42 -160.5q0 -98 50 -158.5t126 -94.5t205 -73q109 -33 187.5 -71.5t137 -117.5 t58.5 -204q0 -158 -107.5 -250t-279.5 -92q-140 0 -238 57.5t-148.5 153.5t-50.5 213q0 37 33 37q31 0 31 -33q0 -170 97.5 -267t275.5 -97q147 0 235 71.5t88 204.5q0 139 -92 216t-278 128q-111 29 -191 64.5t-141.5 112.5t-61.5 200z" />
<glyph unicode="T" horiz-adv-x="1058" d="M61 1366q0 29 25 31q207 24 464 24h21q221 0 394 -14q32 -2 32 -35q0 -12 -7 -22.5t-21 -8.5q-203 16 -396 17q-25 -414 -32 -680l-6 -199q-10 -250 -15 -440q0 -39 -35 -39q-37 0 -36 31q0 45 4 123.5t6 130.5q10 201 16 391q8 256 33 682q-127 -2 -205 -7t-213 -18h-4 q-10 0 -17.5 9.5t-7.5 23.5z" />
<glyph unicode="U" horiz-adv-x="1255" d="M123 532q0 137 8 441q2 82 4 191.5t2 240.5q0 16 7.5 22.5t23.5 6.5q33 0 33 -33q0 -199 -6 -424q-2 -80 -4.5 -193.5t-2.5 -251.5q0 -217 104.5 -338.5t287.5 -121.5q166 0 274.5 67.5t158.5 164.5t50 190l-2 254q-6 559 -6 663q0 18 5 27.5t23 9.5q35 0 35 -37 q0 -102 4 -344l2 -238q9 -454 9 -798q0 -33 -33 -33q-16 0 -24.5 8t-8.5 27v248q-66 -125 -190.5 -200t-296.5 -75q-170 0 -272.5 82t-143.5 202t-41 242z" />
<glyph unicode="V" horiz-adv-x="1300" d="M119 1423q0 12 11 18.5t28 6.5q18 0 24 -16q43 -141 84 -289q66 -229 107 -361q102 -334 153.5 -480t80 -191t61.5 -45q33 2 59.5 46t70.5 182t144 488q39 137 39 140q84 289 139 501q6 18 27 19q33 0 35 -27q0 -8 -2 -14q-45 -168 -121 -434l-51 -183 q-111 -387 -152 -516t-70 -186q-39 -80 -120 -80q-37 0 -64 18.5t-49 59.5q-31 57 -79 187t-163 509q-37 119 -75 260q-68 231 -113 373q-4 12 -4 14z" />
<glyph unicode="W" horiz-adv-x="1742" d="M121 1411q0 10 10 16.5t25 6.5q14 0 19 -5.5t9 -23.5l82 -318l70 -270q0 4 55 -244q53 -242 84 -368.5t45 -126.5q10 0 56.5 88t103.5 225l61 152q57 141 86 198.5t50 57.5q27 0 68.5 -78t129.5 -264l25 -54q92 -197 124.5 -262t41.5 -65q10 0 47 179t78 407l30 155 q27 129 97 422l41 172q4 23 26 23q14 0 24.5 -7.5t10.5 -19.5q0 -10 -2 -16l-35 -142q-66 -260 -100 -444q-84 -446 -156 -744q-12 -51 -61 -51q-33 0 -73 71t-140 288q-61 131 -114.5 241.5t-59.5 110.5t-24.5 -46t-43.5 -108q-57 -147 -80 -198q-88 -207 -134 -284 t-81 -77q-45 0 -59 43q-59 160 -185 754q-18 92 -84 338l-65 254q-2 6 -2 14z" />
<glyph unicode="X" horiz-adv-x="1333" d="M123 37q0 8 4 14l10 15l156 204q63 86 148 197t188 250q-252 338 -482 657q-8 10 -8 23q0 14 9.5 22t23.5 8q18 0 41 -30q39 -55 328 -451q43 -55 129 -174q217 289 460 619q25 33 41 32q16 0 25.5 -10t9.5 -22q0 -14 -16 -35l-479 -639l493 -668q6 -8 6 -16 q0 -12 -10 -22.5t-24 -10.5q-20 0 -33 16l-475 646l-480 -639q-14 -16 -36 -17q-12 0 -20.5 9.5t-8.5 21.5z" />
<glyph unicode="Y" horiz-adv-x="1245" d="M123 1399q0 10 9 17t24 7q16 0 22 -7t9 -18.5t6 -15.5q70 -197 186 -389q158 -260 244 -260q43 0 107.5 68.5t139.5 193.5q49 82 90 169t99 227q8 20 13 27t18 7q35 0 34 -26q0 -6 -6 -23q-72 -170 -105.5 -240.5t-90.5 -166.5q-160 -262 -271 -301l8 -619q0 -39 -32 -39 q-33 0 -33 37l-6 621q-59 25 -117.5 92t-142.5 205q-72 117 -113 203.5t-90 222.5q-2 2 -2 8z" />
<glyph unicode="Z" horiz-adv-x="1302" d="M61 82q0 49 74 136t252 271q178 182 268 281q303 326 378 411t141 175q-283 -29 -474 -29q-135 0 -253.5 9.5t-264.5 33.5q-18 4 -27.5 11.5t-9.5 21.5q0 28 39 28q7 0 15 -1l118 -15q111 -14 177.5 -19t167.5 -5q152 0 417 24l92 6q31 0 54 -18q16 -14 16 -39 q0 -53 -135 -206.5t-358 -387.5l-33 -33l-160 -166q-213 -221 -302 -317t-116 -143l47 2q313 12 459 12q231 0 502 -29q25 -2 24 -28q0 -12 -8 -21.5t-26 -7.5q-187 14 -275 19t-217 5q-104 0 -442 -12l-72 -2q-39 0 -53.5 7t-14.5 26z" />
<glyph unicode="[" horiz-adv-x="632" d="M102 -303q12 166 20.5 439.5t8.5 469.5q0 455 -25 905q154 6 375 7q41 0 41 -33q0 -35 -41 -35l-198 2q-70 0 -101 -2q6 -184 10.5 -417.5t4.5 -420.5q0 -406 -17 -860q68 -6 144 -6q78 0 170 6h6q31 0 30 -31q0 -31 -38 -34q-70 -6 -211 -6q-105 0 -179 16z" />
<glyph unicode="\" horiz-adv-x="989" d="M164 1829q0 18 11 29.5t26 11.5q29 0 43 -41l575 -1770q6 -25 6 -24q0 -18 -11 -26.5t-28 -8.5q-26 0 -34 29l-586 1781q-2 6 -2 19z" />
<glyph unicode="]" horiz-adv-x="632" d="M102 -279q0 14 9.5 23.5t27.5 7.5q92 -6 168 -6q78 0 146 6q-16 455 -17 860q0 186 4 420t11 418q-55 2 -179 -2l-116 -2q-45 0 -45 37q0 31 39 30l223 3q113 0 153 -5q-12 -244 -12 -573v-332q0 -649 16 -909q-74 -16 -178 -16q-141 0 -211 6q-39 4 -39 34z" />
<glyph unicode="^" horiz-adv-x="1249" d="M178 471q74 266 160 487.5t164 349.5t131 128q88 0 201.5 -259t234.5 -679q4 -20 4 -27q0 -35 -33 -35q-25 0 -32 33q-55 221 -130 432t-142.5 342t-102.5 131q-37 0 -107.5 -135t-148.5 -346t-133 -426q-10 -35 -39 -35q-15 0 -23 12.5t-4 26.5z" />
<glyph unicode="_" horiz-adv-x="1105" d="M-20 -152q0 35 38 35q508 -6 1076 -6q33 0 32 -39q0 -37 -34 -37q-250 0 -861 9l-213 2q-18 0 -28 10t-10 26z" />
<glyph unicode="`" horiz-adv-x="643" d="M104 1397q0 10 11.5 21.5t21.5 11.5q12 0 31 -19l170 -168l190 -188q10 -10 11 -25q0 -8 -11.5 -17t-21.5 -9q-15 0 -29 12l-356 352q-8 8 -12.5 14.5t-4.5 14.5z" />
<glyph unicode="a" horiz-adv-x="1243" d="M102 483q0 127 49.5 247t153 198t256.5 78q127 0 210 -49.5t134 -149.5l21 149q4 20 9 28.5t21 8.5q18 0 29.5 -9t9.5 -21q-18 -94 -28 -228q-8 -94 -9 -254v-139q0 -117 6.5 -170t28 -75.5t68.5 -26.5q20 -2 29.5 -7.5t9.5 -23.5q0 -33 -31 -33q-82 0 -118 33t-52 121 q-47 -82 -134 -128t-212 -46q-176 0 -276.5 82t-137.5 194.5t-37 220.5zM166 483q0 -90 30.5 -188t114.5 -171t232 -73q145 0 246.5 75t103.5 218q2 104 2 240q0 139 -58.5 219t-135 109.5t-140.5 29.5q-139 0 -228 -77t-128 -183.5t-39 -198.5z" />
<glyph unicode="b" horiz-adv-x="1329" d="M143 55q0 12 11 21q33 31 51 49t31 47q8 16 11 45t3 92q0 109 -12 490q-4 109 -9 338q-4 109 -9 308.5t-11 303.5v4q0 31 35 31q33 0 32 -31l7 -250q10 -455 18 -651q68 78 172.5 125t243.5 47q237 0 373.5 -141.5t136.5 -386.5q0 -190 -80 -303t-192.5 -158t-225.5 -45 q-111 0 -201 32.5t-148 81t-79 93.5q-2 -57 -32.5 -101.5t-78.5 -68.5q-8 -4 -14 -4q-16 0 -24.5 11t-8.5 21zM307 559q2 -74 8 -211q4 -78 61.5 -146.5t152 -108.5t200.5 -40q102 0 200.5 41t166 140.5t67.5 263.5q0 221 -122.5 342t-319.5 121q-135 0 -239.5 -55.5 t-174.5 -147.5v-119v-80z" />
<glyph unicode="c" horiz-adv-x="1171" d="M102 494q0 135 55.5 263t169 210t277.5 82q127 0 221.5 -48.5t146.5 -115t68 -125.5q2 -4 2 -15q0 -18 -22 -24h-8q-27 0 -35 29q-16 57 -63.5 110t-123 89t-174.5 36q-141 0 -242.5 -70.5t-154.5 -183.5t-53 -233q0 -115 48 -212.5t146.5 -157.5t239.5 -60 q137 0 228.5 54t134.5 129t43 134q0 35 32 35q31 0 31 -39q0 -76 -47 -163t-153.5 -150.5t-272.5 -63.5t-276.5 68.5t-164 180.5t-53.5 241z" />
<glyph unicode="d" horiz-adv-x="1331" d="M102 504q0 246 140.5 384t378.5 138q145 0 251.5 -48t155.5 -112v50q0 138 8 364q10 270 27 469q4 35 33 35q16 0 25 -8.5t7 -22.5q-16 -170 -29 -529.5t-12 -660.5q0 -332 17 -391q14 -49 35.5 -73.5t42.5 -30.5q6 -2 6 -15q0 -14 -8.5 -24.5t-20.5 -10.5q-8 0 -16 5 q-49 20 -74 61t-35 119q-53 -96 -171 -156.5t-255 -60.5q-131 0 -245.5 53t-187.5 170t-73 295zM166 502q0 -158 68.5 -260.5t170 -147.5t203.5 -45q103 0 199 44t155.5 122t59.5 174q0 102 2 160l2 221q-16 39 -71.5 84t-142.5 77t-191 32q-133 0 -236.5 -55.5t-161 -159 t-57.5 -246.5z" />
<glyph unicode="e" horiz-adv-x="1189" d="M102 518q0 139 61.5 260t178.5 196t276 75q137 0 244 -56.5t166 -154t59 -220.5q0 -51 -12 -67t-57 -16l-852 -25q0 -121 54 -223.5t157.5 -163t240.5 -60.5q104 0 177 34t114 77t92 115q6 8 19 8q14 0 26.5 -9t12.5 -24q0 -10 -12 -26q-68 -102 -163.5 -170t-267.5 -68 q-167 0 -283 73.5t-173.5 192.5t-57.5 252zM166 571l848 27q8 0 11 4t3 21q0 102 -52 184t-144.5 130t-206.5 48q-139 0 -244 -66.5t-160 -164t-55 -183.5z" />
<glyph unicode="f" horiz-adv-x="790" d="M61 754q0 33 37 32q45 0 164 5l-2 243q0 242 62.5 362t216.5 120q114 0 183 -79t69 -231q0 -37 -31 -37q-20 0 -26.5 9.5t-6.5 25.5q0 248 -182 248q-131 0 -176 -101.5t-45 -316.5l4 -241q123 4 194 4q23 0 32 -7.5t9 -23.5q0 -31 -33 -31l-200 -2l2 -102q8 -385 8 -596 q0 -35 -31 -35q-33 0 -33 35l-12 694l-168 -6q-35 0 -35 31z" />
<glyph unicode="g" horiz-adv-x="1196" d="M82 524q0 129 56.5 248t163 193.5t251.5 74.5q109 0 190.5 -36.5t122.5 -81.5l17 61q20 74 24 80q10 23 29 22q12 0 23.5 -6t11.5 -16l-2 -21q-4 -23 -14.5 -62.5t-16.5 -59.5l-14 -52q27 -139 65 -411l15 -107l16 -119q16 -115 24.5 -178t8.5 -102q0 -135 -58.5 -240.5 t-166 -164t-248.5 -58.5q-102 0 -193.5 45t-147 120t-55.5 159q0 12 9.5 19t23.5 7q12 0 20.5 -9t8.5 -19q0 -66 47 -125.5t124 -96.5t163 -37q129 0 222 54.5t140 145.5t47 200q0 57 -9 137t-22 137q-55 -92 -156.5 -148.5t-236.5 -56.5q-160 0 -268.5 74t-161.5 189.5 t-53 240.5zM145 524q0 -113 47.5 -213t142.5 -163.5t230 -63.5q129 0 226.5 61.5t150.5 182.5q-27 205 -65 428l-11 61q-35 72 -125 116t-188 44q-115 0 -208 -62.5t-146.5 -167t-53.5 -223.5z" />
<glyph unicode="h" horiz-adv-x="1161" d="M164 25q0 446 10 811q6 213 31 637l6 96q2 23 8 31t23 8q37 0 32 -37l-41 -787q49 102 150.5 181t251.5 79q131 0 207 -70.5t110 -213.5q29 -117 37 -286t8 -449q0 -29 -32 -29q-31 0 -31 31q-2 299 -10.5 459.5t-36.5 269.5q-31 113 -91.5 169t-164.5 56 q-127 0 -217 -72.5t-135.5 -170t-45.5 -163.5l-2 -552q0 -10 -11 -17.5t-27 -7.5q-29 0 -29 27z" />
<glyph unicode="i" horiz-adv-x="468" d="M143 1307q0 39 27 66.5t68 27.5q39 0 63.5 -25.5t24.5 -66.5t-28 -65.5t-65 -24.5q-36 0 -63 25.5t-27 62.5zM168 43l20 948q0 41 33 41q16 0 24.5 -9t8.5 -32l-23 -946q0 -33 -30 -33q-33 0 -33 31z" />
<glyph unicode="j" horiz-adv-x="634" d="M-164 -211q0 29 6 39t23 10q35 0 35 -45q12 -215 182 -215q127 0 195.5 122t72.5 347l8 391q8 410 9 533q0 29 6 39t26 10q18 0 24.5 -10.5t6.5 -42.5q0 -197 -6 -455q-4 -152 -8 -465q-4 -244 -91 -387t-233 -143q-106 0 -181 75.5t-75 196.5zM309 1305q0 39 26.5 66.5 t67.5 27.5q39 0 64 -25.5t25 -66.5t-28 -65.5t-65 -24.5t-63.5 25.5t-26.5 62.5z" />
<glyph unicode="k" horiz-adv-x="1011" d="M143 18l2 1543q0 37 33 36q33 0 33 -36l-4 -889l665 409q10 6 21 6q10 0 21.5 -17t9.5 -32q-2 -10 -19 -20l-696 -424l706 -516q14 -10 15 -27q0 -16 -11.5 -27.5t-25.5 -11.5q-10 0 -41 23q-393 289 -643 479l-2 -494q0 -27 -31 -26q-33 -1 -33 24z" />
<glyph unicode="l" horiz-adv-x="444" d="M184 1583q0 39 35 39q31 0 31 -39l10 -1528q0 -37 -31 -37q-32 0 -32 37z" />
<glyph unicode="m" horiz-adv-x="1595" d="M145 993q0 14 11.5 26.5t25.5 12.5t49 -43q25 -31 33 -67.5t8 -116.5v-80q61 326 285 326q121 0 197.5 -86t103.5 -256q16 174 91 262t206 88q168 0 233.5 -109.5t65.5 -287.5v-625q0 -37 -33 -37q-18 0 -24 10t-6 29l2 600q0 176 -49.5 267t-188.5 91t-198.5 -126 t-61.5 -324q-2 -172 -2 -508q0 -35 -35 -35q-20 0 -25.5 8t-5.5 31v332v172q-2 186 -73.5 314t-200.5 128q-96 0 -155.5 -89t-96.5 -292q-14 -80 -18 -170t-4 -225v-78v-96q0 -16 -9.5 -24.5t-21.5 -8.5q-20 0 -26.5 9.5t-6.5 25.5q0 457 -8 819q-2 76 -23.5 94.5 t-23.5 20.5t-8.5 7t-6.5 11z" />
<glyph unicode="n" horiz-adv-x="1105" d="M143 991q0 14 13.5 22.5t25.5 8.5q14 0 29 -23q61 -96 61 -184v-86q29 133 120 221t245 88q164 0 245 -116.5t81 -366.5v-510q0 -39 -31 -39q-33 0 -33 37v514q0 217 -60.5 318.5t-211.5 101.5q-131 0 -210 -87t-116 -308q-18 -111 -18 -226l2 -327q0 -25 -31 -25 q-33 0 -33 25q-4 236 -8 358q-2 74 -4 202t-2 226q0 41 -8.5 63.5t-26.5 55.5q-4 6 -22 37q-6 10 -7 20z" />
<glyph unicode="o" horiz-adv-x="1239" d="M102 504q0 162 59.5 285.5t173.5 194.5t275 71q150 0 269.5 -62.5t188.5 -185.5t69 -295q0 -256 -144.5 -384t-374.5 -128q-210 0 -363 114.5t-153 389.5zM166 510q0 -164 67.5 -263.5t169 -141.5t213.5 -42q123 0 226.5 49.5t167 151t63.5 250.5q0 145 -59.5 252.5 t-165 166t-236.5 58.5q-133 0 -234.5 -59.5t-156.5 -169t-55 -252.5z" />
<glyph unicode="p" horiz-adv-x="1314" d="M143 975q0 12 12.5 22.5t24.5 10.5q8 0 14.5 -4.5t12.5 -10.5q18 -18 47 -70.5t35 -91.5q18 41 74.5 92.5t148.5 89.5t207 38q129 0 241.5 -53.5t182 -169t69.5 -296.5q0 -170 -64.5 -288.5t-179 -179t-263.5 -60.5q-100 0 -187.5 24.5t-145 57.5t-81.5 57 q-8 -289 -21 -567q-2 -18 -8 -26.5t-22 -8.5q-37 0 -33 41q14 287 16 486l2 133q4 254 4 534q0 80 -18 123t-57 96q-10 14 -11 21zM291 240q41 -68 162.5 -120t257.5 -52q196 0 317 120.5t121 343.5q0 164 -63.5 265.5t-161 145.5t-201.5 44q-123 0 -221.5 -52 t-153.5 -118.5t-55 -101.5q0 -303 -2 -475z" />
<glyph unicode="q" horiz-adv-x="1316" d="M82 526q0 195 82 311.5t196.5 164t221.5 47.5q127 0 251.5 -63.5t190.5 -164.5l88 144q10 16 23 16q12 0 24 -7t15 -18v-4q0 -8 -7 -20q-57 -96 -96 -178q0 -231 -16 -650l-4 -77q-8 -205 -9 -484q0 -29 -36 -28q-12 0 -20.5 7t-8.5 34q0 90 8 323q8 217 8 289 q-53 -72 -167.5 -119t-241.5 -47q-137 0 -251 57.5t-182.5 175t-68.5 291.5zM145 522q0 -150 61.5 -252t160 -152t213.5 -50q123 0 236.5 55t178.5 145q6 125 6 307q2 35 3 105q0 78 -67 148.5t-168 112.5t-198 42q-100 0 -197.5 -48t-163 -151.5t-65.5 -261.5z" />
<glyph unicode="r" horiz-adv-x="950" d="M154 1038v4q0 14 10 22.5t24 8.5q31 0 31 -35l21 -368q20 195 113 284.5t229 89.5q137 0 201.5 -80.5t64.5 -189.5q0 -106 -57.5 -160.5t-137.5 -54.5q-25 0 -34 7t-9 24q0 16 8.5 23.5t24.5 9.5q61 6 101 33.5t40 115.5q0 82 -45 145.5t-159 63.5q-150 0 -223.5 -133 t-92.5 -381q-8 -111 -8 -324v-114q0 -43 -33 -43q-16 0 -23 9t-7 32l-5 436q-2 215 -30 530z" />
<glyph unicode="s" horiz-adv-x="999" d="M143 272q0 14 11.5 24.5t27.5 10.5q12 0 21 -9t24 -40q113 -199 308 -199q115 0 186.5 58.5t71.5 142.5q0 59 -38 99t-93.5 65t-149.5 57q-109 37 -176.5 69t-113.5 86t-46 138q0 72 35 136.5t106.5 106.5t178.5 42q152 0 249 -82t97 -211q0 -27 -7.5 -36t-23.5 -9 q-35 0 -35 37q0 123 -84 180t-198 57q-141 0 -196.5 -71.5t-55.5 -147.5q0 -61 38.5 -103t96 -70t153.5 -60q106 -39 171 -70t110 -83t45 -128q0 -72 -39 -132t-112.5 -97t-172.5 -37q-137 0 -221 65.5t-153 178.5q-14 23 -15 32z" />
<glyph unicode="t" horiz-adv-x="884" d="M102 891q0 16 9.5 24.5t21.5 6.5q119 -12 180 -15q18 193 54 430q2 18 10 26.5t22 8.5t23.5 -8t7.5 -27q-37 -256 -53 -434q66 -2 205 -2q35 0 34 -33q0 -29 -34 -28l-86 -2q-39 0 -125 4q-14 -178 -15 -291q0 -215 43 -351.5t150 -136.5q57 0 103 41t46 136 q0 20 6.5 31.5t24.5 11.5q19 0 26 -11.5t7 -42.5q0 -90 -59.5 -159.5t-155.5 -69.5q-254 0 -254 561q0 115 14 283q-117 8 -180 14q-14 2 -19.5 10.5t-5.5 22.5z" />
<glyph unicode="u" horiz-adv-x="1089" d="M143 471v526q0 29 31 29q14 0 23.5 -7t9.5 -22v-530q0 -205 62.5 -302t197.5 -97q195 0 276.5 175t81.5 445v316q0 35 31 34q33 0 33 -34l10 -807q0 -41 9.5 -67t23.5 -47.5t14 -31.5q0 -12 -10 -22.5t-23 -10.5q-27 0 -52 51.5t-27 116.5l-3 109q-39 -133 -134 -212 t-228 -79q-166 0 -246 116t-80 351z" />
<glyph unicode="v" horiz-adv-x="1077" d="M123 977q0 27 8 37t25 10q14 0 19 -8t9 -29q14 -104 40 -212.5t83 -270.5q61 -174 126 -297t93 -123q29 0 93.5 117.5t138.5 300.5q68 168 96.5 280.5t38.5 212.5q2 39 31 39q30 0 30 -46q0 -69 -37.5 -210t-97.5 -297q-74 -197 -152.5 -329t-138.5 -132 q-59 0 -135 130.5t-143 320.5q-53 150 -90 297t-37 209z" />
<glyph unicode="w" horiz-adv-x="1568" d="M143 1020q0 14 8.5 22.5t22.5 8.5q16 0 23.5 -6.5t9.5 -26.5q8 -180 27.5 -309t78.5 -322q39 -125 85 -220t81 -95q25 0 78 116.5t104.5 288.5t73.5 334q4 16 13.5 28.5t23.5 12.5q39 0 47 -41q33 -164 94.5 -334t122 -281.5t88.5 -111.5q31 0 69 89t75 228 q51 190 70.5 318.5t23.5 290.5q0 39 31 39q18 0 25 -8.5t7 -30.5q0 -129 -29.5 -316.5t-70.5 -331.5q-51 -174 -96 -265t-101 -91q-49 0 -117.5 102.5t-131 269.5t-99.5 345q-25 -180 -76 -346t-112.5 -268.5t-112.5 -102.5q-57 0 -110.5 89t-106.5 251q-51 158 -85 339 t-34 335z" />
<glyph unicode="x" horiz-adv-x="1046" d="M104 37q0 12 9 22l143 201l209 295l-133 172l-197 256q-4 8 -4 12q0 12 12.5 23.5t24.5 11.5q10 0 16 -8q94 -125 250 -324l70 -89v1q143 201 282 410q8 14 23 14q12 0 25.5 -11t13.5 -26q0 -10 -6 -20l-295 -420q27 -35 84 -104l305 -385q8 -11 8 -21q0 -14 -11 -24.5 t-26 -10.5q-14 0 -24 15l-375 477l-350 -490q-8 -10 -19 -10q-12 0 -23.5 10.5t-11.5 22.5z" />
<glyph unicode="y" horiz-adv-x="1050" d="M82 1012q8 25 39 24q12 0 17 -7t12 -23q70 -219 154.5 -403.5t165.5 -305.5t140 -162q80 227 123 386t107 433l12 56q4 18 11 25t22 7q37 0 43 -28q2 -6 0 -12.5t-2 -8.5q-74 -311 -115 -461.5t-115 -357.5q-88 -248 -256 -661q-8 -20 -16 -27.5t-21 -7.5q-16 0 -27 9 t-11 21q0 8 4 21q121 254 215 539q-129 90 -258 332.5t-242 592.5q-4 12 -2 19z" />
<glyph unicode="z" horiz-adv-x="1138" d="M102 37q0 25 27 51q350 356 823 870q-47 0 -141 -8q-154 -10 -246 -10q-236 0 -370 31q-18 6 -19 28q0 37 35 31q197 -29 356 -29q92 0 250 15q98 8 135 8q49 0 65.5 -8t18.5 -25v-8q0 -25 -18 -45q-152 -164 -438 -463q-338 -354 -390 -409q37 0 111 6q205 10 299 10 q88 0 175 -6t167 -15q25 -2 25 -28q0 -16 -8.5 -25.5t-16.5 -7.5q-131 18 -324 18q-131 0 -299 -8q-123 -4 -153 -4q-35 0 -49.5 5t-14.5 26z" />
<glyph unicode="{" horiz-adv-x="763" d="M102 610q0 18 11.5 35t33.5 25q53 16 75 135t22 385q0 162 88 267.5t231 105.5q63 0 81 -5.5t18 -31.5q0 -20 -15.5 -25.5t-58.5 -5.5q-152 0 -216.5 -91t-64.5 -296q0 -195 -28.5 -331t-92.5 -171q55 -45 85 -105.5t42.5 -158.5t12.5 -264q0 -369 274 -369q25 0 38 -8 t13 -20q0 -16 -15 -26.5t-40 -10.5q-107 0 -182.5 55t-114.5 144t-39 192v96q0 158 -20.5 266.5t-83.5 143.5q-25 14 -39.5 32.5t-14.5 36.5z" />
<glyph unicode="|" horiz-adv-x="477" d="M205 -156l2 435q4 336 4 567l-2 893q0 10 9 18t24 8q10 0 20 -7t10 -15v-893q0 -246 -4 -586l-2 -420q0 -33 -30 -32q-31 -1 -31 32z" />
<glyph unicode="}" horiz-adv-x="763" d="M102 1526q0 27 17.5 32t81.5 5q143 0 231 -105.5t88 -267.5q0 -266 21.5 -385t74.5 -135q23 -8 34.5 -24.5t11.5 -35.5q0 -18 -14.5 -36.5t-39.5 -32.5q-63 -35 -83.5 -143.5t-20.5 -266.5v-96q0 -102 -39 -191.5t-115 -144.5t-182 -55q-25 0 -40 10t-15 27q0 12 13 20 t38 8q274 0 274 369q0 166 12.5 264t42 158.5t85.5 105.5q-63 35 -92 171t-29 331q0 205 -64.5 296t-216.5 91q-43 0 -58.5 5t-15.5 26z" />
<glyph unicode="~" horiz-adv-x="1064" d="M147 655l25 25q53 45 170 45q47 0 108.5 -15.5t112.5 -33.5q98 -35 195 -35q25 0 58.5 15.5t43.5 17.5q29 8 33 8q12 0 21.5 -10t9.5 -19q0 -8 -11 -16q-68 -51 -155 -51q-56 0 -104 10t-109 27l-43 12q-98 33 -176 33q-63 0 -103 -23q-8 -4 -23.5 -15.5t-23.5 -11.5 q-16 0 -26.5 14.5t-2.5 22.5z" />
<glyph unicode="&#xa1;" horiz-adv-x="526" d="M174 958q0 35 26.5 63t61.5 28q33 0 61.5 -28t28.5 -63q0 -33 -28.5 -58.5t-61.5 -25.5q-35 0 -61.5 26t-26.5 58zM236 -365l10 1084q0 35 24 35q12 0 19.5 -12.5t7.5 -30.5l-8 -1076q0 -37 -25 -36q-28 -1 -28 36z" />
<glyph unicode="&#xa2;" horiz-adv-x="1171" d="M102 494q0 131 51.5 253.5t156 205.5t255.5 94v165q0 33 29 33q16 0 25.5 -6t9.5 -27v-163q121 -4 209 -52.5t137 -114t65 -122.5q2 -4 2 -15q0 -18 -22 -24h-8q-27 0 -35 29q-16 57 -63.5 110t-123 89t-174.5 36q-141 0 -242.5 -70.5t-154.5 -183.5t-53 -233 q0 -115 48 -212.5t146.5 -157.5t239.5 -60q137 0 228.5 54t134.5 129t43 134q0 35 32 35q31 0 31 -39q0 -74 -44 -159t-143.5 -148.5t-252.5 -69.5v-162q0 -16 -10.5 -25.5t-24.5 -9.5q-29 0 -29 35v162q-156 6 -259 77t-153.5 179.5t-50.5 233.5z" />
<glyph unicode="&#xa3;" horiz-adv-x="1181" d="M123 18q0 6 8 21q27 45 102.5 87t153.5 46q41 63 59.5 124.5t18.5 131.5q0 82 -39 162l-233 2q-20 0 -33 6t-13 23q0 16 10.5 22t35.5 6l204 -2l-49 88q-63 109 -94 181.5t-31 150.5q0 94 51.5 179t144.5 136.5t210 51.5q160 0 260 -95.5t100 -253.5q0 -27 -5 -37 t-19 -10q-18 0 -24.5 8.5t-6.5 30.5q0 152 -88 227.5t-215 75.5q-104 0 -184 -47t-123 -120.5t-43 -151.5q0 -74 32.5 -144.5t98.5 -181.5l53 -88l307 -4q45 0 45 -29q0 -16 -10 -22t-35 -6l-280 2q31 -78 30 -166q0 -147 -78 -262q37 -8 119 -41q80 -31 139.5 -47.5 t120.5 -16.5q55 0 89 15.5t54.5 42t49.5 77.5q14 27 31 27q8 0 19 -8t11 -19q0 -6 -4 -18q-39 -86 -98.5 -129t-155.5 -43q-63 0 -116.5 15.5t-129.5 43.5q-66 27 -109.5 39.5t-88.5 12.5q-66 0 -106 -25t-63.5 -49.5t-29.5 -30.5q-8 -8 -12 -11t-10 -3q-12 0 -21.5 9 t-9.5 17z" />
<glyph unicode="&#xa4;" horiz-adv-x="1716" d="M225 696q0 121 46 233.5t128 200.5l-139 148q-12 12 -12 29q0 14 10 25t25 11q16 0 32 -20l136 -145q176 154 411 153q119 0 224.5 -40t185.5 -107l129 139q25 27 49 16q20 -8 20 -28q0 -18 -14 -33l-133 -141q78 -84 123 -199t45 -240q0 -254 -182 -440 q133 -141 155 -170q6 -8 6 -18q0 -14 -11 -23.5t-19 -9.5q-17 0 -33 18l-147 158q-84 -70 -187.5 -108.5t-214.5 -38.5q-109 0 -211 37.5t-190 109.5l-148 -158q-23 -25 -45 -14q-18 8 -18 29q0 10 6 18t36.5 41t61.5 68l58 61q-88 92 -135.5 204.5t-47.5 233.5zM289 709 q0 -158 77.5 -290t209 -210t284.5 -78q150 0 280 74t208.5 205t78.5 295t-78.5 292.5t-208.5 200.5t-278 72q-150 0 -281.5 -73t-211.5 -202t-80 -286z" />
<glyph unicode="&#xa5;" horiz-adv-x="1245" d="M123 1399q0 10 9 17t24 7q16 0 22 -7t9 -18.5t6 -15.5q70 -197 186 -389q158 -260 244 -260q43 0 107.5 68.5t139.5 193.5q49 82 90 169t99 227q8 20 13 27t18 7q35 0 34 -26q0 -6 -6 -23q-72 -170 -105.5 -240.5t-90.5 -166.5q-126 -209 -224 -277l275 4q20 0 31.5 -10 t11.5 -20t-11.5 -19.5t-31.5 -9.5l-322 -4l2 -146l320 5q20 0 31.5 -10.5t11.5 -20.5t-11.5 -19.5t-31.5 -9.5l-318 -4l4 -379q0 -39 -32 -39q-33 0 -33 37l-4 379l-326 -4q-20 0 -31.5 11t-11.5 22q0 8 11.5 17t31.5 9l326 4l-2 146l-324 -4q-20 0 -31.5 11t-11.5 21 q0 8 11.5 17.5t31.5 9.5l281 4q-47 31 -96.5 94.5t-120.5 180.5q-72 117 -113 203.5t-90 222.5q-2 2 -2 8z" />
<glyph unicode="&#xa6;" horiz-adv-x="489" d="M205 -150l14 814q0 43 31 43q18 0 24.5 -10.5t6.5 -32.5l-13 -814q0 -39 -30 -38q-33 -1 -33 38zM207 1729q0 16 9 26t24 10q29 0 28 -36l17 -811q0 -37 -31 -37t-31 37z" />
<glyph unicode="&#xa7;" horiz-adv-x="1263" d="M184 705q0 92 44 177t116 134q-82 88 -82 203q0 94 52.5 170.5t147.5 121.5t216 45q164 0 268.5 -94t104.5 -245q0 -23 -6.5 -32t-22.5 -9q-31 0 -31 28q0 127 -81 209t-232 82q-154 0 -254 -74.5t-100 -201.5q0 -100 74.5 -179t285.5 -139q223 -61 309 -151.5t86 -198.5 q0 -74 -48 -151.5t-138 -118.5q59 -45 89 -114t30 -173q0 -74 -41 -149.5t-129 -127t-221 -51.5q-131 0 -228.5 57.5t-151 154.5t-53.5 214q0 18 6.5 26.5t24.5 8.5q31 0 31 -33q0 -98 41 -181t125 -134t207 -51q115 0 188.5 42t106 103t32.5 121q0 143 -92 222t-280 124 q-186 45 -290 132t-104 233zM248 723q0 -78 26.5 -133t102.5 -103.5t223 -89.5q158 -43 223 -75q86 29 140.5 94t54.5 139q0 100 -90 170t-283 125q-156 43 -254 121q-61 -31 -102 -100.5t-41 -147.5z" />
<glyph unicode="&#xa8;" horiz-adv-x="770" d="M76 1292q0 39 23.5 61.5t64.5 22.5t65.5 -22.5t24.5 -61.5t-24.5 -64.5t-65.5 -25.5q-39 0 -63.5 24.5t-24.5 65.5zM518 1292q0 39 23.5 61.5t64.5 22.5t64.5 -22.5t23.5 -61.5q0 -41 -24.5 -65.5t-63.5 -24.5t-63.5 24.5t-24.5 65.5z" />
<glyph unicode="&#xa9;" horiz-adv-x="1810" d="M184 731q0 182 86 348t255 270.5t405 104.5q231 0 388 -113.5t232.5 -282.5t75.5 -337q0 -184 -79 -349t-236.5 -268.5t-380.5 -103.5q-229 0 -399.5 106.5t-258.5 274.5t-88 350zM248 741q0 -180 88 -335.5t243.5 -249t350.5 -93.5q184 0 327.5 86.5t224.5 236t81 329.5 q0 156 -69 311.5t-212 260t-352 104.5q-203 0 -358.5 -92.5t-239.5 -242t-84 -315.5zM535 688q0 139 57 244.5t148 162t192 56.5q82 0 131 -25.5t119 -99.5l2 100q0 18 24 19q27 0 27 -15q0 -102 -5 -143t-34 -41q-16 0 -25 8q-74 78 -119.5 108t-117.5 30q-84 0 -163 -48.5 t-129 -140.5t-50 -215q0 -182 96 -261t250 -79q145 0 208.5 73t63.5 161q0 20 29 20t29 -20q-2 -125 -89 -208t-249 -83q-100 0 -189.5 40t-147.5 129t-58 228z" />
<glyph unicode="&#xaa;" horiz-adv-x="679" d="M82 1219q0 106 59.5 189t171.5 83q61 0 108.5 -23.5t67.5 -60.5l3 61q0 16 22 17q10 0 19.5 -5t7.5 -12q-4 -18 -5 -40.5t-4 -43.5q-6 -80 -6 -249q0 -61 4.5 -85t13.5 -29t38 -9q10 -2 13 -5t3 -12q0 -12 -5 -21t-11 -9q-47 0 -70 18t-27 55q-27 -41 -65.5 -58 t-97.5 -17q-135 0 -187.5 80.5t-52.5 175.5zM133 1221q0 -76 38 -141.5t138 -65.5q164 0 166 135l2 160q0 76 -51 104.5t-107 28.5q-100 0 -143 -69.5t-43 -151.5z" />
<glyph unicode="&#xab;" horiz-adv-x="1103" d="M123 752q0 45 60.5 114.5t164 133t223.5 98.5q12 4 31 4q27 0 27 -29q0 -33 -47 -43q-100 -20 -191.5 -76.5t-148 -116t-56.5 -83.5q0 -27 55.5 -84.5t140.5 -111.5t171 -79q23 -6 34 -18t11 -25q0 -12 -8 -19t-21 -7q-8 0 -12 2q-117 35 -217 97t-158.5 130t-58.5 113z M485 741q0 45 62.5 114t166 132.5t222.5 99.5q4 2 12 3q14 0 23.5 -10.5t9.5 -24.5q0 -16 -7 -23.5t-28 -13.5q-104 -29 -194 -83t-142.5 -109.5t-52.5 -86.5q0 -27 49 -79t132 -106t180 -85q45 -14 45 -41q0 -12 -8.5 -20.5t-20.5 -10.5q-8 0 -12 2q-117 37 -217.5 99.5 t-160 129t-59.5 113.5z" />
<glyph unicode="&#xac;" horiz-adv-x="1556" d="M123 924q0 20 10 26t33 6l649 2q385 0 580 3q33 0 32 -27l7 -496q0 -39 -33 -39q-31 0 -31 43q0 303 -4 453q-143 0 -223 2l-342 2l-625 -2h-12q-23 0 -32 5t-9 22z" />
<glyph unicode="&#xad;" horiz-adv-x="780" d="M82 567q0 35 27 35q143 6 546 6q43 0 43 -39q0 -16 -12 -25t-35 -9q-182 0 -461 -9l-79 -2q-13 0 -21 12.5t-8 30.5z" />
<glyph unicode="&#xae;" horiz-adv-x="1810" d="M184 733q0 180 87 346t254 270.5t395 104.5q239 0 399 -113.5t233.5 -284.5t73.5 -345q0 -178 -79 -342t-237.5 -266.5t-383.5 -102.5q-229 0 -397.5 106.5t-256.5 275.5t-88 351zM248 733q0 -174 88 -327.5t243.5 -248t348.5 -94.5q184 0 328.5 86.5t225.5 233.5t81 324 q0 162 -69 318.5t-212 261t-358 104.5q-201 0 -354.5 -93.5t-237.5 -244t-84 -320.5zM618 1024q0 8 8.5 15.5t14.5 9.5l25 10l-2 49q0 23 24 22q10 0 17.5 -5t7.5 -13v-33q119 49 223 49q119 0 204 -64.5t85 -180.5q0 -121 -88 -179.5t-238 -60.5q-76 0 -139 25l438 -320 q8 -6 8 -14q0 -12 -9 -24.5t-19 -12.5q-2 0 -15 6l-434 320v-306q0 -29 -27 -28q-29 0 -28 28l2 179v221q0 88 -8 284l-6 -2q-12 -6 -21 -6q-10 0 -16.5 10.5t-6.5 20.5zM715 1026l8 -289q74 -37 172 -37q119 0 196.5 44t77.5 143q0 88 -66.5 137t-178.5 49 q-61 0 -107.5 -11t-101.5 -36z" />
<glyph unicode="&#xaf;" horiz-adv-x="718" d="M41 1325q0 33 37 25q68 -14 147 -15q47 0 142 8q98 8 153 9q18 0 60 -4q41 -4 63 -5q16 0 25.5 -9t9.5 -21t-8 -19.5t-23 -7.5l-57 4q-41 4 -58 4q-66 0 -155 -8q-86 -8 -129 -8l-88 -2q-55 0 -94 14q-14 4 -19.5 11.5t-5.5 23.5z" />
<glyph unicode="&#xb0;" horiz-adv-x="759" d="M82 1436q0 88 41 157.5t110.5 109.5t149.5 40q88 0 155.5 -42t103.5 -108.5t36 -136.5q0 -92 -45 -160.5t-114.5 -104.5t-143.5 -36q-131 0 -212 80t-81 201zM143 1436q0 -100 70 -159.5t162 -59.5q104 0 172.5 65.5t68.5 169.5q0 49 -24.5 101.5t-78.5 89t-138 36.5 q-76 0 -128 -36.5t-78 -93t-26 -113.5z" />
<glyph unicode="&#xb1;" horiz-adv-x="1064" d="M145 735q0 29 37 29l324 -2v282q0 29 33 29q18 0 24 -7t6 -22v-284l305 -2q31 0 39.5 -7.5t8.5 -23.5q0 -31 -45 -31l-308 2v-278q0 -16 -9 -27.5t-23 -11.5q-16 0 -22.5 10t-6.5 33l-2 276l-328 2q-33 0 -33 33zM190 160q0 18 8.5 25.5t37.5 7.5l604 6q24 0 34.5 -8.5 t10.5 -26.5q0 -14 -11.5 -20.5t-39.5 -6.5l-607 -6q-20 0 -28.5 6t-8.5 23z" />
<glyph unicode="&#xb2;" horiz-adv-x="733" d="M61 770q18 109 101.5 205t232.5 201q190 131 191 290q0 94 -64.5 155.5t-165.5 61.5q-98 0 -154.5 -65.5t-56.5 -153.5q0 -29 -34 -28q-20 0 -28.5 10t-8.5 33q0 70 36.5 131t103.5 100t155 39q131 0 210.5 -81t79.5 -202q0 -195 -225 -346q-100 -68 -183 -150.5 t-104 -158.5q111 4 213 4l179 -2q41 -2 98 -2q16 0 25.5 -9t9.5 -24q0 -16 -10.5 -25.5t-24.5 -9.5l-82 2q-74 6 -195 7q-53 0 -147 -4l-127 -3q-27 0 -25 25z" />
<glyph unicode="&#xb3;" horiz-adv-x="833" d="M61 1085q0 35 7.5 48.5t27.5 13.5q37 0 37 -37q4 -76 21.5 -137.5t83 -110.5t196.5 -49q137 0 201.5 57.5t64.5 155.5q0 117 -72.5 154t-181.5 45q-18 2 -24 7t-6 21q0 37 28 37q131 12 182.5 58.5t51.5 124.5q0 92 -58.5 151t-148.5 59t-157.5 -56t-67.5 -138 q0 -25 8 -57v-9q0 -27 -35 -26q-27 0 -35 22q-10 27 -10 74q0 72 40 130t106.5 92t142.5 34q78 0 144.5 -34t105.5 -94t39 -136t-40 -136.5t-108 -86.5q82 -27 125 -98.5t43 -149.5q0 -63 -31.5 -125t-106.5 -103t-196 -41q-162 0 -269.5 82t-107.5 258z" />
<glyph unicode="&#xb4;" horiz-adv-x="770" d="M260 1169v7q0 12 14 28l177 215q18 23 28 30t25 7q14 0 23.5 -10t9.5 -25q0 -18 -33 -55l-178 -190q-12 -12 -21.5 -18.5t-19.5 -6.5q-9 0 -16 5t-9 13z" />
<glyph unicode="&#xb6;" horiz-adv-x="1163" d="M102 1044q0 238 169 361t456 123q78 0 152 -4q57 -2 57 -54v-1490q0 -23 -5 -32t-26 -9q-14 0 -20 8t-6 28l-7 1465q0 23 -19 30t-75 7q-66 0 -86 -8.5t-20 -36.5l2 -1457q0 -37 -29 -36q-29 -1 -29 36l-2 600q-135 0 -251.5 51.5t-188.5 157t-72 260.5z" />
<glyph unicode="&#xb7;" horiz-adv-x="892" d="M311 713q0 57 41 96t97 39q55 0 94 -39t39 -96q0 -61 -39 -97t-94 -36q-56 0 -97 38.5t-41 94.5z" />
<glyph unicode="&#xb8;" horiz-adv-x="770" d="M115 -410q2 12 12 17.5t27 1.5q29 -8 64.5 -16.5t66.5 -8.5q72 0 118 28t46 89q0 53 -48.5 79.5t-136.5 41.5q-39 6 -33 28l115 175q2 2 9 11t18 9q10 0 25.5 -9t15.5 -20q0 -4 -6 -14l-84 -131q86 -18 138 -57t52 -99q0 -92 -69.5 -140t-168.5 -48q-55 0 -141 29 q-12 4 -17 14t-3 20z" />
<glyph unicode="&#xb9;" horiz-adv-x="520" d="M61 1460q0 14 17 35q113 137 178 223q18 23 47 23q23 0 38 -11.5t15 -37.5v-912q0 -35 -37 -35q-35 0 -34 35v862l-33 -45q-55 -80 -135 -159q-6 -6 -23 -6q-14 0 -23.5 8t-9.5 20z" />
<glyph unicode="&#xba;" horiz-adv-x="673" d="M82 1196q0 133 65.5 207t190.5 74q104 0 179 -71t75 -198q0 -131 -70.5 -191.5t-189.5 -60.5q-99 0 -174.5 57.5t-75.5 182.5zM131 1196q0 -94 60.5 -142t140.5 -48q94 0 152.5 48t58.5 140q0 109 -60.5 171t-144.5 62q-100 0 -153.5 -61t-53.5 -170z" />
<glyph unicode="&#xbb;" horiz-adv-x="1103" d="M123 444q0 16 7 23.5t28 13.5q104 29 194 83t142.5 109.5t52.5 86.5q0 27 -48 75t-131 101t-182 94q-45 20 -45 41q0 14 8.5 22.5t22.5 8.5q6 0 10 -2q190 -94 313 -185.5t123 -156.5q0 -45 -62 -112.5t-165.5 -132t-222.5 -101.5l-18 -4q-27 -1 -27 36zM475 426 q0 33 47 43q100 20 191.5 76.5t148 116t56.5 83.5q0 27 -55.5 84.5t-140.5 111.5t-171 79q-23 6 -34 18.5t-11 24.5q0 10 7 17t17 10q10 0 17 -3q117 -35 217 -97t158.5 -129.5t58.5 -112.5t-60.5 -115t-164 -133.5t-224.5 -98.5q-16 -4 -24 -4q-14 0 -23.5 8.5t-9.5 20.5z " />
<glyph unicode="&#xbc;" horiz-adv-x="1691" d="M61 1290q0 14 17 35q113 137 178 223q18 23 47 23q23 0 38 -11.5t15 -37.5v-912q0 -35 -37 -35q-35 0 -34 35v863l-33 -46q-55 -80 -135 -159q-6 -6 -23 -6q-14 0 -23.5 8t-9.5 20zM262 41q0 10 12 31l867 1454q25 41 49 41q14 0 25.5 -10.5t11.5 -28.5q0 -13 -4 -21 l-879 -1466q-20 -37 -47 -37q-14 0 -24.5 9.5t-10.5 27.5zM848 346q0 16 8 31q94 188 188.5 337.5t210.5 274.5q8 8 25 8q14 0 23.5 -9t9.5 -21q0 -16 -23 -39q-106 -117 -198.5 -260.5t-157.5 -282.5q-2 -2 -2 -8q0 -10 16 -12q72 -14 213 -15q74 0 201 4l14 348 q0 35 35 35q41 0 37 -43l-14 -336q43 4 161 17h4q12 0 21.5 -8.5t9.5 -24.5q0 -33 -28 -35q-61 -6 -170 -14l-13 -279q0 -16 -9 -25t-26 -9q-37 0 -36 40l12 271q-135 -4 -221 -4q-137 0 -265 26q-27 6 -26 33z" />
<glyph unicode="&#xbd;" horiz-adv-x="1693" d="M61 1290q0 14 17 35q113 137 178 223q18 23 47 23q23 0 38 -11.5t15 -37.5v-912q0 -35 -37 -35q-35 0 -34 35v863l-33 -46q-55 -80 -135 -159q-6 -6 -23 -6q-14 0 -23.5 8t-9.5 20zM262 41q0 10 12 31l867 1454q25 41 49 41q14 0 25.5 -10.5t11.5 -28.5q0 -13 -4 -21 l-879 -1466q-20 -37 -47 -37q-14 0 -24.5 9.5t-10.5 27.5zM1022 18q18 109 101 205t233 201q190 131 190 291q0 94 -64.5 155.5t-164.5 61.5q-98 0 -154.5 -65.5t-56.5 -153.5q0 -29 -35 -29q-20 0 -28.5 10.5t-8.5 32.5q0 70 37 131.5t103.5 100t154.5 38.5 q131 0 211 -80.5t80 -201.5q0 -195 -225 -346q-100 -68 -183.5 -151t-103.5 -159q111 4 213 4l178 -2q41 -2 98 -2q17 0 26 -9t9 -23q0 -16 -10 -25.5t-25 -9.5l-81 2q-74 6 -195 6q-53 0 -147 -4l-127 -2q-27 0 -25 24z" />
<glyph unicode="&#xbe;" horiz-adv-x="2009" d="M61 905q0 35 7.5 48.5t27.5 13.5q37 0 37 -37q4 -76 21.5 -137.5t83 -110.5t196.5 -49q137 0 201.5 57.5t64.5 155.5q0 117 -72.5 153.5t-181.5 44.5q-18 2 -24 7.5t-6 21.5q0 37 28 37q131 12 182.5 58t51.5 124q0 92 -58.5 151.5t-148.5 59.5t-157.5 -56t-67.5 -138 q0 -25 8 -58v-8q0 -27 -35 -26q-27 0 -35 22q-10 27 -10 74q0 72 40 130t106.5 92t142.5 34q78 0 144.5 -34t105.5 -94.5t39 -135.5q0 -76 -40 -136.5t-108 -87.5q82 -27 125 -98.5t43 -148.5q0 -64 -31.5 -125.5t-106.5 -102.5t-196 -41q-162 0 -269.5 82t-107.5 258z M580 41q0 10 12 31l866 1454q25 41 49 41q14 0 25.5 -10.5t11.5 -28.5q0 -13 -4 -21l-878 -1466q-20 -37 -48 -37q-14 0 -24 9.5t-10 27.5zM1165 346q0 16 9 31q94 188 188 337.5t211 274.5q8 8 24 8q14 0 23.5 -9t9.5 -21q0 -16 -22 -39q-106 -117 -198.5 -260.5 t-158.5 -282.5q-2 -2 -2 -8q0 -10 17 -12q72 -14 213 -15q74 0 200 4l15 348q0 35 35 35q41 0 36 -43l-14 -336q43 4 162 17h4q12 0 21.5 -8.5t9.5 -24.5q0 -33 -29 -35q-61 -6 -170 -14l-12 -279q0 -16 -9.5 -25t-25.5 -9q-37 0 -37 40l12 271q-135 -4 -221 -4 q-137 0 -264 26q-27 6 -27 33z" />
<glyph unicode="&#xbf;" horiz-adv-x="1050" d="M123 143q0 96 46 171t138 175q90 98 135 171t45 167q0 43 35 43q29 0 29 -43q0 -76 -26.5 -139t-63.5 -110.5t-101 -116.5q-88 -94 -131 -162t-43 -156q0 -147 92.5 -241.5t239.5 -94.5q346 0 346 297q0 74 -48 133.5t-126 59.5q-23 0 -31 8t-8 29q0 27 41 26 q98 0 167 -75.5t69 -180.5q0 -168 -107.5 -264t-298.5 -96q-129 0 -219 58.5t-135 149.5t-45 191zM436 1100q0 35 24.5 59.5t57.5 24.5q35 0 60.5 -24.5t25.5 -59.5q0 -33 -25.5 -57.5t-60.5 -24.5q-33 0 -57.5 24.5t-24.5 57.5z" />
<glyph unicode="&#xc0;" horiz-adv-x="1292" d="M123 10l2 13q205 610 276 829l127 379q41 121 71 172t67 51q66 0 125 -203q37 -127 76.5 -257t80.5 -265l88 -285h64q12 0 19 -8t7 -20t-7 -20.5t-21 -8.5h-43l110 -364q4 -9 4 -17q0 -12 -12 -19t-24 -7q-16 0 -25 18l-119 389l-680 4l-127 -383q-4 -12 -10 -17t-18 -5 q-14 0 -22.5 7t-8.5 17zM330 453l641 -7q-160 530 -236 797q-18 68 -39.5 111t-33.5 43q-18 0 -72 -160zM543 1801q0 14 8.5 22t20.5 8q20 0 51 -37l149 -174q20 -23 21 -34q0 -10 -7 -17.5t-16 -7.5q-16 0 -36 20l-162 177q-2 2 -11.5 11t-13.5 16t-4 16z" />
<glyph unicode="&#xc1;" horiz-adv-x="1292" d="M123 10l2 13q205 610 276 829l127 379q41 121 71 172t67 51q66 0 125 -203q37 -127 76.5 -257t80.5 -265l88 -285h64q12 0 19 -8t7 -20t-7 -20.5t-21 -8.5h-43l110 -364q4 -9 4 -17q0 -12 -12 -19t-24 -7q-16 0 -25 18l-119 389l-680 4l-127 -383q-4 -12 -10 -17t-18 -5 q-14 0 -22.5 7t-8.5 17zM330 453l641 -7q-160 530 -236 797q-18 68 -39.5 111t-33.5 43q-18 0 -72 -160zM584 1586q0 12 21 34l149 174q31 37 51 37q12 0 20.5 -8t8.5 -22q0 -10 -7 -19.5t-13.5 -15.5t-8.5 -8l-162 -177q-20 -20 -36 -20q-9 0 -16 7t-7 18z" />
<glyph unicode="&#xc2;" horiz-adv-x="1292" d="M123 10l2 13q205 610 276 829l127 379q41 121 71 172t67 51q66 0 125 -203q37 -127 76.5 -257t80.5 -265l88 -285h64q12 0 19 -8t7 -20t-7 -20.5t-21 -8.5h-43l110 -364q4 -9 4 -17q0 -12 -12 -19t-24 -7q-16 0 -25 18l-119 389l-680 4l-127 -383q-4 -12 -10 -17t-18 -5 q-14 0 -22.5 7t-8.5 17zM330 453l641 -7q-160 530 -236 797q-18 68 -39.5 111t-33.5 43q-18 0 -72 -160zM387 1620q0 12 13 25l49 51q72 80 127 131t90 51q49 0 123 -78.5t137 -175.5q8 -12 8 -18q0 -8 -8 -16.5t-18 -8.5q-17 1 -27 15q-66 98 -127 162.5t-86 64.5 q-20 0 -79.5 -57.5t-131.5 -143.5q-25 -31 -41 -30q-10 0 -19.5 9t-9.5 19z" />
<glyph unicode="&#xc3;" horiz-adv-x="1292" d="M123 10l2 13q205 610 276 829l127 379q41 121 71 172t67 51q66 0 125 -203q37 -127 76.5 -257t80.5 -265l88 -285h64q12 0 19 -8t7 -20t-7 -20.5t-21 -8.5h-43l110 -364q4 -9 4 -17q0 -12 -12 -19t-24 -7q-16 0 -25 18l-119 389l-680 4l-127 -383q-4 -12 -10 -17t-18 -5 q-14 0 -22.5 7t-8.5 17zM330 453l641 -7q-160 530 -236 797q-18 68 -39.5 111t-33.5 43q-18 0 -72 -160zM369 1618q0 10 10 21q43 53 75 75.5t81 22.5q86 0 164 -41q6 -4 33.5 -18.5t52 -22.5t43.5 -8q39 0 80 45q18 20 30 21q6 0 17.5 -11.5t11.5 -19.5q0 -12 -8 -21 q-37 -37 -67.5 -53t-67.5 -16q-29 0 -59.5 13t-35.5 15q-37 20 -59 27q-12 4 -59 22.5t-76 18.5q-20 0 -39.5 -14.5t-37 -33t-25.5 -26.5q-23 -23 -37 -22q-10 0 -17 6q-10 10 -10 20z" />
<glyph unicode="&#xc4;" horiz-adv-x="1292" d="M123 10l2 13q205 610 276 829l127 379q41 121 71 172t67 51q66 0 125 -203q37 -127 76.5 -257t80.5 -265l88 -285h64q12 0 19 -8t7 -20t-7 -20.5t-21 -8.5h-43l110 -364q4 -9 4 -17q0 -12 -12 -19t-24 -7q-16 0 -25 18l-119 389l-680 4l-127 -383q-4 -12 -10 -17t-18 -5 q-14 0 -22.5 7t-8.5 17zM330 453l641 -7q-160 530 -236 797q-18 68 -39.5 111t-33.5 43q-18 0 -72 -160zM367 1692q0 33 21.5 53.5t56.5 20.5t57.5 -20.5t22.5 -53.5q0 -35 -22.5 -57.5t-57.5 -22.5t-56.5 22.5t-21.5 57.5zM809 1692q0 33 21.5 53.5t56.5 20.5t56.5 -20.5 t21.5 -53.5q0 -35 -21.5 -57.5t-56.5 -22.5t-56.5 22.5t-21.5 57.5z" />
<glyph unicode="&#xc5;" horiz-adv-x="1292" d="M123 10l2 13q205 610 276 829l127 379q41 121 71 172t67 51q66 0 125 -203q37 -127 76.5 -257t80.5 -265l88 -285h64q12 0 19 -8t7 -20t-7 -20.5t-21 -8.5h-43l110 -364q4 -9 4 -17q0 -12 -12 -19t-24 -7q-16 0 -25 18l-119 389l-680 4l-127 -383q-4 -12 -10 -17t-18 -5 q-14 0 -22.5 7t-8.5 17zM330 453l641 -7q-160 530 -236 797q-18 68 -39.5 111t-33.5 43q-18 0 -72 -160zM478 1700q0 78 56 131.5t140 53.5q78 0 130 -56.5t52 -128.5q0 -84 -53 -137t-135 -53q-80 0 -135 55t-55 135zM533 1700q0 -57 39 -96t96 -39t96 39t39 96 q0 51 -39 91t-96 40q-59 0 -97 -40t-38 -91z" />
<glyph unicode="&#xc6;" horiz-adv-x="1878" d="M125 37l18 39q254 545 471 940t340 397q6 2 23 2q272 10 399 10q90 0 240.5 -9t159.5 -9q20 0 20 -27q0 -16 -10 -25t-19 -9q-8 0 -150 7t-294 7q-195 0 -276 -6q8 -139 8 -316q0 -86 -4 -250l307 -6q201 -4 235 -6q10 0 18.5 -9t8.5 -24q0 -18 -13.5 -23t-37.5 -5 l-223 6q-111 6 -160 6h-137l-35 -565l-6 -90l137 -11q207 -18 328 -18q68 0 117.5 5t142.5 18h10q16 0 28.5 -8.5t12.5 -20.5q0 -20 -39 -33q-55 -16 -221 -16q-76 0 -219 8q-225 10 -340 10q-39 0 -63.5 2t-30 7t-5.5 18q0 27 13.5 33t58.5 6q12 96 27 315l-603 4 q-88 -180 -104 -217q-29 -61 -70 -143q-8 -18 -14 -23.5t-12 -5.5q-18 0 -30.5 11.5t-6.5 23.5zM393 453l576 -9q18 383 18 605q0 178 -10 305h-4q-143 -4 -580 -901z" />
<glyph unicode="&#xc7;" horiz-adv-x="1409" d="M102 674q0 236 95.5 415t251 274t331.5 95q131 0 238.5 -60.5t187.5 -172.5l-2 192q0 14 9.5 22.5t23.5 8.5q16 0 25.5 -7t9.5 -22v-266q0 -14 -10.5 -23.5t-24.5 -9.5t-23.5 4t-19.5 19q-90 129 -186.5 190.5t-227.5 61.5q-156 0 -298 -93.5t-229 -258t-87 -369.5 q0 -211 91 -349.5t232.5 -202t298.5 -63.5q127 0 242 58.5t185.5 158t70.5 213.5q0 16 9.5 26.5t23.5 10.5q16 0 22.5 -7t6.5 -30q0 -133 -75 -245.5t-203 -180t-282 -67.5q-33 0 -49 2l-80 -127q86 -18 138.5 -57t52.5 -99q0 -92 -69.5 -140t-168.5 -48q-55 0 -141 29 q-12 4 -17 14t-3 20q2 12 12 17.5t26 1.5q29 -8 65 -16.5t67 -8.5q72 0 117.5 28t45.5 89q0 53 -48 79.5t-136 41.5q-39 6 -33 28l101 154q-152 23 -280 98.5t-207 219t-79 352.5z" />
<glyph unicode="&#xc8;" horiz-adv-x="1175" d="M164 80q0 33 33 33l41 -2q20 158 31.5 296t13.5 322h-58q-35 0 -35 33q0 14 9.5 22.5t23.5 8.5h60v38v177q0 250 -7 342q-29 0 -38 6t-9 22q0 18 9.5 25.5t31.5 9.5q160 12 367 12q158 0 243 -4t181 -14q33 -4 33 -31q0 -16 -10.5 -24.5t-24.5 -5.5q-103 10 -182.5 14 t-210.5 4q-123 0 -328 -10q8 -186 8 -523v-40q131 -4 201 -5q88 0 215 -4l119 -4q33 0 32 -35q0 -14 -6 -21t-24 -7l-117 4l-225 6q-68 2 -195 2q-2 -160 -11 -280.5t-26 -282.5l-6 -60q176 -14 406 -14q117 0 178 4t155 15h9q31 0 30 -35q0 -12 -6 -19.5t-24 -9.5 q-84 -16 -310 -16h-77q-242 0 -467 20q-33 2 -33 31zM514 1801q0 14 8.5 22t20.5 8q20 0 51 -37l149 -174q20 -23 21 -34q0 -10 -7 -17.5t-16 -7.5q-16 0 -36 20l-162 177q-2 2 -11.5 11t-13.5 16t-4 16z" />
<glyph unicode="&#xc9;" horiz-adv-x="1175" d="M164 80q0 33 33 33l41 -2q20 158 31.5 296t13.5 322h-58q-35 0 -35 33q0 14 9.5 22.5t23.5 8.5h60v38v177q0 250 -7 342q-29 0 -38 6t-9 22q0 18 9.5 25.5t31.5 9.5q160 12 367 12q158 0 243 -4t181 -14q33 -4 33 -31q0 -16 -10.5 -24.5t-24.5 -5.5q-103 10 -182.5 14 t-210.5 4q-123 0 -328 -10q8 -186 8 -523v-40q131 -4 201 -5q88 0 215 -4l119 -4q33 0 32 -35q0 -14 -6 -21t-24 -7l-117 4l-225 6q-68 2 -195 2q-2 -160 -11 -280.5t-26 -282.5l-6 -60q176 -14 406 -14q117 0 178 4t155 15h9q31 0 30 -35q0 -12 -6 -19.5t-24 -9.5 q-84 -16 -310 -16h-77q-242 0 -467 20q-33 2 -33 31zM555 1586q0 12 21 34l149 174q31 37 51 37q12 0 20.5 -8t8.5 -22q0 -10 -7 -19.5t-13.5 -15.5t-8.5 -8l-162 -177q-20 -20 -36 -20q-9 0 -16 7t-7 18z" />
<glyph unicode="&#xca;" horiz-adv-x="1175" d="M164 80q0 33 33 33l41 -2q20 158 31.5 296t13.5 322h-58q-35 0 -35 33q0 14 9.5 22.5t23.5 8.5h60v38v177q0 250 -7 342q-29 0 -38 6t-9 22q0 18 9.5 25.5t31.5 9.5q160 12 367 12q158 0 243 -4t181 -14q33 -4 33 -31q0 -16 -10.5 -24.5t-24.5 -5.5q-103 10 -182.5 14 t-210.5 4q-123 0 -328 -10q8 -186 8 -523v-40q131 -4 201 -5q88 0 215 -4l119 -4q33 0 32 -35q0 -14 -6 -21t-24 -7l-117 4l-225 6q-68 2 -195 2q-2 -160 -11 -280.5t-26 -282.5l-6 -60q176 -14 406 -14q117 0 178 4t155 15h9q31 0 30 -35q0 -12 -6 -19.5t-24 -9.5 q-84 -16 -310 -16h-77q-242 0 -467 20q-33 2 -33 31zM358 1620q0 12 13 25l49 51q72 80 127 131t90 51q49 0 123 -78.5t137 -175.5q8 -12 8 -18q0 -8 -8 -16.5t-18 -8.5q-17 1 -27 15q-66 98 -127 162.5t-86 64.5q-20 0 -79.5 -57.5t-131.5 -143.5q-25 -31 -41 -30 q-10 0 -19.5 9t-9.5 19z" />
<glyph unicode="&#xcb;" horiz-adv-x="1175" d="M164 80q0 33 33 33l41 -2q20 158 31.5 296t13.5 322h-58q-35 0 -35 33q0 14 9.5 22.5t23.5 8.5h60v38v177q0 250 -7 342q-29 0 -38 6t-9 22q0 18 9.5 25.5t31.5 9.5q160 12 367 12q158 0 243 -4t181 -14q33 -4 33 -31q0 -16 -10.5 -24.5t-24.5 -5.5q-103 10 -182.5 14 t-210.5 4q-123 0 -328 -10q8 -186 8 -523v-40q131 -4 201 -5q88 0 215 -4l119 -4q33 0 32 -35q0 -14 -6 -21t-24 -7l-117 4l-225 6q-68 2 -195 2q-2 -160 -11 -280.5t-26 -282.5l-6 -60q176 -14 406 -14q117 0 178 4t155 15h9q31 0 30 -35q0 -12 -6 -19.5t-24 -9.5 q-84 -16 -310 -16h-77q-242 0 -467 20q-33 2 -33 31zM338 1692q0 33 21.5 53.5t56.5 20.5t57.5 -20.5t22.5 -53.5q0 -35 -22.5 -57.5t-57.5 -22.5t-56.5 22.5t-21.5 57.5zM780 1692q0 33 21.5 53.5t56.5 20.5t56.5 -20.5t21.5 -53.5q0 -35 -21.5 -57.5t-56.5 -22.5 t-56.5 22.5t-21.5 57.5z" />
<glyph unicode="&#xcc;" horiz-adv-x="897" d="M102 1397q0 27 33 33q27 4 146.5 12t175.5 8q236 0 309 -12q29 -4 29 -31q0 -16 -10.5 -24.5t-24.5 -6.5q-53 6 -104.5 8t-129.5 2q0 -389 -8 -676.5t-33 -629.5l279 -4q31 0 31 -33t-31 -33l-625 10q-10 0 -18 9.5t-8 23.5q0 31 30 31l279 -4q23 367 32 655.5t9 650.5 q-92 -2 -258 -16l-72 -4q-14 0 -22.5 8t-8.5 23zM334 1801q0 14 8.5 22t20.5 8q20 0 51 -37l149 -174q20 -23 21 -34q0 -10 -7 -17.5t-16 -7.5q-16 0 -36 20l-162 177q-2 2 -11.5 11t-13.5 16t-4 16z" />
<glyph unicode="&#xcd;" horiz-adv-x="897" d="M102 1397q0 27 33 33q27 4 146.5 12t175.5 8q236 0 309 -12q29 -4 29 -31q0 -16 -10.5 -24.5t-24.5 -6.5q-53 6 -104.5 8t-129.5 2q0 -389 -8 -676.5t-33 -629.5l279 -4q31 0 31 -33t-31 -33l-625 10q-10 0 -18 9.5t-8 23.5q0 31 30 31l279 -4q23 367 32 655.5t9 650.5 q-92 -2 -258 -16l-72 -4q-14 0 -22.5 8t-8.5 23zM375 1586q0 12 21 34l149 174q31 37 51 37q12 0 20.5 -8t8.5 -22q0 -10 -7 -19.5t-13.5 -15.5t-8.5 -8l-162 -177q-20 -20 -36 -20q-9 0 -16 7t-7 18z" />
<glyph unicode="&#xce;" horiz-adv-x="897" d="M102 1397q0 27 33 33q27 4 146.5 12t175.5 8q236 0 309 -12q29 -4 29 -31q0 -16 -10.5 -24.5t-24.5 -6.5q-53 6 -104.5 8t-129.5 2q0 -389 -8 -676.5t-33 -629.5l279 -4q31 0 31 -33t-31 -33l-625 10q-10 0 -18 9.5t-8 23.5q0 31 30 31l279 -4q23 367 32 655.5t9 650.5 q-92 -2 -258 -16l-72 -4q-14 0 -22.5 8t-8.5 23zM178 1620q0 12 13 25l49 51q72 80 127 131t90 51q49 0 123 -78.5t137 -175.5q8 -12 8 -18q0 -8 -8 -16.5t-18 -8.5q-17 1 -27 15q-66 98 -127 162.5t-86 64.5q-20 0 -79.5 -57.5t-131.5 -143.5q-25 -31 -41 -30 q-10 0 -19.5 9t-9.5 19z" />
<glyph unicode="&#xcf;" horiz-adv-x="897" d="M102 1397q0 27 33 33q27 4 146.5 12t175.5 8q236 0 309 -12q29 -4 29 -31q0 -16 -10.5 -24.5t-24.5 -6.5q-53 6 -104.5 8t-129.5 2q0 -389 -8 -676.5t-33 -629.5l279 -4q31 0 31 -33t-31 -33l-625 10q-10 0 -18 9.5t-8 23.5q0 31 30 31l279 -4q23 367 32 655.5t9 650.5 q-92 -2 -258 -16l-72 -4q-14 0 -22.5 8t-8.5 23zM158 1692q0 33 21.5 53.5t56.5 20.5t57.5 -20.5t22.5 -53.5q0 -35 -22.5 -57.5t-57.5 -22.5t-56.5 22.5t-21.5 57.5zM600 1692q0 33 21.5 53.5t56.5 20.5t56.5 -20.5t21.5 -53.5q0 -35 -21.5 -57.5t-56.5 -22.5t-56.5 22.5 t-21.5 57.5z" />
<glyph unicode="&#xd0;" horiz-adv-x="1409" d="M41 748q0 29 49 28l246 -4l-19 598h-55q-47 0 -47 35q0 14 10.5 19.5t30.5 5.5h63q4 29 31 28q16 0 22.5 -7t8.5 -24q428 -20 677 -188t249 -508q0 -219 -106.5 -380t-310.5 -248t-487 -87h-153q-18 0 -25.5 8.5t-7.5 26.5q0 25 25 25h114l-18 641l-248 4q-27 0 -38 6 t-11 21zM383 1368l14 -598l342 -6q39 0 39 -31q0 -23 -39 -22l-340 6l19 -641q250 2 436 77.5t289.5 223t103.5 356.5q0 307 -226 462t-638 173z" />
<glyph unicode="&#xd1;" horiz-adv-x="1454" d="M164 1356q0 86 57 86q37 0 143.5 -148.5t266.5 -400.5q29 -49 50 -82t36 -53q166 -256 287.5 -434.5t181.5 -225.5q16 37 26.5 127t10.5 295l-2 901q0 35 32 35q37 0 37 -41l-2 -891q0 -215 -10 -320.5t-29.5 -140t-56.5 -34.5q-59 0 -200.5 199.5t-325.5 490.5 q-346 543 -439 645v-111l2 -272q2 -76 2 -246q0 -299 2 -401v-287q0 -8 -10 -15t-22 -7t-22.5 6t-10.5 16v682q0 193 -2 279zM438 1618q0 10 10 21q43 53 75 75.5t81 22.5q86 0 164 -41q6 -4 33.5 -18.5t52 -22.5t43.5 -8q39 0 80 45q18 20 30 21q6 0 17.5 -11.5t11.5 -19.5 q0 -12 -8 -21q-37 -37 -67.5 -53t-67.5 -16q-29 0 -59.5 13t-35.5 15q-37 20 -59 27q-12 4 -59 22.5t-76 18.5q-20 0 -39.5 -14.5t-37 -33t-25.5 -26.5q-23 -23 -37 -22q-10 0 -17 6q-10 10 -10 20z" />
<glyph unicode="&#xd2;" horiz-adv-x="1568" d="M102 698q0 215 81 385t229.5 265.5t345.5 95.5t358.5 -95.5t255.5 -267.5t94 -391q0 -229 -100 -379.5t-259 -220.5t-337 -70q-174 0 -325.5 69t-247 220.5t-95.5 388.5zM166 707q0 -229 95 -368.5t234.5 -197t280.5 -57.5q150 0 293 61.5t238.5 198.5t95.5 350 q0 197 -84 353.5t-230.5 244.5t-324.5 88q-172 0 -308.5 -83t-213 -236.5t-76.5 -353.5zM663 1801q0 14 8.5 22t20.5 8q20 0 51 -37l149 -174q20 -23 21 -34q0 -10 -7 -17.5t-16 -7.5q-16 0 -36 20l-162 177q-2 2 -11.5 11t-13.5 16t-4 16z" />
<glyph unicode="&#xd3;" horiz-adv-x="1568" d="M102 698q0 215 81 385t229.5 265.5t345.5 95.5t358.5 -95.5t255.5 -267.5t94 -391q0 -229 -100 -379.5t-259 -220.5t-337 -70q-174 0 -325.5 69t-247 220.5t-95.5 388.5zM166 707q0 -229 95 -368.5t234.5 -197t280.5 -57.5q150 0 293 61.5t238.5 198.5t95.5 350 q0 197 -84 353.5t-230.5 244.5t-324.5 88q-172 0 -308.5 -83t-213 -236.5t-76.5 -353.5zM704 1586q0 12 21 34l149 174q31 37 51 37q12 0 20.5 -8t8.5 -22q0 -10 -7 -19.5t-13.5 -15.5t-8.5 -8l-162 -177q-20 -20 -36 -20q-9 0 -16 7t-7 18z" />
<glyph unicode="&#xd4;" horiz-adv-x="1568" d="M102 698q0 215 81 385t229.5 265.5t345.5 95.5t358.5 -95.5t255.5 -267.5t94 -391q0 -229 -100 -379.5t-259 -220.5t-337 -70q-174 0 -325.5 69t-247 220.5t-95.5 388.5zM166 707q0 -229 95 -368.5t234.5 -197t280.5 -57.5q150 0 293 61.5t238.5 198.5t95.5 350 q0 197 -84 353.5t-230.5 244.5t-324.5 88q-172 0 -308.5 -83t-213 -236.5t-76.5 -353.5zM507 1620q0 12 13 25l49 51q72 80 127 131t90 51q49 0 123 -78.5t137 -175.5q8 -12 8 -18q0 -8 -8 -16.5t-18 -8.5q-17 1 -27 15q-66 98 -127 162.5t-86 64.5q-20 0 -79.5 -57.5 t-131.5 -143.5q-25 -31 -41 -30q-10 0 -19.5 9t-9.5 19z" />
<glyph unicode="&#xd5;" horiz-adv-x="1568" d="M102 698q0 215 81 385t229.5 265.5t345.5 95.5t358.5 -95.5t255.5 -267.5t94 -391q0 -229 -100 -379.5t-259 -220.5t-337 -70q-174 0 -325.5 69t-247 220.5t-95.5 388.5zM166 707q0 -229 95 -368.5t234.5 -197t280.5 -57.5q150 0 293 61.5t238.5 198.5t95.5 350 q0 197 -84 353.5t-230.5 244.5t-324.5 88q-172 0 -308.5 -83t-213 -236.5t-76.5 -353.5zM489 1618q0 10 10 21q43 53 75 75.5t81 22.5q86 0 164 -41q6 -4 33.5 -18.5t52 -22.5t43.5 -8q39 0 80 45q18 20 30 21q6 0 17.5 -11.5t11.5 -19.5q0 -12 -8 -21q-37 -37 -67.5 -53 t-67.5 -16q-29 0 -59.5 13t-35.5 15q-37 20 -59 27q-12 4 -59 22.5t-76 18.5q-20 0 -39.5 -14.5t-37 -33t-25.5 -26.5q-23 -23 -37 -22q-10 0 -17 6q-10 10 -10 20z" />
<glyph unicode="&#xd6;" horiz-adv-x="1568" d="M102 698q0 215 81 385t229.5 265.5t345.5 95.5t358.5 -95.5t255.5 -267.5t94 -391q0 -229 -100 -379.5t-259 -220.5t-337 -70q-174 0 -325.5 69t-247 220.5t-95.5 388.5zM166 707q0 -229 95 -368.5t234.5 -197t280.5 -57.5q150 0 293 61.5t238.5 198.5t95.5 350 q0 197 -84 353.5t-230.5 244.5t-324.5 88q-172 0 -308.5 -83t-213 -236.5t-76.5 -353.5zM487 1692q0 33 21.5 53.5t56.5 20.5t57.5 -20.5t22.5 -53.5q0 -35 -22.5 -57.5t-57.5 -22.5t-56.5 22.5t-21.5 57.5zM929 1692q0 33 21.5 53.5t56.5 20.5t56.5 -20.5t21.5 -53.5 q0 -35 -21.5 -57.5t-56.5 -22.5t-56.5 22.5t-21.5 57.5z" />
<glyph unicode="&#xd7;" horiz-adv-x="1064" d="M219 950q0 10 9.5 19.5t21.5 9.5t18 -9t13 -16l241 -270q41 49 74 90t61 76l84 104q14 18 23 19q12 0 23.5 -9.5t11.5 -23.5q0 -12 -11 -27l-104 -127q-94 -117 -121 -147l277 -311q6 -9 6 -19q0 -12 -8.5 -21t-20.5 -9t-20.5 10t-10.5 14l-260 291q-164 -195 -250 -293 q-12 -14 -28 -14q-10 0 -18.5 7t-8.5 15q0 10 6 19q98 121 127 153q53 63 131 160l-252 279q-14 14 -14 30z" />
<glyph unicode="&#xd8;" horiz-adv-x="1568" d="M102 10q0 10 17 31l149 176q-166 176 -166 481q0 215 81 385t229.5 265.5t345.5 95.5q119 0 228.5 -37t197.5 -104l133 155q10 12 19.5 20.5t19.5 8.5t19 -8.5t9 -20.5q0 -10 -16 -28l-139 -164q112 -103 174.5 -250.5t62.5 -325.5q0 -229 -100 -379.5t-259 -220.5 t-337 -70q-129 0 -248 38t-211 116l-137 -162q-12 -12 -20.5 -19t-18.5 -7t-21.5 7t-11.5 17zM166 707q0 -275 147 -437l832 983q-166 127 -381 127q-172 0 -308.5 -83t-213 -236.5t-76.5 -353.5zM356 229q88 -76 200 -110.5t220 -34.5q150 0 293 61.5t238.5 198.5t95.5 350 q0 160 -56.5 294t-158.5 229z" />
<glyph unicode="&#xd9;" horiz-adv-x="1255" d="M123 532q0 137 8 441q2 82 4 191.5t2 240.5q0 16 7.5 22.5t23.5 6.5q33 0 33 -33q0 -199 -6 -424q-2 -80 -4.5 -193.5t-2.5 -251.5q0 -217 104.5 -338.5t287.5 -121.5q166 0 274.5 67.5t158.5 164.5t50 190l-2 254q-6 559 -6 663q0 18 5 27.5t23 9.5q35 0 35 -37 q0 -102 4 -344l2 -238q9 -454 9 -798q0 -33 -33 -33q-16 0 -24.5 8t-8.5 27v248q-66 -125 -190.5 -200t-296.5 -75q-170 0 -272.5 82t-143.5 202t-41 242zM508 1801q0 14 8.5 22t20.5 8q20 0 51 -37l149 -174q20 -23 21 -34q0 -10 -7 -17.5t-16 -7.5q-16 0 -36 20l-162 177 q-2 2 -11.5 11t-13.5 16t-4 16z" />
<glyph unicode="&#xda;" horiz-adv-x="1255" d="M123 532q0 137 8 441q2 82 4 191.5t2 240.5q0 16 7.5 22.5t23.5 6.5q33 0 33 -33q0 -199 -6 -424q-2 -80 -4.5 -193.5t-2.5 -251.5q0 -217 104.5 -338.5t287.5 -121.5q166 0 274.5 67.5t158.5 164.5t50 190l-2 254q-6 559 -6 663q0 18 5 27.5t23 9.5q35 0 35 -37 q0 -102 4 -344l2 -238q9 -454 9 -798q0 -33 -33 -33q-16 0 -24.5 8t-8.5 27v248q-66 -125 -190.5 -200t-296.5 -75q-170 0 -272.5 82t-143.5 202t-41 242zM549 1586q0 12 21 34l149 174q31 37 51 37q12 0 20.5 -8t8.5 -22q0 -10 -7 -19.5t-13.5 -15.5t-8.5 -8l-162 -177 q-20 -20 -36 -20q-9 0 -16 7t-7 18z" />
<glyph unicode="&#xdb;" horiz-adv-x="1255" d="M123 532q0 137 8 441q2 82 4 191.5t2 240.5q0 16 7.5 22.5t23.5 6.5q33 0 33 -33q0 -199 -6 -424q-2 -80 -4.5 -193.5t-2.5 -251.5q0 -217 104.5 -338.5t287.5 -121.5q166 0 274.5 67.5t158.5 164.5t50 190l-2 254q-6 559 -6 663q0 18 5 27.5t23 9.5q35 0 35 -37 q0 -102 4 -344l2 -238q9 -454 9 -798q0 -33 -33 -33q-16 0 -24.5 8t-8.5 27v248q-66 -125 -190.5 -200t-296.5 -75q-170 0 -272.5 82t-143.5 202t-41 242zM352 1620q0 12 13 25l49 51q72 80 127 131t90 51q49 0 123 -78.5t137 -175.5q8 -12 8 -18q0 -8 -8 -16.5t-18 -8.5 q-17 1 -27 15q-66 98 -127 162.5t-86 64.5q-20 0 -79.5 -57.5t-131.5 -143.5q-25 -31 -41 -30q-10 0 -19.5 9t-9.5 19z" />
<glyph unicode="&#xdc;" horiz-adv-x="1255" d="M123 532q0 137 8 441q2 82 4 191.5t2 240.5q0 16 7.5 22.5t23.5 6.5q33 0 33 -33q0 -199 -6 -424q-2 -80 -4.5 -193.5t-2.5 -251.5q0 -217 104.5 -338.5t287.5 -121.5q166 0 274.5 67.5t158.5 164.5t50 190l-2 254q-6 559 -6 663q0 18 5 27.5t23 9.5q35 0 35 -37 q0 -102 4 -344l2 -238q9 -454 9 -798q0 -33 -33 -33q-16 0 -24.5 8t-8.5 27v248q-66 -125 -190.5 -200t-296.5 -75q-170 0 -272.5 82t-143.5 202t-41 242zM332 1692q0 33 21.5 53.5t56.5 20.5t57.5 -20.5t22.5 -53.5q0 -35 -22.5 -57.5t-57.5 -22.5t-56.5 22.5t-21.5 57.5z M774 1692q0 33 21.5 53.5t56.5 20.5t56.5 -20.5t21.5 -53.5q0 -35 -21.5 -57.5t-56.5 -22.5t-56.5 22.5t-21.5 57.5z" />
<glyph unicode="&#xdd;" horiz-adv-x="1245" d="M123 1399q0 10 9 17t24 7q16 0 22 -7t9 -18.5t6 -15.5q70 -197 186 -389q158 -260 244 -260q43 0 107.5 68.5t139.5 193.5q49 82 90 169t99 227q8 20 13 27t18 7q35 0 34 -26q0 -6 -6 -23q-72 -170 -105.5 -240.5t-90.5 -166.5q-160 -262 -271 -301l8 -619q0 -39 -32 -39 q-33 0 -33 37l-6 621q-59 25 -117.5 92t-142.5 205q-72 117 -113 203.5t-90 222.5q-2 2 -2 8zM543 1586q0 12 21 34l149 174q31 37 51 37q12 0 20.5 -8t8.5 -22q0 -10 -7 -19.5t-13.5 -15.5t-8.5 -8l-162 -177q-20 -20 -36 -20q-9 0 -16 7t-7 18z" />
<glyph unicode="&#xde;" horiz-adv-x="1263" d="M180 1118q0 12 13 21l49 30l-4 76q-14 254 -19 275v4q0 12 10.5 23.5t24.5 11.5q35 0 37 -33l10 -164q4 -109 8 -160q193 92 357 92q129 0 252.5 -52t203.5 -154.5t80 -243.5q0 -129 -68.5 -225.5t-186.5 -147.5t-261 -51q-190 0 -352 67l-6 -467q0 -14 -9.5 -23 t-21.5 -9q-18 0 -27.5 9t-9.5 34q0 12 5 64t5 274q0 133 -2 209q-2 156 -22 532l-29 -14q-8 -4 -12 -4q-8 0 -16.5 7t-8.5 19zM311 1143q8 -137 13 -273l2 -79q8 -205 8 -238q96 -35 173 -52.5t167 -17.5q123 0 229.5 46t170 131t63.5 192q0 111 -68 197t-179.5 134 t-240.5 48q-92 0 -173 -23.5t-165 -64.5z" />
<glyph unicode="&#xdf;" horiz-adv-x="1302" d="M184 72l6 815q2 295 101.5 467t337.5 172q135 0 229 -54.5t141.5 -142.5t47.5 -186q0 -51 -13.5 -104.5t-40.5 -96.5q-111 -29 -163 -80t-52 -102q0 -43 36 -79t114 -89q74 -51 120 -91t78.5 -97.5t32.5 -131.5q0 -133 -104.5 -202.5t-274.5 -69.5q-82 0 -163.5 15.5 t-131.5 41.5q-18 10 -18 27q0 14 8 24.5t21 10.5q8 0 34 -10q68 -25 119 -36.5t119 -11.5q160 0 244 57.5t84 157.5q0 59 -27 104.5t-65.5 77t-106.5 77.5q-92 61 -137 108t-45 119q0 152 241 233q27 66 27 133q0 90 -45 167t-127 123t-188 46q-178 0 -270.5 -140 t-96.5 -437l-12 -815q0 -23 -6.5 -31t-20.5 -8q-33 0 -33 39z" />
<glyph unicode="&#xe0;" horiz-adv-x="1243" d="M102 483q0 127 49.5 247t153 198t256.5 78q127 0 210 -49.5t134 -149.5l21 149q4 20 9 28.5t21 8.5q18 0 29.5 -9t9.5 -21q-18 -94 -28 -228q-8 -94 -9 -254v-139q0 -117 6.5 -170t28 -75.5t68.5 -26.5q20 -2 29.5 -7.5t9.5 -23.5q0 -33 -31 -33q-82 0 -118 33t-52 121 q-47 -82 -134 -128t-212 -46q-176 0 -276.5 82t-137.5 194.5t-37 220.5zM166 483q0 -90 30.5 -188t114.5 -171t232 -73q145 0 246.5 75t103.5 218q2 104 2 240q0 139 -58.5 219t-135 109.5t-140.5 29.5q-139 0 -228 -77t-128 -183.5t-39 -198.5zM487 1391q0 14 8.5 22 t20.5 8q20 0 51 -37l149 -174q20 -23 21 -34q0 -10 -7 -17.5t-16 -7.5q-16 0 -36 20l-162 177q-2 2 -11.5 11t-13.5 16t-4 16z" />
<glyph unicode="&#xe1;" horiz-adv-x="1243" d="M102 483q0 127 49.5 247t153 198t256.5 78q127 0 210 -49.5t134 -149.5l21 149q4 20 9 28.5t21 8.5q18 0 29.5 -9t9.5 -21q-18 -94 -28 -228q-8 -94 -9 -254v-139q0 -117 6.5 -170t28 -75.5t68.5 -26.5q20 -2 29.5 -7.5t9.5 -23.5q0 -33 -31 -33q-82 0 -118 33t-52 121 q-47 -82 -134 -128t-212 -46q-176 0 -276.5 82t-137.5 194.5t-37 220.5zM166 483q0 -90 30.5 -188t114.5 -171t232 -73q145 0 246.5 75t103.5 218q2 104 2 240q0 139 -58.5 219t-135 109.5t-140.5 29.5q-139 0 -228 -77t-128 -183.5t-39 -198.5zM528 1176q0 12 21 34 l149 174q31 37 51 37q12 0 20.5 -8t8.5 -22q0 -10 -7 -19.5t-13.5 -15.5t-8.5 -8l-162 -177q-20 -20 -36 -20q-9 0 -16 7t-7 18z" />
<glyph unicode="&#xe2;" horiz-adv-x="1243" d="M102 483q0 127 49.5 247t153 198t256.5 78q127 0 210 -49.5t134 -149.5l21 149q4 20 9 28.5t21 8.5q18 0 29.5 -9t9.5 -21q-18 -94 -28 -228q-8 -94 -9 -254v-139q0 -117 6.5 -170t28 -75.5t68.5 -26.5q20 -2 29.5 -7.5t9.5 -23.5q0 -33 -31 -33q-82 0 -118 33t-52 121 q-47 -82 -134 -128t-212 -46q-176 0 -276.5 82t-137.5 194.5t-37 220.5zM166 483q0 -90 30.5 -188t114.5 -171t232 -73q145 0 246.5 75t103.5 218q2 104 2 240q0 139 -58.5 219t-135 109.5t-140.5 29.5q-139 0 -228 -77t-128 -183.5t-39 -198.5zM331 1210q0 12 13 25l49 51 q72 80 127 131t90 51q49 0 123 -78.5t137 -175.5q8 -12 8 -18q0 -8 -8 -16.5t-18 -8.5q-17 1 -27 15q-66 98 -127 162.5t-86 64.5q-20 0 -79.5 -57.5t-131.5 -143.5q-25 -31 -41 -30q-10 0 -19.5 9t-9.5 19z" />
<glyph unicode="&#xe3;" horiz-adv-x="1243" d="M102 483q0 127 49.5 247t153 198t256.5 78q127 0 210 -49.5t134 -149.5l21 149q4 20 9 28.5t21 8.5q18 0 29.5 -9t9.5 -21q-18 -94 -28 -228q-8 -94 -9 -254v-139q0 -117 6.5 -170t28 -75.5t68.5 -26.5q20 -2 29.5 -7.5t9.5 -23.5q0 -33 -31 -33q-82 0 -118 33t-52 121 q-47 -82 -134 -128t-212 -46q-176 0 -276.5 82t-137.5 194.5t-37 220.5zM166 483q0 -90 30.5 -188t114.5 -171t232 -73q145 0 246.5 75t103.5 218q2 104 2 240q0 139 -58.5 219t-135 109.5t-140.5 29.5q-139 0 -228 -77t-128 -183.5t-39 -198.5zM313 1208q0 10 10 21 q43 53 75 75.5t81 22.5q86 0 164 -41q6 -4 33.5 -18.5t52 -22.5t43.5 -8q39 0 80 45q18 20 30 21q6 0 17.5 -11.5t11.5 -19.5q0 -12 -8 -21q-37 -37 -67.5 -53t-67.5 -16q-29 0 -59.5 13t-35.5 15q-37 20 -59 27q-12 4 -59 22.5t-76 18.5q-20 0 -39.5 -14.5t-37 -33 t-25.5 -26.5q-23 -23 -37 -22q-10 0 -17 6q-10 10 -10 20z" />
<glyph unicode="&#xe4;" horiz-adv-x="1243" d="M102 483q0 127 49.5 247t153 198t256.5 78q127 0 210 -49.5t134 -149.5l21 149q4 20 9 28.5t21 8.5q18 0 29.5 -9t9.5 -21q-18 -94 -28 -228q-8 -94 -9 -254v-139q0 -117 6.5 -170t28 -75.5t68.5 -26.5q20 -2 29.5 -7.5t9.5 -23.5q0 -33 -31 -33q-82 0 -118 33t-52 121 q-47 -82 -134 -128t-212 -46q-176 0 -276.5 82t-137.5 194.5t-37 220.5zM166 483q0 -90 30.5 -188t114.5 -171t232 -73q145 0 246.5 75t103.5 218q2 104 2 240q0 139 -58.5 219t-135 109.5t-140.5 29.5q-139 0 -228 -77t-128 -183.5t-39 -198.5zM311 1282q0 33 21.5 53.5 t56.5 20.5t57.5 -20.5t22.5 -53.5q0 -35 -22.5 -57.5t-57.5 -22.5t-56.5 22.5t-21.5 57.5zM753 1282q0 33 21.5 53.5t56.5 20.5t56.5 -20.5t21.5 -53.5q0 -35 -21.5 -57.5t-56.5 -22.5t-56.5 22.5t-21.5 57.5z" />
<glyph unicode="&#xe5;" horiz-adv-x="1243" d="M102 483q0 127 49.5 247t153 198t256.5 78q127 0 210 -49.5t134 -149.5l21 149q4 20 9 28.5t21 8.5q18 0 29.5 -9t9.5 -21q-18 -94 -28 -228q-8 -94 -9 -254v-139q0 -117 6.5 -170t28 -75.5t68.5 -26.5q20 -2 29.5 -7.5t9.5 -23.5q0 -33 -31 -33q-82 0 -118 33t-52 121 q-47 -82 -134 -128t-212 -46q-176 0 -276.5 82t-137.5 194.5t-37 220.5zM166 483q0 -90 30.5 -188t114.5 -171t232 -73q145 0 246.5 75t103.5 218q2 104 2 240q0 139 -58.5 219t-135 109.5t-140.5 29.5q-139 0 -228 -77t-128 -183.5t-39 -198.5zM422 1290q0 78 56 131.5 t140 53.5q78 0 130 -56.5t52 -128.5q0 -84 -53 -137t-135 -53q-80 0 -135 55t-55 135zM477 1290q0 -57 39 -96t96 -39t96 39t39 96q0 51 -39 91t-96 40q-59 0 -97 -40t-38 -91z" />
<glyph unicode="&#xe6;" horiz-adv-x="2009" d="M102 834q0 14 15 28q84 84 186.5 130t235.5 46q109 0 196.5 -44t144 -114.5t70.5 -146.5q49 133 171 224.5t302 91.5q137 0 248 -60.5t173.5 -159t62.5 -204.5q0 -47 -15.5 -62.5t-56.5 -17.5l-862 -23l-2 -39q-8 -227 111.5 -335.5t340.5 -108.5q129 0 218.5 58.5 t164.5 170.5q6 10 19 11q12 0 25.5 -9.5t13.5 -23.5q0 -10 -13 -29q-158 -238 -428 -237q-182 0 -303 66.5t-166 191.5q-27 -131 -145.5 -194.5t-280.5 -63.5q-217 0 -320.5 63t-103.5 197q0 324 418 331l391 9l2 22q4 92 -43 179t-135 142.5t-202 55.5q-133 0 -222.5 -48 t-160.5 -120q-6 -6 -17 -6q-12 0 -22.5 8t-10.5 21zM164 240q0 -102 88 -151.5t274 -49.5q172 0 279.5 74.5t107.5 251.5v157l-391 -8q-180 -2 -269 -72.5t-89 -201.5zM973 580l870 26v21q0 90 -52 174t-148.5 136t-219.5 52q-118 0 -219.5 -56t-163 -149.5t-67.5 -203.5z " />
<glyph unicode="&#xe7;" horiz-adv-x="1171" d="M102 494q0 135 55.5 263t169 210t277.5 82q127 0 221.5 -48.5t146.5 -115t68 -125.5q2 -4 2 -15q0 -18 -22 -24h-8q-27 0 -35 29q-16 57 -63.5 110t-123 89t-174.5 36q-141 0 -242.5 -70.5t-154.5 -183.5t-53 -233q0 -115 48 -212.5t146.5 -157.5t239.5 -60 q137 0 228.5 54t134.5 129t43 134q0 35 32 35q31 0 31 -39q0 -74 -46 -161t-149.5 -150.5t-263.5 -65.5l-1 -1l-1 -1l-84 -131q86 -18 138.5 -57t52.5 -99q0 -92 -70 -140t-168 -48q-55 0 -141 29q-12 4 -17.5 14t-3.5 20q2 12 12.5 17.5t26.5 1.5q29 -8 65 -16.5t66 -8.5 q72 0 118 28t46 89q0 53 -48 79.5t-136 41.5q-39 6 -33 28l103 156q-145 12 -242.5 83t-144 177.5t-46.5 227.5z" />
<glyph unicode="&#xe8;" horiz-adv-x="1189" d="M102 518q0 139 61.5 260t178.5 196t276 75q137 0 244 -56.5t166 -154t59 -220.5q0 -51 -12 -67t-57 -16l-852 -25q0 -121 54 -223.5t157.5 -163t240.5 -60.5q104 0 177 34t114 77t92 115q6 8 19 8q14 0 26.5 -9t12.5 -24q0 -10 -12 -26q-68 -102 -163.5 -170t-267.5 -68 q-167 0 -283 73.5t-173.5 192.5t-57.5 252zM166 571l848 27q8 0 11 4t3 21q0 102 -52 184t-144.5 130t-206.5 48q-139 0 -244 -66.5t-160 -164t-55 -183.5zM485 1391q0 14 8.5 22t20.5 8q20 0 51 -37l149 -174q20 -23 21 -34q0 -10 -7 -17.5t-16 -7.5q-16 0 -36 20l-162 177 q-2 2 -11.5 11t-13.5 16t-4 16z" />
<glyph unicode="&#xe9;" horiz-adv-x="1189" d="M102 518q0 139 61.5 260t178.5 196t276 75q137 0 244 -56.5t166 -154t59 -220.5q0 -51 -12 -67t-57 -16l-852 -25q0 -121 54 -223.5t157.5 -163t240.5 -60.5q104 0 177 34t114 77t92 115q6 8 19 8q14 0 26.5 -9t12.5 -24q0 -10 -12 -26q-68 -102 -163.5 -170t-267.5 -68 q-167 0 -283 73.5t-173.5 192.5t-57.5 252zM166 571l848 27q8 0 11 4t3 21q0 102 -52 184t-144.5 130t-206.5 48q-139 0 -244 -66.5t-160 -164t-55 -183.5zM485 1169v7q0 12 14 28l177 215q18 23 28 30t25 7q14 0 23.5 -10t9.5 -25q0 -18 -33 -55l-178 -190 q-12 -12 -21.5 -18.5t-19.5 -6.5q-9 0 -16 5t-9 13z" />
<glyph unicode="&#xea;" horiz-adv-x="1189" d="M102 518q0 139 61.5 260t178.5 196t276 75q137 0 244 -56.5t166 -154t59 -220.5q0 -51 -12 -67t-57 -16l-852 -25q0 -121 54 -223.5t157.5 -163t240.5 -60.5q104 0 177 34t114 77t92 115q6 8 19 8q14 0 26.5 -9t12.5 -24q0 -10 -12 -26q-68 -102 -163.5 -170t-267.5 -68 q-167 0 -283 73.5t-173.5 192.5t-57.5 252zM166 571l848 27q8 0 11 4t3 21q0 102 -52 184t-144.5 130t-206.5 48q-139 0 -244 -66.5t-160 -164t-55 -183.5zM329 1210q0 12 13 25l49 51q72 80 127 131t90 51q49 0 123 -78.5t137 -175.5q8 -12 8 -18q0 -8 -8 -16.5t-18 -8.5 q-17 1 -27 15q-66 98 -127 162.5t-86 64.5q-20 0 -79.5 -57.5t-131.5 -143.5q-25 -31 -41 -30q-10 0 -19.5 9t-9.5 19z" />
<glyph unicode="&#xeb;" horiz-adv-x="1189" d="M102 518q0 139 61.5 260t178.5 196t276 75q137 0 244 -56.5t166 -154t59 -220.5q0 -51 -12 -67t-57 -16l-852 -25q0 -121 54 -223.5t157.5 -163t240.5 -60.5q104 0 177 34t114 77t92 115q6 8 19 8q14 0 26.5 -9t12.5 -24q0 -10 -12 -26q-68 -102 -163.5 -170t-267.5 -68 q-167 0 -283 73.5t-173.5 192.5t-57.5 252zM166 571l848 27q8 0 11 4t3 21q0 102 -52 184t-144.5 130t-206.5 48q-139 0 -244 -66.5t-160 -164t-55 -183.5zM309 1282q0 33 21.5 53.5t56.5 20.5t57.5 -20.5t22.5 -53.5q0 -35 -22.5 -57.5t-57.5 -22.5t-56.5 22.5t-21.5 57.5z M751 1282q0 33 21.5 53.5t56.5 20.5t56.5 -20.5t21.5 -53.5q0 -35 -21.5 -57.5t-56.5 -22.5t-56.5 22.5t-21.5 57.5z" />
<glyph unicode="&#xec;" horiz-adv-x="643" d="M203 1391q0 14 8.5 22t20.5 8q20 0 51 -37l149 -174q20 -23 21 -34q0 -10 -7 -17.5t-16 -7.5q-16 0 -36 20l-162 177q-2 2 -11.5 11t-13.5 16t-4 16zM279 57l20 930q0 45 33 45q35 0 35 -45l-29 -930q0 -45 -27 -45q-32 0 -32 45z" />
<glyph unicode="&#xed;" horiz-adv-x="643" d="M244 1176q0 12 21 34l149 174q31 37 51 37q12 0 20.5 -8t8.5 -22q0 -10 -7 -19.5t-13.5 -15.5t-8.5 -8l-162 -177q-20 -20 -36 -20q-9 0 -16 7t-7 18zM279 57l20 930q0 45 33 45q35 0 35 -45l-29 -930q0 -45 -27 -45q-32 0 -32 45z" />
<glyph unicode="&#xee;" horiz-adv-x="643" d="M47 1210q0 12 13 25l49 51q72 80 127 131t90 51q49 0 123 -78.5t137 -175.5q8 -12 8 -18q0 -8 -8 -16.5t-18 -8.5q-17 1 -27 15q-66 98 -127 162.5t-86 64.5q-20 0 -79.5 -57.5t-131.5 -143.5q-25 -31 -41 -30q-10 0 -19.5 9t-9.5 19zM279 57l20 930q0 45 33 45 q35 0 35 -45l-29 -930q0 -45 -27 -45q-32 0 -32 45z" />
<glyph unicode="&#xef;" horiz-adv-x="643" d="M27 1282q0 33 21.5 53.5t56.5 20.5t57.5 -20.5t22.5 -53.5q0 -35 -22.5 -57.5t-57.5 -22.5t-56.5 22.5t-21.5 57.5zM279 57l20 930q0 45 33 45q35 0 35 -45l-29 -930q0 -45 -27 -45q-32 0 -32 45zM469 1282q0 33 21.5 53.5t56.5 20.5t56.5 -20.5t21.5 -53.5 q0 -35 -21.5 -57.5t-56.5 -22.5t-56.5 22.5t-21.5 57.5z" />
<glyph unicode="&#xf0;" horiz-adv-x="1179" d="M102 494q0 133 56.5 262t166 211t261.5 82q106 0 192 -42t162 -120q-53 147 -149 272q-80 104 -168 172l-217 -121q-16 -8 -25 -8q-10 0 -20.5 8.5t-10.5 24.5q0 8 5 14t20 15l192 110q-70 47 -126 71.5t-81 31.5q-16 6 -16 28q0 12 9 22.5t26 10.5q16 0 53 -16 q102 -43 197 -113l209 119q8 4 12 4q8 0 20.5 -12.5t12.5 -26.5q0 -10 -7.5 -17.5t-15.5 -11.5t-10 -6l-164 -92q96 -78 166 -170q119 -154 172 -327t53 -324q0 -180 -70.5 -302t-186 -180.5t-249.5 -58.5q-147 0 -252.5 67.5t-161 179t-55.5 243.5zM166 498 q0 -117 51 -214.5t144.5 -154.5t213.5 -57q111 0 210.5 51t162 154.5t62.5 254.5q0 90 -25 207q-188 246 -397 246q-117 0 -214.5 -70.5t-152.5 -183.5t-55 -233z" />
<glyph unicode="&#xf1;" horiz-adv-x="1105" d="M143 991q0 14 13.5 22.5t25.5 8.5q14 0 29 -23q61 -96 61 -184v-86q29 133 120 221t245 88q164 0 245 -116.5t81 -366.5v-510q0 -39 -31 -39q-33 0 -33 37v514q0 217 -60.5 318.5t-211.5 101.5q-131 0 -210 -87t-116 -308q-18 -111 -18 -226l2 -327q0 -25 -31 -25 q-33 0 -33 25q-4 236 -8 358q-2 74 -4 202t-2 226q0 41 -8.5 63.5t-26.5 55.5q-4 6 -22 37q-6 10 -7 20zM295 1208q0 10 10 21q43 53 75 75.5t81 22.5q86 0 164 -41q6 -4 33.5 -18.5t52 -22.5t43.5 -8q39 0 80 45q18 20 30 21q6 0 17.5 -11.5t11.5 -19.5q0 -12 -8 -21 q-37 -37 -67.5 -53t-67.5 -16q-29 0 -59.5 13t-35.5 15q-37 20 -59 27q-12 4 -59 22.5t-76 18.5q-20 0 -39.5 -14.5t-37 -33t-25.5 -26.5q-23 -23 -37 -22q-10 0 -17 6q-10 10 -10 20z" />
<glyph unicode="&#xf2;" horiz-adv-x="1239" d="M102 504q0 162 59.5 285.5t173.5 194.5t275 71q150 0 269.5 -62.5t188.5 -185.5t69 -295q0 -256 -144.5 -384t-374.5 -128q-210 0 -363 114.5t-153 389.5zM166 510q0 -164 67.5 -263.5t169 -141.5t213.5 -42q123 0 226.5 49.5t167 151t63.5 250.5q0 145 -59.5 252.5 t-165 166t-236.5 58.5q-133 0 -234.5 -59.5t-156.5 -169t-55 -252.5zM495 1391q0 14 8.5 22t20.5 8q20 0 51 -37l149 -174q20 -23 21 -34q0 -10 -7 -17.5t-16 -7.5q-16 0 -36 20l-162 177q-2 2 -11.5 11t-13.5 16t-4 16z" />
<glyph unicode="&#xf3;" horiz-adv-x="1239" d="M102 504q0 162 59.5 285.5t173.5 194.5t275 71q150 0 269.5 -62.5t188.5 -185.5t69 -295q0 -256 -144.5 -384t-374.5 -128q-210 0 -363 114.5t-153 389.5zM166 510q0 -164 67.5 -263.5t169 -141.5t213.5 -42q123 0 226.5 49.5t167 151t63.5 250.5q0 145 -59.5 252.5 t-165 166t-236.5 58.5q-133 0 -234.5 -59.5t-156.5 -169t-55 -252.5zM536 1176q0 12 21 34l149 174q31 37 51 37q12 0 20.5 -8t8.5 -22q0 -10 -7 -19.5t-13.5 -15.5t-8.5 -8l-162 -177q-20 -20 -36 -20q-9 0 -16 7t-7 18z" />
<glyph unicode="&#xf4;" horiz-adv-x="1239" d="M102 504q0 162 59.5 285.5t173.5 194.5t275 71q150 0 269.5 -62.5t188.5 -185.5t69 -295q0 -256 -144.5 -384t-374.5 -128q-210 0 -363 114.5t-153 389.5zM166 510q0 -164 67.5 -263.5t169 -141.5t213.5 -42q123 0 226.5 49.5t167 151t63.5 250.5q0 145 -59.5 252.5 t-165 166t-236.5 58.5q-133 0 -234.5 -59.5t-156.5 -169t-55 -252.5zM339 1210q0 12 13 25l49 51q72 80 127 131t90 51q49 0 123 -78.5t137 -175.5q8 -12 8 -18q0 -8 -8 -16.5t-18 -8.5q-17 1 -27 15q-66 98 -127 162.5t-86 64.5q-20 0 -79.5 -57.5t-131.5 -143.5 q-25 -31 -41 -30q-10 0 -19.5 9t-9.5 19z" />
<glyph unicode="&#xf5;" horiz-adv-x="1239" d="M102 504q0 162 59.5 285.5t173.5 194.5t275 71q150 0 269.5 -62.5t188.5 -185.5t69 -295q0 -256 -144.5 -384t-374.5 -128q-210 0 -363 114.5t-153 389.5zM166 510q0 -164 67.5 -263.5t169 -141.5t213.5 -42q123 0 226.5 49.5t167 151t63.5 250.5q0 145 -59.5 252.5 t-165 166t-236.5 58.5q-133 0 -234.5 -59.5t-156.5 -169t-55 -252.5zM321 1208q0 10 10 21q43 53 75 75.5t81 22.5q86 0 164 -41q6 -4 33.5 -18.5t52 -22.5t43.5 -8q39 0 80 45q18 20 30 21q6 0 17.5 -11.5t11.5 -19.5q0 -12 -8 -21q-37 -37 -67.5 -53t-67.5 -16 q-29 0 -59.5 13t-35.5 15q-37 20 -59 27q-12 4 -59 22.5t-76 18.5q-20 0 -39.5 -14.5t-37 -33t-25.5 -26.5q-23 -23 -37 -22q-10 0 -17 6q-10 10 -10 20z" />
<glyph unicode="&#xf6;" horiz-adv-x="1239" d="M102 504q0 162 59.5 285.5t173.5 194.5t275 71q150 0 269.5 -62.5t188.5 -185.5t69 -295q0 -256 -144.5 -384t-374.5 -128q-210 0 -363 114.5t-153 389.5zM166 510q0 -164 67.5 -263.5t169 -141.5t213.5 -42q123 0 226.5 49.5t167 151t63.5 250.5q0 145 -59.5 252.5 t-165 166t-236.5 58.5q-133 0 -234.5 -59.5t-156.5 -169t-55 -252.5zM319 1282q0 33 21.5 53.5t56.5 20.5t57.5 -20.5t22.5 -53.5q0 -35 -22.5 -57.5t-57.5 -22.5t-56.5 22.5t-21.5 57.5zM761 1282q0 33 21.5 53.5t56.5 20.5t56.5 -20.5t21.5 -53.5q0 -35 -21.5 -57.5 t-56.5 -22.5t-56.5 22.5t-21.5 57.5z" />
<glyph unicode="&#xf7;" horiz-adv-x="1064" d="M129 592q0 12 12 31q25 43 81.5 64.5t133.5 21.5q55 0 98.5 -10.5t94.5 -28.5q94 -35 182 -35q47 0 80 11t60.5 27.5t35.5 16.5q14 0 21.5 -10t7.5 -18q0 -23 -27 -37q-31 -16 -83 -30.5t-105 -14.5q-49 0 -96 11t-117 34q-94 29 -170 28q-66 0 -95.5 -17.5t-49.5 -47.5 q-16 -27 -41 -21q-23 7 -23 25zM455 397q0 35 29.5 61.5t62.5 26.5t59.5 -25.5t26.5 -62.5q0 -35 -26.5 -59.5t-63.5 -24.5q-35 0 -61.5 24.5t-26.5 59.5zM457 883q0 37 26.5 61.5t59.5 24.5t60.5 -23.5t27.5 -60.5t-25.5 -60.5t-62.5 -23.5q-35 0 -60.5 23.5t-25.5 58.5z " />
<glyph unicode="&#xf8;" horiz-adv-x="1286" d="M102 16q0 14 11 27l125 145q-88 117 -88 316q0 162 59 285.5t173 194.5t275 71q156 0 271 -64l131 154q14 18 31 18q10 0 19 -9t9 -19t-10 -23l-129 -151q96 -68 150.5 -182.5t54.5 -266.5q0 -256 -144.5 -384t-373.5 -128q-111 0 -214.5 34t-177.5 107l-112 -131 q-8 -8 -13.5 -12t-15.5 -4q-8 0 -19.5 7t-11.5 15zM213 510q0 -164 72 -268l598 698q-102 51 -224 51q-133 0 -234 -59.5t-156.5 -169t-55.5 -252.5zM322 195q63 -70 153 -101t189 -31q122 0 225.5 49.5t167 151t63.5 250.5q0 131 -49 232.5t-137 162.5z" />
<glyph unicode="&#xf9;" horiz-adv-x="1089" d="M143 471v526q0 29 31 29q14 0 23.5 -7t9.5 -22v-530q0 -205 62.5 -302t197.5 -97q195 0 276.5 175t81.5 445v316q0 35 31 34q33 0 33 -34l10 -807q0 -41 9.5 -67t23.5 -47.5t14 -31.5q0 -12 -10 -22.5t-23 -10.5q-27 0 -52 51.5t-27 116.5l-3 109q-39 -133 -134 -212 t-228 -79q-166 0 -246 116t-80 351zM399 1391q0 14 8.5 22t20.5 8q20 0 51 -37l149 -174q20 -23 21 -34q0 -10 -7 -17.5t-16 -7.5q-16 0 -36 20l-162 177q-2 2 -11.5 11t-13.5 16t-4 16z" />
<glyph unicode="&#xfa;" horiz-adv-x="1089" d="M143 471v526q0 29 31 29q14 0 23.5 -7t9.5 -22v-530q0 -205 62.5 -302t197.5 -97q195 0 276.5 175t81.5 445v316q0 35 31 34q33 0 33 -34l10 -807q0 -41 9.5 -67t23.5 -47.5t14 -31.5q0 -12 -10 -22.5t-23 -10.5q-27 0 -52 51.5t-27 116.5l-3 109q-39 -133 -134 -212 t-228 -79q-166 0 -246 116t-80 351zM440 1176q0 12 21 34l149 174q31 37 51 37q12 0 20.5 -8t8.5 -22q0 -10 -7 -19.5t-13.5 -15.5t-8.5 -8l-162 -177q-20 -20 -36 -20q-9 0 -16 7t-7 18z" />
<glyph unicode="&#xfb;" horiz-adv-x="1089" d="M143 471v526q0 29 31 29q14 0 23.5 -7t9.5 -22v-530q0 -205 62.5 -302t197.5 -97q195 0 276.5 175t81.5 445v316q0 35 31 34q33 0 33 -34l10 -807q0 -41 9.5 -67t23.5 -47.5t14 -31.5q0 -12 -10 -22.5t-23 -10.5q-27 0 -52 51.5t-27 116.5l-3 109q-39 -133 -134 -212 t-228 -79q-166 0 -246 116t-80 351zM243 1210q0 12 13 25l49 51q72 80 127 131t90 51q49 0 123 -78.5t137 -175.5q8 -12 8 -18q0 -8 -8 -16.5t-18 -8.5q-17 1 -27 15q-66 98 -127 162.5t-86 64.5q-20 0 -79.5 -57.5t-131.5 -143.5q-25 -31 -41 -30q-10 0 -19.5 9t-9.5 19z " />
<glyph unicode="&#xfc;" horiz-adv-x="1089" d="M143 471v526q0 29 31 29q14 0 23.5 -7t9.5 -22v-530q0 -205 62.5 -302t197.5 -97q195 0 276.5 175t81.5 445v316q0 35 31 34q33 0 33 -34l10 -807q0 -41 9.5 -67t23.5 -47.5t14 -31.5q0 -12 -10 -22.5t-23 -10.5q-27 0 -52 51.5t-27 116.5l-3 109q-39 -133 -134 -212 t-228 -79q-166 0 -246 116t-80 351zM223 1282q0 33 21.5 53.5t56.5 20.5t57.5 -20.5t22.5 -53.5q0 -35 -22.5 -57.5t-57.5 -22.5t-56.5 22.5t-21.5 57.5zM665 1282q0 33 21.5 53.5t56.5 20.5t56.5 -20.5t21.5 -53.5q0 -35 -21.5 -57.5t-56.5 -22.5t-56.5 22.5t-21.5 57.5z " />
<glyph unicode="&#xfd;" horiz-adv-x="1050" d="M82 1012q8 25 39 24q12 0 17 -7t12 -23q70 -219 154.5 -403.5t165.5 -305.5t140 -162q80 227 123 386t107 433l12 56q4 18 11 25t22 7q37 0 43 -28q2 -6 0 -12.5t-2 -8.5q-74 -311 -115 -461.5t-115 -357.5q-88 -248 -256 -661q-8 -20 -16 -27.5t-21 -7.5q-16 0 -27 9 t-11 21q0 8 4 21q121 254 215 539q-129 90 -258 332.5t-242 592.5q-4 12 -2 19zM440 1176q0 12 21 34l149 174q31 37 51 37q12 0 20.5 -8t8.5 -22q0 -10 -7 -19.5t-13.5 -15.5t-8.5 -8l-162 -177q-20 -20 -36 -20q-9 0 -16 7t-7 18z" />
<glyph unicode="&#xfe;" horiz-adv-x="1251" d="M143 -422q0 41 7 176l8 260q4 143 4 494q0 637 2 807v166q0 43 24 43q39 0 39 -35l-4 -645q82 96 193.5 151.5t218.5 55.5q102 0 219 -41t206 -158t89 -326q0 -254 -141.5 -388t-391.5 -134q-84 0 -202.5 41t-186.5 100v-55q-6 -332 -22 -514q-2 -18 -10.5 -26.5 t-26.5 -8.5q-25 0 -25 37zM227 229q16 -33 84 -71.5t156 -64t162 -25.5q211 0 333.5 122.5t122.5 337.5q0 164 -69.5 267.5t-170 147.5t-196.5 44q-133 0 -229 -61.5t-140 -106.5t-53 -53v-68v-198v-271z" />
<glyph unicode="&#xff;" horiz-adv-x="1050" d="M82 1012q8 25 39 24q12 0 17 -7t12 -23q70 -219 154.5 -403.5t165.5 -305.5t140 -162q80 227 123 386t107 433l12 56q4 18 11 25t22 7q37 0 43 -28q2 -6 0 -12.5t-2 -8.5q-74 -311 -115 -461.5t-115 -357.5q-88 -248 -256 -661q-8 -20 -16 -27.5t-21 -7.5q-16 0 -27 9 t-11 21q0 8 4 21q121 254 215 539q-129 90 -258 332.5t-242 592.5q-4 12 -2 19zM223 1282q0 33 21.5 53.5t56.5 20.5t57.5 -20.5t22.5 -53.5q0 -35 -22.5 -57.5t-57.5 -22.5t-56.5 22.5t-21.5 57.5zM665 1282q0 33 21.5 53.5t56.5 20.5t56.5 -20.5t21.5 -53.5 q0 -35 -21.5 -57.5t-56.5 -22.5t-56.5 22.5t-21.5 57.5z" />
<glyph unicode="&#x100;" horiz-adv-x="1292" d="M123 10l2 13q205 610 276 829l127 379q41 121 71 172t67 51q66 0 125 -203q37 -127 76.5 -257t80.5 -265l88 -285h64q12 0 19 -8t7 -20t-7 -20.5t-21 -8.5h-43l110 -364q4 -9 4 -17q0 -12 -12 -19t-24 -7q-16 0 -25 18l-119 389l-680 4l-127 -383q-4 -12 -10 -17t-18 -5 q-14 0 -22.5 7t-8.5 17zM330 453l641 -7q-160 530 -236 797q-18 68 -39.5 111t-33.5 43q-18 0 -72 -160zM342 1735q0 33 37 25q68 -14 147 -15q47 0 142 8q98 8 153 9q18 0 60 -4q41 -4 63 -5q16 0 25.5 -9t9.5 -21t-8 -19.5t-23 -7.5l-57 4q-41 4 -58 4q-66 0 -155 -8 q-86 -8 -129 -8l-88 -2q-55 0 -94 14q-14 4 -19.5 11.5t-5.5 23.5z" />
<glyph unicode="&#x101;" horiz-adv-x="1243" d="M102 483q0 127 49.5 247t153 198t256.5 78q127 0 210 -49.5t134 -149.5l21 149q4 20 9 28.5t21 8.5q18 0 29.5 -9t9.5 -21q-18 -94 -28 -228q-8 -94 -9 -254v-139q0 -117 6.5 -170t28 -75.5t68.5 -26.5q20 -2 29.5 -7.5t9.5 -23.5q0 -33 -31 -33q-82 0 -118 33t-52 121 q-47 -82 -134 -128t-212 -46q-176 0 -276.5 82t-137.5 194.5t-37 220.5zM166 483q0 -90 30.5 -188t114.5 -171t232 -73q145 0 246.5 75t103.5 218q2 104 2 240q0 139 -58.5 219t-135 109.5t-140.5 29.5q-139 0 -228 -77t-128 -183.5t-39 -198.5zM252 1223q0 27 22 30 q35 8 132.5 18.5t240.5 10.5l268 -2q35 0 35 -31q0 -14 -7 -20t-26 -6h-53q-49 2 -252 2q-145 0 -232 -14.5t-98 -16.5h-6q-12 0 -18 6t-6 23z" />
<glyph unicode="&#x102;" horiz-adv-x="1292" d="M123 10l2 13q205 610 276 829l127 379q41 121 71 172t67 51q66 0 125 -203q37 -127 76.5 -257t80.5 -265l88 -285h64q12 0 19 -8t7 -20t-7 -20.5t-21 -8.5h-43l110 -364q4 -9 4 -17q0 -12 -12 -19t-24 -7q-16 0 -25 18l-119 389l-680 4l-127 -383q-4 -12 -10 -17t-18 -5 q-14 0 -22.5 7t-8.5 17zM330 453l641 -7q-160 530 -236 797q-18 68 -39.5 111t-33.5 43q-18 0 -72 -160zM375 1827q0 10 6 17.5t17 7.5q35 0 35 -21q0 -80 69.5 -132t163.5 -52q55 0 105.5 26.5t81 68.5t30.5 83q0 16 12.5 24.5t24.5 8.5q10 0 18.5 -6t8.5 -19 q0 -59 -39 -115.5t-103.5 -91t-138.5 -34.5q-86 0 -152.5 33.5t-102.5 88t-36 113.5z" />
<glyph unicode="&#x103;" horiz-adv-x="1243" d="M102 483q0 127 49.5 247t153 198t256.5 78q127 0 210 -49.5t134 -149.5l21 149q4 20 9 28.5t21 8.5q18 0 29.5 -9t9.5 -21q-18 -94 -28 -228q-8 -94 -9 -254v-139q0 -117 6.5 -170t28 -75.5t68.5 -26.5q20 -2 29.5 -7.5t9.5 -23.5q0 -33 -31 -33q-82 0 -118 33t-52 121 q-47 -82 -134 -128t-212 -46q-176 0 -276.5 82t-137.5 194.5t-37 220.5zM166 483q0 -90 30.5 -188t114.5 -171t232 -73q145 0 246.5 75t103.5 218q2 104 2 240q0 139 -58.5 219t-135 109.5t-140.5 29.5q-139 0 -228 -77t-128 -183.5t-39 -198.5zM319 1417q0 10 6 17.5 t17 7.5q35 0 35 -21q0 -80 69.5 -132t163.5 -52q55 0 105.5 26.5t81 68.5t30.5 83q0 16 12.5 24.5t24.5 8.5q10 0 18.5 -6t8.5 -19q0 -59 -39 -115.5t-103.5 -91t-138.5 -34.5q-86 0 -152.5 33.5t-102.5 88t-36 113.5z" />
<glyph unicode="&#x104;" horiz-adv-x="1292" d="M123 10l2 13q205 610 276 829l127 379q41 121 71 172t67 51q66 0 125 -203q37 -127 76.5 -257t80.5 -265l88 -285h64q12 0 19 -8t7 -20t-7 -20.5t-21 -8.5h-43l110 -364q4 -8 4 -17q0 -12 -12 -20l-4 -4q-57 -47 -89 -88t-32 -93q0 -82 107 -82q18 0 35.5 6.5t23.5 6.5 t11 -6.5t5 -14.5q0 -41 -79 -41q-164 0 -164 129q0 113 133 215l-115 373l-680 4l-127 -383q-4 -12 -10 -17t-18 -5q-14 0 -22.5 7t-8.5 17zM330 453l641 -7q-160 530 -236 797q-18 68 -39.5 111t-33.5 43q-18 0 -72 -160z" />
<glyph unicode="&#x105;" horiz-adv-x="1243" d="M102 483q0 127 49.5 247t153 198t256.5 78q127 0 210 -49.5t134 -149.5l21 149q4 20 9 28.5t21 8.5q18 0 29.5 -9t9.5 -21q-18 -94 -28 -228q-8 -94 -9 -254v-139q0 -117 6.5 -170t28 -75.5t68.5 -26.5q20 -2 29.5 -7.5t9.5 -23.5q0 -12 -6 -23q0 -4 -9 -12 q-57 -47 -88.5 -88t-31.5 -92q0 -82 106 -82q18 0 35.5 6t23.5 6q7 0 12 -6t5 -14q0 -41 -80 -41q-164 0 -164 129q0 102 103 190q-45 10 -69 44t-38 104q-47 -82 -134 -128t-212 -46q-176 0 -276.5 82t-137.5 194.5t-37 220.5zM166 483q0 -90 30.5 -188t114.5 -171t232 -73 q145 0 246.5 75t103.5 218q2 104 2 240q0 139 -58.5 219t-135 109.5t-140.5 29.5q-139 0 -228 -77t-128 -183.5t-39 -198.5z" />
<glyph unicode="&#x106;" horiz-adv-x="1409" d="M102 674q0 236 95.5 415t251 274t331.5 95q131 0 238.5 -60.5t187.5 -172.5l-2 192q0 14 9.5 22.5t23.5 8.5q16 0 25.5 -7t9.5 -22v-266q0 -14 -10.5 -23.5t-24.5 -9.5t-23.5 4t-19.5 19q-90 129 -186.5 190.5t-227.5 61.5q-156 0 -298 -93.5t-229 -258t-87 -369.5 q0 -211 91 -349.5t232.5 -202t298.5 -63.5q127 0 242 58.5t185.5 158t70.5 213.5q0 16 9.5 26.5t23.5 10.5q16 0 22.5 -7t6.5 -30q0 -133 -75 -245.5t-203 -180t-282 -67.5q-174 0 -329.5 68.5t-256 220t-100.5 389.5zM696 1586q0 12 21 34l149 174q31 37 51 37 q12 0 20.5 -8t8.5 -22q0 -10 -7 -19.5t-13.5 -15.5t-8.5 -8l-162 -177q-20 -20 -36 -20q-9 0 -16 7t-7 18z" />
<glyph unicode="&#x107;" horiz-adv-x="1171" d="M102 494q0 135 55.5 263t169 210t277.5 82q127 0 221.5 -48.5t146.5 -115t68 -125.5q2 -4 2 -15q0 -18 -22 -24h-8q-27 0 -35 29q-16 57 -63.5 110t-123 89t-174.5 36q-141 0 -242.5 -70.5t-154.5 -183.5t-53 -233q0 -115 48 -212.5t146.5 -157.5t239.5 -60 q137 0 228.5 54t134.5 129t43 134q0 35 32 35q31 0 31 -39q0 -76 -47 -163t-153.5 -150.5t-272.5 -63.5t-276.5 68.5t-164 180.5t-53.5 241zM487 1176q0 12 21 34l149 174q31 37 51 37q12 0 20.5 -8t8.5 -22q0 -10 -7 -19.5t-13.5 -15.5t-8.5 -8l-162 -177q-20 -20 -36 -20 q-9 0 -16 7t-7 18z" />
<glyph unicode="&#x108;" horiz-adv-x="1409" d="M102 674q0 236 95.5 415t251 274t331.5 95q131 0 238.5 -60.5t187.5 -172.5l-2 192q0 14 9.5 22.5t23.5 8.5q16 0 25.5 -7t9.5 -22v-266q0 -14 -10.5 -23.5t-24.5 -9.5t-23.5 4t-19.5 19q-90 129 -186.5 190.5t-227.5 61.5q-156 0 -298 -93.5t-229 -258t-87 -369.5 q0 -211 91 -349.5t232.5 -202t298.5 -63.5q127 0 242 58.5t185.5 158t70.5 213.5q0 16 9.5 26.5t23.5 10.5q16 0 22.5 -7t6.5 -30q0 -133 -75 -245.5t-203 -180t-282 -67.5q-174 0 -329.5 68.5t-256 220t-100.5 389.5zM499 1620q0 12 13 25l49 51q72 80 127 131t90 51 q49 0 123 -78.5t137 -175.5q8 -12 8 -18q0 -8 -8 -16.5t-18 -8.5q-17 1 -27 15q-66 98 -127 162.5t-86 64.5q-20 0 -79.5 -57.5t-131.5 -143.5q-25 -31 -41 -30q-10 0 -19.5 9t-9.5 19z" />
<glyph unicode="&#x109;" horiz-adv-x="1171" d="M102 494q0 135 55.5 263t169 210t277.5 82q127 0 221.5 -48.5t146.5 -115t68 -125.5q2 -4 2 -15q0 -18 -22 -24h-8q-27 0 -35 29q-16 57 -63.5 110t-123 89t-174.5 36q-141 0 -242.5 -70.5t-154.5 -183.5t-53 -233q0 -115 48 -212.5t146.5 -157.5t239.5 -60 q137 0 228.5 54t134.5 129t43 134q0 35 32 35q31 0 31 -39q0 -76 -47 -163t-153.5 -150.5t-272.5 -63.5t-276.5 68.5t-164 180.5t-53.5 241zM290 1210q0 12 13 25l49 51q72 80 127 131t90 51q49 0 123 -78.5t137 -175.5q8 -12 8 -18q0 -8 -8 -16.5t-18 -8.5q-17 1 -27 15 q-66 98 -127 162.5t-86 64.5q-20 0 -79.5 -57.5t-131.5 -143.5q-25 -31 -41 -30q-10 0 -19.5 9t-9.5 19z" />
<glyph unicode="&#x10a;" horiz-adv-x="1409" d="M102 674q0 236 95.5 415t251 274t331.5 95q131 0 238.5 -60.5t187.5 -172.5l-2 192q0 14 9.5 22.5t23.5 8.5q16 0 25.5 -7t9.5 -22v-266q0 -14 -10.5 -23.5t-24.5 -9.5t-23.5 4t-19.5 19q-90 129 -186.5 190.5t-227.5 61.5q-156 0 -298 -93.5t-229 -258t-87 -369.5 q0 -211 91 -349.5t232.5 -202t298.5 -63.5q127 0 242 58.5t185.5 158t70.5 213.5q0 16 9.5 26.5t23.5 10.5q16 0 22.5 -7t6.5 -30q0 -133 -75 -245.5t-203 -180t-282 -67.5q-174 0 -329.5 68.5t-256 220t-100.5 389.5zM698 1692q0 33 21.5 53.5t56.5 20.5t56.5 -20.5 t21.5 -53.5q0 -35 -21.5 -57.5t-56.5 -22.5t-56.5 22.5t-21.5 57.5z" />
<glyph unicode="&#x10b;" horiz-adv-x="1171" d="M102 494q0 135 55.5 263t169 210t277.5 82q127 0 221.5 -48.5t146.5 -115t68 -125.5q2 -4 2 -15q0 -18 -22 -24h-8q-27 0 -35 29q-16 57 -63.5 110t-123 89t-174.5 36q-141 0 -242.5 -70.5t-154.5 -183.5t-53 -233q0 -115 48 -212.5t146.5 -157.5t239.5 -60 q137 0 228.5 54t134.5 129t43 134q0 35 32 35q31 0 31 -39q0 -76 -47 -163t-153.5 -150.5t-272.5 -63.5t-276.5 68.5t-164 180.5t-53.5 241zM489 1282q0 33 21.5 53.5t56.5 20.5t56.5 -20.5t21.5 -53.5q0 -35 -21.5 -57.5t-56.5 -22.5t-56.5 22.5t-21.5 57.5z" />
<glyph unicode="&#x10c;" horiz-adv-x="1409" d="M102 674q0 236 95.5 415t251 274t331.5 95q131 0 238.5 -60.5t187.5 -172.5l-2 192q0 14 9.5 22.5t23.5 8.5q16 0 25.5 -7t9.5 -22v-266q0 -14 -10.5 -23.5t-24.5 -9.5t-23.5 4t-19.5 19q-90 129 -186.5 190.5t-227.5 61.5q-156 0 -298 -93.5t-229 -258t-87 -369.5 q0 -211 91 -349.5t232.5 -202t298.5 -63.5q127 0 242 58.5t185.5 158t70.5 213.5q0 16 9.5 26.5t23.5 10.5q16 0 22.5 -7t6.5 -30q0 -133 -75 -245.5t-203 -180t-282 -67.5q-174 0 -329.5 68.5t-256 220t-100.5 389.5zM499 1829q0 10 9.5 19.5t19.5 9.5q16 0 41 -31 q72 -86 131.5 -143t79.5 -57q25 0 86.5 64.5t126.5 162.5q10 14 27 14q10 0 18 -8t8 -16q0 -6 -8 -19q-63 -96 -137 -175t-123 -79q-35 0 -90 51.5t-127 130.5l-49 52q-12 12 -13 24z" />
<glyph unicode="&#x10d;" horiz-adv-x="1171" d="M102 494q0 135 55.5 263t169 210t277.5 82q127 0 221.5 -48.5t146.5 -115t68 -125.5q2 -4 2 -15q0 -18 -22 -24h-8q-27 0 -35 29q-16 57 -63.5 110t-123 89t-174.5 36q-141 0 -242.5 -70.5t-154.5 -183.5t-53 -233q0 -115 48 -212.5t146.5 -157.5t239.5 -60 q137 0 228.5 54t134.5 129t43 134q0 35 32 35q31 0 31 -39q0 -76 -47 -163t-153.5 -150.5t-272.5 -63.5t-276.5 68.5t-164 180.5t-53.5 241zM290 1419q0 10 9.5 19.5t19.5 9.5q16 0 41 -31q72 -86 131.5 -143t79.5 -57q25 0 86.5 64.5t126.5 162.5q10 14 27 14q10 0 18 -8 t8 -16q0 -6 -8 -19q-63 -96 -137 -175t-123 -79q-35 0 -90 51.5t-127 130.5l-49 52q-12 12 -13 24z" />
<glyph unicode="&#x10e;" horiz-adv-x="1316" d="M123 1399q0 31 39 31h63q6 31 35 30q27 0 31 -35q424 -20 673.5 -188t249.5 -502q0 -219 -107.5 -380.5t-310 -250t-485.5 -88.5h-153q-33 0 -33 31t31 31h106l-35 1288h-67q-37 0 -37 33zM293 1364l33 -1286q249 4 435.5 81t288 224t101.5 352q0 588 -858 629zM362 1829 q0 10 9.5 19.5t19.5 9.5q16 0 41 -31q72 -86 131.5 -143t79.5 -57q25 0 86.5 64.5t126.5 162.5q10 14 27 14q10 0 18 -8t8 -16q0 -6 -8 -19q-63 -96 -137 -175t-123 -79q-35 0 -90 51.5t-127 130.5l-49 52q-12 12 -13 24z" />
<glyph unicode="&#x10f;" horiz-adv-x="1488" d="M102 504q0 246 140.5 384t378.5 138q145 0 251.5 -48t155.5 -112q-2 145 8.5 414.5t26.5 468.5q4 35 33 35q16 0 25 -8.5t7 -22.5q-16 -170 -28.5 -529.5t-12.5 -660.5q0 -332 17 -391q14 -49 35.5 -73.5t42.5 -30.5q6 -2 6 -15q0 -14 -8.5 -24.5t-20.5 -10.5q-8 0 -16 5 q-49 20 -74 61t-35 119q-53 -96 -171 -156.5t-255 -60.5q-131 0 -245.5 53t-187.5 170t-73 295zM166 502q0 -158 68.5 -260.5t170 -147.5t203.5 -45q103 0 199 44t155.5 122t59.5 174q0 102 2 160l2 221q-16 39 -71.5 84t-142.5 77t-191 32q-133 0 -236.5 -55.5t-161 -159 t-57.5 -246.5zM1266 1312q0 6 4 11q4 4 55 54t68 99q-4 -2 -15 -2q-33 0 -58.5 24.5t-25.5 59.5q0 37 26.5 61.5t61.5 24.5t60.5 -25.5t25.5 -60.5q0 -55 -42 -119.5t-122 -144.5q-6 -6 -14 -6q-10 0 -17 7t-7 17z" />
<glyph unicode="&#x110;" horiz-adv-x="1409" d="M41 748q0 29 49 28l246 -4l-19 598h-55q-47 0 -47 35q0 14 10.5 19.5t30.5 5.5h63q4 29 31 28q16 0 22.5 -7t8.5 -24q428 -20 677 -188t249 -508q0 -219 -106.5 -380t-310.5 -248t-487 -87h-153q-18 0 -25.5 8.5t-7.5 26.5q0 25 25 25h114l-18 641l-248 4q-27 0 -38 6 t-11 21zM383 1368l14 -598l342 -6q39 0 39 -31q0 -23 -39 -22l-340 6l19 -641q250 2 436 77.5t289.5 223t103.5 356.5q0 307 -226 462t-638 173z" />
<glyph unicode="&#x111;" horiz-adv-x="1495" d="M102 504q0 246 140.5 384t378.5 138q145 0 251.5 -48t155.5 -112q-4 166 10 492l-172 -2q-20 0 -28.5 6t-8.5 22q0 14 8.5 20.5t28.5 6.5l176 4q4 145 21 334q4 35 33 35q16 0 25 -8.5t7 -22.5q-10 -94 -20 -336l221 6q23 0 33 -5t10 -21q0 -14 -11 -23.5t-32 -9.5 l-225 -4q-16 -399 -17 -789q0 -340 17 -399q14 -49 35.5 -73.5t42.5 -30.5q6 -2 6 -15q0 -14 -8.5 -24.5t-20.5 -10.5q-8 0 -16 5q-49 20 -74 61t-35 119q-53 -96 -171 -156.5t-255 -60.5q-131 0 -245.5 53t-187.5 170t-73 295zM166 502q0 -158 68.5 -260.5t170 -147.5 t203.5 -45t198.5 44t156 122t59.5 174q0 103 2 160l2 221q-16 39 -71.5 84t-142.5 77t-191 32q-133 0 -236.5 -55.5t-161 -159t-57.5 -246.5z" />
<glyph unicode="&#x112;" horiz-adv-x="1175" d="M164 80q0 33 33 33l41 -2q20 158 31.5 296t13.5 322h-58q-35 0 -35 33q0 14 9.5 22.5t23.5 8.5h60v38v177q0 250 -7 342q-29 0 -38 6t-9 22q0 18 9.5 25.5t31.5 9.5q160 12 367 12q158 0 243 -4t181 -14q33 -4 33 -31q0 -16 -10.5 -24.5t-24.5 -5.5q-103 10 -182.5 14 t-210.5 4q-123 0 -328 -10q8 -186 8 -523v-40q131 -4 201 -5q88 0 215 -4l119 -4q33 0 32 -35q0 -14 -6 -21t-24 -7l-117 4l-225 6q-68 2 -195 2q-2 -160 -11 -280.5t-26 -282.5l-6 -60q176 -14 406 -14q117 0 178 4t155 15h9q31 0 30 -35q0 -12 -6 -19.5t-24 -9.5 q-84 -16 -310 -16h-77q-242 0 -467 20q-33 2 -33 31zM279 1633q0 27 22 30q35 8 132.5 18.5t240.5 10.5l268 -2q35 0 35 -31q0 -14 -7 -20t-26 -6h-53q-49 2 -252 2q-145 0 -232 -14.5t-98 -16.5h-6q-12 0 -18 6t-6 23z" />
<glyph unicode="&#x113;" horiz-adv-x="1189" d="M102 518q0 139 61.5 260t178.5 196t276 75q137 0 244 -56.5t166 -154t59 -220.5q0 -51 -12 -67t-57 -16l-852 -25q0 -121 54 -223.5t157.5 -163t240.5 -60.5q104 0 177 34t114 77t92 115q6 8 19 8q14 0 26.5 -9t12.5 -24q0 -10 -12 -26q-68 -102 -163.5 -170t-267.5 -68 q-167 0 -283 73.5t-173.5 192.5t-57.5 252zM166 571l848 27q8 0 11 4t3 21q0 102 -52 184t-144.5 130t-206.5 48q-139 0 -244 -66.5t-160 -164t-55 -183.5zM250 1223q0 27 22 30q35 8 132.5 18.5t240.5 10.5l268 -2q35 0 35 -31q0 -14 -7 -20t-26 -6h-53q-49 2 -252 2 q-145 0 -232 -14.5t-98 -16.5h-6q-12 0 -18 6t-6 23z" />
<glyph unicode="&#x114;" horiz-adv-x="1175" d="M164 80q0 33 33 33l41 -2q20 158 31.5 296t13.5 322h-58q-35 0 -35 33q0 14 9.5 22.5t23.5 8.5h60v38v177q0 250 -7 342q-29 0 -38 6t-9 22q0 18 9.5 25.5t31.5 9.5q160 12 367 12q158 0 243 -4t181 -14q33 -4 33 -31q0 -16 -10.5 -24.5t-24.5 -5.5q-103 10 -182.5 14 t-210.5 4q-123 0 -328 -10q8 -186 8 -523v-40q131 -4 201 -5q88 0 215 -4l119 -4q33 0 32 -35q0 -14 -6 -21t-24 -7l-117 4l-225 6q-68 2 -195 2q-2 -160 -11 -280.5t-26 -282.5l-6 -60q176 -14 406 -14q117 0 178 4t155 15h9q31 0 30 -35q0 -12 -6 -19.5t-24 -9.5 q-84 -16 -310 -16h-77q-242 0 -467 20q-33 2 -33 31zM346 1827q0 10 6 17.5t17 7.5q35 0 35 -21q0 -80 69.5 -132t163.5 -52q55 0 105.5 26.5t81 68.5t30.5 83q0 16 12.5 24.5t24.5 8.5q10 0 18.5 -6t8.5 -19q0 -59 -39 -115.5t-103.5 -91t-138.5 -34.5q-86 0 -152.5 33.5 t-102.5 88t-36 113.5z" />
<glyph unicode="&#x115;" horiz-adv-x="1189" d="M102 518q0 139 61.5 260t178.5 196t276 75q137 0 244 -56.5t166 -154t59 -220.5q0 -51 -12 -67t-57 -16l-852 -25q0 -121 54 -223.5t157.5 -163t240.5 -60.5q104 0 177 34t114 77t92 115q6 8 19 8q14 0 26.5 -9t12.5 -24q0 -10 -12 -26q-68 -102 -163.5 -170t-267.5 -68 q-167 0 -283 73.5t-173.5 192.5t-57.5 252zM166 571l848 27q8 0 11 4t3 21q0 102 -52 184t-144.5 130t-206.5 48q-139 0 -244 -66.5t-160 -164t-55 -183.5zM317 1417q0 10 6 17.5t17 7.5q35 0 35 -21q0 -80 69.5 -132t163.5 -52q55 0 105.5 26.5t81 68.5t30.5 83 q0 16 12.5 24.5t24.5 8.5q10 0 18.5 -6t8.5 -19q0 -59 -39 -115.5t-103.5 -91t-138.5 -34.5q-86 0 -152.5 33.5t-102.5 88t-36 113.5z" />
<glyph unicode="&#x116;" horiz-adv-x="1175" d="M164 80q0 33 33 33l41 -2q20 158 31.5 296t13.5 322h-58q-35 0 -35 33q0 14 9.5 22.5t23.5 8.5h60v38v177q0 250 -7 342q-29 0 -38 6t-9 22q0 18 9.5 25.5t31.5 9.5q160 12 367 12q158 0 243 -4t181 -14q33 -4 33 -31q0 -16 -10.5 -24.5t-24.5 -5.5q-103 10 -182.5 14 t-210.5 4q-123 0 -328 -10q8 -186 8 -523v-40q131 -4 201 -5q88 0 215 -4l119 -4q33 0 32 -35q0 -14 -6 -21t-24 -7l-117 4l-225 6q-68 2 -195 2q-2 -160 -11 -280.5t-26 -282.5l-6 -60q176 -14 406 -14q117 0 178 4t155 15h9q31 0 30 -35q0 -12 -6 -19.5t-24 -9.5 q-84 -16 -310 -16h-77q-242 0 -467 20q-33 2 -33 31zM557 1692q0 33 21.5 53.5t56.5 20.5t56.5 -20.5t21.5 -53.5q0 -35 -21.5 -57.5t-56.5 -22.5t-56.5 22.5t-21.5 57.5z" />
<glyph unicode="&#x117;" horiz-adv-x="1189" d="M102 518q0 139 61.5 260t178.5 196t276 75q137 0 244 -56.5t166 -154t59 -220.5q0 -51 -12 -67t-57 -16l-852 -25q0 -121 54 -223.5t157.5 -163t240.5 -60.5q104 0 177 34t114 77t92 115q6 8 19 8q14 0 26.5 -9t12.5 -24q0 -10 -12 -26q-68 -102 -163.5 -170t-267.5 -68 q-167 0 -283 73.5t-173.5 192.5t-57.5 252zM166 571l848 27q8 0 11 4t3 21q0 102 -52 184t-144.5 130t-206.5 48q-139 0 -244 -66.5t-160 -164t-55 -183.5zM528 1282q0 33 21.5 53.5t56.5 20.5t56.5 -20.5t21.5 -53.5q0 -35 -21.5 -57.5t-56.5 -22.5t-56.5 22.5t-21.5 57.5z " />
<glyph unicode="&#x118;" horiz-adv-x="1175" d="M164 80q0 33 33 33l41 -2q20 158 31.5 296t13.5 322h-58q-35 0 -35 33q0 14 9.5 22.5t23.5 8.5h60v38v177q0 250 -7 342q-29 0 -38 6t-9 22q0 18 9.5 25.5t31.5 9.5q160 12 367 12q158 0 243 -4t181 -14q33 -4 33 -31q0 -16 -10.5 -24.5t-24.5 -5.5q-102 10 -182 14 t-211 4q-123 0 -328 -10q8 -186 8 -523v-40q131 -4 201 -5q88 0 215 -4l119 -4q33 0 32 -35q0 -14 -6 -21t-24 -7l-117 4l-225 6q-68 2 -195 2q-2 -160 -11 -280.5t-26 -282.5l-6 -60q176 -14 406 -14q117 0 178 4t155 15h9q31 0 30 -35q0 -18 -12 -23q0 -2 -4 -6 q-57 -47 -89 -88t-32 -92q0 -82 107 -82q18 0 35.5 6t23.5 6t11 -6t5 -14q0 -41 -79 -41q-164 0 -164 129q0 86 82 172q-86 -6 -215 -6h-86q-242 0 -467 20q-33 2 -33 31z" />
<glyph unicode="&#x119;" horiz-adv-x="1189" d="M102 518q0 139 61.5 260t178.5 196t276 75q137 0 244 -56.5t166 -154t59 -220.5q0 -51 -12 -67t-57 -16l-852 -25q0 -121 54 -223.5t157.5 -163t240.5 -60.5q104 0 177 34t114 77t92 115q6 8 19 8q14 0 26.5 -9t12.5 -24q0 -10 -12 -26q-33 -47 -66 -85t-78 -71 q-74 -66 -74 -139q0 -82 107 -82q18 0 35.5 6t23.5 6t11.5 -6t5.5 -14q0 -41 -80 -41q-164 0 -164 129q0 43 18 84q-80 -25 -170 -25q-168 0 -283.5 73.5t-173 192.5t-57.5 252zM166 571l848 27q8 0 11 4t3 21q0 102 -52 184t-144.5 130t-206.5 48q-139 0 -244 -66.5 t-160 -164t-55 -183.5z" />
<glyph unicode="&#x11a;" horiz-adv-x="1175" d="M164 80q0 33 33 33l41 -2q20 158 31.5 296t13.5 322h-58q-35 0 -35 33q0 14 9.5 22.5t23.5 8.5h60v38v177q0 250 -7 342q-29 0 -38 6t-9 22q0 18 9.5 25.5t31.5 9.5q160 12 367 12q158 0 243 -4t181 -14q33 -4 33 -31q0 -16 -10.5 -24.5t-24.5 -5.5q-103 10 -182.5 14 t-210.5 4q-123 0 -328 -10q8 -186 8 -523v-40q131 -4 201 -5q88 0 215 -4l119 -4q33 0 32 -35q0 -14 -6 -21t-24 -7l-117 4l-225 6q-68 2 -195 2q-2 -160 -11 -280.5t-26 -282.5l-6 -60q176 -14 406 -14q117 0 178 4t155 15h9q31 0 30 -35q0 -12 -6 -19.5t-24 -9.5 q-84 -16 -310 -16h-77q-242 0 -467 20q-33 2 -33 31zM358 1829q0 10 9.5 19.5t19.5 9.5q16 0 41 -31q72 -86 131.5 -143t79.5 -57q25 0 86.5 64.5t126.5 162.5q10 14 27 14q10 0 18 -8t8 -16q0 -6 -8 -19q-63 -96 -137 -175t-123 -79q-35 0 -90 51.5t-127 130.5l-49 52 q-12 12 -13 24z" />
<glyph unicode="&#x11b;" horiz-adv-x="1189" d="M102 518q0 139 61.5 260t178.5 196t276 75q137 0 244 -56.5t166 -154t59 -220.5q0 -51 -12 -67t-57 -16l-852 -25q0 -121 54 -223.5t157.5 -163t240.5 -60.5q104 0 177 34t114 77t92 115q6 8 19 8q14 0 26.5 -9t12.5 -24q0 -10 -12 -26q-68 -102 -163.5 -170t-267.5 -68 q-167 0 -283 73.5t-173.5 192.5t-57.5 252zM166 571l848 27q8 0 11 4t3 21q0 102 -52 184t-144.5 130t-206.5 48q-139 0 -244 -66.5t-160 -164t-55 -183.5zM329 1419q0 10 9.5 19.5t19.5 9.5q16 0 41 -31q72 -86 131.5 -143t79.5 -57q25 0 86.5 64.5t126.5 162.5 q10 14 27 14q10 0 18 -8t8 -16q0 -6 -8 -19q-63 -96 -137 -175t-123 -79q-35 0 -90 51.5t-127 130.5l-49 52q-12 12 -13 24z" />
<glyph unicode="&#x11c;" horiz-adv-x="1495" d="M102 709q0 188 82 348t232.5 256t347.5 96q279 0 473 -209q8 49 8 100q0 25 6 33t23 8q31 0 31 -22q0 -121 -19 -166q-14 -31 -43 -31q-14 0 -23.5 5.5t-25.5 21.5q-102 98 -194.5 147.5t-229.5 49.5q-182 0 -319.5 -90.5t-211 -239t-73.5 -318.5t74.5 -314t214 -229 t325.5 -85q233 0 337 140t108 415l-342 6q-35 0 -35 31q0 33 35 32l501 -10q29 0 29 -31t-29 -30l-96 2q-4 -303 -125 -461t-381 -158q-211 0 -364.5 97.5t-234.5 258t-81 347.5zM469 1620q0 12 13 25l49 51q72 80 127 131t90 51q49 0 123 -78.5t137 -175.5q8 -12 8 -18 q0 -8 -8 -16.5t-18 -8.5q-17 1 -27 15q-66 98 -127 162.5t-86 64.5q-20 0 -79.5 -57.5t-131.5 -143.5q-25 -31 -41 -30q-10 0 -19.5 9t-9.5 19z" />
<glyph unicode="&#x11d;" horiz-adv-x="1196" d="M82 524q0 129 56.5 248t163 193.5t251.5 74.5q109 0 190.5 -36.5t122.5 -81.5l17 61q20 74 24 80q10 23 29 22q12 0 23.5 -6t11.5 -16l-2 -21q-4 -23 -14.5 -62.5t-16.5 -59.5l-14 -52q27 -139 65 -411l15 -107l16 -119q16 -115 24.5 -178t8.5 -102q0 -135 -58.5 -240.5 t-166 -164t-248.5 -58.5q-102 0 -193.5 45t-147 120t-55.5 159q0 12 9.5 19t23.5 7q12 0 20.5 -9t8.5 -19q0 -66 47 -125.5t124 -96.5t163 -37q129 0 222 54.5t140 145.5t47 200q0 57 -9 137t-22 137q-55 -92 -156.5 -148.5t-236.5 -56.5q-160 0 -268.5 74t-161.5 189.5 t-53 240.5zM145 524q0 -113 47.5 -213t142.5 -163.5t230 -63.5q129 0 226.5 61.5t150.5 182.5q-27 205 -65 428l-11 61q-35 72 -125 116t-188 44q-115 0 -208 -62.5t-146.5 -167t-53.5 -223.5zM296 1204q0 12 13 25l49 51q72 80 127 131t90 51q49 0 123 -78.5t137 -175.5 q8 -12 8 -18q0 -8 -8 -16.5t-18 -8.5q-17 1 -27 15q-66 98 -127 162.5t-86 64.5q-20 0 -79.5 -57.5t-131.5 -143.5q-25 -31 -41 -30q-10 0 -19.5 9t-9.5 19z" />
<glyph unicode="&#x11e;" horiz-adv-x="1495" d="M102 709q0 188 82 348t232.5 256t347.5 96q279 0 473 -209q8 49 8 100q0 25 6 33t23 8q31 0 31 -22q0 -121 -19 -166q-14 -31 -43 -31q-14 0 -23.5 5.5t-25.5 21.5q-102 98 -194.5 147.5t-229.5 49.5q-182 0 -319.5 -90.5t-211 -239t-73.5 -318.5t74.5 -314t214 -229 t325.5 -85q233 0 337 140t108 415l-342 6q-35 0 -35 31q0 33 35 32l501 -10q29 0 29 -31t-29 -30l-96 2q-4 -303 -125 -461t-381 -158q-211 0 -364.5 97.5t-234.5 258t-81 347.5zM457 1827q0 10 6 17.5t17 7.5q35 0 35 -21q0 -80 69.5 -132t163.5 -52q55 0 105.5 26.5 t81 68.5t30.5 83q0 16 12.5 24.5t24.5 8.5q10 0 18.5 -6t8.5 -19q0 -59 -39 -115.5t-103.5 -91t-138.5 -34.5q-86 0 -152.5 33.5t-102.5 88t-36 113.5z" />
<glyph unicode="&#x11f;" horiz-adv-x="1196" d="M82 524q0 129 56.5 248t163 193.5t251.5 74.5q109 0 190.5 -36.5t122.5 -81.5l17 61q20 74 24 80q10 23 29 22q12 0 23.5 -6t11.5 -16l-2 -21q-4 -23 -14.5 -62.5t-16.5 -59.5l-14 -52q27 -139 65 -411l15 -107l16 -119q16 -115 24.5 -178t8.5 -102q0 -135 -58.5 -240.5 t-166 -164t-248.5 -58.5q-102 0 -193.5 45t-147 120t-55.5 159q0 12 9.5 19t23.5 7q12 0 20.5 -9t8.5 -19q0 -66 47 -125.5t124 -96.5t163 -37q129 0 222 54.5t140 145.5t47 200q0 57 -9 137t-22 137q-55 -92 -156.5 -148.5t-236.5 -56.5q-160 0 -268.5 74t-161.5 189.5 t-53 240.5zM145 524q0 -113 47.5 -213t142.5 -163.5t230 -63.5q129 0 226.5 61.5t150.5 182.5q-27 205 -65 428l-11 61q-35 72 -125 116t-188 44q-115 0 -208 -62.5t-146.5 -167t-53.5 -223.5zM284 1411q0 10 6 17.5t17 7.5q35 0 35 -21q0 -80 69.5 -132t163.5 -52 q55 0 105.5 26.5t81 68.5t30.5 83q0 16 12.5 24.5t24.5 8.5q10 0 18.5 -6t8.5 -19q0 -59 -39 -115.5t-103.5 -91t-138.5 -34.5q-86 0 -152.5 33.5t-102.5 88t-36 113.5z" />
<glyph unicode="&#x120;" horiz-adv-x="1495" d="M102 709q0 188 82 348t232.5 256t347.5 96q279 0 473 -209q8 49 8 100q0 25 6 33t23 8q31 0 31 -22q0 -121 -19 -166q-14 -31 -43 -31q-14 0 -23.5 5.5t-25.5 21.5q-102 98 -194.5 147.5t-229.5 49.5q-182 0 -319.5 -90.5t-211 -239t-73.5 -318.5t74.5 -314t214 -229 t325.5 -85q233 0 337 140t108 415l-342 6q-35 0 -35 31q0 33 35 32l501 -10q29 0 29 -31t-29 -30l-96 2q-4 -303 -125 -461t-381 -158q-211 0 -364.5 97.5t-234.5 258t-81 347.5zM668 1692q0 33 21.5 53.5t56.5 20.5t56.5 -20.5t21.5 -53.5q0 -35 -21.5 -57.5t-56.5 -22.5 t-56.5 22.5t-21.5 57.5z" />
<glyph unicode="&#x121;" horiz-adv-x="1196" d="M82 524q0 129 56.5 248t163 193.5t251.5 74.5q109 0 190.5 -36.5t122.5 -81.5l17 61q20 74 24 80q10 23 29 22q12 0 23.5 -6t11.5 -16l-2 -21q-4 -23 -14.5 -62.5t-16.5 -59.5l-14 -52q27 -139 65 -411l15 -107l16 -119q16 -115 24.5 -178t8.5 -102q0 -135 -58.5 -240.5 t-166 -164t-248.5 -58.5q-102 0 -193.5 45t-147 120t-55.5 159q0 12 9.5 19t23.5 7q12 0 20.5 -9t8.5 -19q0 -66 47 -125.5t124 -96.5t163 -37q129 0 222 54.5t140 145.5t47 200q0 57 -9 137t-22 137q-55 -92 -156.5 -148.5t-236.5 -56.5q-160 0 -268.5 74t-161.5 189.5 t-53 240.5zM145 524q0 -113 47.5 -213t142.5 -163.5t230 -63.5q129 0 226.5 61.5t150.5 182.5q-27 205 -65 428l-11 61q-35 72 -125 116t-188 44q-115 0 -208 -62.5t-146.5 -167t-53.5 -223.5zM495 1276q0 33 21.5 53.5t56.5 20.5t56.5 -20.5t21.5 -53.5q0 -35 -21.5 -57.5 t-56.5 -22.5t-56.5 22.5t-21.5 57.5z" />
<glyph unicode="&#x122;" horiz-adv-x="1495" d="M102 709q0 188 82 348t232.5 256t347.5 96q279 0 473 -209q8 49 8 100q0 25 6 33t23 8q31 0 31 -22q0 -121 -19 -166q-14 -31 -43 -31q-14 0 -23.5 5.5t-25.5 21.5q-102 98 -194.5 147.5t-229.5 49.5q-182 0 -319.5 -90.5t-211 -239t-73.5 -318.5t74.5 -314t214 -229 t325.5 -85q233 0 337 140t108 415l-342 6q-35 0 -35 31q0 33 35 32l501 -10q29 0 29 -31t-29 -30l-96 2q-4 -303 -125 -461t-381 -158q-211 0 -364.5 97.5t-234.5 258t-81 347.5zM621 -502q0 6 8 15q100 100 123 151h-10q-33 0 -59.5 25.5t-26.5 60.5q0 37 26.5 61.5 t61.5 24.5t60.5 -25.5t25.5 -60.5q0 -61 -43 -131t-121 -133q-16 -12 -22 -12q-8 0 -15.5 7t-7.5 17z" />
<glyph unicode="&#x123;" horiz-adv-x="1196" d="M82 524q0 129 56.5 248t163 193.5t251.5 74.5q109 0 190.5 -36.5t122.5 -81.5l17 61q20 74 24 80q10 23 29 22q12 0 23.5 -6t11.5 -16l-2 -21q-4 -23 -14.5 -62.5t-16.5 -59.5l-14 -52q27 -139 65 -411l15 -107l16 -119q16 -115 24.5 -178t8.5 -102q0 -135 -58.5 -240.5 t-166 -164t-248.5 -58.5q-102 0 -193.5 45t-147 120t-55.5 159q0 12 9.5 19t23.5 7q12 0 20.5 -9t8.5 -19q0 -66 47 -125.5t124 -96.5t163 -37q129 0 222 54.5t140 145.5t47 200q0 57 -9 137t-22 137q-55 -92 -156.5 -148.5t-236.5 -56.5q-160 0 -268.5 74t-161.5 189.5 t-53 240.5zM145 524q0 -113 47.5 -213t142.5 -163.5t230 -63.5q129 0 226.5 61.5t150.5 182.5q-27 205 -65 428l-11 61q-35 72 -125 116t-188 44q-115 0 -208 -62.5t-146.5 -167t-53.5 -223.5zM457 1245q0 61 43 131t121 134q10 6 14 6q10 0 17.5 -8.5t7.5 -18.5 q0 -6 -4 -10q-6 -6 -55.5 -53.5t-69.5 -94.5q37 2 68.5 -24.5t31.5 -61.5q0 -37 -26.5 -61.5t-61.5 -24.5t-60.5 26t-25.5 60z" />
<glyph unicode="&#x124;" horiz-adv-x="1400" d="M123 659q0 16 9 23.5t22 7.5l98 -2l61 754q2 35 35 35t29 -39l-60 -750l770 -12l-22 764q0 37 31 37q33 0 32 -33l23 -768l90 -2q37 0 37 -33t-35 -33l-90 2l16 -575q0 -35 -28 -35q-35 0 -35 33l-16 577l-779 17l-49 -615q-4 -23 -31 -22q-37 0 -32 30l49 607l-96 2 q-29 0 -29 30zM434 1620q0 12 13 25l49 51q72 80 127 131t90 51q49 0 123 -78.5t137 -175.5q8 -12 8 -18q0 -8 -8 -16.5t-18 -8.5q-17 1 -27 15q-66 98 -127 162.5t-86 64.5q-20 0 -79.5 -57.5t-131.5 -143.5q-25 -31 -41 -30q-10 0 -19.5 9t-9.5 19z" />
<glyph unicode="&#x125;" horiz-adv-x="1161" d="M-35 1794q0 12 13 25l49 51q72 80 127 131t90 51q49 0 123 -78.5t137 -175.5q8 -12 8 -18q0 -8 -8 -16.5t-18 -8.5q-17 1 -27 15q-66 98 -127 162.5t-86 64.5q-20 0 -79.5 -57.5t-131.5 -143.5q-25 -31 -41 -30q-10 0 -19.5 9t-9.5 19zM164 25q0 446 10 811q6 213 31 637 l6 96q2 23 8 31t23 8q37 0 32 -37l-41 -787q49 102 150.5 181t251.5 79q131 0 207 -70.5t110 -213.5q29 -117 37 -286t8 -449q0 -29 -32 -29q-31 0 -31 31q-2 299 -10.5 459.5t-36.5 269.5q-31 113 -91.5 169t-164.5 56q-127 0 -217 -72.5t-135.5 -170t-45.5 -163.5l-2 -552 q0 -10 -11 -17.5t-27 -7.5q-29 0 -29 27z" />
<glyph unicode="&#x126;" horiz-adv-x="1409" d="M123 1069q0 14 11 22.5t24 8.5l135 -2l29 344q2 35 34 35q33 0 29 -39l-27 -340l725 -13l-10 355q0 37 31 37q33 0 33 -33l10 -359l96 -2q37 0 37 -32q0 -33 -35 -33l-96 2l10 -344l90 -2q37 0 37 -33t-35 -33l-90 2l17 -575q0 -35 -29 -35q-35 0 -35 33l-16 577l-779 17 l-49 -615q-4 -23 -30 -22q-37 0 -33 30l49 607l-96 2q-29 0 -29 30q0 16 9.5 23.5t21.5 7.5l98 -2l29 348l-135 2q-14 0 -22.5 9.5t-8.5 21.5zM326 688l770 -12l-11 344l-733 14z" />
<glyph unicode="&#x127;" horiz-adv-x="1167" d="M102 1280q0 14 11.5 20.5t23.5 6.5l64 -2l10 155l6 109q2 23 8 31t23 8q37 0 33 -37l-9 -156l-6 -112l340 -13q37 0 37 -28q0 -16 -8 -22.5t-27 -6.5l-344 12q-8 -100 -14 -274l-10 -187q49 102 150.5 181t250.5 79q131 0 207 -70.5t110 -213.5q29 -117 37.5 -286 t8.5 -449q0 -29 -33 -29q-31 0 -31 31q-2 299 -10 459.5t-37 269.5q-31 113 -91.5 169t-164.5 56q-127 0 -217 -72.5t-135 -170t-45 -163.5l-2 -552q0 -10 -11.5 -17.5t-27.5 -7.5q-29 0 -29 27q0 446 10 811q6 207 19 411l-66 2q-14 0 -22.5 9.5t-8.5 21.5z" />
<glyph unicode="&#x128;" horiz-adv-x="897" d="M102 1397q0 27 33 33q27 4 146.5 12t175.5 8q236 0 309 -12q29 -4 29 -31q0 -16 -10.5 -24.5t-24.5 -6.5q-53 6 -104.5 8t-129.5 2q0 -389 -8 -676.5t-33 -629.5l279 -4q31 0 31 -33t-31 -33l-625 10q-10 0 -18 9.5t-8 23.5q0 31 30 31l279 -4q23 367 32 655.5t9 650.5 q-92 -2 -258 -16l-72 -4q-14 0 -22.5 8t-8.5 23zM160 1618q0 10 10 21q43 53 75 75.5t81 22.5q86 0 164 -41q6 -4 33.5 -18.5t52 -22.5t43.5 -8q39 0 80 45q18 20 30 21q6 0 17.5 -11.5t11.5 -19.5q0 -12 -8 -21q-37 -37 -67.5 -53t-67.5 -16q-29 0 -59.5 13t-35.5 15 q-37 20 -59 27q-12 4 -59 22.5t-76 18.5q-20 0 -39.5 -14.5t-37 -33t-25.5 -26.5q-23 -23 -37 -22q-10 0 -17 6q-10 10 -10 20z" />
<glyph unicode="&#x129;" horiz-adv-x="643" d="M29 1208q0 10 10 21q43 53 75 75.5t81 22.5q86 0 164 -41q6 -4 33.5 -18.5t52 -22.5t43.5 -8q39 0 80 45q18 20 30 21q6 0 17.5 -11.5t11.5 -19.5q0 -12 -8 -21q-37 -37 -67.5 -53t-67.5 -16q-29 0 -59.5 13t-35.5 15q-37 20 -59 27q-12 4 -59 22.5t-76 18.5 q-20 0 -39.5 -14.5t-37 -33t-25.5 -26.5q-23 -23 -37 -22q-10 0 -17 6q-10 10 -10 20zM279 57l20 930q0 45 33 45q35 0 35 -45l-29 -930q0 -45 -27 -45q-32 0 -32 45z" />
<glyph unicode="&#x12a;" horiz-adv-x="897" d="M99 1633q0 27 22 30q35 8 132.5 18.5t240.5 10.5l268 -2q35 0 35 -31q0 -14 -7 -20t-26 -6h-53q-49 2 -252 2q-145 0 -232 -14.5t-98 -16.5h-6q-12 0 -18 6t-6 23zM102 1397q0 27 33 33q27 4 146.5 12t175.5 8q236 0 309 -12q29 -4 29 -31q0 -16 -10.5 -24.5t-24.5 -6.5 q-53 6 -104.5 8t-129.5 2q0 -389 -8 -676.5t-33 -629.5l279 -4q31 0 31 -33t-31 -33l-625 10q-10 0 -18 9.5t-8 23.5q0 31 30 31l279 -4q23 367 32 655.5t9 650.5q-92 -2 -258 -16l-72 -4q-14 0 -22.5 8t-8.5 23z" />
<glyph unicode="&#x12b;" horiz-adv-x="643" d="M-32 1223q0 27 22 30q35 8 132.5 18.5t240.5 10.5l268 -2q35 0 35 -31q0 -14 -7 -20t-26 -6h-53q-49 2 -252 2q-145 0 -232 -14.5t-98 -16.5h-6q-12 0 -18 6t-6 23zM279 57l20 930q0 45 33 45q35 0 35 -45l-29 -930q0 -45 -27 -45q-32 0 -32 45z" />
<glyph unicode="&#x12c;" horiz-adv-x="897" d="M102 1397q0 27 33 33q27 4 146.5 12t175.5 8q236 0 309 -12q29 -4 29 -31q0 -16 -10.5 -24.5t-24.5 -6.5q-53 6 -104.5 8t-129.5 2q0 -389 -8 -676.5t-33 -629.5l279 -4q31 0 31 -33t-31 -33l-625 10q-10 0 -18 9.5t-8 23.5q0 31 30 31l279 -4q23 367 32 655.5t9 650.5 q-92 -2 -258 -16l-72 -4q-14 0 -22.5 8t-8.5 23zM166 1827q0 10 6 17.5t17 7.5q35 0 35 -21q0 -80 69.5 -132t163.5 -52q55 0 105.5 26.5t81 68.5t30.5 83q0 16 12.5 24.5t24.5 8.5q10 0 18.5 -6t8.5 -19q0 -59 -39 -115.5t-103.5 -91t-138.5 -34.5q-86 0 -152.5 33.5 t-102.5 88t-36 113.5z" />
<glyph unicode="&#x12d;" horiz-adv-x="643" d="M35 1417q0 10 6 17.5t17 7.5q35 0 35 -21q0 -80 69.5 -132t163.5 -52q55 0 105.5 26.5t81 68.5t30.5 83q0 16 12.5 24.5t24.5 8.5q10 0 18.5 -6t8.5 -19q0 -59 -39 -115.5t-103.5 -91t-138.5 -34.5q-86 0 -152.5 33.5t-102.5 88t-36 113.5zM279 57l20 930q0 45 33 45 q35 0 35 -45l-29 -930q0 -45 -27 -45q-32 0 -32 45z" />
<glyph unicode="&#x12e;" horiz-adv-x="897" d="M102 1397q0 27 33 33q27 4 146.5 12t175.5 8q236 0 309 -12q29 -4 29 -31q0 -16 -10.5 -24.5t-24.5 -6.5q-53 6 -104.5 8t-129.5 2q0 -389 -8 -676.5t-33 -629.5l279 -4q31 0 31 -33q0 -25 -17 -31q-57 -47 -89 -88t-32 -92q0 -82 107 -82q18 0 35.5 6t23.5 6t11.5 -6 t5.5 -14q0 -41 -80 -41q-164 0 -164 129q0 94 92 182l-549 8q-10 0 -18 9.5t-8 23.5q0 31 30 31l279 -4q23 367 32 655.5t9 650.5q-92 -2 -258 -16l-72 -4q-14 0 -22.5 8t-8.5 23z" />
<glyph unicode="&#x12f;" horiz-adv-x="643" d="M137 -170q0 119 142 221v6l20 930q0 45 33 45q35 0 35 -45l-29 -930q0 -37 -16 -43l-3 -2q-57 -47 -88.5 -88t-31.5 -92q0 -82 106 -82q18 0 35.5 6t24.5 6q6 0 11 -6t5 -14q0 -41 -80 -41q-164 0 -164 129zM246 1282q0 33 21.5 53.5t56.5 20.5t56 -20.5t21 -53.5 q0 -35 -21.5 -57.5t-55.5 -22.5q-35 0 -56.5 22.5t-21.5 57.5z" />
<glyph unicode="&#x130;" horiz-adv-x="897" d="M102 1397q0 27 33 33q27 4 146.5 12t175.5 8q236 0 309 -12q29 -4 29 -31q0 -16 -10.5 -24.5t-24.5 -6.5q-53 6 -104.5 8t-129.5 2q0 -389 -8 -676.5t-33 -629.5l279 -4q31 0 31 -33t-31 -33l-625 10q-10 0 -18 9.5t-8 23.5q0 31 30 31l279 -4q23 367 32 655.5t9 650.5 q-92 -2 -258 -16l-72 -4q-14 0 -22.5 8t-8.5 23zM377 1692q0 33 21.5 53.5t56.5 20.5t56.5 -20.5t21.5 -53.5q0 -35 -21.5 -57.5t-56.5 -22.5t-56.5 22.5t-21.5 57.5z" />
<glyph unicode="&#x131;" horiz-adv-x="643" d="M279 57l20 930q0 45 33 45q35 0 35 -45l-29 -930q0 -45 -27 -45q-32 0 -32 45z" />
<glyph unicode="&#x132;" horiz-adv-x="2099" d="M102 1397q0 27 33 33q27 4 146.5 12t175.5 8q236 0 309 -12q29 -4 29 -31q0 -16 -10.5 -24.5t-24.5 -6.5q-53 6 -104.5 8t-129.5 2q0 -389 -8 -676.5t-33 -629.5l279 -4q31 0 31 -33t-31 -33l-625 10q-10 0 -18 9.5t-8 23.5q0 31 30 31l279 -4q23 367 32 655.5t9 650.5 q-92 -2 -258 -16l-72 -4q-14 0 -22.5 8t-8.5 23zM999 514q0 41 33 41q31 0 31 -41q0 -190 48 -288.5t118.5 -128t161.5 -29.5q156 0 252 109.5t96 350.5v254q0 352 12 590q-141 -4 -195 -10h-4q-25 0 -24 29q0 29 26 32q74 8 215 9h117q68 0 86 -2q25 -2 25 -31 q0 -14 -7.5 -22.5t-17.5 -8.5q-86 4 -160 4q-12 -209 -12 -510l2 -332q0 -260 -112.5 -393t-294.5 -133q-166 0 -281 110.5t-115 399.5z" />
<glyph unicode="&#x133;" horiz-adv-x="1103" d="M143 1307q0 39 27 66.5t68 27.5q39 0 63.5 -25.5t24.5 -66.5t-28 -65.5t-65 -24.5q-36 0 -63 25.5t-27 62.5zM168 43l20 948q0 41 33 41q16 0 24.5 -9t8.5 -32l-23 -946q0 -33 -30 -33q-33 0 -33 31zM305 -211q0 29 6 39t23 10q35 0 35 -45q12 -215 182 -215 q127 0 195.5 122t72.5 347l8 391q8 410 9 533q0 29 6 39t26 10q18 0 24.5 -10.5t6.5 -42.5q0 -197 -6 -455q-4 -152 -8 -465q-4 -244 -91 -387t-233 -143q-106 0 -181 75.5t-75 196.5zM778 1305q0 39 26.5 66.5t67.5 27.5q39 0 64 -25.5t25 -66.5t-28 -65.5t-65 -24.5 t-63.5 25.5t-26.5 62.5z" />
<glyph unicode="&#x134;" horiz-adv-x="1202" d="M102 514q0 41 33 41q31 0 31 -41q0 -190 48 -288.5t118.5 -128t161.5 -29.5q156 0 252 109.5t96 350.5v254q0 352 12 590q-141 -4 -195 -10h-4q-25 0 -24 29q0 29 26 32q74 8 215 9h117q68 0 86 -2q25 -2 25 -31q0 -14 -7.5 -22.5t-17.5 -8.5q-86 4 -160 4 q-12 -209 -12 -510l2 -332q0 -260 -112.5 -393t-294.5 -133q-166 0 -281 110.5t-115 399.5zM591 1620q0 12 13 25l49 51q72 80 127 131t90 51q49 0 123 -78.5t137 -175.5q8 -12 8 -18q0 -8 -8 -16.5t-18 -8.5q-17 1 -27 15q-66 98 -127 162.5t-86 64.5q-20 0 -79.5 -57.5 t-131.5 -143.5q-25 -31 -41 -30q-10 0 -19.5 9t-9.5 19z" />
<glyph unicode="&#x135;" horiz-adv-x="573" d="M-164 -211q0 29 6 39t23 10q35 0 35 -45q12 -215 182 -215q127 0 195.5 122t72.5 347l8 391q8 410 9 533q0 29 6 39t26 10q18 0 24.5 -10.5t6.5 -42.5q0 -197 -6 -455q-4 -152 -8 -465q-2 -174 -45 -293t-116 -178t-163 -59q-106 0 -181 75.5t-75 196.5zM118 1210 q0 12 13 25l49 51q72 80 127 131t90 51q49 0 123 -78.5t137 -175.5q8 -12 8 -18q0 -8 -8 -16.5t-18 -8.5q-17 1 -27 15q-66 98 -127 162.5t-86 64.5q-20 0 -79.5 -57.5t-131.5 -143.5q-25 -31 -41 -30q-10 0 -19.5 9t-9.5 19z" />
<glyph unicode="&#x136;" horiz-adv-x="1267" d="M164 43l2 246q6 219 6 510l-2 600q0 12 10 20t25 8q14 0 23.5 -10t9.5 -24l2 -584q184 113 413 262q270 180 463 332q10 6 19 6q12 0 21 -9t9 -24q0 -16 -14 -28q-92 -70 -451 -320q-109 -76 -270 -176l-149 -96l75 -78q129 -133 293 -272q111 -94 182.5 -147.5 t190.5 -135.5l84 -57q16 -10 16 -27q0 -12 -8 -22.5t-20 -10.5t-25 8q-119 78 -219 155t-240 191q-123 102 -196.5 173t-175.5 182q0 -156 -5 -414l-2 -254q0 -43 -36 -43q-18 0 -24.5 9.5t-6.5 29.5zM459 -502q0 6 8 15q100 100 123 151h-10q-33 0 -59.5 25.5t-26.5 60.5 q0 37 26.5 61.5t61.5 24.5t60.5 -25.5t25.5 -60.5q0 -61 -43 -131t-121 -133q-16 -12 -22 -12q-8 0 -15.5 7t-7.5 17z" />
<glyph unicode="&#x137;" horiz-adv-x="1011" d="M143 18l2 1543q0 37 33 36q33 0 33 -36l-4 -889l665 409q10 6 21 6q10 0 21.5 -17t9.5 -32q-2 -10 -19 -20l-696 -424l706 -516q14 -10 15 -27q0 -16 -11.5 -27.5t-25.5 -11.5q-10 0 -41 23q-393 289 -643 479l-2 -494q0 -27 -31 -26q-33 -1 -33 24zM389 -502q0 6 8 15 q100 100 123 151h-10q-33 0 -59.5 25.5t-26.5 60.5q0 37 26.5 61.5t61.5 24.5t60.5 -25.5t25.5 -60.5q0 -61 -43 -131t-121 -133q-16 -12 -22 -12q-8 0 -15.5 7t-7.5 17z" />
<glyph unicode="&#x138;" horiz-adv-x="1011" d="M143 18l2 1026q0 37 33 37t33 -37l-4 -372l665 409q10 6 21 6q10 0 21.5 -17t9.5 -32q-2 -10 -19 -20l-696 -424l706 -516q14 -10 15 -27q0 -16 -11.5 -27.5t-25.5 -11.5q-10 0 -41 23q-291 221 -459 344q-129 94 -184 135l-2 -494q0 -27 -31 -26q-33 -1 -33 24z" />
<glyph unicode="&#x139;" horiz-adv-x="1040" d="M123 414q0 213 22.5 447.5t71.5 541.5q6 35 37 35q33 0 27 -41q-55 -381 -74 -571.5t-19 -411.5q0 -147 15.5 -216t75 -102t190.5 -33q100 0 190.5 11.5t253.5 42.5l13 2q33 0 32 -33q0 -33 -34 -39q-141 -27 -233.5 -37t-190.5 -10q-172 0 -250 34t-102.5 116.5 t-24.5 263.5zM178 1586q0 12 21 34l149 174q31 37 51 37q12 0 20.5 -8t8.5 -22q0 -10 -7 -19.5t-13.5 -15.5t-8.5 -8l-162 -177q-20 -20 -36 -20q-9 0 -16 7t-7 18z" />
<glyph unicode="&#x13a;" horiz-adv-x="444" d="M137 1774q0 12 21 34l149 174q31 37 51 37q12 0 20.5 -8t8.5 -22q0 -10 -7 -19.5t-13.5 -15.5t-8.5 -8l-162 -177q-20 -20 -36 -20q-9 0 -16 7t-7 18zM184 1583q0 39 35 39q31 0 31 -39l10 -1528q0 -37 -31 -37q-32 0 -32 37z" />
<glyph unicode="&#x13b;" horiz-adv-x="1040" d="M123 414q0 213 22.5 447.5t71.5 541.5q6 35 37 35q33 0 27 -41q-55 -381 -74 -571.5t-19 -411.5q0 -147 15.5 -216t75 -102t190.5 -33q100 0 190.5 11.5t253.5 42.5l13 2q33 0 32 -33q0 -33 -34 -39q-141 -27 -233.5 -37t-190.5 -10q-172 0 -250 34t-102.5 116.5 t-24.5 263.5zM387 -502q0 6 8 15q100 100 123 151h-10q-33 0 -59.5 25.5t-26.5 60.5q0 37 26.5 61.5t61.5 24.5t60.5 -25.5t25.5 -60.5q0 -61 -43 -131t-121 -133q-16 -12 -22 -12q-8 0 -15.5 7t-7.5 17z" />
<glyph unicode="&#x13c;" horiz-adv-x="444" d="M98 -502q0 6 8 15q100 100 123 151h-10q-33 0 -59.5 25.5t-26.5 60.5q0 37 26.5 61.5t61.5 24.5t60.5 -25.5t25.5 -60.5q0 -61 -43 -131t-121 -133q-16 -12 -22 -12q-8 0 -15.5 7t-7.5 17zM184 1583q0 39 35 39q31 0 31 -39l10 -1528q0 -37 -31 -37q-32 0 -32 37z" />
<glyph unicode="&#x13d;" horiz-adv-x="1040" d="M123 414q0 213 22.5 447.5t71.5 541.5q6 35 37 35q33 0 27 -41q-55 -381 -74 -571.5t-19 -411.5q0 -147 15.5 -216t75 -102t190.5 -33q100 0 190.5 11.5t253.5 42.5l13 2q33 0 32 -33q0 -33 -34 -39q-141 -27 -233.5 -37t-190.5 -10q-172 0 -250 34t-102.5 116.5 t-24.5 263.5zM633 1093q0 6 4 11q4 4 55 54t68 99q-4 -2 -15 -2q-33 0 -58.5 24.5t-25.5 59.5q0 37 26.5 61.5t61.5 24.5t60.5 -25.5t25.5 -60.5q0 -55 -42 -119.5t-122 -144.5q-6 -6 -14 -6q-10 0 -17 7t-7 17z" />
<glyph unicode="&#x13e;" horiz-adv-x="677" d="M184 1583q0 39 35 39q31 0 31 -39l10 -1528q0 -37 -31 -37q-32 0 -32 37zM426 1296q0 6 4 11q4 4 55 54t68 99q-4 -2 -15 -2q-33 0 -58.5 24.5t-25.5 59.5q0 37 26.5 61.5t61.5 24.5t60.5 -25.5t25.5 -60.5q0 -55 -42 -119.5t-122 -144.5q-6 -6 -14 -6q-10 0 -17 7t-7 17 z" />
<glyph unicode="&#x13f;" horiz-adv-x="1040" d="M123 414q0 213 22.5 447.5t71.5 541.5q6 35 37 35q33 0 27 -41q-55 -381 -74 -571.5t-19 -411.5q0 -147 15.5 -216t75 -102t190.5 -33q100 0 190.5 11.5t253.5 42.5l13 2q33 0 32 -33q0 -33 -34 -39q-141 -27 -233.5 -37t-190.5 -10q-172 0 -250 34t-102.5 116.5 t-24.5 263.5zM428 684q0 57 41 96t97 39q55 0 94 -39t39 -96q0 -61 -39 -97t-94 -36q-56 0 -97 38.5t-41 94.5z" />
<glyph unicode="&#x140;" horiz-adv-x="659" d="M184 1583q0 39 35 39q31 0 31 -39l10 -1528q0 -37 -31 -37q-32 0 -32 37zM368 510q0 57 41 96t97 39q55 0 94 -39t39 -96q0 -61 -39 -97t-94 -36q-56 0 -97 38.5t-41 94.5z" />
<glyph unicode="&#x141;" horiz-adv-x="1040" d="M10 571q0 18 29 43l92 74q20 313 86 715q6 35 37 35q33 0 27 -41q-59 -403 -82 -654l346 279q16 12 30 12q12 0 23 -10q4 -4 4 -14q0 -27 -20 -41l-387 -316q-6 -117 -7 -239q0 -147 15.5 -216t75 -102t190.5 -33q100 0 190.5 11.5t253.5 42.5l13 2q33 0 32 -33 q0 -33 -34 -39q-141 -27 -233.5 -37t-190.5 -10q-172 0 -250 34t-102.5 116.5t-24.5 263.5q0 61 4 184l-49 -39q-23 -16 -37 -16q-12 0 -25 12q-6 6 -6 16z" />
<glyph unicode="&#x142;" horiz-adv-x="571" d="M20 786q0 8 5.5 14.5t19.5 14.5l229 131l-4 637q0 39 35 39q31 0 31 -39l4 -600l168 96l6 2q14 0 25.5 -10t11.5 -27q0 -12 -7 -19t-24 -15l-180 -101l6 -854q0 -37 -31 -37q-33 0 -32 37l-7 819l-200 -112q-16 -8 -25 -8q-10 0 -20.5 8t-10.5 24z" />
<glyph unicode="&#x143;" horiz-adv-x="1454" d="M164 1356q0 86 57 86q37 0 143.5 -148.5t266.5 -400.5q29 -49 50 -82t36 -53q166 -256 287.5 -434.5t181.5 -225.5q16 37 26.5 127t10.5 295l-2 901q0 35 32 35q37 0 37 -41l-2 -891q0 -215 -10 -320.5t-29.5 -140t-56.5 -34.5q-59 0 -200.5 199.5t-325.5 490.5 q-346 543 -439 645v-111l2 -272q2 -76 2 -246q0 -299 2 -401v-287q0 -8 -10 -15t-22 -7t-22.5 6t-10.5 16v682q0 193 -2 279zM653 1586q0 12 21 34l149 174q31 37 51 37q12 0 20.5 -8t8.5 -22q0 -10 -7 -19.5t-13.5 -15.5t-8.5 -8l-162 -177q-20 -20 -36 -20q-9 0 -16 7 t-7 18z" />
<glyph unicode="&#x144;" horiz-adv-x="1105" d="M143 991q0 14 13.5 22.5t25.5 8.5q14 0 29 -23q61 -96 61 -184v-86q29 133 120 221t245 88q164 0 245 -116.5t81 -366.5v-510q0 -39 -31 -39q-33 0 -33 37v514q0 217 -60.5 318.5t-211.5 101.5q-131 0 -210 -87t-116 -308q-18 -111 -18 -226l2 -327q0 -25 -31 -25 q-33 0 -33 25q-4 236 -8 358q-2 74 -4 202t-2 226q0 41 -8.5 63.5t-26.5 55.5q-4 6 -22 37q-6 10 -7 20zM510 1176q0 12 21 34l149 174q31 37 51 37q12 0 20.5 -8t8.5 -22q0 -10 -7 -19.5t-13.5 -15.5t-8.5 -8l-162 -177q-20 -20 -36 -20q-9 0 -16 7t-7 18z" />
<glyph unicode="&#x145;" horiz-adv-x="1454" d="M164 1356q0 86 57 86q37 0 143.5 -148.5t266.5 -400.5q29 -49 50 -82t36 -53q166 -256 287.5 -434.5t181.5 -225.5q16 37 26.5 127t10.5 295l-2 901q0 35 32 35q37 0 37 -41l-2 -891q0 -215 -10 -320.5t-29.5 -140t-56.5 -34.5q-59 0 -200.5 199.5t-325.5 490.5 q-346 543 -439 645v-111l2 -272q2 -76 2 -246q0 -299 2 -401v-287q0 -8 -10 -15t-22 -7t-22.5 6t-10.5 16v682q0 193 -2 279zM608 -502q0 6 8 15q100 100 123 151h-10q-33 0 -59.5 25.5t-26.5 60.5q0 37 26.5 61.5t61.5 24.5t60.5 -25.5t25.5 -60.5q0 -61 -43 -131 t-121 -133q-16 -12 -22 -12q-8 0 -15.5 7t-7.5 17z" />
<glyph unicode="&#x146;" horiz-adv-x="1105" d="M143 991q0 14 13.5 22.5t25.5 8.5q14 0 29 -23q61 -96 61 -184v-86q29 133 120 221t245 88q164 0 245 -116.5t81 -366.5v-510q0 -39 -31 -39q-33 0 -33 37v514q0 217 -60.5 318.5t-211.5 101.5q-131 0 -210 -87t-116 -308q-18 -111 -18 -226l2 -327q0 -25 -31 -25 q-33 0 -33 25q-4 236 -8 358q-2 74 -4 202t-2 226q0 41 -8.5 63.5t-26.5 55.5q-4 6 -22 37q-6 10 -7 20zM465 -502q0 6 8 15q100 100 123 151h-10q-33 0 -59.5 25.5t-26.5 60.5q0 37 26.5 61.5t61.5 24.5t60.5 -25.5t25.5 -60.5q0 -61 -43 -131t-121 -133q-16 -12 -22 -12 q-8 0 -15.5 7t-7.5 17z" />
<glyph unicode="&#x147;" horiz-adv-x="1454" d="M164 1356q0 86 57 86q37 0 143.5 -148.5t266.5 -400.5q29 -49 50 -82t36 -53q166 -256 287.5 -434.5t181.5 -225.5q16 37 26.5 127t10.5 295l-2 901q0 35 32 35q37 0 37 -41l-2 -891q0 -215 -10 -320.5t-29.5 -140t-56.5 -34.5q-59 0 -200.5 199.5t-325.5 490.5 q-346 543 -439 645v-111l2 -272q2 -76 2 -246q0 -299 2 -401v-287q0 -8 -10 -15t-22 -7t-22.5 6t-10.5 16v682q0 193 -2 279zM456 1829q0 10 9.5 19.5t19.5 9.5q16 0 41 -31q72 -86 131.5 -143t79.5 -57q25 0 86.5 64.5t126.5 162.5q10 14 27 14q10 0 18 -8t8 -16 q0 -6 -8 -19q-63 -96 -137 -175t-123 -79q-35 0 -90 51.5t-127 130.5l-49 52q-12 12 -13 24z" />
<glyph unicode="&#x148;" horiz-adv-x="1105" d="M143 991q0 14 13.5 22.5t25.5 8.5q14 0 29 -23q61 -96 61 -184v-86q29 133 120 221t245 88q164 0 245 -116.5t81 -366.5v-510q0 -39 -31 -39q-33 0 -33 37v514q0 217 -60.5 318.5t-211.5 101.5q-131 0 -210 -87t-116 -308q-18 -111 -18 -226l2 -327q0 -25 -31 -25 q-33 0 -33 25q-4 236 -8 358q-2 74 -4 202t-2 226q0 41 -8.5 63.5t-26.5 55.5q-4 6 -22 37q-6 10 -7 20zM313 1419q0 10 9.5 19.5t19.5 9.5q16 0 41 -31q72 -86 131.5 -143t79.5 -57q25 0 86.5 64.5t126.5 162.5q10 14 27 14q10 0 18 -8t8 -16q0 -6 -8 -19 q-63 -96 -137 -175t-123 -79q-35 0 -90 51.5t-127 130.5l-49 52q-12 12 -13 24z" />
<glyph unicode="&#x149;" horiz-adv-x="1255" d="M21 1087q0 6 4 11q4 4 55 54t68 99q-4 -2 -15 -2q-33 0 -58.5 24.5t-25.5 59.5q0 37 26.5 61.5t61.5 24.5t60.5 -25.5t25.5 -60.5q0 -55 -42 -119.5t-122 -144.5q-6 -6 -14 -6q-10 0 -17 7t-7 17zM293 991q0 14 13.5 22.5t25.5 8.5q14 0 29 -23q61 -96 61 -184v-86 q29 133 120 221t245 88q164 0 245 -116.5t81 -366.5v-510q0 -39 -31 -39q-33 0 -33 37v514q0 217 -60.5 318.5t-211.5 101.5q-131 0 -210 -87t-116 -308q-18 -111 -18 -226l2 -327q0 -25 -31 -25q-33 0 -33 25q-4 236 -8 358q-2 74 -4 202t-2 226q0 41 -8.5 63.5t-26.5 55.5 q-4 6 -22 37q-6 10 -7 20z" />
<glyph unicode="&#x14a;" horiz-adv-x="1454" d="M164 1356q0 86 57 86q37 0 143.5 -148.5t266.5 -400.5q29 -49 50 -82t36 -53q166 -256 287.5 -434.5t181.5 -225.5q29 63 35 258l2 406l-2 659q0 35 32 35q37 0 37 -41l-2 -891q0 -90 -4 -200l-2 -330q-2 -233 -92 -355t-229 -122q-106 0 -181 67.5t-75 175.5q0 27 6 36 t24 9q35 0 35 -36q0 -102 52 -149.5t132 -47.5q125 0 194 112.5t71 309.5v39q-16 -4 -27 -4q-59 0 -200.5 199.5t-325.5 490.5q-346 543 -439 645v-111l2 -272q2 -76 2 -246q0 -299 2 -401v-287q0 -8 -10 -15t-22 -7t-22.5 6t-10.5 16v682q0 193 -2 279z" />
<glyph unicode="&#x14b;" horiz-adv-x="1116" d="M143 995q0 29 33 29q12 0 21.5 -11.5t29.5 -43.5q14 -25 29.5 -58.5t15.5 -46.5v-155q31 193 118 261t226 68q201 0 278 -131t77 -352l2 -291q0 -203 -19.5 -326.5t-83 -195.5t-190.5 -72q-49 0 -49 35q0 33 45 33q94 0 142 59.5t63.5 164t15.5 269.5l-2 316 q0 211 -58.5 319.5t-224.5 108.5q-92 0 -150.5 -38t-94 -123t-60.5 -232q-20 -123 -20 -248q0 -68 2 -107l2 -184q0 -39 -33 -39q-31 0 -31 43l-24 797q0 16 -10.5 38.5t-42.5 88.5q-6 18 -7 24z" />
<glyph unicode="&#x14c;" horiz-adv-x="1568" d="M102 698q0 215 81 385t229.5 265.5t345.5 95.5t358.5 -95.5t255.5 -267.5t94 -391q0 -229 -100 -379.5t-259 -220.5t-337 -70q-174 0 -325.5 69t-247 220.5t-95.5 388.5zM166 707q0 -229 95 -368.5t234.5 -197t280.5 -57.5q150 0 293 61.5t238.5 198.5t95.5 350 q0 197 -84 353.5t-230.5 244.5t-324.5 88q-172 0 -308.5 -83t-213 -236.5t-76.5 -353.5zM428 1633q0 27 22 30q35 8 132.5 18.5t240.5 10.5l268 -2q35 0 35 -31q0 -14 -7 -20t-26 -6h-53q-49 2 -252 2q-145 0 -232 -14.5t-98 -16.5h-6q-12 0 -18 6t-6 23z" />
<glyph unicode="&#x14d;" horiz-adv-x="1239" d="M102 504q0 162 59.5 285.5t173.5 194.5t275 71q150 0 269.5 -62.5t188.5 -185.5t69 -295q0 -256 -144.5 -384t-374.5 -128q-210 0 -363 114.5t-153 389.5zM166 510q0 -164 67.5 -263.5t169 -141.5t213.5 -42q123 0 226.5 49.5t167 151t63.5 250.5q0 145 -59.5 252.5 t-165 166t-236.5 58.5q-133 0 -234.5 -59.5t-156.5 -169t-55 -252.5zM260 1223q0 27 22 30q35 8 132.5 18.5t240.5 10.5l268 -2q35 0 35 -31q0 -14 -7 -20t-26 -6h-53q-49 2 -252 2q-145 0 -232 -14.5t-98 -16.5h-6q-12 0 -18 6t-6 23z" />
<glyph unicode="&#x14e;" horiz-adv-x="1568" d="M102 698q0 215 81 385t229.5 265.5t345.5 95.5t358.5 -95.5t255.5 -267.5t94 -391q0 -229 -100 -379.5t-259 -220.5t-337 -70q-174 0 -325.5 69t-247 220.5t-95.5 388.5zM166 707q0 -229 95 -368.5t234.5 -197t280.5 -57.5q150 0 293 61.5t238.5 198.5t95.5 350 q0 197 -84 353.5t-230.5 244.5t-324.5 88q-172 0 -308.5 -83t-213 -236.5t-76.5 -353.5zM495 1827q0 10 6 17.5t17 7.5q35 0 35 -21q0 -80 69.5 -132t163.5 -52q55 0 105.5 26.5t81 68.5t30.5 83q0 16 12.5 24.5t24.5 8.5q10 0 18.5 -6t8.5 -19q0 -59 -39 -115.5t-103.5 -91 t-138.5 -34.5q-86 0 -152.5 33.5t-102.5 88t-36 113.5z" />
<glyph unicode="&#x14f;" horiz-adv-x="1239" d="M102 504q0 162 59.5 285.5t173.5 194.5t275 71q150 0 269.5 -62.5t188.5 -185.5t69 -295q0 -256 -144.5 -384t-374.5 -128q-210 0 -363 114.5t-153 389.5zM166 510q0 -164 67.5 -263.5t169 -141.5t213.5 -42q123 0 226.5 49.5t167 151t63.5 250.5q0 145 -59.5 252.5 t-165 166t-236.5 58.5q-133 0 -234.5 -59.5t-156.5 -169t-55 -252.5zM327 1417q0 10 6 17.5t17 7.5q35 0 35 -21q0 -80 69.5 -132t163.5 -52q55 0 105.5 26.5t81 68.5t30.5 83q0 16 12.5 24.5t24.5 8.5q10 0 18.5 -6t8.5 -19q0 -59 -39 -115.5t-103.5 -91t-138.5 -34.5 q-86 0 -152.5 33.5t-102.5 88t-36 113.5z" />
<glyph unicode="&#x150;" horiz-adv-x="1568" d="M102 698q0 215 81 385t229.5 265.5t345.5 95.5t358.5 -95.5t255.5 -267.5t94 -391q0 -229 -100 -379.5t-259 -220.5t-337 -70q-174 0 -325.5 69t-247 220.5t-95.5 388.5zM166 707q0 -229 95 -368.5t234.5 -197t280.5 -57.5q150 0 293 61.5t238.5 198.5t95.5 350 q0 197 -84 353.5t-230.5 244.5t-324.5 88q-172 0 -308.5 -83t-213 -236.5t-76.5 -353.5zM553 1586q0 12 20 34l150 174q31 37 51 37q10 0 19 -8t9 -22q0 -10 -7 -19.5t-13 -15.5l-8 -8l-162 -177q-20 -20 -37 -20q-8 0 -15 7t-7 18zM755 1586q0 12 21 34l149 174 q31 37 51 37q12 0 20.5 -8t8.5 -22q0 -10 -7 -19.5t-13 -15.5t-9 -8l-161 -177q-20 -20 -37 -20q-8 0 -15.5 7t-7.5 18z" />
<glyph unicode="&#x151;" horiz-adv-x="1239" d="M102 504q0 162 59.5 285.5t173.5 194.5t275 71q150 0 269.5 -62.5t188.5 -185.5t69 -295q0 -256 -144.5 -384t-374.5 -128q-210 0 -363 114.5t-153 389.5zM166 510q0 -164 67.5 -263.5t169 -141.5t213.5 -42q123 0 226.5 49.5t167 151t63.5 250.5q0 145 -59.5 252.5 t-165 166t-236.5 58.5q-133 0 -234.5 -59.5t-156.5 -169t-55 -252.5zM385 1176q0 12 20 34l150 174q31 37 51 37q10 0 19 -8t9 -22q0 -10 -7 -19.5t-13 -15.5l-8 -8l-162 -177q-20 -20 -37 -20q-8 0 -15 7t-7 18zM587 1176q0 12 21 34l149 174q31 37 51 37q12 0 20.5 -8 t8.5 -22q0 -10 -7 -19.5t-13 -15.5t-9 -8l-161 -177q-20 -20 -37 -20q-8 0 -15.5 7t-7.5 18z" />
<glyph unicode="&#x152;" horiz-adv-x="1933" d="M102 709q0 221 65.5 393t187.5 268t288 96q205 0 346 -130t178 -339l-2 47q-8 168 -22 312q-33 0 -33 28q0 31 45 31q41 0 156 4q92 6 182 6q119 0 187.5 -2t150.5 -16q20 -4 20 -27q0 -18 -11 -27.5t-25 -6.5q-158 18 -314 18h-102q-129 0 -189 -6q8 -57 14.5 -158.5 t6.5 -155.5v-145v-111q113 0 285 -8l131 -4q29 0 28 -24q0 -12 -9 -21.5t-26 -9.5l-133 2q-123 6 -280 6l-2 -70q-4 -115 -12.5 -257t-22.5 -289l178 -13q68 -2 174 -10q61 -4 84 -4q53 0 174 16h12q27 0 27 -24q0 -18 -10 -24.5t-33 -10.5q-37 -6 -112.5 -9t-133.5 -1 l-57 2q-246 12 -385 12q-37 0 -50.5 7t-13.5 26q0 18 14.5 25.5t57.5 7.5q14 106 25 237q-37 -166 -170 -248t-332 -82q-233 0 -385 166t-152 523zM180 713q0 -340 134.5 -483.5t334.5 -143.5q230 0 365 142.5t135 467.5q0 207 -58.5 367t-173 249t-276.5 89 q-137 0 -241.5 -85t-162 -240.5t-57.5 -362.5z" />
<glyph unicode="&#x153;" horiz-adv-x="2154" d="M102 485q0 270 136.5 420t390.5 150q109 0 210 -45t171.5 -126t93.5 -188q27 96 94.5 176t166.5 128.5t218 48.5q137 0 243.5 -61.5t166 -158t59.5 -196.5q0 -53 -9 -69.5t-44 -18.5l-862 -23v-16q0 -119 59 -221.5t162.5 -162t228.5 -59.5q160 0 244 67t139 159 q6 8 19 8q12 0 25.5 -8t13.5 -23q0 -10 -13 -28q-74 -117 -186.5 -177.5t-251.5 -60.5q-178 0 -303 95t-168 237q-35 -160 -172 -246t-326 -86q-123 0 -237.5 47t-191.5 155.5t-77 282.5zM166 485q0 -143 67.5 -238t169 -139.5t205.5 -44.5q226 0 344.5 114t118.5 341 q0 143 -60.5 251t-163 165t-224.5 57q-215 0 -336 -130t-121 -376zM1143 575l856 23v35q0 90 -52.5 172t-146.5 131t-213 49q-127 0 -229.5 -59.5t-160.5 -154.5t-54 -196z" />
<glyph unicode="&#x154;" horiz-adv-x="1257" d="M123 1266q0 16 24 28l48 21q-2 31 -2 92q0 29 30 29q33 0 33 -27v-66q115 49 195.5 69t173.5 20q160 0 279.5 -50.5t185 -143.5t65.5 -218q0 -139 -79 -233.5t-206 -140.5t-272 -46q-131 0 -272 49l784 -553q16 -10 16 -28q0 -14 -10 -25.5t-22 -11.5t-35 16l-783 557 l-2 -579q0 -33 -34 -33q-18 0 -25.5 11t-7.5 46l2 213q4 180 4 359q0 147 -10 454l-6 166l-31 -14q-8 -4 -14 -4q-14 0 -21.5 15t-7.5 28zM258 1270q4 -135 8 -205q8 -197 10 -336q143 -66 310 -65q129 0 244.5 39.5t188.5 118.5t73 194q0 100 -59.5 181t-164 126t-239.5 45 q-88 0 -174 -23.5t-197 -74.5zM586 1586q0 12 21 34l149 174q31 37 51 37q12 0 20.5 -8t8.5 -22q0 -10 -7 -19.5t-13.5 -15.5t-8.5 -8l-162 -177q-20 -20 -36 -20q-9 0 -16 7t-7 18z" />
<glyph unicode="&#x155;" horiz-adv-x="950" d="M154 1038v4q0 14 10 22.5t24 8.5q31 0 31 -35l21 -368q20 195 113 284.5t229 89.5q137 0 201.5 -80.5t64.5 -189.5q0 -106 -57.5 -160.5t-137.5 -54.5q-25 0 -34 7t-9 24q0 16 8.5 23.5t24.5 9.5q61 6 101 33.5t40 115.5q0 82 -45 145.5t-159 63.5q-150 0 -223.5 -133 t-92.5 -381q-8 -111 -8 -324v-114q0 -43 -33 -43q-16 0 -23 9t-7 32l-5 436q-2 215 -30 530zM469 1176q0 12 21 34l149 174q31 37 51 37q12 0 20.5 -8t8.5 -22q0 -10 -7 -19.5t-13.5 -15.5t-8.5 -8l-162 -177q-20 -20 -36 -20q-9 0 -16 7t-7 18z" />
<glyph unicode="&#x156;" horiz-adv-x="1257" d="M123 1266q0 16 24 28l48 21q-2 31 -2 92q0 29 30 29q33 0 33 -27v-66q115 49 195.5 69t173.5 20q160 0 279.5 -50.5t185 -143.5t65.5 -218q0 -139 -79 -233.5t-206 -140.5t-272 -46q-131 0 -272 49l784 -553q16 -10 16 -28q0 -14 -10 -25.5t-22 -11.5t-35 16l-783 557 l-2 -579q0 -33 -34 -33q-18 0 -25.5 11t-7.5 46l2 213q4 180 4 359q0 147 -10 454l-6 166l-31 -14q-8 -4 -14 -4q-14 0 -21.5 15t-7.5 28zM258 1270q4 -135 8 -205q8 -197 10 -336q143 -66 310 -65q129 0 244.5 39.5t188.5 118.5t73 194q0 100 -59.5 181t-164 126t-239.5 45 q-88 0 -174 -23.5t-197 -74.5zM541 -502q0 6 8 15q100 100 123 151h-10q-33 0 -59.5 25.5t-26.5 60.5q0 37 26.5 61.5t61.5 24.5t60.5 -25.5t25.5 -60.5q0 -61 -43 -131t-121 -133q-16 -12 -22 -12q-8 0 -15.5 7t-7.5 17z" />
<glyph unicode="&#x157;" horiz-adv-x="950" d="M96 -502q0 6 8 15q100 100 123 151h-10q-33 0 -59.5 25.5t-26.5 60.5q0 37 26.5 61.5t61.5 24.5t60.5 -25.5t25.5 -60.5q0 -61 -43 -131t-121 -133q-16 -12 -22 -12q-8 0 -15.5 7t-7.5 17zM154 1038v4q0 14 10 22.5t24 8.5q31 0 31 -35l21 -368q20 195 113 284.5 t229 89.5q137 0 201.5 -80.5t64.5 -189.5q0 -106 -57.5 -160.5t-137.5 -54.5q-25 0 -34 7t-9 24q0 16 8.5 23.5t24.5 9.5q61 6 101 33.5t40 115.5q0 82 -45 145.5t-159 63.5q-150 0 -223.5 -133t-92.5 -381q-8 -111 -8 -324v-114q0 -43 -33 -43q-16 0 -23 9t-7 32l-5 436 q-2 215 -30 530z" />
<glyph unicode="&#x158;" horiz-adv-x="1257" d="M123 1266q0 16 24 28l48 21q-2 31 -2 92q0 29 30 29q33 0 33 -27v-66q115 49 195.5 69t173.5 20q160 0 279.5 -50.5t185 -143.5t65.5 -218q0 -139 -79 -233.5t-206 -140.5t-272 -46q-131 0 -272 49l784 -553q16 -10 16 -28q0 -14 -10 -25.5t-22 -11.5t-35 16l-783 557 l-2 -579q0 -33 -34 -33q-18 0 -25.5 11t-7.5 46l2 213q4 180 4 359q0 147 -10 454l-6 166l-31 -14q-8 -4 -14 -4q-14 0 -21.5 15t-7.5 28zM258 1270q4 -135 8 -205q8 -197 10 -336q143 -66 310 -65q129 0 244.5 39.5t188.5 118.5t73 194q0 100 -59.5 181t-164 126t-239.5 45 q-88 0 -174 -23.5t-197 -74.5zM389 1829q0 10 9.5 19.5t19.5 9.5q16 0 41 -31q72 -86 131.5 -143t79.5 -57q25 0 86.5 64.5t126.5 162.5q10 14 27 14q10 0 18 -8t8 -16q0 -6 -8 -19q-63 -96 -137 -175t-123 -79q-35 0 -90 51.5t-127 130.5l-49 52q-12 12 -13 24z" />
<glyph unicode="&#x159;" horiz-adv-x="950" d="M154 1038v4q0 14 10 22.5t24 8.5q31 0 31 -35l21 -368q20 195 113 284.5t229 89.5q137 0 201.5 -80.5t64.5 -189.5q0 -106 -57.5 -160.5t-137.5 -54.5q-25 0 -34 7t-9 24q0 16 8.5 23.5t24.5 9.5q61 6 101 33.5t40 115.5q0 82 -45 145.5t-159 63.5q-150 0 -223.5 -133 t-92.5 -381q-8 -111 -8 -324v-114q0 -43 -33 -43q-16 0 -23 9t-7 32l-5 436q-2 215 -30 530zM272 1419q0 10 9.5 19.5t19.5 9.5q16 0 41 -31q72 -86 131.5 -143t79.5 -57q25 0 86.5 64.5t126.5 162.5q10 14 27 14q10 0 18 -8t8 -16q0 -6 -8 -19q-63 -96 -137 -175t-123 -79 q-35 0 -90 51.5t-127 130.5l-49 52q-12 12 -13 24z" />
<glyph unicode="&#x15a;" horiz-adv-x="1032" d="M102 1065q0 113 57.5 200t154 134t208.5 47q131 0 220 -53.5t132.5 -140.5t43.5 -189q0 -12 -7.5 -21.5t-23.5 -9.5q-33 0 -33 31q0 141 -93 230t-239 89q-111 0 -191.5 -42t-122.5 -114.5t-42 -160.5q0 -98 50 -158.5t126 -94.5t205 -73q109 -33 187.5 -71.5t137 -117.5 t58.5 -204q0 -158 -107.5 -250t-279.5 -92q-140 0 -238 57.5t-148.5 153.5t-50.5 213q0 37 33 37q31 0 31 -33q0 -170 97.5 -267t275.5 -97q147 0 235 71.5t88 204.5q0 139 -92 216t-278 128q-111 29 -191 64.5t-141.5 112.5t-61.5 200zM448 1586q0 12 21 34l149 174 q31 37 51 37q12 0 20.5 -8t8.5 -22q0 -10 -7 -19.5t-13.5 -15.5t-8.5 -8l-162 -177q-20 -20 -36 -20q-9 0 -16 7t-7 18z" />
<glyph unicode="&#x15b;" horiz-adv-x="999" d="M143 272q0 14 11.5 24.5t27.5 10.5q12 0 20.5 -9t24.5 -40q113 -199 308 -199q115 0 186.5 58.5t71.5 142.5q0 59 -38 99t-93.5 65t-149.5 57q-109 37 -176.5 69t-113.5 86t-46 138q0 72 35 136.5t106.5 106.5t178.5 42q152 0 249 -82t97 -211q0 -27 -7.5 -36t-23.5 -9 q-35 0 -35 37q0 123 -84 180t-198 57q-141 0 -196.5 -71.5t-55.5 -147.5q0 -61 38.5 -103t96 -70t153.5 -60q106 -39 171 -70t110 -83t45 -128q0 -72 -39 -132t-112.5 -97t-172.5 -37q-137 0 -221 65.5t-153 178.5q-14 23 -15 32zM397 1169v7q0 12 14 28l177 215 q18 23 28 30t25 7q14 0 23.5 -10t9.5 -25q0 -18 -33 -55l-178 -190q-12 -12 -21.5 -18.5t-19.5 -6.5q-9 0 -16 5t-9 13z" />
<glyph unicode="&#x15c;" horiz-adv-x="1032" d="M102 1065q0 113 57.5 200t154 134t208.5 47q131 0 220 -53.5t132.5 -140.5t43.5 -189q0 -12 -7.5 -21.5t-23.5 -9.5q-33 0 -33 31q0 141 -93 230t-239 89q-111 0 -191.5 -42t-122.5 -114.5t-42 -160.5q0 -98 50 -158.5t126 -94.5t205 -73q109 -33 187.5 -71.5t137 -117.5 t58.5 -204q0 -158 -107.5 -250t-279.5 -92q-140 0 -238 57.5t-148.5 153.5t-50.5 213q0 37 33 37q31 0 31 -33q0 -170 97.5 -267t275.5 -97q147 0 235 71.5t88 204.5q0 139 -92 216t-278 128q-111 29 -191 64.5t-141.5 112.5t-61.5 200zM251 1620q0 12 13 25l49 51 q72 80 127 131t90 51q49 0 123 -78.5t137 -175.5q8 -12 8 -18q0 -8 -8 -16.5t-18 -8.5q-17 1 -27 15q-66 98 -127 162.5t-86 64.5q-20 0 -79.5 -57.5t-131.5 -143.5q-25 -31 -41 -30q-10 0 -19.5 9t-9.5 19z" />
<glyph unicode="&#x15d;" horiz-adv-x="999" d="M143 272q0 14 11.5 24.5t27.5 10.5q12 0 20.5 -9t24.5 -40q113 -199 308 -199q115 0 186.5 58.5t71.5 142.5q0 59 -38 99t-93.5 65t-149.5 57q-109 37 -176.5 69t-113.5 86t-46 138q0 72 35 136.5t106.5 106.5t178.5 42q152 0 249 -82t97 -211q0 -27 -7.5 -36t-23.5 -9 q-35 0 -35 37q0 123 -84 180t-198 57q-141 0 -196.5 -71.5t-55.5 -147.5q0 -61 38.5 -103t96 -70t153.5 -60q106 -39 171 -70t110 -83t45 -128q0 -72 -39 -132t-112.5 -97t-172.5 -37q-137 0 -221 65.5t-153 178.5q-14 23 -15 32zM241 1210q0 12 13 25l49 51q72 80 127 131 t90 51q49 0 123 -78.5t137 -175.5q8 -12 8 -18q0 -8 -8 -16.5t-18 -8.5q-17 1 -27 15q-66 98 -127 162.5t-86 64.5q-20 0 -79.5 -57.5t-131.5 -143.5q-25 -31 -41 -30q-10 0 -19.5 9t-9.5 19z" />
<glyph unicode="&#x15e;" horiz-adv-x="1032" d="M102 1065q0 113 57.5 200t154 134t208.5 47q131 0 220 -53.5t132.5 -140.5t43.5 -189q0 -12 -7.5 -21.5t-23.5 -9.5q-33 0 -33 31q0 141 -93 230t-239 89q-111 0 -191.5 -42t-122.5 -114.5t-42 -160.5q0 -98 50 -158.5t126 -94.5t205 -73q109 -33 187.5 -71.5t137 -117.5 t58.5 -204q0 -152 -98.5 -243t-260.5 -99l-2 -2l-84 -131q86 -18 138.5 -57t52.5 -99q0 -92 -69.5 -140t-168.5 -48q-55 0 -141 29q-12 4 -17.5 14t-3.5 20q2 12 12.5 17.5t26.5 1.5q29 -8 65 -16.5t66 -8.5q72 0 118 28t46 89q0 53 -48 79.5t-136 41.5q-39 6 -33 28 l103 156q-186 14 -288 133t-102 289q0 37 33 37q31 0 31 -33q0 -170 97.5 -267t275.5 -97q147 0 235 71.5t88 204.5q0 139 -92 216t-278 128q-111 29 -191 64.5t-141.5 112.5t-61.5 200z" />
<glyph unicode="&#x15f;" horiz-adv-x="999" d="M143 272q0 14 11.5 24.5t27.5 10.5q12 0 20.5 -9t24.5 -40q113 -199 308 -199q115 0 186.5 58.5t71.5 142.5q0 59 -38 99t-93.5 65t-149.5 57q-109 37 -176.5 69t-113.5 86t-46 138q0 72 35 136.5t106.5 106.5t178.5 42q152 0 249 -82t97 -211q0 -27 -7.5 -36t-23.5 -9 q-35 0 -35 37q0 123 -84 180t-198 57q-141 0 -196.5 -71.5t-55.5 -147.5q0 -61 38.5 -103t96 -70t153.5 -60q106 -39 171 -70t110 -83t45 -128q0 -104 -81 -181t-218 -85l-84 -119q74 -10 133.5 -51t59.5 -105q0 -92 -70 -140t-168 -48q-55 0 -141 29q-12 4 -17.5 14 t-3.5 21q2 12 12.5 17t26.5 1q29 -8 65 -16.5t66 -8.5q72 0 118 28t46 89q0 53 -48 80t-136 41q-18 2 -25.5 14.5t-1.5 22.5l88 135q-113 12 -184.5 74.5t-134.5 165.5q-14 23 -15 32z" />
<glyph unicode="&#x160;" horiz-adv-x="1032" d="M102 1065q0 113 57.5 200t154 134t208.5 47q131 0 220 -53.5t132.5 -140.5t43.5 -189q0 -12 -7.5 -21.5t-23.5 -9.5q-33 0 -33 31q0 141 -93 230t-239 89q-111 0 -191.5 -42t-122.5 -114.5t-42 -160.5q0 -98 50 -158.5t126 -94.5t205 -73q109 -33 187.5 -71.5t137 -117.5 t58.5 -204q0 -158 -107.5 -250t-279.5 -92q-140 0 -238 57.5t-148.5 153.5t-50.5 213q0 37 33 37q31 0 31 -33q0 -170 97.5 -267t275.5 -97q147 0 235 71.5t88 204.5q0 139 -92 216t-278 128q-111 29 -191 64.5t-141.5 112.5t-61.5 200zM251 1829q0 10 9.5 19.5t19.5 9.5 q16 0 41 -31q72 -86 131.5 -143t79.5 -57q25 0 86.5 64.5t126.5 162.5q10 14 27 14q10 0 18 -8t8 -16q0 -6 -8 -19q-63 -96 -137 -175t-123 -79q-35 0 -90 51.5t-127 130.5l-49 52q-12 12 -13 24z" />
<glyph unicode="&#x161;" horiz-adv-x="999" d="M143 272q0 14 11.5 24.5t27.5 10.5q12 0 20.5 -9t24.5 -40q113 -199 308 -199q115 0 186.5 58.5t71.5 142.5q0 59 -38 99t-93.5 65t-149.5 57q-109 37 -176.5 69t-113.5 86t-46 138q0 72 35 136.5t106.5 106.5t178.5 42q152 0 249 -82t97 -211q0 -27 -7.5 -36t-23.5 -9 q-35 0 -35 37q0 123 -84 180t-198 57q-141 0 -196.5 -71.5t-55.5 -147.5q0 -61 38.5 -103t96 -70t153.5 -60q106 -39 171 -70t110 -83t45 -128q0 -72 -39 -132t-112.5 -97t-172.5 -37q-137 0 -221 65.5t-153 178.5q-14 23 -15 32zM241 1419q0 10 9.5 19.5t19.5 9.5 q16 0 41 -31q72 -86 131.5 -143t79.5 -57q25 0 86.5 64.5t126.5 162.5q10 14 27 14q10 0 18 -8t8 -16q0 -6 -8 -19q-63 -96 -137 -175t-123 -79q-35 0 -90 51.5t-127 130.5l-49 52q-12 12 -13 24z" />
<glyph unicode="&#x162;" horiz-adv-x="1058" d="M61 1366q0 29 25 31q215 25 485 24q221 0 394 -14q32 -2 32 -35q0 -12 -7 -22.5t-21 -8.5q-203 16 -396 17q-25 -414 -32 -680l-6 -199q-10 -250 -15 -440q0 -20 -8 -29l-4 -8l-84 -131q86 -18 138 -57t52 -99q0 -92 -69.5 -140t-167.5 -48q-55 0 -141 29q-12 4 -17.5 14 t-3.5 20q2 12 12.5 17.5t26.5 1.5q29 -8 64.5 -16.5t66.5 -8.5q72 0 118 28t46 89q0 53 -48 79.5t-136 41.5q-39 6 -33 28l114 175l3 2v4q0 45 4 123.5t6 130.5q10 201 16 391q8 256 33 682q-127 -2 -205 -7t-213 -18h-4q-10 0 -17.5 9.5t-7.5 23.5z" />
<glyph unicode="&#x163;" horiz-adv-x="884" d="M102 891q0 16 9.5 24.5t21.5 6.5q119 -12 180 -15q18 193 54 430q2 18 10 26.5t22 8.5t23.5 -8t7.5 -27q-37 -256 -53 -434q66 -2 205 -2q35 0 34 -33q0 -29 -34 -28l-86 -2q-39 0 -125 4q-14 -178 -15 -291q0 -215 43 -351.5t150 -136.5q57 0 103 41t46 136 q0 20 6.5 31.5t24.5 11.5t25.5 -11.5t7.5 -42.5q0 -79 -47 -145t-127 -80l-88 -127q74 -10 133 -51t59 -105q0 -92 -69.5 -140t-167.5 -48q-55 0 -142 29q-12 4 -17 14t-3 21q2 12 12 17t27 1q29 -8 64.5 -16.5t66.5 -8.5q72 0 118 28t46 89q0 53 -48.5 80t-136.5 41 q-18 2 -25 14.5t-1 22.5l90 139q-213 41 -213 557q0 115 14 283q-117 8 -180 14q-14 2 -19.5 10.5t-5.5 22.5z" />
<glyph unicode="&#x164;" horiz-adv-x="1058" d="M61 1366q0 29 25 31q215 25 485 24q221 0 394 -14q32 -2 32 -35q0 -12 -7 -22.5t-21 -8.5q-203 16 -396 17q-25 -414 -32 -680l-6 -199q-10 -250 -15 -440q0 -39 -35 -39q-37 0 -36 31q0 45 4 123.5t6 130.5q10 201 16 391q8 256 33 682q-127 -2 -205 -7t-213 -18h-4 q-10 0 -17.5 9.5t-7.5 23.5zM249 1829q0 10 9.5 19.5t19.5 9.5q16 0 41 -31q72 -86 131.5 -143t79.5 -57q25 0 86.5 64.5t126.5 162.5q10 14 27 14q10 0 18 -8t8 -16q0 -6 -8 -19q-63 -96 -137 -175t-123 -79q-35 0 -90 51.5t-127 130.5l-49 52q-12 12 -13 24z" />
<glyph unicode="&#x165;" horiz-adv-x="923" d="M102 891q0 16 9.5 24.5t21.5 6.5q119 -12 180 -15q18 193 54 430q2 18 10 26.5t22 8.5t23.5 -8t7.5 -27q-37 -256 -53 -434q66 -2 205 -2q35 0 34 -33q0 -29 -34 -28l-86 -2q-39 0 -125 4q-14 -178 -15 -291q0 -215 43 -351.5t150 -136.5q57 0 103 41t46 136 q0 20 6.5 31.5t24.5 11.5q19 0 26 -11.5t7 -42.5q0 -90 -59.5 -159.5t-155.5 -69.5q-254 0 -254 561q0 115 14 283q-117 8 -180 14q-14 2 -19.5 10.5t-5.5 22.5zM701 1009q0 6 4 11q4 4 55 54t68 99q-4 -2 -15 -2q-33 0 -58.5 24.5t-25.5 59.5q0 37 26.5 61.5t61.5 24.5 t60.5 -25.5t25.5 -60.5q0 -55 -42 -119.5t-122 -144.5q-6 -6 -14 -6q-10 0 -17 7t-7 17z" />
<glyph unicode="&#x166;" horiz-adv-x="1058" d="M61 1366q0 29 25 31q215 25 485 24q221 0 394 -14q32 -2 32 -35q0 -12 -7 -22.5t-21 -8.5q-203 16 -396 17q-18 -285 -24 -443l252 -8q18 0 27.5 -6t9.5 -22q0 -33 -35 -33l-256 8l-6 -176l-6 -199q-10 -250 -15 -440q0 -39 -35 -39q-37 0 -36 31q0 45 4 123.5t6 130.5 q10 201 16 391l6 182l-258 8q-14 0 -22 9.5t-8 21.5q0 14 11 20.5t23 6.5l256 -9q6 143 25 443q-127 -2 -205 -7t-213 -18h-4q-10 0 -17.5 9.5t-7.5 23.5z" />
<glyph unicode="&#x167;" horiz-adv-x="901" d="M102 649q0 14 11.5 20.5t23.5 6.5l174 -6q4 150 15 276q-111 4 -183 17q-10 2 -17 11t-7 21q0 16 9 24.5t22 6.5q57 -8 180 -16q27 334 53 450q4 20 11 27.5t22 7.5q14 0 23.5 -8t6.5 -27q-23 -135 -47 -452q72 -2 199 -2q35 0 35 -33q0 -29 -35 -29h-133h-72 q-10 -123 -18 -276l200 -9q18 0 27.5 -6t9.5 -22q0 -33 -34 -33l-205 10v-14q0 -244 44 -374t156 -130q51 0 96.5 47t45.5 129q0 23 6 33t24 10q17 0 25 -11t8 -40q0 -92 -59.5 -161.5t-155.5 -69.5q-139 0 -196.5 149.5t-57.5 417.5v16l-176 8q-14 0 -22.5 9.5t-8.5 21.5z " />
<glyph unicode="&#x168;" horiz-adv-x="1255" d="M123 532q0 137 8 441q2 82 4 191.5t2 240.5q0 16 7.5 22.5t23.5 6.5q33 0 33 -33q0 -199 -6 -424q-2 -80 -4.5 -193.5t-2.5 -251.5q0 -217 104.5 -338.5t287.5 -121.5q166 0 274.5 67.5t158.5 164.5t50 190l-2 254q-6 559 -6 663q0 18 5 27.5t23 9.5q35 0 35 -37 q0 -102 4 -344l2 -238q9 -454 9 -798q0 -33 -33 -33q-16 0 -24.5 8t-8.5 27v248q-66 -125 -190.5 -200t-296.5 -75q-170 0 -272.5 82t-143.5 202t-41 242zM334 1618q0 10 10 21q43 53 75 75.5t81 22.5q86 0 164 -41q6 -4 33.5 -18.5t52 -22.5t43.5 -8q39 0 80 45 q18 20 30 21q6 0 17.5 -11.5t11.5 -19.5q0 -12 -8 -21q-37 -37 -67.5 -53t-67.5 -16q-29 0 -59.5 13t-35.5 15q-37 20 -59 27q-12 4 -59 22.5t-76 18.5q-20 0 -39.5 -14.5t-37 -33t-25.5 -26.5q-23 -23 -37 -22q-10 0 -17 6q-10 10 -10 20z" />
<glyph unicode="&#x169;" horiz-adv-x="1089" d="M143 471v526q0 29 31 29q14 0 23.5 -7t9.5 -22v-530q0 -205 62.5 -302t197.5 -97q195 0 276.5 175t81.5 445v316q0 35 31 34q33 0 33 -34l10 -807q0 -41 9.5 -67t23.5 -47.5t14 -31.5q0 -12 -10 -22.5t-23 -10.5q-27 0 -52 51.5t-27 116.5l-3 109q-39 -133 -134 -212 t-228 -79q-166 0 -246 116t-80 351zM225 1208q0 10 10 21q43 53 75 75.5t81 22.5q86 0 164 -41q6 -4 33.5 -18.5t52 -22.5t43.5 -8q39 0 80 45q18 20 30 21q6 0 17.5 -11.5t11.5 -19.5q0 -12 -8 -21q-37 -37 -67.5 -53t-67.5 -16q-29 0 -59.5 13t-35.5 15q-37 20 -59 27 q-12 4 -59 22.5t-76 18.5q-20 0 -39.5 -14.5t-37 -33t-25.5 -26.5q-23 -23 -37 -22q-10 0 -17 6q-10 10 -10 20z" />
<glyph unicode="&#x16a;" horiz-adv-x="1255" d="M123 532q0 137 8 441q2 82 4 191.5t2 240.5q0 16 7.5 22.5t23.5 6.5q33 0 33 -33q0 -199 -6 -424q-2 -80 -4.5 -193.5t-2.5 -251.5q0 -217 104.5 -338.5t287.5 -121.5q166 0 274.5 67.5t158.5 164.5t50 190l-2 254q-6 559 -6 663q0 18 5 27.5t23 9.5q35 0 35 -37 q0 -102 4 -344l2 -238q9 -454 9 -798q0 -33 -33 -33q-16 0 -24.5 8t-8.5 27v248q-66 -125 -190.5 -200t-296.5 -75q-170 0 -272.5 82t-143.5 202t-41 242zM273 1633q0 27 22 30q35 8 132.5 18.5t240.5 10.5l268 -2q35 0 35 -31q0 -14 -7 -20t-26 -6h-53q-49 2 -252 2 q-145 0 -232 -14.5t-98 -16.5h-6q-12 0 -18 6t-6 23z" />
<glyph unicode="&#x16b;" horiz-adv-x="1089" d="M143 471v526q0 29 31 29q14 0 23.5 -7t9.5 -22v-530q0 -205 62.5 -302t197.5 -97q195 0 276.5 175t81.5 445v316q0 35 31 34q33 0 33 -34l10 -807q0 -41 9.5 -67t23.5 -47.5t14 -31.5q0 -12 -10 -22.5t-23 -10.5q-27 0 -52 51.5t-27 116.5l-3 109q-39 -133 -134 -212 t-228 -79q-166 0 -246 116t-80 351zM164 1223q0 27 22 30q35 8 132.5 18.5t240.5 10.5l268 -2q35 0 35 -31q0 -14 -7 -20t-26 -6h-53q-49 2 -252 2q-145 0 -232 -14.5t-98 -16.5h-6q-12 0 -18 6t-6 23z" />
<glyph unicode="&#x16c;" horiz-adv-x="1255" d="M123 532q0 137 8 441q2 82 4 191.5t2 240.5q0 16 7.5 22.5t23.5 6.5q33 0 33 -33q0 -199 -6 -424q-2 -80 -4.5 -193.5t-2.5 -251.5q0 -217 104.5 -338.5t287.5 -121.5q166 0 274.5 67.5t158.5 164.5t50 190l-2 254q-6 559 -6 663q0 18 5 27.5t23 9.5q35 0 35 -37 q0 -102 4 -344l2 -238q9 -454 9 -798q0 -33 -33 -33q-16 0 -24.5 8t-8.5 27v248q-66 -125 -190.5 -200t-296.5 -75q-170 0 -272.5 82t-143.5 202t-41 242zM340 1827q0 10 6 17.5t17 7.5q35 0 35 -21q0 -80 69.5 -132t163.5 -52q55 0 105.5 26.5t81 68.5t30.5 83 q0 16 12.5 24.5t24.5 8.5q10 0 18.5 -6t8.5 -19q0 -59 -39 -115.5t-103.5 -91t-138.5 -34.5q-86 0 -152.5 33.5t-102.5 88t-36 113.5z" />
<glyph unicode="&#x16d;" horiz-adv-x="1089" d="M143 471v526q0 29 31 29q14 0 23.5 -7t9.5 -22v-530q0 -205 62.5 -302t197.5 -97q195 0 276.5 175t81.5 445v316q0 35 31 34q33 0 33 -34l10 -807q0 -41 9.5 -67t23.5 -47.5t14 -31.5q0 -12 -10 -22.5t-23 -10.5q-27 0 -52 51.5t-27 116.5l-3 109q-39 -133 -134 -212 t-228 -79q-166 0 -246 116t-80 351zM231 1417q0 10 6 17.5t17 7.5q35 0 35 -21q0 -80 69.5 -132t163.5 -52q55 0 105.5 26.5t81 68.5t30.5 83q0 16 12.5 24.5t24.5 8.5q10 0 18.5 -6t8.5 -19q0 -59 -39 -115.5t-103.5 -91t-138.5 -34.5q-86 0 -152.5 33.5t-102.5 88 t-36 113.5z" />
<glyph unicode="&#x16e;" horiz-adv-x="1255" d="M123 532q0 137 8 441q2 82 4 191.5t2 240.5q0 16 7.5 22.5t23.5 6.5q33 0 33 -33q0 -199 -6 -424q-2 -80 -4.5 -193.5t-2.5 -251.5q0 -217 104.5 -338.5t287.5 -121.5q166 0 274.5 67.5t158.5 164.5t50 190l-2 254q-6 559 -6 663q0 18 5 27.5t23 9.5q35 0 35 -37 q0 -102 4 -344l2 -238q9 -454 9 -798q0 -33 -33 -33q-16 0 -24.5 8t-8.5 27v248q-66 -125 -190.5 -200t-296.5 -75q-170 0 -272.5 82t-143.5 202t-41 242zM443 1700q0 78 56 131.5t140 53.5q78 0 130 -56.5t52 -128.5q0 -84 -53 -137t-135 -53q-80 0 -135 55t-55 135z M498 1700q0 -57 39 -96t96 -39t96 39t39 96q0 51 -39 91t-96 40q-59 0 -97 -40t-38 -91z" />
<glyph unicode="&#x16f;" horiz-adv-x="1089" d="M143 471v526q0 29 31 29q14 0 23.5 -7t9.5 -22v-530q0 -205 62.5 -302t197.5 -97q195 0 276.5 175t81.5 445v316q0 35 31 34q33 0 33 -34l10 -807q0 -41 9.5 -67t23.5 -47.5t14 -31.5q0 -12 -10 -22.5t-23 -10.5q-27 0 -52 51.5t-27 116.5l-3 109q-39 -133 -134 -212 t-228 -79q-166 0 -246 116t-80 351zM334 1290q0 78 56 131.5t140 53.5q78 0 130 -56.5t52 -128.5q0 -84 -53 -137t-135 -53q-80 0 -135 55t-55 135zM389 1290q0 -57 39 -96t96 -39t96 39t39 96q0 51 -39 91t-96 40q-59 0 -97 -40t-38 -91z" />
<glyph unicode="&#x170;" horiz-adv-x="1255" d="M123 532q0 137 8 441q2 82 4 191.5t2 240.5q0 16 7.5 22.5t23.5 6.5q33 0 33 -33q0 -199 -6 -424q-2 -80 -4.5 -193.5t-2.5 -251.5q0 -217 104.5 -338.5t287.5 -121.5q166 0 274.5 67.5t158.5 164.5t50 190l-2 254q-6 559 -6 663q0 18 5 27.5t23 9.5q35 0 35 -37 q0 -102 4 -344l2 -238q9 -454 9 -798q0 -33 -33 -33q-16 0 -24.5 8t-8.5 27v248q-66 -125 -190.5 -200t-296.5 -75q-170 0 -272.5 82t-143.5 202t-41 242zM398 1586q0 12 20 34l150 174q31 37 51 37q10 0 19 -8t9 -22q0 -10 -7 -19.5t-13 -15.5l-8 -8l-162 -177 q-20 -20 -37 -20q-8 0 -15 7t-7 18zM600 1586q0 12 21 34l149 174q31 37 51 37q12 0 20.5 -8t8.5 -22q0 -10 -7 -19.5t-13 -15.5t-9 -8l-161 -177q-20 -20 -37 -20q-8 0 -15.5 7t-7.5 18z" />
<glyph unicode="&#x171;" horiz-adv-x="1089" d="M143 471v526q0 29 31 29q14 0 23.5 -7t9.5 -22v-530q0 -205 62.5 -302t197.5 -97q195 0 276.5 175t81.5 445v316q0 35 31 34q33 0 33 -34l10 -807q0 -41 9.5 -67t23.5 -47.5t14 -31.5q0 -12 -10 -22.5t-23 -10.5q-27 0 -52 51.5t-27 116.5l-3 109q-39 -133 -134 -212 t-228 -79q-166 0 -246 116t-80 351zM289 1176q0 12 20 34l150 174q31 37 51 37q10 0 19 -8t9 -22q0 -10 -7 -19.5t-13 -15.5l-8 -8l-162 -177q-20 -20 -37 -20q-8 0 -15 7t-7 18zM491 1176q0 12 21 34l149 174q31 37 51 37q12 0 20.5 -8t8.5 -22q0 -10 -7 -19.5t-13 -15.5 t-9 -8l-161 -177q-20 -20 -37 -20q-8 0 -15.5 7t-7.5 18z" />
<glyph unicode="&#x172;" horiz-adv-x="1255" d="M123 532q0 137 8 441q2 82 4 191.5t2 240.5q0 16 7.5 22.5t23.5 6.5q33 0 33 -33q0 -199 -6 -424q-2 -80 -4.5 -193.5t-2.5 -251.5q0 -217 104.5 -338.5t287.5 -121.5q166 0 274.5 67.5t158.5 164.5t50 190l-2 254q-6 559 -6 663q0 18 5 27.5t23 9.5q35 0 35 -37 q0 -102 4 -344l2 -238q8 -455 9 -798q0 -23 -17 -31l-2 -2q-57 -47 -89 -88t-32 -92q0 -82 107 -82q18 0 35.5 6t23.5 6t11.5 -6t5.5 -14q0 -41 -80 -41q-164 0 -164 129q0 117 135 217v248q-66 -125 -190.5 -200t-296.5 -75q-170 0 -272.5 82t-143.5 202t-41 242z" />
<glyph unicode="&#x173;" horiz-adv-x="1089" d="M143 471v526q0 29 31 29q14 0 23.5 -7t9.5 -22v-530q0 -205 62.5 -302t197.5 -97q195 0 276.5 175t81.5 445v316q0 35 31 34q33 0 33 -34l10 -807q0 -41 9.5 -67t23.5 -47.5t14 -31.5q0 -12 -10 -22.5t-23 -10.5q-51 -43 -78.5 -80.5t-27.5 -87.5q0 -82 106 -81 q18 0 36 6t24 6t11 -6t5 -15q0 -41 -80 -41q-164 0 -164 129q0 111 123 207q-33 57 -34 131l-3 109q-39 -133 -134 -212t-228 -79q-166 0 -246 116t-80 351z" />
<glyph unicode="&#x174;" horiz-adv-x="1742" d="M121 1411q0 10 10 16.5t25 6.5q14 0 19 -5.5t9 -23.5l82 -318l70 -270q0 4 55 -244q53 -242 84 -368.5t45 -126.5q10 0 56.5 88t103.5 225l61 152q57 141 86 198.5t50 57.5q27 0 68.5 -78t129.5 -264l25 -54q92 -197 124.5 -262t41.5 -65q10 0 47 179t78 407l30 155 q27 129 97 422l41 172q4 23 26 23q14 0 24.5 -7.5t10.5 -19.5q0 -10 -2 -16l-35 -142q-66 -260 -100 -444q-84 -446 -156 -744q-12 -51 -61 -51q-33 0 -73 71t-140 288q-61 131 -114.5 241.5t-59.5 110.5t-24.5 -46t-43.5 -108q-57 -147 -80 -198q-88 -207 -134 -284 t-81 -77q-45 0 -59 43q-59 160 -185 754q-18 92 -84 338l-65 254q-2 6 -2 14zM587 1620q0 12 13 25l49 51q72 80 127 131t90 51q49 0 123 -78.5t137 -175.5q8 -12 8 -18q0 -8 -8 -16.5t-18 -8.5q-17 1 -27 15q-66 98 -127 162.5t-86 64.5q-20 0 -79.5 -57.5t-131.5 -143.5 q-25 -31 -41 -30q-10 0 -19.5 9t-9.5 19z" />
<glyph unicode="&#x175;" horiz-adv-x="1568" d="M143 1020q0 14 8.5 22.5t22.5 8.5q16 0 23.5 -6.5t9.5 -26.5q8 -180 27.5 -309t78.5 -322q39 -125 85 -220t81 -95q25 0 78 116.5t104.5 288.5t73.5 334q4 16 13.5 28.5t23.5 12.5q39 0 47 -41q33 -164 94.5 -334t122 -281.5t88.5 -111.5q31 0 69 89t75 228 q51 190 70.5 318.5t23.5 290.5q0 39 31 39q18 0 25 -8.5t7 -30.5q0 -129 -29.5 -316.5t-70.5 -331.5q-51 -174 -96 -265t-101 -91q-49 0 -117.5 102.5t-131 269.5t-99.5 345q-25 -180 -76 -346t-112.5 -268.5t-112.5 -102.5q-57 0 -110.5 89t-106.5 251q-51 158 -85 339 t-34 335zM493 1210q0 12 13 25l49 51q72 80 127 131t90 51q49 0 123 -78.5t137 -175.5q8 -12 8 -18q0 -8 -8 -16.5t-18 -8.5q-17 1 -27 15q-66 98 -127 162.5t-86 64.5q-20 0 -79.5 -57.5t-131.5 -143.5q-25 -31 -41 -30q-10 0 -19.5 9t-9.5 19z" />
<glyph unicode="&#x176;" horiz-adv-x="1245" d="M123 1399q0 10 9 17t24 7q16 0 22 -7t9 -18.5t6 -15.5q70 -197 186 -389q158 -260 244 -260q43 0 107.5 68.5t139.5 193.5q49 82 90 169t99 227q8 20 13 27t18 7q35 0 34 -26q0 -6 -6 -23q-72 -170 -105.5 -240.5t-90.5 -166.5q-160 -262 -271 -301l8 -619q0 -39 -32 -39 q-33 0 -33 37l-6 621q-59 25 -117.5 92t-142.5 205q-72 117 -113 203.5t-90 222.5q-2 2 -2 8zM346 1620q0 12 13 25l49 51q72 80 127 131t90 51q49 0 123 -78.5t137 -175.5q8 -12 8 -18q0 -8 -8 -16.5t-18 -8.5q-17 1 -27 15q-66 98 -127 162.5t-86 64.5q-20 0 -79.5 -57.5 t-131.5 -143.5q-25 -31 -41 -30q-10 0 -19.5 9t-9.5 19z" />
<glyph unicode="&#x177;" horiz-adv-x="1050" d="M82 1012q8 25 39 24q12 0 17 -7t12 -23q70 -219 154.5 -403.5t165.5 -305.5t140 -162q80 227 123 386t107 433l12 56q4 18 11 25t22 7q37 0 43 -28q2 -6 0 -12.5t-2 -8.5q-74 -311 -115 -461.5t-115 -357.5q-88 -248 -256 -661q-8 -20 -16 -27.5t-21 -7.5q-16 0 -27 9 t-11 21q0 8 4 21q121 254 215 539q-129 90 -258 332.5t-242 592.5q-4 12 -2 19zM243 1210q0 12 13 25l49 51q72 80 127 131t90 51q49 0 123 -78.5t137 -175.5q8 -12 8 -18q0 -8 -8 -16.5t-18 -8.5q-17 1 -27 15q-66 98 -127 162.5t-86 64.5q-20 0 -79.5 -57.5t-131.5 -143.5 q-25 -31 -41 -30q-10 0 -19.5 9t-9.5 19z" />
<glyph unicode="&#x178;" horiz-adv-x="1245" d="M123 1399q0 10 9 17t24 7q16 0 22 -7t9 -18.5t6 -15.5q70 -197 186 -389q158 -260 244 -260q43 0 107.5 68.5t139.5 193.5q49 82 90 169t99 227q8 20 13 27t18 7q35 0 34 -26q0 -6 -6 -23q-72 -170 -105.5 -240.5t-90.5 -166.5q-160 -262 -271 -301l8 -619q0 -39 -32 -39 q-33 0 -33 37l-6 621q-59 25 -117.5 92t-142.5 205q-72 117 -113 203.5t-90 222.5q-2 2 -2 8zM326 1692q0 33 21.5 53.5t56.5 20.5t57.5 -20.5t22.5 -53.5q0 -35 -22.5 -57.5t-57.5 -22.5t-56.5 22.5t-21.5 57.5zM768 1692q0 33 21.5 53.5t56.5 20.5t56.5 -20.5t21.5 -53.5 q0 -35 -21.5 -57.5t-56.5 -22.5t-56.5 22.5t-21.5 57.5z" />
<glyph unicode="&#x179;" horiz-adv-x="1302" d="M61 82q0 49 74 136t252 271q178 182 268 281q303 326 378 411t141 175q-283 -29 -474 -29q-135 0 -253.5 9.5t-264.5 33.5q-18 4 -27.5 11.5t-9.5 21.5q0 33 54 27l118 -15q111 -14 177.5 -19t167.5 -5q152 0 417 24l92 6q31 0 54 -18q16 -14 16 -39q0 -53 -135 -206.5 t-358 -387.5l-33 -33l-160 -166q-213 -221 -302 -317t-116 -143l47 2q313 12 459 12q231 0 502 -29q25 -2 24 -28q0 -12 -8 -21.5t-26 -7.5q-187 14 -275 19t-217 5q-104 0 -442 -12l-72 -2q-39 0 -53.5 7t-14.5 26zM555 1586q0 12 21 34l149 174q31 37 51 37q12 0 20.5 -8 t8.5 -22q0 -10 -7 -19.5t-13.5 -15.5t-8.5 -8l-162 -177q-20 -20 -36 -20q-9 0 -16 7t-7 18z" />
<glyph unicode="&#x17a;" horiz-adv-x="1138" d="M102 37q0 25 27 51q350 356 823 870q-47 0 -141 -8q-154 -10 -246 -10q-236 0 -370 31q-18 6 -19 28q0 37 35 31q197 -29 356 -29q92 0 250 15q98 8 135 8q49 0 65.5 -8t18.5 -25v-8q0 -25 -18 -45q-152 -164 -438 -463q-338 -354 -390 -409q37 0 111 6q205 10 299 10 q88 0 175 -6t167 -15q25 -2 25 -28q0 -16 -8.5 -25.5t-16.5 -7.5q-131 18 -324 18q-131 0 -299 -8q-123 -4 -153 -4q-35 0 -49.5 5t-14.5 26zM516 1176q0 12 21 34l149 174q31 37 51 37q12 0 20.5 -8t8.5 -22q0 -10 -7 -19.5t-13.5 -15.5t-8.5 -8l-162 -177q-20 -20 -36 -20 q-9 0 -16 7t-7 18z" />
<glyph unicode="&#x17b;" horiz-adv-x="1302" d="M61 82q0 49 74 136t252 271q178 182 268 281q303 326 378 411t141 175q-283 -29 -474 -29q-135 0 -253.5 9.5t-264.5 33.5q-18 4 -27.5 11.5t-9.5 21.5q0 33 54 27l118 -15q111 -14 177.5 -19t167.5 -5q152 0 417 24l92 6q31 0 54 -18q16 -14 16 -39q0 -53 -135 -206.5 t-358 -387.5l-33 -33l-160 -166q-213 -221 -302 -317t-116 -143l47 2q313 12 459 12q231 0 502 -29q25 -2 24 -28q0 -12 -8 -21.5t-26 -7.5q-187 14 -275 19t-217 5q-104 0 -442 -12l-72 -2q-39 0 -53.5 7t-14.5 26zM557 1692q0 33 21.5 53.5t56.5 20.5t56.5 -20.5 t21.5 -53.5q0 -35 -21.5 -57.5t-56.5 -22.5t-56.5 22.5t-21.5 57.5z" />
<glyph unicode="&#x17c;" horiz-adv-x="1138" d="M102 37q0 25 27 51q350 356 823 870q-47 0 -141 -8q-154 -10 -246 -10q-236 0 -370 31q-18 6 -19 28q0 37 35 31q197 -29 356 -29q92 0 250 15q98 8 135 8q49 0 65.5 -8t18.5 -25v-8q0 -25 -18 -45q-152 -164 -438 -463q-338 -354 -390 -409q37 0 111 6q205 10 299 10 q88 0 175 -6t167 -15q25 -2 25 -28q0 -16 -8.5 -25.5t-16.5 -7.5q-131 18 -324 18q-131 0 -299 -8q-123 -4 -153 -4q-35 0 -49.5 5t-14.5 26zM518 1282q0 33 21.5 53.5t56.5 20.5t56.5 -20.5t21.5 -53.5q0 -35 -21.5 -57.5t-56.5 -22.5t-56.5 22.5t-21.5 57.5z" />
<glyph unicode="&#x17d;" horiz-adv-x="1302" d="M61 82q0 49 74 136t252 271q178 182 268 281q303 326 378 411t141 175q-283 -29 -474 -29q-135 0 -253.5 9.5t-264.5 33.5q-18 4 -27.5 11.5t-9.5 21.5q0 33 54 27l118 -15q111 -14 177.5 -19t167.5 -5q152 0 417 24l92 6q31 0 54 -18q16 -14 16 -39q0 -53 -135 -206.5 t-358 -387.5l-33 -33l-160 -166q-213 -221 -302 -317t-116 -143l47 2q313 12 459 12q231 0 502 -29q25 -2 24 -28q0 -12 -8 -21.5t-26 -7.5q-187 14 -275 19t-217 5q-104 0 -442 -12l-72 -2q-39 0 -53.5 7t-14.5 26zM358 1829q0 10 9.5 19.5t19.5 9.5q16 0 41 -31 q72 -86 131.5 -143t79.5 -57q25 0 86.5 64.5t126.5 162.5q10 14 27 14q10 0 18 -8t8 -16q0 -6 -8 -19q-63 -96 -137 -175t-123 -79q-35 0 -90 51.5t-127 130.5l-49 52q-12 12 -13 24z" />
<glyph unicode="&#x17e;" horiz-adv-x="1138" d="M102 37q0 25 27 51q350 356 823 870q-47 0 -141 -8q-154 -10 -246 -10q-236 0 -370 31q-18 6 -19 28q0 37 35 31q197 -29 356 -29q92 0 250 15q98 8 135 8q49 0 65.5 -8t18.5 -25v-8q0 -25 -18 -45q-152 -164 -438 -463q-338 -354 -390 -409q37 0 111 6q205 10 299 10 q88 0 175 -6t167 -15q25 -2 25 -28q0 -16 -8.5 -25.5t-16.5 -7.5q-131 18 -324 18q-131 0 -299 -8q-123 -4 -153 -4q-35 0 -49.5 5t-14.5 26zM319 1419q0 10 9.5 19.5t19.5 9.5q16 0 41 -31q72 -86 131.5 -143t79.5 -57q25 0 86.5 64.5t126.5 162.5q10 14 27 14q10 0 18 -8 t8 -16q0 -6 -8 -19q-63 -96 -137 -175t-123 -79q-35 0 -90 51.5t-127 130.5l-49 52q-12 12 -13 24z" />
<glyph unicode="&#x18f;" horiz-adv-x="1536" d="M102 549q0 61 17.5 88t73.5 29l1159 28q14 0 14 13q0 195 -79 340t-222 224t-330 79q-158 0 -268.5 -53.5t-167.5 -119t-104 -141.5q-4 -8 -13 -8q-10 0 -24.5 9.5t-14.5 19.5t15 39q94 156 245.5 237.5t346.5 81.5q219 0 373.5 -99t232.5 -260t78 -343 q0 -201 -89.5 -367t-247 -262t-354.5 -96q-184 0 -330.5 82t-228.5 212t-82 267zM160 549q0 -127 78.5 -244t214 -187.5t290.5 -70.5q187 0 328 94.5t218 229.5t77 254q0 8 -3 11t-11 3l-1151 -27q-25 0 -33 -13t-8 -50z" />
<glyph unicode="&#x192;" horiz-adv-x="1333" d="M61 -315q0 18 15.5 26t34.5 4q31 -8 74.5 -13t68.5 -5q203 0 281.5 335t95.5 877h-283q-12 0 -21.5 11.5t-9.5 25.5q0 37 37 37h279q12 330 123.5 508t347.5 178q70 0 145 -20q11 -2 17 -13.5t6 -23.5q0 -14 -8.5 -24.5t-24.5 -10.5q-14 0 -53 8t-74 8 q-190 0 -293.5 -152.5t-111.5 -457.5h307q41 0 41 -33q0 -20 -11.5 -30.5t-29.5 -10.5h-307q-2 -469 -71 -756.5t-174.5 -409.5t-228.5 -122q-41 0 -88 6q-37 4 -60.5 18.5t-23.5 39.5z" />
<glyph unicode="&#x1a0;" horiz-adv-x="1589" d="M102 698q0 215 81 385t229.5 265.5t345.5 95.5q193 0 353.5 -93.5t252.5 -256.5q84 43 113.5 120.5t29.5 180.5q0 27 33 26q29 0 29 -26q0 -109 -32 -205t-144 -150q74 -160 73 -350q0 -229 -100 -379.5t-259 -220.5t-337 -70q-174 0 -325.5 69t-247 220.5t-95.5 388.5z M166 707q0 -229 95 -368.5t234.5 -197t280.5 -57.5q150 0 293 61.5t238.5 198.5t95.5 350q0 197 -84 353.5t-230.5 244.5t-324.5 88q-172 0 -308.5 -83t-213 -236.5t-76.5 -353.5z" />
<glyph unicode="&#x1a1;" horiz-adv-x="1239" d="M102 504q0 162 59.5 285.5t173.5 194.5t275 71q178 0 310.5 -86t185.5 -248q72 45 97.5 119.5t25.5 169.5q0 27 33 26q29 0 28 -26q0 -107 -29.5 -201t-138.5 -150q14 -78 15 -147q0 -256 -144.5 -384t-374.5 -128q-211 0 -363.5 114.5t-152.5 389.5zM166 510 q0 -164 67.5 -263.5t169 -141.5t213.5 -42q123 0 226.5 49.5t167 151t63.5 250.5q0 145 -59.5 252.5t-165 166t-236.5 58.5q-133 0 -234.5 -59.5t-156.5 -169t-55 -252.5z" />
<glyph unicode="&#x1af;" horiz-adv-x="1349" d="M123 532q0 137 8 441q2 82 4 191.5t2 240.5q0 16 7.5 22.5t23.5 6.5q33 0 33 -33q0 -199 -6 -424q-2 -80 -4.5 -193.5t-2.5 -251.5q0 -217 104.5 -338.5t287.5 -121.5q166 0 274.5 67.5t158.5 164.5t50 190l-2 254q-6 559 -6 663q0 18 5 27.5t23 9.5q35 0 35 -37l2 -287 q88 43 118 122t30 181q0 27 32 27q29 0 29 -27q0 -116 -37 -217.5t-170 -148.5l2 -232q8 -455 9 -798q0 -33 -33 -33q-16 0 -24.5 8t-8.5 27v248q-66 -125 -190.5 -200t-296.5 -75q-170 0 -272.5 82t-143.5 202t-41 242z" />
<glyph unicode="&#x1b0;" horiz-adv-x="1089" d="M143 471v526q0 29 31 29q14 0 23.5 -7t9.5 -22v-530q0 -205 62.5 -302t197.5 -97q195 0 276.5 175t81.5 445v316q0 35 31 34q33 0 33 -34l4 -281q76 45 102.5 120t26.5 173q0 27 33 26q29 0 28 -26q0 -113 -33.5 -211t-156.5 -150l6 -458q0 -41 9.5 -67t23.5 -47.5 t14 -31.5q0 -12 -10 -22.5t-23 -10.5q-27 0 -52 51.5t-27 116.5l-3 109q-39 -133 -134 -212t-228 -79q-166 0 -246 116t-80 351z" />
<glyph unicode="&#x1cd;" horiz-adv-x="1292" d="M123 10l2 13q205 610 276 829l127 379q41 121 71 172t67 51q66 0 125 -203q37 -127 76.5 -257t80.5 -265l88 -285h64q12 0 19 -8t7 -20t-7 -20.5t-21 -8.5h-43l110 -364q4 -9 4 -17q0 -12 -12 -19t-24 -7q-16 0 -25 18l-119 389l-680 4l-127 -383q-4 -12 -10 -17t-18 -5 q-14 0 -22.5 7t-8.5 17zM330 453l641 -7q-160 530 -236 797q-18 68 -39.5 111t-33.5 43q-18 0 -72 -160zM387 1829q0 10 9.5 19.5t19.5 9.5q16 0 41 -31q72 -86 131.5 -143t79.5 -57q25 0 86.5 64.5t126.5 162.5q10 14 27 14q10 0 18 -8t8 -16q0 -6 -8 -19 q-63 -96 -137 -175t-123 -79q-35 0 -90 51.5t-127 130.5l-49 52q-12 12 -13 24z" />
<glyph unicode="&#x1ce;" horiz-adv-x="1243" d="M102 483q0 127 49.5 247t153 198t256.5 78q127 0 210 -49.5t134 -149.5l21 149q4 20 9 28.5t21 8.5q18 0 29.5 -9t9.5 -21q-18 -94 -28 -228q-8 -94 -9 -254v-139q0 -117 6.5 -170t28 -75.5t68.5 -26.5q20 -2 29.5 -7.5t9.5 -23.5q0 -33 -31 -33q-82 0 -118 33t-52 121 q-47 -82 -134 -128t-212 -46q-176 0 -276.5 82t-137.5 194.5t-37 220.5zM166 483q0 -90 30.5 -188t114.5 -171t232 -73q145 0 246.5 75t103.5 218q2 104 2 240q0 139 -58.5 219t-135 109.5t-140.5 29.5q-139 0 -228 -77t-128 -183.5t-39 -198.5zM331 1419q0 10 9.5 19.5 t19.5 9.5q16 0 41 -31q72 -86 131.5 -143t79.5 -57q25 0 86.5 64.5t126.5 162.5q10 14 27 14q10 0 18 -8t8 -16q0 -6 -8 -19q-63 -96 -137 -175t-123 -79q-35 0 -90 51.5t-127 130.5l-49 52q-12 12 -13 24z" />
<glyph unicode="&#x1cf;" horiz-adv-x="897" d="M102 1397q0 27 33 33q27 4 146.5 12t175.5 8q236 0 309 -12q29 -4 29 -31q0 -16 -10.5 -24.5t-24.5 -6.5q-53 6 -104.5 8t-129.5 2q0 -389 -8 -676.5t-33 -629.5l279 -4q31 0 31 -33t-31 -33l-625 10q-10 0 -18 9.5t-8 23.5q0 31 30 31l279 -4q23 367 32 655.5t9 650.5 q-92 -2 -258 -16l-72 -4q-14 0 -22.5 8t-8.5 23zM178 1829q0 10 9.5 19.5t19.5 9.5q16 0 41 -31q72 -86 131.5 -143t79.5 -57q25 0 86.5 64.5t126.5 162.5q10 14 27 14q10 0 18 -8t8 -16q0 -6 -8 -19q-63 -96 -137 -175t-123 -79q-35 0 -90 51.5t-127 130.5l-49 52 q-12 12 -13 24z" />
<glyph unicode="&#x1d0;" horiz-adv-x="643" d="M47 1419q0 10 9.5 19.5t19.5 9.5q16 0 41 -31q72 -86 131.5 -143t79.5 -57q25 0 86.5 64.5t126.5 162.5q10 14 27 14q10 0 18 -8t8 -16q0 -6 -8 -19q-63 -96 -137 -175t-123 -79q-35 0 -90 51.5t-127 130.5l-49 52q-12 12 -13 24zM279 57l20 930q0 45 33 45q35 0 35 -45 l-29 -930q0 -45 -27 -45q-32 0 -32 45z" />
<glyph unicode="&#x1d1;" horiz-adv-x="1568" d="M102 698q0 215 81 385t229.5 265.5t345.5 95.5t358.5 -95.5t255.5 -267.5t94 -391q0 -229 -100 -379.5t-259 -220.5t-337 -70q-174 0 -325.5 69t-247 220.5t-95.5 388.5zM166 707q0 -229 95 -368.5t234.5 -197t280.5 -57.5q150 0 293 61.5t238.5 198.5t95.5 350 q0 197 -84 353.5t-230.5 244.5t-324.5 88q-172 0 -308.5 -83t-213 -236.5t-76.5 -353.5zM507 1829q0 10 9.5 19.5t19.5 9.5q16 0 41 -31q72 -86 131.5 -143t79.5 -57q25 0 86.5 64.5t126.5 162.5q10 14 27 14q10 0 18 -8t8 -16q0 -6 -8 -19q-63 -96 -137 -175t-123 -79 q-35 0 -90 51.5t-127 130.5l-49 52q-12 12 -13 24z" />
<glyph unicode="&#x1d2;" horiz-adv-x="1239" d="M102 504q0 162 59.5 285.5t173.5 194.5t275 71q150 0 269.5 -62.5t188.5 -185.5t69 -295q0 -256 -144.5 -384t-374.5 -128q-210 0 -363 114.5t-153 389.5zM166 510q0 -164 67.5 -263.5t169 -141.5t213.5 -42q123 0 226.5 49.5t167 151t63.5 250.5q0 145 -59.5 252.5 t-165 166t-236.5 58.5q-133 0 -234.5 -59.5t-156.5 -169t-55 -252.5zM339 1419q0 10 9.5 19.5t19.5 9.5q16 0 41 -31q72 -86 131.5 -143t79.5 -57q25 0 86.5 64.5t126.5 162.5q10 14 27 14q10 0 18 -8t8 -16q0 -6 -8 -19q-63 -96 -137 -175t-123 -79q-35 0 -90 51.5 t-127 130.5l-49 52q-12 12 -13 24z" />
<glyph unicode="&#x1d3;" horiz-adv-x="1255" d="M123 532q0 137 8 441q2 82 4 191.5t2 240.5q0 16 7.5 22.5t23.5 6.5q33 0 33 -33q0 -199 -6 -424q-2 -80 -4.5 -193.5t-2.5 -251.5q0 -217 104.5 -338.5t287.5 -121.5q166 0 274.5 67.5t158.5 164.5t50 190l-2 254q-6 559 -6 663q0 18 5 27.5t23 9.5q35 0 35 -37 q0 -102 4 -344l2 -238q9 -454 9 -798q0 -33 -33 -33q-16 0 -24.5 8t-8.5 27v248q-66 -125 -190.5 -200t-296.5 -75q-170 0 -272.5 82t-143.5 202t-41 242zM352 1829q0 10 9.5 19.5t19.5 9.5q16 0 41 -31q72 -86 131.5 -143t79.5 -57q25 0 86.5 64.5t126.5 162.5q10 14 27 14 q10 0 18 -8t8 -16q0 -6 -8 -19q-63 -96 -137 -175t-123 -79q-35 0 -90 51.5t-127 130.5l-49 52q-12 12 -13 24z" />
<glyph unicode="&#x1d4;" horiz-adv-x="1089" d="M143 471v526q0 29 31 29q14 0 23.5 -7t9.5 -22v-530q0 -205 62.5 -302t197.5 -97q195 0 276.5 175t81.5 445v316q0 35 31 34q33 0 33 -34l10 -807q0 -41 9.5 -67t23.5 -47.5t14 -31.5q0 -12 -10 -22.5t-23 -10.5q-27 0 -52 51.5t-27 116.5l-3 109q-39 -133 -134 -212 t-228 -79q-166 0 -246 116t-80 351zM243 1419q0 10 9.5 19.5t19.5 9.5q16 0 41 -31q72 -86 131.5 -143t79.5 -57q25 0 86.5 64.5t126.5 162.5q10 14 27 14q10 0 18 -8t8 -16q0 -6 -8 -19q-63 -96 -137 -175t-123 -79q-35 0 -90 51.5t-127 130.5l-49 52q-12 12 -13 24z" />
<glyph unicode="&#x1d5;" horiz-adv-x="1255" d="M123 532q0 137 8 441q2 82 4 191.5t2 240.5q0 16 7.5 22.5t23.5 6.5q33 0 33 -33q0 -199 -6 -424q-2 -80 -4.5 -193.5t-2.5 -251.5q0 -217 104.5 -338.5t287.5 -121.5q166 0 274.5 67.5t158.5 164.5t50 190l-2 254q-6 559 -6 663q0 18 5 27.5t23 9.5q35 0 35 -37 q0 -102 4 -344l2 -238q9 -454 9 -798q0 -33 -33 -33q-16 0 -24.5 8t-8.5 27v248q-66 -125 -190.5 -200t-296.5 -75q-170 0 -272.5 82t-143.5 202t-41 242zM308 1952q0 33 37 25q68 -14 147 -15q47 0 142 8q98 8 153 9q18 0 60 -4q41 -4 63 -5q16 0 25.5 -9t9.5 -21t-8 -19.5 t-23 -7.5l-57 4q-41 4 -58 4q-66 0 -155 -8q-86 -8 -129 -8l-88 -2q-55 0 -94 14q-14 4 -19.5 11.5t-5.5 23.5zM330 1692q0 33 21.5 53.5t56.5 20.5t57.5 -20.5t22.5 -53.5q0 -35 -22.5 -57.5t-57.5 -22.5t-56.5 22.5t-21.5 57.5zM772 1692q0 33 21.5 53.5t56.5 20.5 t56.5 -20.5t21.5 -53.5q0 -35 -21.5 -57.5t-56.5 -22.5t-56.5 22.5t-21.5 57.5z" />
<glyph unicode="&#x1d6;" horiz-adv-x="1089" d="M143 471v526q0 29 31 29q14 0 23.5 -7t9.5 -22v-530q0 -205 62.5 -302t197.5 -97q195 0 276.5 175t81.5 445v316q0 35 31 34q33 0 33 -34l10 -807q0 -41 9.5 -67t23.5 -47.5t14 -31.5q0 -12 -10 -22.5t-23 -10.5q-27 0 -52 51.5t-27 116.5l-3 109q-39 -133 -134 -212 t-228 -79q-166 0 -246 116t-80 351zM199 1542q0 33 37 25q68 -14 147 -15q47 0 142 8q98 8 153 9q18 0 60 -4q41 -4 63 -5q16 0 25.5 -9t9.5 -21t-8 -19.5t-23 -7.5l-57 4q-41 4 -58 4q-66 0 -155 -8q-86 -8 -129 -8l-88 -2q-55 0 -94 14q-14 4 -19.5 11.5t-5.5 23.5z M221 1282q0 33 21.5 53.5t56.5 20.5t57.5 -20.5t22.5 -53.5q0 -35 -22.5 -57.5t-57.5 -22.5t-56.5 22.5t-21.5 57.5zM663 1282q0 33 21.5 53.5t56.5 20.5t56.5 -20.5t21.5 -53.5q0 -35 -21.5 -57.5t-56.5 -22.5t-56.5 22.5t-21.5 57.5z" />
<glyph unicode="&#x1d7;" horiz-adv-x="1255" d="M123 532q0 137 8 441q2 82 4 191.5t2 240.5q0 16 7.5 22.5t23.5 6.5q33 0 33 -33q0 -199 -6 -424q-2 -80 -4.5 -193.5t-2.5 -251.5q0 -217 104.5 -338.5t287.5 -121.5q166 0 274.5 67.5t158.5 164.5t50 190l-2 254q-6 559 -6 663q0 18 5 27.5t23 9.5q35 0 35 -37 q0 -102 4 -344l2 -238q9 -454 9 -798q0 -33 -33 -33q-16 0 -24.5 8t-8.5 27v248q-66 -125 -190.5 -200t-296.5 -75q-170 0 -272.5 82t-143.5 202t-41 242zM330 1692q0 33 21.5 53.5t56.5 20.5t57.5 -20.5t22.5 -53.5q0 -35 -22.5 -57.5t-57.5 -22.5t-56.5 22.5t-21.5 57.5z M582 1826q0 12 21 34l149 174q31 37 51 37q12 0 20.5 -8t8.5 -22q0 -10 -7 -19.5t-13.5 -15.5t-8.5 -8l-162 -177q-20 -20 -36 -20q-9 0 -16 7t-7 18zM772 1692q0 33 21.5 53.5t56.5 20.5t56.5 -20.5t21.5 -53.5q0 -35 -21.5 -57.5t-56.5 -22.5t-56.5 22.5t-21.5 57.5z" />
<glyph unicode="&#x1d8;" horiz-adv-x="1089" d="M143 471v526q0 29 31 29q14 0 23.5 -7t9.5 -22v-530q0 -205 62.5 -302t197.5 -97q195 0 276.5 175t81.5 445v316q0 35 31 34q33 0 33 -34l10 -807q0 -41 9.5 -67t23.5 -47.5t14 -31.5q0 -12 -10 -22.5t-23 -10.5q-27 0 -52 51.5t-27 116.5l-3 109q-39 -133 -134 -212 t-228 -79q-166 0 -246 116t-80 351zM221 1282q0 33 21.5 53.5t56.5 20.5t57.5 -20.5t22.5 -53.5q0 -35 -22.5 -57.5t-57.5 -22.5t-56.5 22.5t-21.5 57.5zM473 1416q0 12 21 34l149 174q31 37 51 37q12 0 20.5 -8t8.5 -22q0 -10 -7 -19.5t-13.5 -15.5t-8.5 -8l-162 -177 q-20 -20 -36 -20q-9 0 -16 7t-7 18zM663 1282q0 33 21.5 53.5t56.5 20.5t56.5 -20.5t21.5 -53.5q0 -35 -21.5 -57.5t-56.5 -22.5t-56.5 22.5t-21.5 57.5z" />
<glyph unicode="&#x1d9;" horiz-adv-x="1255" d="M123 532q0 137 8 441q2 82 4 191.5t2 240.5q0 16 7.5 22.5t23.5 6.5q33 0 33 -33q0 -199 -6 -424q-2 -80 -4.5 -193.5t-2.5 -251.5q0 -217 104.5 -338.5t287.5 -121.5q166 0 274.5 67.5t158.5 164.5t50 190l-2 254q-6 559 -6 663q0 18 5 27.5t23 9.5q35 0 35 -37 q0 -102 4 -344l2 -238q9 -454 9 -798q0 -33 -33 -33q-16 0 -24.5 8t-8.5 27v248q-66 -125 -190.5 -200t-296.5 -75q-170 0 -272.5 82t-143.5 202t-41 242zM330 1692q0 33 21.5 53.5t56.5 20.5t57.5 -20.5t22.5 -53.5q0 -35 -22.5 -57.5t-57.5 -22.5t-56.5 22.5t-21.5 57.5z M352 2048q0 10 9.5 19.5t19.5 9.5q16 0 41 -31q72 -86 131.5 -143t79.5 -57q25 0 86.5 64.5t126.5 162.5q10 14 27 14q10 0 18 -8t8 -16q0 -6 -8 -19q-63 -96 -137 -175t-123 -79q-35 0 -90 51.5t-127 130.5l-49 52q-12 12 -13 24zM772 1692q0 33 21.5 53.5t56.5 20.5 t56.5 -20.5t21.5 -53.5q0 -35 -21.5 -57.5t-56.5 -22.5t-56.5 22.5t-21.5 57.5z" />
<glyph unicode="&#x1da;" horiz-adv-x="1089" d="M143 471v526q0 29 31 29q14 0 23.5 -7t9.5 -22v-530q0 -205 62.5 -302t197.5 -97q195 0 276.5 175t81.5 445v316q0 35 31 34q33 0 33 -34l10 -807q0 -41 9.5 -67t23.5 -47.5t14 -31.5q0 -12 -10 -22.5t-23 -10.5q-27 0 -52 51.5t-27 116.5l-3 109q-39 -133 -134 -212 t-228 -79q-166 0 -246 116t-80 351zM221 1282q0 33 21.5 53.5t56.5 20.5t57.5 -20.5t22.5 -53.5q0 -35 -22.5 -57.5t-57.5 -22.5t-56.5 22.5t-21.5 57.5zM243 1638q0 10 9.5 19.5t19.5 9.5q16 0 41 -31q72 -86 131.5 -143t79.5 -57q25 0 86.5 64.5t126.5 162.5q10 14 27 14 q10 0 18 -8t8 -16q0 -6 -8 -19q-63 -96 -137 -175t-123 -79q-35 0 -90 51.5t-127 130.5l-49 52q-12 12 -13 24zM663 1282q0 33 21.5 53.5t56.5 20.5t56.5 -20.5t21.5 -53.5q0 -35 -21.5 -57.5t-56.5 -22.5t-56.5 22.5t-21.5 57.5z" />
<glyph unicode="&#x1db;" horiz-adv-x="1255" d="M123 532q0 137 8 441q2 82 4 191.5t2 240.5q0 16 7.5 22.5t23.5 6.5q33 0 33 -33q0 -199 -6 -424q-2 -80 -4.5 -193.5t-2.5 -251.5q0 -217 104.5 -338.5t287.5 -121.5q166 0 274.5 67.5t158.5 164.5t50 190l-2 254q-6 559 -6 663q0 18 5 27.5t23 9.5q35 0 35 -37 q0 -102 4 -344l2 -238q9 -454 9 -798q0 -33 -33 -33q-16 0 -24.5 8t-8.5 27v248q-66 -125 -190.5 -200t-296.5 -75q-170 0 -272.5 82t-143.5 202t-41 242zM330 1692q0 33 21.5 53.5t56.5 20.5t57.5 -20.5t22.5 -53.5q0 -35 -22.5 -57.5t-57.5 -22.5t-56.5 22.5t-21.5 57.5z M434 2026q0 14 8.5 22t20.5 8q20 0 51 -37l149 -174q20 -23 21 -34q0 -10 -7 -17.5t-16 -7.5q-16 0 -36 20l-162 177q-2 2 -11.5 11t-13.5 16t-4 16zM772 1692q0 33 21.5 53.5t56.5 20.5t56.5 -20.5t21.5 -53.5q0 -35 -21.5 -57.5t-56.5 -22.5t-56.5 22.5t-21.5 57.5z" />
<glyph unicode="&#x1dc;" horiz-adv-x="1089" d="M143 471v526q0 29 31 29q14 0 23.5 -7t9.5 -22v-530q0 -205 62.5 -302t197.5 -97q195 0 276.5 175t81.5 445v316q0 35 31 34q33 0 33 -34l10 -807q0 -41 9.5 -67t23.5 -47.5t14 -31.5q0 -12 -10 -22.5t-23 -10.5q-27 0 -52 51.5t-27 116.5l-3 109q-39 -133 -134 -212 t-228 -79q-166 0 -246 116t-80 351zM221 1282q0 33 21.5 53.5t56.5 20.5t57.5 -20.5t22.5 -53.5q0 -35 -22.5 -57.5t-57.5 -22.5t-56.5 22.5t-21.5 57.5zM325 1616q0 14 8.5 22t20.5 8q20 0 51 -37l149 -174q20 -23 21 -34q0 -10 -7 -17.5t-16 -7.5q-16 0 -36 20l-162 177 q-2 2 -11.5 11t-13.5 16t-4 16zM663 1282q0 33 21.5 53.5t56.5 20.5t56.5 -20.5t21.5 -53.5q0 -35 -21.5 -57.5t-56.5 -22.5t-56.5 22.5t-21.5 57.5z" />
<glyph unicode="&#x1e6;" horiz-adv-x="1495" d="M102 709q0 188 82 348t232.5 256t347.5 96q279 0 473 -209q8 49 8 100q0 25 6 33t23 8q31 0 31 -22q0 -121 -19 -166q-14 -31 -43 -31q-14 0 -23.5 5.5t-25.5 21.5q-102 98 -194.5 147.5t-229.5 49.5q-182 0 -319.5 -90.5t-211 -239t-73.5 -318.5t74.5 -314t214 -229 t325.5 -85q233 0 337 140t108 415l-342 6q-35 0 -35 31q0 33 35 32l501 -10q29 0 29 -31t-29 -30l-96 2q-4 -303 -125 -461t-381 -158q-211 0 -364.5 97.5t-234.5 258t-81 347.5zM469 1829q0 10 9.5 19.5t19.5 9.5q16 0 41 -31q72 -86 131.5 -143t79.5 -57q25 0 86.5 64.5 t126.5 162.5q10 14 27 14q10 0 18 -8t8 -16q0 -6 -8 -19q-63 -96 -137 -175t-123 -79q-35 0 -90 51.5t-127 130.5l-49 52q-12 12 -13 24z" />
<glyph unicode="&#x1e7;" horiz-adv-x="1196" d="M82 524q0 129 56.5 248t163 193.5t251.5 74.5q109 0 190.5 -36.5t122.5 -81.5l17 61q20 74 24 80q10 23 29 22q12 0 23.5 -6t11.5 -16l-2 -21q-4 -23 -14.5 -62.5t-16.5 -59.5l-14 -52q27 -139 65 -411l15 -107l16 -119q16 -115 24.5 -178t8.5 -102q0 -135 -58.5 -240.5 t-166 -164t-248.5 -58.5q-102 0 -193.5 45t-147 120t-55.5 159q0 12 9.5 19t23.5 7q12 0 20.5 -9t8.5 -19q0 -66 47 -125.5t124 -96.5t163 -37q129 0 222 54.5t140 145.5t47 200q0 57 -9 137t-22 137q-55 -92 -156.5 -148.5t-236.5 -56.5q-160 0 -268.5 74t-161.5 189.5 t-53 240.5zM145 524q0 -113 47.5 -213t142.5 -163.5t230 -63.5q129 0 226.5 61.5t150.5 182.5q-27 205 -65 428l-11 61q-35 72 -125 116t-188 44q-115 0 -208 -62.5t-146.5 -167t-53.5 -223.5zM296 1413q0 10 9.5 19.5t19.5 9.5q16 0 41 -31q72 -86 131.5 -143t79.5 -57 q25 0 86.5 64.5t126.5 162.5q10 14 27 14q10 0 18 -8t8 -16q0 -6 -8 -19q-63 -96 -137 -175t-123 -79q-35 0 -90 51.5t-127 130.5l-49 52q-12 12 -13 24z" />
<glyph unicode="&#x1fa;" horiz-adv-x="1292" d="M123 10l2 13q205 610 276 829l127 379q41 121 71 172t67 51q66 0 125 -203q37 -127 76.5 -257t80.5 -265l88 -285h64q12 0 19 -8t7 -20t-7 -20.5t-21 -8.5h-43l110 -364q4 -9 4 -17q0 -12 -12 -19t-24 -7q-16 0 -25 18l-119 389l-680 4l-127 -383q-4 -12 -10 -17t-18 -5 q-14 0 -22.5 7t-8.5 17zM330 453l641 -7q-160 530 -236 797q-18 68 -39.5 111t-33.5 43q-18 0 -72 -160zM477 1700q0 78 56.5 131t140.5 53q78 0 130 -56t52 -128q0 -84 -53 -137.5t-135 -53.5q-80 0 -135.5 55.5t-55.5 135.5zM532 1700q0 -57 39 -96t97 -39q57 0 96 38.5 t39 96.5q0 51 -39 91t-96 40q-60 0 -98 -40t-38 -91zM659 1956q0 20 19 41l88 108q31 37 51 37q25 0 25 -26q0 -23 -25 -48l-100 -110q-23 -23 -39 -23q-19 1 -19 21z" />
<glyph unicode="&#x1fb;" horiz-adv-x="1243" d="M102 483q0 127 49.5 247t153 198t256.5 78q127 0 210 -49.5t134 -149.5l21 149q4 20 9 28.5t21 8.5q18 0 29.5 -9t9.5 -21q-18 -94 -28 -228q-8 -94 -9 -254v-139q0 -117 6.5 -170t28 -75.5t68.5 -26.5q20 -2 29.5 -7.5t9.5 -23.5q0 -33 -31 -33q-82 0 -118 33t-52 121 q-47 -82 -134 -128t-212 -46q-176 0 -276.5 82t-137.5 194.5t-37 220.5zM166 483q0 -90 30.5 -188t114.5 -171t232 -73q145 0 246.5 75t103.5 218q2 104 2 240q0 139 -58.5 219t-135 109.5t-140.5 29.5q-139 0 -228 -77t-128 -183.5t-39 -198.5zM422 1290q0 78 56 131.5 t140 53.5q78 0 130 -56.5t52 -128.5q0 -84 -53 -137t-135 -53q-80 0 -135 55t-55 135zM477 1290q0 -57 39 -96t96 -39t96 39t39 96q0 51 -39 91t-96 40q-59 0 -97 -40t-38 -91zM528 1627q0 12 21 34l149 174q31 37 51 37q12 0 20.5 -8t8.5 -22q0 -10 -7 -19.5t-13.5 -15.5 t-8.5 -8l-162 -177q-20 -20 -36 -20q-9 0 -16 7t-7 18z" />
<glyph unicode="&#x1fc;" horiz-adv-x="1878" d="M125 37l18 39q254 545 471 940t340 397q6 2 23 2q272 10 399 10q90 0 240.5 -9t159.5 -9q20 0 20 -27q0 -16 -10 -25t-19 -9q-8 0 -150 7t-294 7q-195 0 -276 -6q8 -139 8 -316q0 -86 -4 -250l307 -6q201 -4 235 -6q10 0 18.5 -9t8.5 -24q0 -18 -13.5 -23t-37.5 -5 l-223 6q-111 6 -160 6h-137l-35 -565l-6 -90l137 -11q207 -18 328 -18q68 0 117.5 5t142.5 18h10q16 0 28.5 -8.5t12.5 -20.5q0 -20 -39 -33q-55 -16 -221 -16q-76 0 -219 8q-225 10 -340 10q-39 0 -63.5 2t-30 7t-5.5 18q0 27 13.5 33t58.5 6q12 96 27 315l-603 4 q-88 -180 -104 -217q-29 -61 -70 -143q-8 -18 -14 -23.5t-12 -5.5q-18 0 -30.5 11.5t-6.5 23.5zM393 453l576 -9q18 383 18 605q0 178 -10 305h-4q-143 -4 -580 -901zM1175 1586q0 12 21 34l149 174q31 37 51 37q12 0 20.5 -8t8.5 -22q0 -10 -7 -19.5t-13.5 -15.5t-8.5 -8 l-162 -177q-20 -20 -36 -20q-9 0 -16 7t-7 18z" />
<glyph unicode="&#x1fd;" horiz-adv-x="2009" d="M102 834q0 14 15 28q84 84 186.5 130t235.5 46q109 0 196.5 -44t144 -114.5t70.5 -146.5q49 133 171 224.5t302 91.5q137 0 248 -60.5t173.5 -159t62.5 -204.5q0 -47 -15.5 -62.5t-56.5 -17.5l-862 -23l-2 -39q-8 -227 111.5 -335.5t340.5 -108.5q129 0 218.5 58.5 t164.5 170.5q6 10 19 11q12 0 25.5 -9.5t13.5 -23.5q0 -10 -13 -29q-158 -238 -428 -237q-182 0 -303 66.5t-166 191.5q-27 -131 -145.5 -194.5t-280.5 -63.5q-217 0 -320.5 63t-103.5 197q0 324 418 331l391 9l2 22q4 92 -43 179t-135 142.5t-202 55.5q-133 0 -222.5 -48 t-160.5 -120q-6 -6 -17 -6q-12 0 -22.5 8t-10.5 21zM164 240q0 -102 88 -151.5t274 -49.5q172 0 279.5 74.5t107.5 251.5v157l-391 -8q-180 -2 -269 -72.5t-89 -201.5zM838 1169v7q0 12 14 28l177 215q18 23 28 30t25 7q14 0 23.5 -10t9.5 -25q0 -18 -33 -55l-178 -190 q-12 -12 -21.5 -18.5t-19.5 -6.5q-9 0 -16 5t-9 13zM973 580l870 26v21q0 90 -52 174t-148.5 136t-219.5 52q-118 0 -219.5 -56t-163 -149.5t-67.5 -203.5z" />
<glyph unicode="&#x1fe;" horiz-adv-x="1568" d="M102 10q0 10 17 31l149 176q-166 176 -166 481q0 215 81 385t229.5 265.5t345.5 95.5q119 0 228.5 -37t197.5 -104l133 155q10 12 19.5 20.5t19.5 8.5t19 -8.5t9 -20.5q0 -10 -16 -28l-139 -164q112 -103 174.5 -250.5t62.5 -325.5q0 -229 -100 -379.5t-259 -220.5 t-337 -70q-129 0 -248 38t-211 116l-137 -162q-12 -12 -20.5 -19t-18.5 -7t-21.5 7t-11.5 17zM166 707q0 -275 147 -437l832 983q-166 127 -381 127q-172 0 -308.5 -83t-213 -236.5t-76.5 -353.5zM356 229q88 -76 200 -110.5t220 -34.5q150 0 293 61.5t238.5 198.5t95.5 350 q0 160 -56.5 294t-158.5 229zM704 1586q0 12 21 34l149 174q31 37 51 37q12 0 20.5 -8t8.5 -22q0 -10 -7 -19.5t-13.5 -15.5t-8.5 -8l-162 -177q-20 -20 -36 -20q-9 0 -16 7t-7 18z" />
<glyph unicode="&#x1ff;" horiz-adv-x="1286" d="M102 16q0 14 11 27l125 145q-88 117 -88 316q0 162 59 285.5t173 194.5t275 71q156 0 271 -64l131 154q14 18 31 18q10 0 19 -9t9 -19t-10 -23l-129 -151q96 -68 150.5 -182.5t54.5 -266.5q0 -256 -144.5 -384t-373.5 -128q-111 0 -214.5 34t-177.5 107l-112 -131 q-8 -8 -13.5 -12t-15.5 -4q-8 0 -19.5 7t-11.5 15zM213 510q0 -164 72 -268l598 698q-102 51 -224 51q-133 0 -234 -59.5t-156.5 -169t-55.5 -252.5zM322 195q63 -70 153 -101t189 -31q122 0 225.5 49.5t167 151t63.5 250.5q0 131 -49 232.5t-137 162.5zM584 1176 q0 12 21 34l149 174q31 37 51 37q12 0 20.5 -8t8.5 -22q0 -10 -7 -19.5t-13.5 -15.5t-8.5 -8l-162 -177q-20 -20 -36 -20q-9 0 -16 7t-7 18z" />
<glyph unicode="&#x218;" horiz-adv-x="1032" d="M102 1065q0 113 57.5 200t154 134t208.5 47q131 0 220 -53.5t132.5 -140.5t43.5 -189q0 -12 -7.5 -21.5t-23.5 -9.5q-33 0 -33 31q0 141 -93 230t-239 89q-111 0 -191.5 -42t-122.5 -114.5t-42 -160.5q0 -98 50 -158.5t126 -94.5t205 -73q109 -33 187.5 -71.5t137 -117.5 t58.5 -204q0 -158 -107.5 -250t-279.5 -92q-140 0 -238 57.5t-148.5 153.5t-50.5 213q0 37 33 37q31 0 31 -33q0 -170 97.5 -267t275.5 -97q147 0 235 71.5t88 204.5q0 139 -92 216t-278 128q-111 29 -191 64.5t-141.5 112.5t-61.5 200zM403 -502q0 6 8 15q100 100 123 151 h-10q-33 0 -59.5 25.5t-26.5 60.5q0 37 26.5 61.5t61.5 24.5t60.5 -25.5t25.5 -60.5q0 -61 -43 -131t-121 -133q-16 -12 -22 -12q-8 0 -15.5 7t-7.5 17z" />
<glyph unicode="&#x219;" horiz-adv-x="999" d="M143 272q0 14 11.5 24.5t27.5 10.5q12 0 20.5 -9t24.5 -40q113 -199 308 -199q115 0 186.5 58.5t71.5 142.5q0 59 -38 99t-93.5 65t-149.5 57q-109 37 -176.5 69t-113.5 86t-46 138q0 72 35 136.5t106.5 106.5t178.5 42q152 0 249 -82t97 -211q0 -27 -7.5 -36t-23.5 -9 q-35 0 -35 37q0 123 -84 180t-198 57q-141 0 -196.5 -71.5t-55.5 -147.5q0 -61 38.5 -103t96 -70t153.5 -60q106 -39 171 -70t110 -83t45 -128q0 -72 -39 -132t-112.5 -97t-172.5 -37q-137 0 -221 65.5t-153 178.5q-14 23 -15 32zM393 -502q0 6 8 15q100 100 123 151h-10 q-33 0 -59.5 25.5t-26.5 60.5q0 37 26.5 61.5t61.5 24.5t60.5 -25.5t25.5 -60.5q0 -61 -43 -131t-121 -133q-16 -12 -22 -12q-8 0 -15.5 7t-7.5 17z" />
<glyph unicode="&#x21a;" horiz-adv-x="1058" d="M61 1366q0 29 25 31q215 25 485 24q221 0 394 -14q32 -2 32 -35q0 -12 -7 -22.5t-21 -8.5q-203 16 -396 17q-25 -414 -32 -680l-6 -199q-10 -250 -15 -440q0 -39 -35 -39q-37 0 -36 31q0 45 4 123.5t6 130.5q10 201 16 391q8 256 33 682q-127 -2 -205 -7t-213 -18h-4 q-10 0 -17.5 9.5t-7.5 23.5zM342 -502q0 6 8 15q100 100 123 151h-10q-33 0 -59.5 25.5t-26.5 60.5q0 37 26.5 61.5t61.5 24.5t60.5 -25.5t25.5 -60.5q0 -61 -43 -131t-121 -133q-16 -12 -22 -12q-8 0 -15.5 7t-7.5 17z" />
<glyph unicode="&#x21b;" horiz-adv-x="884" d="M102 891q0 16 9.5 24.5t21.5 6.5q119 -12 180 -15q18 193 54 430q2 18 10 26.5t22 8.5t23.5 -8t7.5 -27q-37 -256 -53 -434q66 -2 205 -2q35 0 34 -33q0 -29 -34 -28l-86 -2q-39 0 -125 4q-14 -178 -15 -291q0 -215 43 -351.5t150 -136.5q57 0 103 41t46 136 q0 20 6.5 31.5t24.5 11.5q19 0 26 -11.5t7 -42.5q0 -90 -59.5 -159.5t-155.5 -69.5q-254 0 -254 561q0 115 14 283q-117 8 -180 14q-14 2 -19.5 10.5t-5.5 22.5zM420 -502q0 6 8 15q100 100 123 151h-10q-33 0 -59.5 25.5t-26.5 60.5q0 37 26.5 61.5t61.5 24.5t60.5 -25.5 t25.5 -60.5q0 -61 -43 -131t-121 -133q-16 -12 -22 -12q-8 0 -15.5 7t-7.5 17z" />
<glyph unicode="&#x237;" horiz-adv-x="573" d="M-164 -211q0 29 6 39t23 10q35 0 35 -45q12 -215 182 -215q127 0 195.5 122t72.5 347l8 391q8 410 9 533q0 29 6 39t26 10q18 0 24.5 -10.5t6.5 -42.5q0 -197 -6 -455q-4 -152 -8 -465q-2 -174 -45 -293t-116 -178t-163 -59q-106 0 -181 75.5t-75 196.5z" />
<glyph unicode="&#x251;" horiz-adv-x="1243" d="M102 483q0 127 49.5 247t153 198t256.5 78q127 0 210 -49.5t134 -149.5l21 149q4 20 9 28.5t21 8.5q18 0 29.5 -9t9.5 -21q-18 -94 -28 -228q-8 -94 -9 -254v-139q0 -117 6.5 -170t28 -75.5t68.5 -26.5q20 -2 29.5 -7.5t9.5 -23.5q0 -33 -31 -33q-82 0 -118 33t-52 121 q-47 -82 -134 -128t-212 -46q-176 0 -276.5 82t-137.5 194.5t-37 220.5zM166 483q0 -90 30.5 -188t114.5 -171t232 -73q145 0 246.5 75t103.5 218q2 104 2 240q0 139 -58.5 219t-135 109.5t-140.5 29.5q-139 0 -228 -77t-128 -183.5t-39 -198.5z" />
<glyph unicode="&#x259;" horiz-adv-x="1189" d="M102 406q0 51 12.5 67t57.5 16l852 25q0 121 -54.5 223.5t-157.5 163t-241 60.5q-104 0 -176.5 -34t-113.5 -77t-93 -115q-6 -8 -18 -8q-14 0 -26.5 9t-12.5 24q0 10 12 26q68 102 163 170t267 68q168 0 284 -73.5t173 -192.5t57 -252q0 -139 -61 -260t-178 -196 t-277 -75q-137 0 -243.5 56.5t-166 154t-59.5 220.5zM162 401q0 -102 52 -184t144.5 -130t206.5 -48q139 0 243.5 66.5t160 164t55.5 183.5l-848 -27q-8 0 -11 -4t-3 -21z" />
<glyph unicode="&#x2bb;" horiz-adv-x="493" d="M131 1251q0 61 43 131t121 134q10 6 14 6q10 0 17.5 -8.5t7.5 -18.5q0 -6 -4 -10q-6 -6 -55.5 -53.5t-69.5 -94.5q37 2 68.5 -24.5t31.5 -61.5q0 -37 -26.5 -61.5t-61.5 -24.5t-60.5 26t-25.5 60z" />
<glyph unicode="&#x2bc;" horiz-adv-x="493" d="M152 1087q0 6 4 11q4 4 55 54t68 99q-4 -2 -15 -2q-33 0 -58.5 24.5t-25.5 59.5q0 37 26.5 61.5t61.5 24.5t60.5 -25.5t25.5 -60.5q0 -55 -42 -119.5t-122 -144.5q-6 -6 -14 -6q-10 0 -17 7t-7 17z" />
<glyph unicode="&#x2be;" d="M-131 1192q0 12 7 20.5t20 8.5q72 0 108.5 26.5t36.5 93.5q0 63 -44 94t-101 31q-27 0 -27 27q0 20 16 27q4 2 23 2q82 0 137 -49.5t55 -131.5q0 -84 -55 -132t-137 -48q-21 0 -27 4q-12 6 -12 27z" />
<glyph unicode="&#x2bf;" d="M-88 1341q0 82 55.5 131.5t136.5 49.5q18 0 23 -2q16 -6 16 -27q0 -27 -26 -27q-57 0 -101.5 -30.5t-44.5 -94.5q0 -68 37 -94t109 -26q12 0 19 -8.5t7 -20.5q0 -20 -12 -27q-6 -4 -27 -4q-81 0 -136.5 48t-55.5 132z" />
<glyph unicode="&#x2c6;" horiz-adv-x="1142" d="M254 1210q0 12 12 25q12 12 74.5 75.5t123 110.5t89.5 47q51 0 137 -84t144 -170q8 -12 8 -18q0 -8 -8.5 -16.5t-18.5 -8.5q-17 1 -27 15q-63 94 -134.5 160.5t-98.5 66.5q-23 0 -94.5 -60.5t-136.5 -140.5q-25 -31 -41 -30q-10 0 -19.5 9t-9.5 19z" />
<glyph unicode="&#x2c7;" horiz-adv-x="1142" d="M274 1446q0 12 10.5 21.5t22.5 9.5q16 0 41 -25l88 -88q66 -66 98.5 -91.5t61.5 -25.5q20 0 48 20.5t83 75.5q31 31 68 74l51 56q16 18 28 18q16 0 26.5 -11.5t10.5 -23.5t-8 -20l-31 -37q-61 -72 -94 -105q-66 -66 -106.5 -89t-81.5 -23q-35 4 -75 28.5t-116 94.5 q-66 61 -112 112q-12 16 -13 29z" />
<glyph unicode="&#x2c8;" d="M-41 1231l2 170q2 29 2 59q0 12 9.5 20.5t25.5 8.5t26.5 -8t10.5 -21q0 -35 -2 -63l-2 -166q0 -29 -37 -29q-35 0 -35 29z" />
<glyph unicode="&#x2c9;" horiz-adv-x="1007" d="M217 1292q0 33 21 33l108 -4q115 -4 180 -4l144 2q31 2 86 2q29 0 28 -33q0 -27 -32 -26h-224l-188 2q-41 2 -102 2q-21 -1 -21 26z" />
<glyph unicode="&#x2ca;" d="M-201 1184q0 10 11 16q14 10 104 86l66 55q117 96 165 146q6 6 17 6q10 0 20.5 -10t10.5 -23q0 -8 -9 -16l-180 -152q-51 -43 -79.5 -69.5t-45.5 -38.5q-10 -10 -18 -16.5t-15 -12.5q-8 -4 -12 -4q-14 0 -24.5 12.5t-10.5 20.5z" />
<glyph unicode="&#x2cb;" d="M-178 1460q0 12 9 22.5t22 10.5q10 0 16 -6q49 -49 166 -146l61 -49q86 -70 109 -92q10 -10 10 -22q0 -10 -9 -19.5t-22 -9.5q-8 0 -16 6l-47 41q-45 43 -111 96l-180 152q-8 8 -8 16z" />
<glyph unicode="&#x2cc;" d="M-41 -422l2 170q2 29 2 59q0 12 9.5 20.5t25.5 8.5t26.5 -8t10.5 -21q0 -35 -2 -63l-2 -166q0 -29 -37 -29q-35 0 -35 29z" />
<glyph unicode="&#x2d8;" horiz-adv-x="1069" d="M262 1386q0 10 6 17.5t17 7.5q35 0 34 -20q0 -80 70 -132.5t164 -52.5q55 0 105.5 27t81 68.5t30.5 82.5q0 16 12.5 24.5t24.5 8.5q10 0 18.5 -6t8.5 -18q0 -59 -39 -115.5t-103.5 -91.5t-138.5 -35q-86 0 -152.5 34t-102.5 88t-36 113z" />
<glyph unicode="&#x2d9;" horiz-adv-x="563" d="M186 1292q0 39 23.5 61.5t64.5 22.5t66 -22.5t25 -61.5t-25 -64.5t-66 -25.5q-38 0 -63 24.5t-25 65.5z" />
<glyph unicode="&#x2da;" horiz-adv-x="991" d="M305 1352q0 76 54.5 130t136.5 54q80 0 134 -56.5t54 -127.5q0 -84 -53 -137.5t-135 -53.5q-80 0 -135.5 55.5t-55.5 135.5zM360 1352q0 -57 39 -96t97 -39q57 0 96 38.5t39 96.5q0 51 -39 91t-96 40q-59 0 -97.5 -40t-38.5 -91z" />
<glyph unicode="&#x2db;" horiz-adv-x="690" d="M184 -309q0 59 54.5 103t136.5 63l-84 123q-4 6 -4 16q2 12 13 21.5t22 9.5q18 0 30 -17l115 -174q0 -12 -5 -17t-14.5 -7t-13.5 -5q-84 -12 -134 -41.5t-50 -78.5q0 -61 47 -90t117 -29q55 0 131 26q12 4 18 5q8 0 14.5 -10.5t6.5 -20.5q0 -16 -21 -27 q-29 -14 -67.5 -23.5t-73.5 -9.5q-98 0 -168 45.5t-70 137.5z" />
<glyph unicode="&#x2dc;" horiz-adv-x="802" d="M45 1247q31 47 84 70.5t119 23.5q49 0 84 -9t80 -25q55 -18 89 -26.5t83 -8.5q70 0 104 33q23 18 37 18q12 0 24.5 -9t12.5 -22q0 -6 -10 -20q-51 -70 -172 -70q-43 0 -83 9.5t-98 27.5q-100 35 -163 35q-68 0 -119 -51q-23 -23 -41 -23q-11 0 -21 6q-23 23 -10 41z" />
<glyph unicode="&#x2dd;" horiz-adv-x="909" d="M152 1219q0 16 24 47l205 237q25 29 36 38t25 9t28.5 -11t14.5 -28q0 -14 -7 -25t-25 -32l-224 -242q-16 -16 -26 -21t-23 -5q-12 0 -20 9t-8 24zM432 1219q0 16 25 47l205 237q25 31 35 39t22 8q16 0 30.5 -11t14.5 -30q0 -16 -6 -25t-27 -30l-221 -242 q-16 -18 -25.5 -23t-21.5 -5t-21.5 10t-9.5 25z" />
<glyph unicode="&#x300;" d="M-123 1391q0 14 8.5 22t20.5 8q20 0 51 -37l149 -174q20 -23 21 -34q0 -10 -7 -17.5t-16 -7.5q-16 0 -36 20l-162 177q-2 2 -11.5 11t-13.5 16t-4 16z" />
<glyph unicode="&#x301;" d="M-82 1176q0 12 21 34l149 174q31 37 51 37q12 0 20.5 -8t8.5 -22q0 -10 -7 -19.5t-13.5 -15.5t-8.5 -8l-162 -177q-20 -20 -36 -20q-9 0 -16 7t-7 18z" />
<glyph unicode="&#x302;" d="M-279 1210q0 12 13 25l49 51q72 80 127 131t90 51q49 0 123 -78.5t137 -175.5q8 -12 8 -18q0 -8 -8 -16.5t-18 -8.5q-17 1 -27 15q-66 98 -127 162.5t-86 64.5q-20 0 -79.5 -57.5t-131.5 -143.5q-25 -31 -41 -30q-10 0 -19.5 9t-9.5 19z" />
<glyph unicode="&#x303;" d="M-297 1208q0 10 10 21q43 53 75 75.5t81 22.5q86 0 164 -41q6 -4 33.5 -18.5t52 -22.5t43.5 -8q39 0 80 45q18 20 30 21q6 0 17.5 -11.5t11.5 -19.5q0 -12 -8 -21q-37 -37 -67.5 -53t-67.5 -16q-29 0 -59.5 13t-35.5 15q-37 20 -59 27q-12 4 -59 22.5t-76 18.5 q-20 0 -39.5 -14.5t-37 -33t-25.5 -26.5q-23 -23 -37 -22q-10 0 -17 6q-10 10 -10 20z" />
<glyph unicode="&#x304;" d="M-358 1223q0 27 22 30q35 8 132.5 18.5t240.5 10.5l268 -2q35 0 35 -31q0 -14 -7 -20t-26 -6h-53q-49 2 -252 2q-145 0 -232 -14.5t-98 -16.5h-6q-12 0 -18 6t-6 23z" />
<glyph unicode="&#x306;" d="M-291 1417q0 10 6 17.5t17 7.5q35 0 35 -21q0 -80 69.5 -132t163.5 -52q55 0 105.5 26.5t81 68.5t30.5 83q0 16 12.5 24.5t24.5 8.5q10 0 18.5 -6t8.5 -19q0 -59 -39 -115.5t-103.5 -91t-138.5 -34.5q-86 0 -152.5 33.5t-102.5 88t-36 113.5z" />
<glyph unicode="&#x307;" d="M-80 1282q0 33 21.5 53.5t56.5 20.5t56.5 -20.5t21.5 -53.5q0 -35 -21.5 -57.5t-56.5 -22.5t-56.5 22.5t-21.5 57.5z" />
<glyph unicode="&#x308;" d="M-299 1282q0 33 21.5 53.5t56.5 20.5t57.5 -20.5t22.5 -53.5q0 -35 -22.5 -57.5t-57.5 -22.5t-56.5 22.5t-21.5 57.5zM143 1282q0 33 21.5 53.5t56.5 20.5t56.5 -20.5t21.5 -53.5q0 -35 -21.5 -57.5t-56.5 -22.5t-56.5 22.5t-21.5 57.5z" />
<glyph unicode="&#x309;" d="M-225 1473q0 10 8 22q29 51 77 84t130 33q96 0 145 -38t49 -112q0 -39 -23.5 -69.5t-66.5 -63.5q-25 -18 -37 -31.5t-12 -25.5q-2 -31 -2 -76q0 -37 -35 -37q-12 0 -20 9.5t-8 21.5v78q0 25 16 43t55 53q37 29 56.5 51.5t19.5 48.5q0 45 -38 71t-103 26q-98 0 -154 -103 q-8 -16 -27 -16q-10 0 -20 9t-10 22z" />
<glyph unicode="&#x30a;" d="M-188 1290q0 78 56 131.5t140 53.5q78 0 130 -56.5t52 -128.5q0 -84 -53 -137t-135 -53q-80 0 -135 55t-55 135zM-133 1290q0 -57 39 -96t96 -39t96 39t39 96q0 51 -39 91t-96 40q-59 0 -97 -40t-38 -91z" />
</font>
</defs>
</svg>
